<?xml version="1.0" encoding="UTF-8" standalone="no"?>
<!DOCTYPE svg PUBLIC "-//W3C//DTD SVG 1.1//EN"
 "http://www.w3.org/Graphics/SVG/1.1/DTD/svg11.dtd">
<!-- Generated by graphviz version 9.0.0 (0)
 -->
<!-- Title: structs Pages: 1 -->
<svg width="1321pt" height="138pt"
 viewBox="0.00 0.00 1321.25 138.00" xmlns="http://www.w3.org/2000/svg" xmlns:xlink="http://www.w3.org/1999/xlink">
<g id="graph0" class="graph" transform="scale(1 1) rotate(0) translate(4 134)">
<title>structs</title>
<polygon fill="white" stroke="none" points="-4,4 -4,-134 1317.25,-134 1317.25,4 -4,4"/>
<!-- value0 -->
<g id="node1" class="node">
<title>value0</title>
<path fill="darkgreen" stroke="black" d="M487,-80.5C487,-80.5 600.75,-80.5 600.75,-80.5 606.75,-80.5 612.75,-86.5 612.75,-92.5 612.75,-92.5 612.75,-104.5 612.75,-104.5 612.75,-110.5 606.75,-116.5 600.75,-116.5 600.75,-116.5 487,-116.5 487,-116.5 481,-116.5 475,-110.5 475,-104.5 475,-104.5 475,-92.5 475,-92.5 475,-86.5 481,-80.5 487,-80.5"/>
<text text-anchor="middle" x="511.12" y="-94.2" font-family="Times,serif" font-size="14.00">value: 7</text>
<polyline fill="none" stroke="black" points="547.25,-81.25 547.25,-116.5"/>
<text text-anchor="middle" x="580" y="-94.2" font-family="Times,serif" font-size="14.00">type: 0</text>
</g>
<!-- value1 -->
<g id="node2" class="node">
<title>value1</title>
<path fill="darkgreen" stroke="black" d="M702.75,-67.5C702.75,-67.5 816.5,-67.5 816.5,-67.5 822.5,-67.5 828.5,-73.5 828.5,-79.5 828.5,-79.5 828.5,-91.5 828.5,-91.5 828.5,-97.5 822.5,-103.5 816.5,-103.5 816.5,-103.5 702.75,-103.5 702.75,-103.5 696.75,-103.5 690.75,-97.5 690.75,-91.5 690.75,-91.5 690.75,-79.5 690.75,-79.5 690.75,-73.5 696.75,-67.5 702.75,-67.5"/>
<text text-anchor="middle" x="726.88" y="-81.2" font-family="Times,serif" font-size="14.00">value: 7</text>
<polyline fill="none" stroke="black" points="763,-68.25 763,-103.5"/>
<text text-anchor="middle" x="795.75" y="-81.2" font-family="Times,serif" font-size="14.00">type: 0</text>
</g>
<!-- value0&#45;&gt;value1 -->
<g id="edge1" class="edge">
<title>value0&#45;&gt;value1</title>
<path fill="none" stroke="darkgreen" stroke-dasharray="5,2" d="M613.09,-94.35C634.01,-93.08 657.22,-91.67 678.84,-90.35"/>
<polygon fill="darkgreen" stroke="darkgreen" points="679.04,-93.85 688.81,-89.75 678.62,-86.86 679.04,-93.85"/>
<text text-anchor="middle" x="651.75" y="-96.45" font-family="Times,serif" font-size="14.00">CTOR</text>
</g>
<!-- value5 -->
<g id="node5" class="node">
<title>value5</title>
<path fill="red" stroke="black" d="M967.25,-93.5C967.25,-93.5 1081,-93.5 1081,-93.5 1087,-93.5 1093,-99.5 1093,-105.5 1093,-105.5 1093,-117.5 1093,-117.5 1093,-123.5 1087,-129.5 1081,-129.5 1081,-129.5 967.25,-129.5 967.25,-129.5 961.25,-129.5 955.25,-123.5 955.25,-117.5 955.25,-117.5 955.25,-105.5 955.25,-105.5 955.25,-99.5 961.25,-93.5 967.25,-93.5"/>
<text text-anchor="middle" x="991.38" y="-107.2" font-family="Times,serif" font-size="14.00">value: 7</text>
<polyline fill="none" stroke="black" points="1027.5,-94.25 1027.5,-129.5"/>
<text text-anchor="middle" x="1060.25" y="-107.2" font-family="Times,serif" font-size="14.00">type: 1</text>
</g>
<!-- value1&#45;&gt;value5 -->
<g id="edge3" class="edge">
<title>value1&#45;&gt;value5</title>
<path fill="none" stroke="darkgreen" stroke-dasharray="5,2" d="M828.91,-92.26C864.15,-95.75 907.33,-100.03 944.02,-103.66"/>
<polygon fill="darkgreen" stroke="darkgreen" points="943.38,-107.12 953.68,-104.62 944.07,-100.15 943.38,-107.12"/>
<text text-anchor="middle" x="889.62" y="-105.45" font-family="Times,serif" font-size="14.00">COPY CTOR</text>
</g>
<!-- value9 -->
<g id="node9" class="node">
<title>value9</title>
<path fill="red" stroke="black" d="M962.75,-38.5C962.75,-38.5 1085.5,-38.5 1085.5,-38.5 1091.5,-38.5 1097.5,-44.5 1097.5,-50.5 1097.5,-50.5 1097.5,-62.5 1097.5,-62.5 1097.5,-68.5 1091.5,-74.5 1085.5,-74.5 1085.5,-74.5 962.75,-74.5 962.75,-74.5 956.75,-74.5 950.75,-68.5 950.75,-62.5 950.75,-62.5 950.75,-50.5 950.75,-50.5 950.75,-44.5 956.75,-38.5 962.75,-38.5"/>
<text text-anchor="middle" x="991.38" y="-52.2" font-family="Times,serif" font-size="14.00">value: 14</text>
<polyline fill="none" stroke="black" points="1032,-39.25 1032,-74.5"/>
<text text-anchor="middle" x="1064.75" y="-52.2" font-family="Times,serif" font-size="14.00">type: 1</text>
</g>
<!-- value1&#45;&gt;value9 -->
<g id="edge8" class="edge">
<title>value1&#45;&gt;value9</title>
<path fill="none" stroke="darkgreen" stroke-dasharray="5,2" d="M828.56,-75.51C834.62,-74.71 840.67,-73.94 846.5,-73.25 876.61,-69.68 909.68,-66.38 938.98,-63.66"/>
<polygon fill="darkgreen" stroke="darkgreen" points="939.28,-67.15 948.92,-62.75 938.64,-60.18 939.28,-67.15"/>
<text text-anchor="middle" x="889.62" y="-76.45" font-family="Times,serif" font-size="14.00">COPY CTOR</text>
</g>
<!-- value2 -->
<g id="node3" class="node">
<title>value2</title>
<path fill="darkgreen" stroke="black" d="M12,-13.5C12,-13.5 125.75,-13.5 125.75,-13.5 131.75,-13.5 137.75,-19.5 137.75,-25.5 137.75,-25.5 137.75,-37.5 137.75,-37.5 137.75,-43.5 131.75,-49.5 125.75,-49.5 125.75,-49.5 12,-49.5 12,-49.5 6,-49.5 0,-43.5 0,-37.5 0,-37.5 0,-25.5 0,-25.5 0,-19.5 6,-13.5 12,-13.5"/>
<text text-anchor="middle" x="36.12" y="-27.2" font-family="Times,serif" font-size="14.00">value: 7</text>
<polyline fill="none" stroke="black" points="72.25,-14.25 72.25,-49.5"/>
<text text-anchor="middle" x="105" y="-27.2" font-family="Times,serif" font-size="14.00">type: 0</text>
</g>
<!-- value3 -->
<g id="node4" class="node">
<title>value3</title>
<path fill="darkgreen" stroke="black" d="M227,-13.5C227,-13.5 340.75,-13.5 340.75,-13.5 346.75,-13.5 352.75,-19.5 352.75,-25.5 352.75,-25.5 352.75,-37.5 352.75,-37.5 352.75,-43.5 346.75,-49.5 340.75,-49.5 340.75,-49.5 227,-49.5 227,-49.5 221,-49.5 215,-43.5 215,-37.5 215,-37.5 215,-25.5 215,-25.5 215,-19.5 221,-13.5 227,-13.5"/>
<text text-anchor="middle" x="251.12" y="-27.2" font-family="Times,serif" font-size="14.00">value: 7</text>
<polyline fill="none" stroke="black" points="287.25,-14.25 287.25,-49.5"/>
<text text-anchor="middle" x="320" y="-27.2" font-family="Times,serif" font-size="14.00">type: 0</text>
</g>
<!-- value2&#45;&gt;value3 -->
<g id="edge2" class="edge">
<title>value2&#45;&gt;value3</title>
<path fill="none" stroke="darkgreen" stroke-dasharray="5,2" d="M138.15,-31.5C158.88,-31.5 181.84,-31.5 203.25,-31.5"/>
<polygon fill="darkgreen" stroke="darkgreen" points="203.11,-35 213.11,-31.5 203.11,-28 203.11,-35"/>
<text text-anchor="middle" x="176.38" y="-35.45" font-family="Times,serif" font-size="14.00">CTOR</text>
</g>
<!-- value7 -->
<g id="node7" class="node">
<title>value7</title>
<path fill="red" stroke="black" d="M487,-13.5C487,-13.5 600.75,-13.5 600.75,-13.5 606.75,-13.5 612.75,-19.5 612.75,-25.5 612.75,-25.5 612.75,-37.5 612.75,-37.5 612.75,-43.5 606.75,-49.5 600.75,-49.5 600.75,-49.5 487,-49.5 487,-49.5 481,-49.5 475,-43.5 475,-37.5 475,-37.5 475,-25.5 475,-25.5 475,-19.5 481,-13.5 487,-13.5"/>
<text text-anchor="middle" x="511.12" y="-27.2" font-family="Times,serif" font-size="14.00">value: 7</text>
<polyline fill="none" stroke="black" points="547.25,-14.25 547.25,-49.5"/>
<text text-anchor="middle" x="580" y="-27.2" font-family="Times,serif" font-size="14.00">type: 1</text>
</g>
<!-- value3&#45;&gt;value7 -->
<g id="edge5" class="edge">
<title>value3&#45;&gt;value7</title>
<path fill="none" stroke="darkgreen" stroke-dasharray="5,2" d="M353,-31.5C386.95,-31.5 428.19,-31.5 463.56,-31.5"/>
<polygon fill="darkgreen" stroke="darkgreen" points="463.3,-35 473.3,-31.5 463.3,-28 463.3,-35"/>
<text text-anchor="middle" x="413.88" y="-35.45" font-family="Times,serif" font-size="14.00">COPY CTOR</text>
</g>
<!-- value4294967291 -->
<g id="node6" class="node">
<title>value4294967291</title>
<path fill="red" stroke="black" d="M1187.5,-93.5C1187.5,-93.5 1301.25,-93.5 1301.25,-93.5 1307.25,-93.5 1313.25,-99.5 1313.25,-105.5 1313.25,-105.5 1313.25,-117.5 1313.25,-117.5 1313.25,-123.5 1307.25,-129.5 1301.25,-129.5 1301.25,-129.5 1187.5,-129.5 1187.5,-129.5 1181.5,-129.5 1175.5,-123.5 1175.5,-117.5 1175.5,-117.5 1175.5,-105.5 1175.5,-105.5 1175.5,-99.5 1181.5,-93.5 1187.5,-93.5"/>
<text text-anchor="middle" x="1211.62" y="-107.2" font-family="Times,serif" font-size="14.00">value: 0</text>
<polyline fill="none" stroke="black" points="1247.75,-94.25 1247.75,-129.5"/>
<text text-anchor="middle" x="1280.5" y="-107.2" font-family="Times,serif" font-size="14.00">type: 1</text>
</g>
<!-- value5&#45;&gt;value4294967291 -->
<g id="edge4" class="edge">
<title>value5&#45;&gt;value4294967291</title>
<path fill="none" stroke="darkgreen" stroke-dasharray="5,2" d="M1093.28,-111.5C1115.75,-111.5 1140.92,-111.5 1164.14,-111.5"/>
<polygon fill="darkgreen" stroke="darkgreen" points="1163.85,-115 1173.85,-111.5 1163.85,-108 1163.85,-115"/>
<text text-anchor="middle" x="1136.5" y="-115.45" font-family="Times,serif" font-size="14.00">DTOR</text>
</g>
<!-- value7&#45;&gt;value1 -->
<g id="edge6" class="edge">
<title>value7&#45;&gt;value1</title>
<path fill="none" stroke="darkgreen" stroke-dasharray="5,2" d="M613.09,-48.73C634.21,-54.07 657.65,-59.99 679.44,-65.49"/>
<polygon fill="darkgreen" stroke="darkgreen" points="678.3,-68.82 688.85,-67.87 680.01,-62.03 678.3,-68.82"/>
<text text-anchor="middle" x="651.75" y="-66.45" font-family="Times,serif" font-size="14.00">+=</text>
</g>
<!-- value4294967289 -->
<g id="node8" class="node">
<title>value4294967289</title>
<path fill="red" stroke="black" d="M702.75,-0.5C702.75,-0.5 816.5,-0.5 816.5,-0.5 822.5,-0.5 828.5,-6.5 828.5,-12.5 828.5,-12.5 828.5,-24.5 828.5,-24.5 828.5,-30.5 822.5,-36.5 816.5,-36.5 816.5,-36.5 702.75,-36.5 702.75,-36.5 696.75,-36.5 690.75,-30.5 690.75,-24.5 690.75,-24.5 690.75,-12.5 690.75,-12.5 690.75,-6.5 696.75,-0.5 702.75,-0.5"/>
<text text-anchor="middle" x="726.88" y="-14.2" font-family="Times,serif" font-size="14.00">value: 0</text>
<polyline fill="none" stroke="black" points="763,-1.25 763,-36.5"/>
<text text-anchor="middle" x="795.75" y="-14.2" font-family="Times,serif" font-size="14.00">type: 1</text>
</g>
<!-- value7&#45;&gt;value4294967289 -->
<g id="edge7" class="edge">
<title>value7&#45;&gt;value4294967289</title>
<path fill="none" stroke="darkgreen" stroke-dasharray="5,2" d="M613.22,-20.9C619.14,-20.24 625.04,-19.67 630.75,-19.25 646.34,-18.1 663.03,-17.52 679.03,-17.29"/>
<polygon fill="darkgreen" stroke="darkgreen" points="679.05,-20.79 689.02,-17.2 678.99,-13.79 679.05,-20.79"/>
<text text-anchor="middle" x="651.75" y="-23.45" font-family="Times,serif" font-size="14.00">DTOR</text>
</g>
<!-- value4294967287 -->
<g id="node10" class="node">
<title>value4294967287</title>
<path fill="red" stroke="black" d="M1187.5,-38.5C1187.5,-38.5 1301.25,-38.5 1301.25,-38.5 1307.25,-38.5 1313.25,-44.5 1313.25,-50.5 1313.25,-50.5 1313.25,-62.5 1313.25,-62.5 1313.25,-68.5 1307.25,-74.5 1301.25,-74.5 1301.25,-74.5 1187.5,-74.5 1187.5,-74.5 1181.5,-74.5 1175.5,-68.5 1175.5,-62.5 1175.5,-62.5 1175.5,-50.5 1175.5,-50.5 1175.5,-44.5 1181.5,-38.5 1187.5,-38.5"/>
<text text-anchor="middle" x="1211.62" y="-52.2" font-family="Times,serif" font-size="14.00">value: 0</text>
<polyline fill="none" stroke="black" points="1247.75,-39.25 1247.75,-74.5"/>
<text text-anchor="middle" x="1280.5" y="-52.2" font-family="Times,serif" font-size="14.00">type: 1</text>
</g>
<!-- value9&#45;&gt;value4294967287 -->
<g id="edge9" class="edge">
<title>value9&#45;&gt;value4294967287</title>
<path fill="none" stroke="darkgreen" stroke-dasharray="5,2" d="M1097.8,-56.5C1118.93,-56.5 1142.11,-56.5 1163.65,-56.5"/>
<polygon fill="darkgreen" stroke="darkgreen" points="1163.57,-60 1173.57,-56.5 1163.57,-53 1163.57,-60"/>
<text text-anchor="middle" x="1136.5" y="-60.45" font-family="Times,serif" font-size="14.00">DTOR</text>
</g>
</g>
</svg>
