<?xml version="1.0" encoding="UTF-8" standalone="no"?>
<!DOCTYPE svg PUBLIC "-//W3C//DTD SVG 1.1//EN"
 "http://www.w3.org/Graphics/SVG/1.1/DTD/svg11.dtd">
<!-- Generated by graphviz version 9.0.0 (0)
 -->
<!-- Title: structs Pages: 1 -->
<svg width="1052pt" height="100pt"
 viewBox="0.00 0.00 1051.50 100.00" xmlns="http://www.w3.org/2000/svg" xmlns:xlink="http://www.w3.org/1999/xlink">
<g id="graph0" class="graph" transform="scale(1 1) rotate(0) translate(4 96)">
<title>structs</title>
<polygon fill="white" stroke="none" points="-4,4 -4,-96 1047.5,-96 1047.5,4 -4,4"/>
<!-- value0 -->
<g id="node1" class="node">
<title>value0</title>
<path fill="darkgreen" stroke="black" d="M12,-55.5C12,-55.5 125.75,-55.5 125.75,-55.5 131.75,-55.5 137.75,-61.5 137.75,-67.5 137.75,-67.5 137.75,-79.5 137.75,-79.5 137.75,-85.5 131.75,-91.5 125.75,-91.5 125.75,-91.5 12,-91.5 12,-91.5 6,-91.5 0,-85.5 0,-79.5 0,-79.5 0,-67.5 0,-67.5 0,-61.5 6,-55.5 12,-55.5"/>
<text text-anchor="middle" x="36.12" y="-69.2" font-family="Times,serif" font-size="14.00">value: 4</text>
<polyline fill="none" stroke="black" points="72.25,-56.25 72.25,-91.5"/>
<text text-anchor="middle" x="105" y="-69.2" font-family="Times,serif" font-size="14.00">type: 0</text>
</g>
<!-- value1 -->
<g id="node2" class="node">
<title>value1</title>
<path fill="darkgreen" stroke="black" d="M227,-55.5C227,-55.5 340.75,-55.5 340.75,-55.5 346.75,-55.5 352.75,-61.5 352.75,-67.5 352.75,-67.5 352.75,-79.5 352.75,-79.5 352.75,-85.5 346.75,-91.5 340.75,-91.5 340.75,-91.5 227,-91.5 227,-91.5 221,-91.5 215,-85.5 215,-79.5 215,-79.5 215,-67.5 215,-67.5 215,-61.5 221,-55.5 227,-55.5"/>
<text text-anchor="middle" x="251.12" y="-69.2" font-family="Times,serif" font-size="14.00">value: 4</text>
<polyline fill="none" stroke="black" points="287.25,-56.25 287.25,-91.5"/>
<text text-anchor="middle" x="320" y="-69.2" font-family="Times,serif" font-size="14.00">type: 0</text>
</g>
<!-- value0&#45;&gt;value1 -->
<g id="edge1" class="edge">
<title>value0&#45;&gt;value1</title>
<path fill="none" stroke="darkgreen" stroke-dasharray="5,2" d="M138.15,-73.5C158.88,-73.5 181.84,-73.5 203.25,-73.5"/>
<polygon fill="darkgreen" stroke="darkgreen" points="203.11,-77 213.11,-73.5 203.11,-70 203.11,-77"/>
<text text-anchor="middle" x="176.38" y="-77.45" font-family="Times,serif" font-size="14.00">CTOR</text>
</g>
<!-- value3 -->
<g id="node4" class="node">
<title>value3</title>
<path fill="darkgreen" stroke="black" d="M442,-20.5C442,-20.5 555.75,-20.5 555.75,-20.5 561.75,-20.5 567.75,-26.5 567.75,-32.5 567.75,-32.5 567.75,-44.5 567.75,-44.5 567.75,-50.5 561.75,-56.5 555.75,-56.5 555.75,-56.5 442,-56.5 442,-56.5 436,-56.5 430,-50.5 430,-44.5 430,-44.5 430,-32.5 430,-32.5 430,-26.5 436,-20.5 442,-20.5"/>
<text text-anchor="middle" x="466.12" y="-34.2" font-family="Times,serif" font-size="14.00">value: 7</text>
<polyline fill="none" stroke="black" points="502.25,-21.25 502.25,-56.5"/>
<text text-anchor="middle" x="535" y="-34.2" font-family="Times,serif" font-size="14.00">type: 0</text>
</g>
<!-- value1&#45;&gt;value3 -->
<g id="edge3" class="edge">
<title>value1&#45;&gt;value3</title>
<path fill="none" stroke="darkgreen" stroke-dasharray="5,2" d="M353.15,-62.28C373.98,-58.86 397.05,-55.07 418.55,-51.54"/>
<polygon fill="darkgreen" stroke="darkgreen" points="418.83,-55.04 428.13,-49.96 417.69,-48.13 418.83,-55.04"/>
<text text-anchor="middle" x="391.38" y="-63.45" font-family="Times,serif" font-size="14.00">&gt;</text>
</g>
<!-- value2 -->
<g id="node3" class="node">
<title>value2</title>
<path fill="darkgreen" stroke="black" d="M227,-0.5C227,-0.5 340.75,-0.5 340.75,-0.5 346.75,-0.5 352.75,-6.5 352.75,-12.5 352.75,-12.5 352.75,-24.5 352.75,-24.5 352.75,-30.5 346.75,-36.5 340.75,-36.5 340.75,-36.5 227,-36.5 227,-36.5 221,-36.5 215,-30.5 215,-24.5 215,-24.5 215,-12.5 215,-12.5 215,-6.5 221,-0.5 227,-0.5"/>
<text text-anchor="middle" x="251.12" y="-14.2" font-family="Times,serif" font-size="14.00">value: 7</text>
<polyline fill="none" stroke="black" points="287.25,-1.25 287.25,-36.5"/>
<text text-anchor="middle" x="320" y="-14.2" font-family="Times,serif" font-size="14.00">type: 0</text>
</g>
<!-- value2&#45;&gt;value3 -->
<g id="edge2" class="edge">
<title>value2&#45;&gt;value3</title>
<path fill="none" stroke="darkgreen" stroke-dasharray="5,2" d="M353.24,-21.65C372.29,-22.8 392.97,-24.32 412,-26.25 414.05,-26.46 416.12,-26.68 418.21,-26.91"/>
<polygon fill="darkgreen" stroke="darkgreen" points="417.66,-30.37 428,-28.06 418.47,-23.42 417.66,-30.37"/>
<text text-anchor="middle" x="391.38" y="-30.45" font-family="Times,serif" font-size="14.00">CTOR</text>
</g>
<!-- value5 -->
<g id="node5" class="node">
<title>value5</title>
<path fill="red" stroke="black" d="M702,-20.5C702,-20.5 815.75,-20.5 815.75,-20.5 821.75,-20.5 827.75,-26.5 827.75,-32.5 827.75,-32.5 827.75,-44.5 827.75,-44.5 827.75,-50.5 821.75,-56.5 815.75,-56.5 815.75,-56.5 702,-56.5 702,-56.5 696,-56.5 690,-50.5 690,-44.5 690,-44.5 690,-32.5 690,-32.5 690,-26.5 696,-20.5 702,-20.5"/>
<text text-anchor="middle" x="726.12" y="-34.2" font-family="Times,serif" font-size="14.00">value: 7</text>
<polyline fill="none" stroke="black" points="762.25,-21.25 762.25,-56.5"/>
<text text-anchor="middle" x="795" y="-34.2" font-family="Times,serif" font-size="14.00">type: 1</text>
</g>
<!-- value3&#45;&gt;value5 -->
<g id="edge4" class="edge">
<title>value3&#45;&gt;value5</title>
<path fill="none" stroke="darkgreen" stroke-dasharray="5,2" d="M568,-38.5C601.95,-38.5 643.19,-38.5 678.56,-38.5"/>
<polygon fill="darkgreen" stroke="darkgreen" points="678.3,-42 688.3,-38.5 678.3,-35 678.3,-42"/>
<text text-anchor="middle" x="628.88" y="-42.45" font-family="Times,serif" font-size="14.00">COPY CTOR</text>
</g>
<!-- value4294967291 -->
<g id="node6" class="node">
<title>value4294967291</title>
<path fill="red" stroke="black" d="M917.75,-20.5C917.75,-20.5 1031.5,-20.5 1031.5,-20.5 1037.5,-20.5 1043.5,-26.5 1043.5,-32.5 1043.5,-32.5 1043.5,-44.5 1043.5,-44.5 1043.5,-50.5 1037.5,-56.5 1031.5,-56.5 1031.5,-56.5 917.75,-56.5 917.75,-56.5 911.75,-56.5 905.75,-50.5 905.75,-44.5 905.75,-44.5 905.75,-32.5 905.75,-32.5 905.75,-26.5 911.75,-20.5 917.75,-20.5"/>
<text text-anchor="middle" x="941.88" y="-34.2" font-family="Times,serif" font-size="14.00">value: 0</text>
<polyline fill="none" stroke="black" points="978,-21.25 978,-56.5"/>
<text text-anchor="middle" x="1010.75" y="-34.2" font-family="Times,serif" font-size="14.00">type: 1</text>
</g>
<!-- value5&#45;&gt;value4294967291 -->
<g id="edge5" class="edge">
<title>value5&#45;&gt;value4294967291</title>
<path fill="none" stroke="darkgreen" stroke-dasharray="5,2" d="M828.09,-38.5C849.01,-38.5 872.22,-38.5 893.84,-38.5"/>
<polygon fill="darkgreen" stroke="darkgreen" points="893.81,-42 903.81,-38.5 893.81,-35 893.81,-42"/>
<text text-anchor="middle" x="866.75" y="-42.45" font-family="Times,serif" font-size="14.00">DTOR</text>
</g>
</g>
</svg>
