<?xml version="1.0" encoding="UTF-8" standalone="no"?>
<!DOCTYPE svg PUBLIC "-//W3C//DTD SVG 1.1//EN"
 "http://www.w3.org/Graphics/SVG/1.1/DTD/svg11.dtd">
<!-- Generated by graphviz version 9.0.0 (0)
 -->
<!-- Title: structs Pages: 1 -->
<svg width="1052pt" height="100pt"
 viewBox="0.00 0.00 1051.50 100.00" xmlns="http://www.w3.org/2000/svg" xmlns:xlink="http://www.w3.org/1999/xlink">
<g id="graph0" class="graph" transform="scale(1 1) rotate(0) translate(4 96)">
<title>structs</title>
<polygon fill="white" stroke="none" points="-4,4 -4,-96 1047.5,-96 1047.5,4 -4,4"/>
<!-- value0 -->
<g id="node1" class="node">
<title>value0</title>
<path fill="darkgreen" stroke="black" d="M227,-55.5C227,-55.5 340.75,-55.5 340.75,-55.5 346.75,-55.5 352.75,-61.5 352.75,-67.5 352.75,-67.5 352.75,-79.5 352.75,-79.5 352.75,-85.5 346.75,-91.5 340.75,-91.5 340.75,-91.5 227,-91.5 227,-91.5 221,-91.5 215,-85.5 215,-79.5 215,-79.5 215,-67.5 215,-67.5 215,-61.5 221,-55.5 227,-55.5"/>
<text text-anchor="middle" x="251.12" y="-69.2" font-family="Times,serif" font-size="14.00">value: 2</text>
<polyline fill="none" stroke="black" points="287.25,-56.25 287.25,-91.5"/>
<text text-anchor="middle" x="320" y="-69.2" font-family="Times,serif" font-size="14.00">type: 0</text>
</g>
<!-- value1 -->
<g id="node2" class="node">
<title>value1</title>
<path fill="darkgreen" stroke="black" d="M442,-28.5C442,-28.5 555.75,-28.5 555.75,-28.5 561.75,-28.5 567.75,-34.5 567.75,-40.5 567.75,-40.5 567.75,-52.5 567.75,-52.5 567.75,-58.5 561.75,-64.5 555.75,-64.5 555.75,-64.5 442,-64.5 442,-64.5 436,-64.5 430,-58.5 430,-52.5 430,-52.5 430,-40.5 430,-40.5 430,-34.5 436,-28.5 442,-28.5"/>
<text text-anchor="middle" x="466.12" y="-42.2" font-family="Times,serif" font-size="14.00">value: 2</text>
<polyline fill="none" stroke="black" points="502.25,-29.25 502.25,-64.5"/>
<text text-anchor="middle" x="535" y="-42.2" font-family="Times,serif" font-size="14.00">type: 0</text>
</g>
<!-- value0&#45;&gt;value1 -->
<g id="edge1" class="edge">
<title>value0&#45;&gt;value1</title>
<path fill="none" stroke="darkgreen" stroke-dasharray="5,2" d="M353.15,-64.85C373.88,-62.22 396.84,-59.31 418.25,-56.59"/>
<polygon fill="darkgreen" stroke="darkgreen" points="418.64,-60.07 428.12,-55.34 417.76,-53.13 418.64,-60.07"/>
<text text-anchor="middle" x="391.38" y="-65.45" font-family="Times,serif" font-size="14.00">CTOR</text>
</g>
<!-- value5 -->
<g id="node5" class="node">
<title>value5</title>
<path fill="red" stroke="black" d="M702,-28.5C702,-28.5 815.75,-28.5 815.75,-28.5 821.75,-28.5 827.75,-34.5 827.75,-40.5 827.75,-40.5 827.75,-52.5 827.75,-52.5 827.75,-58.5 821.75,-64.5 815.75,-64.5 815.75,-64.5 702,-64.5 702,-64.5 696,-64.5 690,-58.5 690,-52.5 690,-52.5 690,-40.5 690,-40.5 690,-34.5 696,-28.5 702,-28.5"/>
<text text-anchor="middle" x="726.12" y="-42.2" font-family="Times,serif" font-size="14.00">value: 3</text>
<polyline fill="none" stroke="black" points="762.25,-29.25 762.25,-64.5"/>
<text text-anchor="middle" x="795" y="-42.2" font-family="Times,serif" font-size="14.00">type: 1</text>
</g>
<!-- value1&#45;&gt;value5 -->
<g id="edge4" class="edge">
<title>value1&#45;&gt;value5</title>
<path fill="none" stroke="darkgreen" stroke-dasharray="5,2" d="M568,-46.5C601.95,-46.5 643.19,-46.5 678.56,-46.5"/>
<polygon fill="darkgreen" stroke="darkgreen" points="678.3,-50 688.3,-46.5 678.3,-43 678.3,-50"/>
<text text-anchor="middle" x="628.88" y="-50.45" font-family="Times,serif" font-size="14.00">COPY CTOR</text>
</g>
<!-- value2 -->
<g id="node3" class="node">
<title>value2</title>
<path fill="darkgreen" stroke="black" d="M12,-0.5C12,-0.5 125.75,-0.5 125.75,-0.5 131.75,-0.5 137.75,-6.5 137.75,-12.5 137.75,-12.5 137.75,-24.5 137.75,-24.5 137.75,-30.5 131.75,-36.5 125.75,-36.5 125.75,-36.5 12,-36.5 12,-36.5 6,-36.5 0,-30.5 0,-24.5 0,-24.5 0,-12.5 0,-12.5 0,-6.5 6,-0.5 12,-0.5"/>
<text text-anchor="middle" x="36.12" y="-14.2" font-family="Times,serif" font-size="14.00">value: 1</text>
<polyline fill="none" stroke="black" points="72.25,-1.25 72.25,-36.5"/>
<text text-anchor="middle" x="105" y="-14.2" font-family="Times,serif" font-size="14.00">type: 0</text>
</g>
<!-- value3 -->
<g id="node4" class="node">
<title>value3</title>
<path fill="darkgreen" stroke="black" d="M227,-0.5C227,-0.5 340.75,-0.5 340.75,-0.5 346.75,-0.5 352.75,-6.5 352.75,-12.5 352.75,-12.5 352.75,-24.5 352.75,-24.5 352.75,-30.5 346.75,-36.5 340.75,-36.5 340.75,-36.5 227,-36.5 227,-36.5 221,-36.5 215,-30.5 215,-24.5 215,-24.5 215,-12.5 215,-12.5 215,-6.5 221,-0.5 227,-0.5"/>
<text text-anchor="middle" x="251.12" y="-14.2" font-family="Times,serif" font-size="14.00">value: 1</text>
<polyline fill="none" stroke="black" points="287.25,-1.25 287.25,-36.5"/>
<text text-anchor="middle" x="320" y="-14.2" font-family="Times,serif" font-size="14.00">type: 0</text>
</g>
<!-- value2&#45;&gt;value3 -->
<g id="edge2" class="edge">
<title>value2&#45;&gt;value3</title>
<path fill="none" stroke="darkgreen" stroke-dasharray="5,2" d="M138.15,-18.5C158.88,-18.5 181.84,-18.5 203.25,-18.5"/>
<polygon fill="darkgreen" stroke="darkgreen" points="203.11,-22 213.11,-18.5 203.11,-15 203.11,-22"/>
<text text-anchor="middle" x="176.38" y="-22.45" font-family="Times,serif" font-size="14.00">CTOR</text>
</g>
<!-- value3&#45;&gt;value1 -->
<g id="edge3" class="edge">
<title>value3&#45;&gt;value1</title>
<path fill="none" stroke="darkgreen" stroke-dasharray="5,2" d="M353.15,-27.47C373.88,-30.2 396.84,-33.22 418.25,-36.03"/>
<polygon fill="darkgreen" stroke="darkgreen" points="417.75,-39.5 428.12,-37.33 418.66,-32.56 417.75,-39.5"/>
<text text-anchor="middle" x="391.38" y="-38.45" font-family="Times,serif" font-size="14.00">+=</text>
</g>
<!-- value4294967291 -->
<g id="node6" class="node">
<title>value4294967291</title>
<path fill="red" stroke="black" d="M917.75,-28.5C917.75,-28.5 1031.5,-28.5 1031.5,-28.5 1037.5,-28.5 1043.5,-34.5 1043.5,-40.5 1043.5,-40.5 1043.5,-52.5 1043.5,-52.5 1043.5,-58.5 1037.5,-64.5 1031.5,-64.5 1031.5,-64.5 917.75,-64.5 917.75,-64.5 911.75,-64.5 905.75,-58.5 905.75,-52.5 905.75,-52.5 905.75,-40.5 905.75,-40.5 905.75,-34.5 911.75,-28.5 917.75,-28.5"/>
<text text-anchor="middle" x="941.88" y="-42.2" font-family="Times,serif" font-size="14.00">value: 0</text>
<polyline fill="none" stroke="black" points="978,-29.25 978,-64.5"/>
<text text-anchor="middle" x="1010.75" y="-42.2" font-family="Times,serif" font-size="14.00">type: 1</text>
</g>
<!-- value5&#45;&gt;value4294967291 -->
<g id="edge5" class="edge">
<title>value5&#45;&gt;value4294967291</title>
<path fill="none" stroke="darkgreen" stroke-dasharray="5,2" d="M828.09,-46.5C849.01,-46.5 872.22,-46.5 893.84,-46.5"/>
<polygon fill="darkgreen" stroke="darkgreen" points="893.81,-50 903.81,-46.5 893.81,-43 893.81,-50"/>
<text text-anchor="middle" x="866.75" y="-50.45" font-family="Times,serif" font-size="14.00">DTOR</text>
</g>
</g>
</svg>
