<?xml version="1.0" encoding="UTF-8" standalone="no"?>
<!DOCTYPE svg PUBLIC "-//W3C//DTD SVG 1.1//EN"
 "http://www.w3.org/Graphics/SVG/1.1/DTD/svg11.dtd">
<!-- Generated by graphviz version 9.0.0 (0)
 -->
<!-- Title: structs Pages: 1 -->
<svg width="1052pt" height="155pt"
 viewBox="0.00 0.00 1051.50 155.00" xmlns="http://www.w3.org/2000/svg" xmlns:xlink="http://www.w3.org/1999/xlink">
<g id="graph0" class="graph" transform="scale(1 1) rotate(0) translate(4 151)">
<title>structs</title>
<polygon fill="white" stroke="none" points="-4,4 -4,-151 1047.5,-151 1047.5,4 -4,4"/>
<!-- value0 -->
<g id="node1" class="node">
<title>value0</title>
<path fill="darkgreen" stroke="black" d="M227,-110.5C227,-110.5 340.75,-110.5 340.75,-110.5 346.75,-110.5 352.75,-116.5 352.75,-122.5 352.75,-122.5 352.75,-134.5 352.75,-134.5 352.75,-140.5 346.75,-146.5 340.75,-146.5 340.75,-146.5 227,-146.5 227,-146.5 221,-146.5 215,-140.5 215,-134.5 215,-134.5 215,-122.5 215,-122.5 215,-116.5 221,-110.5 227,-110.5"/>
<text text-anchor="middle" x="251.12" y="-124.2" font-family="Times,serif" font-size="14.00">value: 2</text>
<polyline fill="none" stroke="black" points="287.25,-111.25 287.25,-146.5"/>
<text text-anchor="middle" x="320" y="-124.2" font-family="Times,serif" font-size="14.00">type: 0</text>
</g>
<!-- value1 -->
<g id="node2" class="node">
<title>value1</title>
<path fill="darkgreen" stroke="black" d="M442,-55.5C442,-55.5 555.75,-55.5 555.75,-55.5 561.75,-55.5 567.75,-61.5 567.75,-67.5 567.75,-67.5 567.75,-79.5 567.75,-79.5 567.75,-85.5 561.75,-91.5 555.75,-91.5 555.75,-91.5 442,-91.5 442,-91.5 436,-91.5 430,-85.5 430,-79.5 430,-79.5 430,-67.5 430,-67.5 430,-61.5 436,-55.5 442,-55.5"/>
<text text-anchor="middle" x="466.12" y="-69.2" font-family="Times,serif" font-size="14.00">value: 2</text>
<polyline fill="none" stroke="black" points="502.25,-56.25 502.25,-91.5"/>
<text text-anchor="middle" x="535" y="-69.2" font-family="Times,serif" font-size="14.00">type: 0</text>
</g>
<!-- value0&#45;&gt;value1 -->
<g id="edge1" class="edge">
<title>value0&#45;&gt;value1</title>
<path fill="none" stroke="darkgreen" stroke-dasharray="5,2" d="M353.15,-110.87C373.98,-105.49 397.05,-99.53 418.55,-93.98"/>
<polygon fill="darkgreen" stroke="darkgreen" points="419.35,-97.39 428.16,-91.5 417.6,-90.61 419.35,-97.39"/>
<text text-anchor="middle" x="391.38" y="-109.45" font-family="Times,serif" font-size="14.00">CTOR</text>
</g>
<!-- value7 -->
<g id="node7" class="node">
<title>value7</title>
<path fill="red" stroke="black" d="M702,-55.5C702,-55.5 815.75,-55.5 815.75,-55.5 821.75,-55.5 827.75,-61.5 827.75,-67.5 827.75,-67.5 827.75,-79.5 827.75,-79.5 827.75,-85.5 821.75,-91.5 815.75,-91.5 815.75,-91.5 702,-91.5 702,-91.5 696,-91.5 690,-85.5 690,-79.5 690,-79.5 690,-67.5 690,-67.5 690,-61.5 696,-55.5 702,-55.5"/>
<text text-anchor="middle" x="726.12" y="-69.2" font-family="Times,serif" font-size="14.00">value: 8</text>
<polyline fill="none" stroke="black" points="762.25,-56.25 762.25,-91.5"/>
<text text-anchor="middle" x="795" y="-69.2" font-family="Times,serif" font-size="14.00">type: 1</text>
</g>
<!-- value1&#45;&gt;value7 -->
<g id="edge6" class="edge">
<title>value1&#45;&gt;value7</title>
<path fill="none" stroke="darkgreen" stroke-dasharray="5,2" d="M568,-73.5C601.95,-73.5 643.19,-73.5 678.56,-73.5"/>
<polygon fill="darkgreen" stroke="darkgreen" points="678.3,-77 688.3,-73.5 678.3,-70 678.3,-77"/>
<text text-anchor="middle" x="628.88" y="-77.45" font-family="Times,serif" font-size="14.00">COPY CTOR</text>
</g>
<!-- value2 -->
<g id="node3" class="node">
<title>value2</title>
<path fill="darkgreen" stroke="black" d="M12,-55.5C12,-55.5 125.75,-55.5 125.75,-55.5 131.75,-55.5 137.75,-61.5 137.75,-67.5 137.75,-67.5 137.75,-79.5 137.75,-79.5 137.75,-85.5 131.75,-91.5 125.75,-91.5 125.75,-91.5 12,-91.5 12,-91.5 6,-91.5 0,-85.5 0,-79.5 0,-79.5 0,-67.5 0,-67.5 0,-61.5 6,-55.5 12,-55.5"/>
<text text-anchor="middle" x="36.12" y="-69.2" font-family="Times,serif" font-size="14.00">value: 3</text>
<polyline fill="none" stroke="black" points="72.25,-56.25 72.25,-91.5"/>
<text text-anchor="middle" x="105" y="-69.2" font-family="Times,serif" font-size="14.00">type: 0</text>
</g>
<!-- value3 -->
<g id="node4" class="node">
<title>value3</title>
<path fill="darkgreen" stroke="black" d="M227,-55.5C227,-55.5 340.75,-55.5 340.75,-55.5 346.75,-55.5 352.75,-61.5 352.75,-67.5 352.75,-67.5 352.75,-79.5 352.75,-79.5 352.75,-85.5 346.75,-91.5 340.75,-91.5 340.75,-91.5 227,-91.5 227,-91.5 221,-91.5 215,-85.5 215,-79.5 215,-79.5 215,-67.5 215,-67.5 215,-61.5 221,-55.5 227,-55.5"/>
<text text-anchor="middle" x="251.12" y="-69.2" font-family="Times,serif" font-size="14.00">value: 3</text>
<polyline fill="none" stroke="black" points="287.25,-56.25 287.25,-91.5"/>
<text text-anchor="middle" x="320" y="-69.2" font-family="Times,serif" font-size="14.00">type: 0</text>
</g>
<!-- value2&#45;&gt;value3 -->
<g id="edge2" class="edge">
<title>value2&#45;&gt;value3</title>
<path fill="none" stroke="darkgreen" stroke-dasharray="5,2" d="M138.15,-73.5C158.88,-73.5 181.84,-73.5 203.25,-73.5"/>
<polygon fill="darkgreen" stroke="darkgreen" points="203.11,-77 213.11,-73.5 203.11,-70 203.11,-77"/>
<text text-anchor="middle" x="176.38" y="-77.45" font-family="Times,serif" font-size="14.00">CTOR</text>
</g>
<!-- value3&#45;&gt;value1 -->
<g id="edge4" class="edge">
<title>value3&#45;&gt;value1</title>
<path fill="none" stroke="darkgreen" stroke-dasharray="5,2" d="M353.15,-73.5C373.88,-73.5 396.84,-73.5 418.25,-73.5"/>
<polygon fill="darkgreen" stroke="darkgreen" points="418.11,-77 428.11,-73.5 418.11,-70 418.11,-77"/>
<text text-anchor="middle" x="391.38" y="-77.45" font-family="Times,serif" font-size="14.00">+=</text>
</g>
<!-- value4 -->
<g id="node5" class="node">
<title>value4</title>
<path fill="darkgreen" stroke="black" d="M12,-0.5C12,-0.5 125.75,-0.5 125.75,-0.5 131.75,-0.5 137.75,-6.5 137.75,-12.5 137.75,-12.5 137.75,-24.5 137.75,-24.5 137.75,-30.5 131.75,-36.5 125.75,-36.5 125.75,-36.5 12,-36.5 12,-36.5 6,-36.5 0,-30.5 0,-24.5 0,-24.5 0,-12.5 0,-12.5 0,-6.5 6,-0.5 12,-0.5"/>
<text text-anchor="middle" x="36.12" y="-14.2" font-family="Times,serif" font-size="14.00">value: 3</text>
<polyline fill="none" stroke="black" points="72.25,-1.25 72.25,-36.5"/>
<text text-anchor="middle" x="105" y="-14.2" font-family="Times,serif" font-size="14.00">type: 0</text>
</g>
<!-- value5 -->
<g id="node6" class="node">
<title>value5</title>
<path fill="darkgreen" stroke="black" d="M227,-0.5C227,-0.5 340.75,-0.5 340.75,-0.5 346.75,-0.5 352.75,-6.5 352.75,-12.5 352.75,-12.5 352.75,-24.5 352.75,-24.5 352.75,-30.5 346.75,-36.5 340.75,-36.5 340.75,-36.5 227,-36.5 227,-36.5 221,-36.5 215,-30.5 215,-24.5 215,-24.5 215,-12.5 215,-12.5 215,-6.5 221,-0.5 227,-0.5"/>
<text text-anchor="middle" x="251.12" y="-14.2" font-family="Times,serif" font-size="14.00">value: 3</text>
<polyline fill="none" stroke="black" points="287.25,-1.25 287.25,-36.5"/>
<text text-anchor="middle" x="320" y="-14.2" font-family="Times,serif" font-size="14.00">type: 0</text>
</g>
<!-- value4&#45;&gt;value5 -->
<g id="edge3" class="edge">
<title>value4&#45;&gt;value5</title>
<path fill="none" stroke="darkgreen" stroke-dasharray="5,2" d="M138.15,-18.5C158.88,-18.5 181.84,-18.5 203.25,-18.5"/>
<polygon fill="darkgreen" stroke="darkgreen" points="203.11,-22 213.11,-18.5 203.11,-15 203.11,-22"/>
<text text-anchor="middle" x="176.38" y="-22.45" font-family="Times,serif" font-size="14.00">CTOR</text>
</g>
<!-- value5&#45;&gt;value1 -->
<g id="edge5" class="edge">
<title>value5&#45;&gt;value1</title>
<path fill="none" stroke="darkgreen" stroke-dasharray="5,2" d="M353.15,-36.13C373.98,-41.51 397.05,-47.47 418.55,-53.02"/>
<polygon fill="darkgreen" stroke="darkgreen" points="417.6,-56.39 428.16,-55.5 419.35,-49.61 417.6,-56.39"/>
<text text-anchor="middle" x="391.38" y="-54.45" font-family="Times,serif" font-size="14.00">+=</text>
</g>
<!-- value4294967289 -->
<g id="node8" class="node">
<title>value4294967289</title>
<path fill="red" stroke="black" d="M917.75,-55.5C917.75,-55.5 1031.5,-55.5 1031.5,-55.5 1037.5,-55.5 1043.5,-61.5 1043.5,-67.5 1043.5,-67.5 1043.5,-79.5 1043.5,-79.5 1043.5,-85.5 1037.5,-91.5 1031.5,-91.5 1031.5,-91.5 917.75,-91.5 917.75,-91.5 911.75,-91.5 905.75,-85.5 905.75,-79.5 905.75,-79.5 905.75,-67.5 905.75,-67.5 905.75,-61.5 911.75,-55.5 917.75,-55.5"/>
<text text-anchor="middle" x="941.88" y="-69.2" font-family="Times,serif" font-size="14.00">value: 0</text>
<polyline fill="none" stroke="black" points="978,-56.25 978,-91.5"/>
<text text-anchor="middle" x="1010.75" y="-69.2" font-family="Times,serif" font-size="14.00">type: 1</text>
</g>
<!-- value7&#45;&gt;value4294967289 -->
<g id="edge7" class="edge">
<title>value7&#45;&gt;value4294967289</title>
<path fill="none" stroke="darkgreen" stroke-dasharray="5,2" d="M828.09,-73.5C849.01,-73.5 872.22,-73.5 893.84,-73.5"/>
<polygon fill="darkgreen" stroke="darkgreen" points="893.81,-77 903.81,-73.5 893.81,-70 893.81,-77"/>
<text text-anchor="middle" x="866.75" y="-77.45" font-family="Times,serif" font-size="14.00">DTOR</text>
</g>
</g>
</svg>
