<?xml version="1.0" encoding="UTF-8" standalone="no"?>
<!DOCTYPE svg PUBLIC "-//W3C//DTD SVG 1.1//EN"
 "http://www.w3.org/Graphics/SVG/1.1/DTD/svg11.dtd">
<!-- Generated by graphviz version 9.0.0 (0)
 -->
<!-- Title: structs Pages: 1 -->
<svg width="1232pt" height="128pt"
 viewBox="0.00 0.00 1231.50 128.00" xmlns="http://www.w3.org/2000/svg" xmlns:xlink="http://www.w3.org/1999/xlink">
<g id="graph0" class="graph" transform="scale(1 1) rotate(0) translate(4 124)">
<title>structs</title>
<polygon fill="white" stroke="none" points="-4,4 -4,-124 1227.5,-124 1227.5,4 -4,4"/>
<!-- value0 -->
<g id="node1" class="node">
<title>value0</title>
<path fill="darkgreen" stroke="black" d="M12,-83.5C12,-83.5 125.75,-83.5 125.75,-83.5 131.75,-83.5 137.75,-89.5 137.75,-95.5 137.75,-95.5 137.75,-107.5 137.75,-107.5 137.75,-113.5 131.75,-119.5 125.75,-119.5 125.75,-119.5 12,-119.5 12,-119.5 6,-119.5 0,-113.5 0,-107.5 0,-107.5 0,-95.5 0,-95.5 0,-89.5 6,-83.5 12,-83.5"/>
<text text-anchor="middle" x="36.12" y="-97.2" font-family="Times,serif" font-size="14.00">value: 0</text>
<polyline fill="none" stroke="black" points="72.25,-84.25 72.25,-119.5"/>
<text text-anchor="middle" x="105" y="-97.2" font-family="Times,serif" font-size="14.00">type: 0</text>
</g>
<!-- value1 -->
<g id="node2" class="node">
<title>value1</title>
<path fill="darkgreen" stroke="black" d="M227,-83.5C227,-83.5 340.75,-83.5 340.75,-83.5 346.75,-83.5 352.75,-89.5 352.75,-95.5 352.75,-95.5 352.75,-107.5 352.75,-107.5 352.75,-113.5 346.75,-119.5 340.75,-119.5 340.75,-119.5 227,-119.5 227,-119.5 221,-119.5 215,-113.5 215,-107.5 215,-107.5 215,-95.5 215,-95.5 215,-89.5 221,-83.5 227,-83.5"/>
<text text-anchor="middle" x="251.12" y="-97.2" font-family="Times,serif" font-size="14.00">value: 0</text>
<polyline fill="none" stroke="black" points="287.25,-84.25 287.25,-119.5"/>
<text text-anchor="middle" x="320" y="-97.2" font-family="Times,serif" font-size="14.00">type: 0</text>
</g>
<!-- value0&#45;&gt;value1 -->
<g id="edge1" class="edge">
<title>value0&#45;&gt;value1</title>
<path fill="none" stroke="darkgreen" stroke-dasharray="5,2" d="M138.15,-101.5C158.88,-101.5 181.84,-101.5 203.25,-101.5"/>
<polygon fill="darkgreen" stroke="darkgreen" points="203.11,-105 213.11,-101.5 203.11,-98 203.11,-105"/>
<text text-anchor="middle" x="176.38" y="-105.45" font-family="Times,serif" font-size="14.00">CTOR</text>
</g>
<!-- oper0 -->
<g id="node7" class="node">
<title>oper0</title>
<path fill="blue" stroke="black" d="M443.62,-59.5C443.62,-59.5 473.62,-59.5 473.62,-59.5 479.62,-59.5 485.62,-65.5 485.62,-71.5 485.62,-71.5 485.62,-83.5 485.62,-83.5 485.62,-89.5 479.62,-95.5 473.62,-95.5 473.62,-95.5 443.62,-95.5 443.62,-95.5 437.62,-95.5 431.62,-89.5 431.62,-83.5 431.62,-83.5 431.62,-71.5 431.62,-71.5 431.62,-65.5 437.62,-59.5 443.62,-59.5"/>
<text text-anchor="middle" x="458.62" y="-73.2" font-family="Times,serif" font-size="14.00">+</text>
</g>
<!-- value1&#45;&gt;oper0 -->
<g id="edge4" class="edge">
<title>value1&#45;&gt;oper0</title>
<path fill="none" stroke="blue" stroke-dasharray="5,2" d="M353.15,-92.01C375.91,-88.85 400.42,-85.45 419.97,-82.73"/>
<polygon fill="blue" stroke="blue" points="420.24,-86.23 429.66,-81.39 419.27,-79.29 420.24,-86.23"/>
</g>
<!-- value2 -->
<g id="node3" class="node">
<title>value2</title>
<path fill="darkgreen" stroke="black" d="M12,-28.5C12,-28.5 125.75,-28.5 125.75,-28.5 131.75,-28.5 137.75,-34.5 137.75,-40.5 137.75,-40.5 137.75,-52.5 137.75,-52.5 137.75,-58.5 131.75,-64.5 125.75,-64.5 125.75,-64.5 12,-64.5 12,-64.5 6,-64.5 0,-58.5 0,-52.5 0,-52.5 0,-40.5 0,-40.5 0,-34.5 6,-28.5 12,-28.5"/>
<text text-anchor="middle" x="36.12" y="-42.2" font-family="Times,serif" font-size="14.00">value: 5</text>
<polyline fill="none" stroke="black" points="72.25,-29.25 72.25,-64.5"/>
<text text-anchor="middle" x="105" y="-42.2" font-family="Times,serif" font-size="14.00">type: 0</text>
</g>
<!-- value3 -->
<g id="node4" class="node">
<title>value3</title>
<path fill="darkgreen" stroke="black" d="M227,-28.5C227,-28.5 340.75,-28.5 340.75,-28.5 346.75,-28.5 352.75,-34.5 352.75,-40.5 352.75,-40.5 352.75,-52.5 352.75,-52.5 352.75,-58.5 346.75,-64.5 340.75,-64.5 340.75,-64.5 227,-64.5 227,-64.5 221,-64.5 215,-58.5 215,-52.5 215,-52.5 215,-40.5 215,-40.5 215,-34.5 221,-28.5 227,-28.5"/>
<text text-anchor="middle" x="251.12" y="-42.2" font-family="Times,serif" font-size="14.00">value: 5</text>
<polyline fill="none" stroke="black" points="287.25,-29.25 287.25,-64.5"/>
<text text-anchor="middle" x="320" y="-42.2" font-family="Times,serif" font-size="14.00">type: 0</text>
</g>
<!-- value2&#45;&gt;value3 -->
<g id="edge2" class="edge">
<title>value2&#45;&gt;value3</title>
<path fill="none" stroke="darkgreen" stroke-dasharray="5,2" d="M138.15,-46.5C158.88,-46.5 181.84,-46.5 203.25,-46.5"/>
<polygon fill="darkgreen" stroke="darkgreen" points="203.11,-50 213.11,-46.5 203.11,-43 203.11,-50"/>
<text text-anchor="middle" x="176.38" y="-50.45" font-family="Times,serif" font-size="14.00">CTOR</text>
</g>
<!-- value3&#45;&gt;oper0 -->
<g id="edge5" class="edge">
<title>value3&#45;&gt;oper0</title>
<path fill="none" stroke="blue" stroke-dasharray="5,2" d="M353.15,-58.75C375.91,-62.84 400.42,-67.23 419.97,-70.74"/>
<polygon fill="blue" stroke="blue" points="419.21,-74.16 429.67,-72.48 420.44,-67.27 419.21,-74.16"/>
</g>
<!-- value4 -->
<g id="node5" class="node">
<title>value4</title>
<path fill="darkgreen" stroke="black" d="M401.75,-4.5C401.75,-4.5 515.5,-4.5 515.5,-4.5 521.5,-4.5 527.5,-10.5 527.5,-16.5 527.5,-16.5 527.5,-28.5 527.5,-28.5 527.5,-34.5 521.5,-40.5 515.5,-40.5 515.5,-40.5 401.75,-40.5 401.75,-40.5 395.75,-40.5 389.75,-34.5 389.75,-28.5 389.75,-28.5 389.75,-16.5 389.75,-16.5 389.75,-10.5 395.75,-4.5 401.75,-4.5"/>
<text text-anchor="middle" x="425.88" y="-18.2" font-family="Times,serif" font-size="14.00">value: 5</text>
<polyline fill="none" stroke="black" points="462,-5.25 462,-40.5"/>
<text text-anchor="middle" x="494.75" y="-18.2" font-family="Times,serif" font-size="14.00">type: 0</text>
</g>
<!-- value5 -->
<g id="node6" class="node">
<title>value5</title>
<path fill="darkgreen" stroke="black" d="M616.75,-20.5C616.75,-20.5 730.5,-20.5 730.5,-20.5 736.5,-20.5 742.5,-26.5 742.5,-32.5 742.5,-32.5 742.5,-44.5 742.5,-44.5 742.5,-50.5 736.5,-56.5 730.5,-56.5 730.5,-56.5 616.75,-56.5 616.75,-56.5 610.75,-56.5 604.75,-50.5 604.75,-44.5 604.75,-44.5 604.75,-32.5 604.75,-32.5 604.75,-26.5 610.75,-20.5 616.75,-20.5"/>
<text text-anchor="middle" x="640.88" y="-34.2" font-family="Times,serif" font-size="14.00">value: 5</text>
<polyline fill="none" stroke="black" points="677,-21.25 677,-56.5"/>
<text text-anchor="middle" x="709.75" y="-34.2" font-family="Times,serif" font-size="14.00">type: 0</text>
</g>
<!-- value4&#45;&gt;value5 -->
<g id="edge3" class="edge">
<title>value4&#45;&gt;value5</title>
<path fill="none" stroke="darkgreen" stroke-dasharray="5,2" d="M527.9,-27.63C548.63,-29.19 571.59,-30.91 593,-32.52"/>
<polygon fill="darkgreen" stroke="darkgreen" points="592.63,-36 602.86,-33.26 593.15,-29.02 592.63,-36"/>
<text text-anchor="middle" x="566.12" y="-35.45" font-family="Times,serif" font-size="14.00">CTOR</text>
</g>
<!-- value7 -->
<g id="node8" class="node">
<title>value7</title>
<path fill="blue" stroke="black" d="M882,-55.5C882,-55.5 995.75,-55.5 995.75,-55.5 1001.75,-55.5 1007.75,-61.5 1007.75,-67.5 1007.75,-67.5 1007.75,-79.5 1007.75,-79.5 1007.75,-85.5 1001.75,-91.5 995.75,-91.5 995.75,-91.5 882,-91.5 882,-91.5 876,-91.5 870,-85.5 870,-79.5 870,-79.5 870,-67.5 870,-67.5 870,-61.5 876,-55.5 882,-55.5"/>
<text text-anchor="middle" x="906.12" y="-69.2" font-family="Times,serif" font-size="14.00">value: 5</text>
<polyline fill="none" stroke="black" points="942.25,-56.25 942.25,-91.5"/>
<text text-anchor="middle" x="975" y="-69.2" font-family="Times,serif" font-size="14.00">type: 2</text>
</g>
<!-- value5&#45;&gt;value7 -->
<g id="edge7" class="edge">
<title>value5&#45;&gt;value7</title>
<path fill="none" stroke="darkgreen" stroke-dasharray="5,2" d="M742.76,-47.56C778.1,-52.26 821.48,-58.02 858.35,-62.93"/>
<polygon fill="darkgreen" stroke="darkgreen" points="857.69,-66.37 868.07,-64.22 858.62,-59.43 857.69,-66.37"/>
<text text-anchor="middle" x="806.25" y="-64.45" font-family="Times,serif" font-size="14.00">MOVE CTOR</text>
</g>
<!-- value4294967291 -->
<g id="node9" class="node">
<title>value4294967291</title>
<path fill="darkgreen" stroke="black" d="M882,-0.5C882,-0.5 995.75,-0.5 995.75,-0.5 1001.75,-0.5 1007.75,-6.5 1007.75,-12.5 1007.75,-12.5 1007.75,-24.5 1007.75,-24.5 1007.75,-30.5 1001.75,-36.5 995.75,-36.5 995.75,-36.5 882,-36.5 882,-36.5 876,-36.5 870,-30.5 870,-24.5 870,-24.5 870,-12.5 870,-12.5 870,-6.5 876,-0.5 882,-0.5"/>
<text text-anchor="middle" x="906.12" y="-14.2" font-family="Times,serif" font-size="14.00">value: 0</text>
<polyline fill="none" stroke="black" points="942.25,-1.25 942.25,-36.5"/>
<text text-anchor="middle" x="975" y="-14.2" font-family="Times,serif" font-size="14.00">type: 0</text>
</g>
<!-- value5&#45;&gt;value4294967291 -->
<g id="edge8" class="edge">
<title>value5&#45;&gt;value4294967291</title>
<path fill="none" stroke="darkgreen" stroke-dasharray="5,2" d="M742.99,-28.13C748.9,-27.42 754.8,-26.78 760.5,-26.25 792.34,-23.29 827.51,-21.46 858.07,-20.32"/>
<polygon fill="darkgreen" stroke="darkgreen" points="858.16,-23.82 868.03,-19.97 857.91,-16.83 858.16,-23.82"/>
<text text-anchor="middle" x="806.25" y="-29.45" font-family="Times,serif" font-size="14.00">DTOR</text>
</g>
<!-- oper0&#45;&gt;value5 -->
<g id="edge6" class="edge">
<title>oper0&#45;&gt;value5</title>
<path fill="none" stroke="blue" stroke-dasharray="5,2" d="M485.74,-72.72C512.54,-67.81 555.56,-59.93 593.57,-52.97"/>
<polygon fill="blue" stroke="blue" points="593.97,-56.46 603.17,-51.22 592.71,-49.57 593.97,-56.46"/>
</g>
<!-- value4294967289 -->
<g id="node10" class="node">
<title>value4294967289</title>
<path fill="blue" stroke="black" d="M1097.75,-55.5C1097.75,-55.5 1211.5,-55.5 1211.5,-55.5 1217.5,-55.5 1223.5,-61.5 1223.5,-67.5 1223.5,-67.5 1223.5,-79.5 1223.5,-79.5 1223.5,-85.5 1217.5,-91.5 1211.5,-91.5 1211.5,-91.5 1097.75,-91.5 1097.75,-91.5 1091.75,-91.5 1085.75,-85.5 1085.75,-79.5 1085.75,-79.5 1085.75,-67.5 1085.75,-67.5 1085.75,-61.5 1091.75,-55.5 1097.75,-55.5"/>
<text text-anchor="middle" x="1121.88" y="-69.2" font-family="Times,serif" font-size="14.00">value: 0</text>
<polyline fill="none" stroke="black" points="1158,-56.25 1158,-91.5"/>
<text text-anchor="middle" x="1190.75" y="-69.2" font-family="Times,serif" font-size="14.00">type: 2</text>
</g>
<!-- value7&#45;&gt;value4294967289 -->
<g id="edge9" class="edge">
<title>value7&#45;&gt;value4294967289</title>
<path fill="none" stroke="darkgreen" stroke-dasharray="5,2" d="M1008.09,-73.5C1029.01,-73.5 1052.22,-73.5 1073.84,-73.5"/>
<polygon fill="darkgreen" stroke="darkgreen" points="1073.81,-77 1083.81,-73.5 1073.81,-70 1073.81,-77"/>
<text text-anchor="middle" x="1046.75" y="-77.45" font-family="Times,serif" font-size="14.00">DTOR</text>
</g>
</g>
</svg>
