<?xml version="1.0" encoding="UTF-8" standalone="no"?>
<!DOCTYPE svg PUBLIC "-//W3C//DTD SVG 1.1//EN"
 "http://www.w3.org/Graphics/SVG/1.1/DTD/svg11.dtd">
<!-- Generated by graphviz version 9.0.0 (0)
 -->
<!-- Title: structs Pages: 1 -->
<svg width="1560pt" height="210pt"
 viewBox="0.00 0.00 1559.50 210.00" xmlns="http://www.w3.org/2000/svg" xmlns:xlink="http://www.w3.org/1999/xlink">
<g id="graph0" class="graph" transform="scale(1 1) rotate(0) translate(4 206)">
<title>structs</title>
<polygon fill="white" stroke="none" points="-4,4 -4,-206 1555.5,-206 1555.5,4 -4,4"/>
<!-- value0 -->
<g id="node1" class="node">
<title>value0</title>
<path fill="darkgreen" stroke="black" d="M12,-22.5C12,-22.5 125.75,-22.5 125.75,-22.5 131.75,-22.5 137.75,-28.5 137.75,-34.5 137.75,-34.5 137.75,-46.5 137.75,-46.5 137.75,-52.5 131.75,-58.5 125.75,-58.5 125.75,-58.5 12,-58.5 12,-58.5 6,-58.5 0,-52.5 0,-46.5 0,-46.5 0,-34.5 0,-34.5 0,-28.5 6,-22.5 12,-22.5"/>
<text text-anchor="middle" x="36.12" y="-36.2" font-family="Times,serif" font-size="14.00">value: 7</text>
<polyline fill="none" stroke="black" points="72.25,-23.25 72.25,-58.5"/>
<text text-anchor="middle" x="105" y="-36.2" font-family="Times,serif" font-size="14.00">type: 0</text>
</g>
<!-- value1 -->
<g id="node2" class="node">
<title>value1</title>
<path fill="darkgreen" stroke="black" d="M227,-22.5C227,-22.5 340.75,-22.5 340.75,-22.5 346.75,-22.5 352.75,-28.5 352.75,-34.5 352.75,-34.5 352.75,-46.5 352.75,-46.5 352.75,-52.5 346.75,-58.5 340.75,-58.5 340.75,-58.5 227,-58.5 227,-58.5 221,-58.5 215,-52.5 215,-46.5 215,-46.5 215,-34.5 215,-34.5 215,-28.5 221,-22.5 227,-22.5"/>
<text text-anchor="middle" x="251.12" y="-36.2" font-family="Times,serif" font-size="14.00">value: 7</text>
<polyline fill="none" stroke="black" points="287.25,-23.25 287.25,-58.5"/>
<text text-anchor="middle" x="320" y="-36.2" font-family="Times,serif" font-size="14.00">type: 0</text>
</g>
<!-- value0&#45;&gt;value1 -->
<g id="edge1" class="edge">
<title>value0&#45;&gt;value1</title>
<path fill="none" stroke="darkgreen" stroke-dasharray="5,2" d="M138.15,-40.5C158.88,-40.5 181.84,-40.5 203.25,-40.5"/>
<polygon fill="darkgreen" stroke="darkgreen" points="203.11,-44 213.11,-40.5 203.11,-37 203.11,-44"/>
<text text-anchor="middle" x="176.38" y="-44.45" font-family="Times,serif" font-size="14.00">CTOR</text>
</g>
<!-- value7 -->
<g id="node6" class="node">
<title>value7</title>
<path fill="red" stroke="black" d="M487,-22.5C487,-22.5 600.75,-22.5 600.75,-22.5 606.75,-22.5 612.75,-28.5 612.75,-34.5 612.75,-34.5 612.75,-46.5 612.75,-46.5 612.75,-52.5 606.75,-58.5 600.75,-58.5 600.75,-58.5 487,-58.5 487,-58.5 481,-58.5 475,-52.5 475,-46.5 475,-46.5 475,-34.5 475,-34.5 475,-28.5 481,-22.5 487,-22.5"/>
<text text-anchor="middle" x="511.12" y="-36.2" font-family="Times,serif" font-size="14.00">value: 7</text>
<polyline fill="none" stroke="black" points="547.25,-23.25 547.25,-58.5"/>
<text text-anchor="middle" x="580" y="-36.2" font-family="Times,serif" font-size="14.00">type: 1</text>
</g>
<!-- value1&#45;&gt;value7 -->
<g id="edge4" class="edge">
<title>value1&#45;&gt;value7</title>
<path fill="none" stroke="darkgreen" stroke-dasharray="5,2" d="M353,-40.5C386.95,-40.5 428.19,-40.5 463.56,-40.5"/>
<polygon fill="darkgreen" stroke="darkgreen" points="463.3,-44 473.3,-40.5 463.3,-37 463.3,-44"/>
<text text-anchor="middle" x="413.88" y="-44.45" font-family="Times,serif" font-size="14.00">COPY CTOR</text>
</g>
<!-- value2 -->
<g id="node3" class="node">
<title>value2</title>
<path fill="darkgreen" stroke="black" d="M12,-88.5C12,-88.5 125.75,-88.5 125.75,-88.5 131.75,-88.5 137.75,-94.5 137.75,-100.5 137.75,-100.5 137.75,-112.5 137.75,-112.5 137.75,-118.5 131.75,-124.5 125.75,-124.5 125.75,-124.5 12,-124.5 12,-124.5 6,-124.5 0,-118.5 0,-112.5 0,-112.5 0,-100.5 0,-100.5 0,-94.5 6,-88.5 12,-88.5"/>
<text text-anchor="middle" x="36.12" y="-102.2" font-family="Times,serif" font-size="14.00">value: 3</text>
<polyline fill="none" stroke="black" points="72.25,-89.25 72.25,-124.5"/>
<text text-anchor="middle" x="105" y="-102.2" font-family="Times,serif" font-size="14.00">type: 0</text>
</g>
<!-- value3 -->
<g id="node4" class="node">
<title>value3</title>
<path fill="darkgreen" stroke="black" d="M227,-88.5C227,-88.5 340.75,-88.5 340.75,-88.5 346.75,-88.5 352.75,-94.5 352.75,-100.5 352.75,-100.5 352.75,-112.5 352.75,-112.5 352.75,-118.5 346.75,-124.5 340.75,-124.5 340.75,-124.5 227,-124.5 227,-124.5 221,-124.5 215,-118.5 215,-112.5 215,-112.5 215,-100.5 215,-100.5 215,-94.5 221,-88.5 227,-88.5"/>
<text text-anchor="middle" x="251.12" y="-102.2" font-family="Times,serif" font-size="14.00">value: 3</text>
<polyline fill="none" stroke="black" points="287.25,-89.25 287.25,-124.5"/>
<text text-anchor="middle" x="320" y="-102.2" font-family="Times,serif" font-size="14.00">type: 0</text>
</g>
<!-- value2&#45;&gt;value3 -->
<g id="edge2" class="edge">
<title>value2&#45;&gt;value3</title>
<path fill="none" stroke="darkgreen" stroke-dasharray="5,2" d="M138.15,-106.5C158.88,-106.5 181.84,-106.5 203.25,-106.5"/>
<polygon fill="darkgreen" stroke="darkgreen" points="203.11,-110 213.11,-106.5 203.11,-103 203.11,-110"/>
<text text-anchor="middle" x="176.38" y="-110.45" font-family="Times,serif" font-size="14.00">CTOR</text>
</g>
<!-- value5 -->
<g id="node5" class="node">
<title>value5</title>
<path fill="red" stroke="black" d="M487,-88.5C487,-88.5 600.75,-88.5 600.75,-88.5 606.75,-88.5 612.75,-94.5 612.75,-100.5 612.75,-100.5 612.75,-112.5 612.75,-112.5 612.75,-118.5 606.75,-124.5 600.75,-124.5 600.75,-124.5 487,-124.5 487,-124.5 481,-124.5 475,-118.5 475,-112.5 475,-112.5 475,-100.5 475,-100.5 475,-94.5 481,-88.5 487,-88.5"/>
<text text-anchor="middle" x="511.12" y="-102.2" font-family="Times,serif" font-size="14.00">value: 3</text>
<polyline fill="none" stroke="black" points="547.25,-89.25 547.25,-124.5"/>
<text text-anchor="middle" x="580" y="-102.2" font-family="Times,serif" font-size="14.00">type: 1</text>
</g>
<!-- value3&#45;&gt;value5 -->
<g id="edge3" class="edge">
<title>value3&#45;&gt;value5</title>
<path fill="none" stroke="darkgreen" stroke-dasharray="5,2" d="M353,-106.5C386.95,-106.5 428.19,-106.5 463.56,-106.5"/>
<polygon fill="darkgreen" stroke="darkgreen" points="463.3,-110 473.3,-106.5 463.3,-103 463.3,-110"/>
<text text-anchor="middle" x="413.88" y="-110.45" font-family="Times,serif" font-size="14.00">COPY CTOR</text>
</g>
<!-- oper0 -->
<g id="node9" class="node">
<title>oper0</title>
<path fill="#8b4513" stroke="black" d="M749.12,-55.5C749.12,-55.5 779.12,-55.5 779.12,-55.5 785.12,-55.5 791.12,-61.5 791.12,-67.5 791.12,-67.5 791.12,-79.5 791.12,-79.5 791.12,-85.5 785.12,-91.5 779.12,-91.5 779.12,-91.5 749.12,-91.5 749.12,-91.5 743.12,-91.5 737.12,-85.5 737.12,-79.5 737.12,-79.5 737.12,-67.5 737.12,-67.5 737.12,-61.5 743.12,-55.5 749.12,-55.5"/>
<text text-anchor="middle" x="764.12" y="-69.2" font-family="Times,serif" font-size="14.00">+</text>
</g>
<!-- value5&#45;&gt;oper0 -->
<g id="edge7" class="edge">
<title>value5&#45;&gt;oper0</title>
<path fill="none" stroke="#8b4513" stroke-dasharray="5,2" d="M613.03,-96.19C650.19,-90.58 694.75,-83.84 725.62,-79.17"/>
<polygon fill="#8b4513" stroke="#8b4513" points="725.88,-82.67 735.24,-77.72 724.83,-75.75 725.88,-82.67"/>
</g>
<!-- value4294967291 -->
<g id="node13" class="node">
<title>value4294967291</title>
<path fill="red" stroke="black" d="M707.25,-110.5C707.25,-110.5 821,-110.5 821,-110.5 827,-110.5 833,-116.5 833,-122.5 833,-122.5 833,-134.5 833,-134.5 833,-140.5 827,-146.5 821,-146.5 821,-146.5 707.25,-146.5 707.25,-146.5 701.25,-146.5 695.25,-140.5 695.25,-134.5 695.25,-134.5 695.25,-122.5 695.25,-122.5 695.25,-116.5 701.25,-110.5 707.25,-110.5"/>
<text text-anchor="middle" x="731.38" y="-124.2" font-family="Times,serif" font-size="14.00">value: 0</text>
<polyline fill="none" stroke="black" points="767.5,-111.25 767.5,-146.5"/>
<text text-anchor="middle" x="800.25" y="-124.2" font-family="Times,serif" font-size="14.00">type: 1</text>
</g>
<!-- value5&#45;&gt;value4294967291 -->
<g id="edge12" class="edge">
<title>value5&#45;&gt;value4294967291</title>
<path fill="none" stroke="darkgreen" stroke-dasharray="5,2" d="M613.03,-113.37C635.5,-115.63 660.67,-118.17 683.89,-120.51"/>
<polygon fill="darkgreen" stroke="darkgreen" points="683.3,-123.97 693.6,-121.49 684,-117.01 683.3,-123.97"/>
<text text-anchor="middle" x="651.75" y="-122.45" font-family="Times,serif" font-size="14.00">DTOR</text>
</g>
<!-- value7&#45;&gt;oper0 -->
<g id="edge6" class="edge">
<title>value7&#45;&gt;oper0</title>
<path fill="none" stroke="#8b4513" stroke-dasharray="5,2" d="M613.03,-50.81C650.19,-56.42 694.75,-63.16 725.62,-67.83"/>
<polygon fill="#8b4513" stroke="#8b4513" points="724.83,-71.25 735.24,-69.28 725.88,-64.33 724.83,-71.25"/>
</g>
<!-- value4294967289 -->
<g id="node12" class="node">
<title>value4294967289</title>
<path fill="red" stroke="black" d="M707.25,-0.5C707.25,-0.5 821,-0.5 821,-0.5 827,-0.5 833,-6.5 833,-12.5 833,-12.5 833,-24.5 833,-24.5 833,-30.5 827,-36.5 821,-36.5 821,-36.5 707.25,-36.5 707.25,-36.5 701.25,-36.5 695.25,-30.5 695.25,-24.5 695.25,-24.5 695.25,-12.5 695.25,-12.5 695.25,-6.5 701.25,-0.5 707.25,-0.5"/>
<text text-anchor="middle" x="731.38" y="-14.2" font-family="Times,serif" font-size="14.00">value: 0</text>
<polyline fill="none" stroke="black" points="767.5,-1.25 767.5,-36.5"/>
<text text-anchor="middle" x="800.25" y="-14.2" font-family="Times,serif" font-size="14.00">type: 1</text>
</g>
<!-- value7&#45;&gt;value4294967289 -->
<g id="edge11" class="edge">
<title>value7&#45;&gt;value4294967289</title>
<path fill="none" stroke="darkgreen" stroke-dasharray="5,2" d="M613.17,-26.66C619.1,-25.74 625.02,-24.91 630.75,-24.25 647.81,-22.28 666.17,-20.96 683.63,-20.1"/>
<polygon fill="darkgreen" stroke="darkgreen" points="683.61,-23.6 693.44,-19.66 683.29,-16.61 683.61,-23.6"/>
<text text-anchor="middle" x="651.75" y="-28.45" font-family="Times,serif" font-size="14.00">DTOR</text>
</g>
<!-- value8 -->
<g id="node7" class="node">
<title>value8</title>
<path fill="darkgreen" stroke="black" d="M702.75,-165.5C702.75,-165.5 825.5,-165.5 825.5,-165.5 831.5,-165.5 837.5,-171.5 837.5,-177.5 837.5,-177.5 837.5,-189.5 837.5,-189.5 837.5,-195.5 831.5,-201.5 825.5,-201.5 825.5,-201.5 702.75,-201.5 702.75,-201.5 696.75,-201.5 690.75,-195.5 690.75,-189.5 690.75,-189.5 690.75,-177.5 690.75,-177.5 690.75,-171.5 696.75,-165.5 702.75,-165.5"/>
<text text-anchor="middle" x="731.38" y="-179.2" font-family="Times,serif" font-size="14.00">value: 10</text>
<polyline fill="none" stroke="black" points="772,-166.25 772,-201.5"/>
<text text-anchor="middle" x="804.75" y="-179.2" font-family="Times,serif" font-size="14.00">type: 0</text>
</g>
<!-- value9 -->
<g id="node8" class="node">
<title>value9</title>
<path fill="darkgreen" stroke="black" d="M926.75,-129.5C926.75,-129.5 1049.5,-129.5 1049.5,-129.5 1055.5,-129.5 1061.5,-135.5 1061.5,-141.5 1061.5,-141.5 1061.5,-153.5 1061.5,-153.5 1061.5,-159.5 1055.5,-165.5 1049.5,-165.5 1049.5,-165.5 926.75,-165.5 926.75,-165.5 920.75,-165.5 914.75,-159.5 914.75,-153.5 914.75,-153.5 914.75,-141.5 914.75,-141.5 914.75,-135.5 920.75,-129.5 926.75,-129.5"/>
<text text-anchor="middle" x="955.38" y="-143.2" font-family="Times,serif" font-size="14.00">value: 10</text>
<polyline fill="none" stroke="black" points="996,-130.25 996,-165.5"/>
<text text-anchor="middle" x="1028.75" y="-143.2" font-family="Times,serif" font-size="14.00">type: 0</text>
</g>
<!-- value8&#45;&gt;value9 -->
<g id="edge5" class="edge">
<title>value8&#45;&gt;value9</title>
<path fill="none" stroke="darkgreen" stroke-dasharray="5,2" d="M837.82,-171.71C858.71,-168.32 881.66,-164.6 903.17,-161.11"/>
<polygon fill="darkgreen" stroke="darkgreen" points="903.47,-164.61 912.78,-159.56 902.35,-157.7 903.47,-164.61"/>
<text text-anchor="middle" x="876.12" y="-172.45" font-family="Times,serif" font-size="14.00">CTOR</text>
</g>
<!-- value11 -->
<g id="node10" class="node">
<title>value11</title>
<path fill="blue" stroke="black" d="M1201,-164.5C1201,-164.5 1323.75,-164.5 1323.75,-164.5 1329.75,-164.5 1335.75,-170.5 1335.75,-176.5 1335.75,-176.5 1335.75,-188.5 1335.75,-188.5 1335.75,-194.5 1329.75,-200.5 1323.75,-200.5 1323.75,-200.5 1201,-200.5 1201,-200.5 1195,-200.5 1189,-194.5 1189,-188.5 1189,-188.5 1189,-176.5 1189,-176.5 1189,-170.5 1195,-164.5 1201,-164.5"/>
<text text-anchor="middle" x="1229.62" y="-178.2" font-family="Times,serif" font-size="14.00">value: 10</text>
<polyline fill="none" stroke="black" points="1270.25,-165.25 1270.25,-200.5"/>
<text text-anchor="middle" x="1303" y="-178.2" font-family="Times,serif" font-size="14.00">type: 2</text>
</g>
<!-- value9&#45;&gt;value11 -->
<g id="edge9" class="edge">
<title>value9&#45;&gt;value11</title>
<path fill="none" stroke="darkgreen" stroke-dasharray="5,2" d="M1061.73,-156.83C1097.27,-161.4 1140.27,-166.93 1177.24,-171.68"/>
<polygon fill="darkgreen" stroke="darkgreen" points="1176.64,-175.14 1187,-172.94 1177.53,-168.19 1176.64,-175.14"/>
<text text-anchor="middle" x="1125.25" y="-173.45" font-family="Times,serif" font-size="14.00">MOVE CTOR</text>
</g>
<!-- value4294967287 -->
<g id="node11" class="node">
<title>value4294967287</title>
<path fill="darkgreen" stroke="black" d="M1205.5,-109.5C1205.5,-109.5 1319.25,-109.5 1319.25,-109.5 1325.25,-109.5 1331.25,-115.5 1331.25,-121.5 1331.25,-121.5 1331.25,-133.5 1331.25,-133.5 1331.25,-139.5 1325.25,-145.5 1319.25,-145.5 1319.25,-145.5 1205.5,-145.5 1205.5,-145.5 1199.5,-145.5 1193.5,-139.5 1193.5,-133.5 1193.5,-133.5 1193.5,-121.5 1193.5,-121.5 1193.5,-115.5 1199.5,-109.5 1205.5,-109.5"/>
<text text-anchor="middle" x="1229.62" y="-123.2" font-family="Times,serif" font-size="14.00">value: 0</text>
<polyline fill="none" stroke="black" points="1265.75,-110.25 1265.75,-145.5"/>
<text text-anchor="middle" x="1298.5" y="-123.2" font-family="Times,serif" font-size="14.00">type: 0</text>
</g>
<!-- value9&#45;&gt;value4294967287 -->
<g id="edge10" class="edge">
<title>value9&#45;&gt;value4294967287</title>
<path fill="none" stroke="darkgreen" stroke-dasharray="5,2" d="M1061.57,-137.08C1067.63,-136.39 1073.66,-135.77 1079.5,-135.25 1112.86,-132.28 1149.78,-130.45 1181.58,-129.31"/>
<polygon fill="darkgreen" stroke="darkgreen" points="1181.66,-132.81 1191.54,-128.97 1181.42,-125.81 1181.66,-132.81"/>
<text text-anchor="middle" x="1125.25" y="-138.45" font-family="Times,serif" font-size="14.00">DTOR</text>
</g>
<!-- oper0&#45;&gt;value9 -->
<g id="edge8" class="edge">
<title>oper0&#45;&gt;value9</title>
<path fill="none" stroke="#8b4513" stroke-dasharray="5,2" d="M791.46,-82.28C823.23,-92.87 877.77,-111.05 921.21,-125.53"/>
<polygon fill="#8b4513" stroke="#8b4513" points="919.96,-128.8 930.55,-128.64 922.17,-122.16 919.96,-128.8"/>
</g>
<!-- value4294967285 -->
<g id="node14" class="node">
<title>value4294967285</title>
<path fill="blue" stroke="black" d="M1425.75,-164.5C1425.75,-164.5 1539.5,-164.5 1539.5,-164.5 1545.5,-164.5 1551.5,-170.5 1551.5,-176.5 1551.5,-176.5 1551.5,-188.5 1551.5,-188.5 1551.5,-194.5 1545.5,-200.5 1539.5,-200.5 1539.5,-200.5 1425.75,-200.5 1425.75,-200.5 1419.75,-200.5 1413.75,-194.5 1413.75,-188.5 1413.75,-188.5 1413.75,-176.5 1413.75,-176.5 1413.75,-170.5 1419.75,-164.5 1425.75,-164.5"/>
<text text-anchor="middle" x="1449.88" y="-178.2" font-family="Times,serif" font-size="14.00">value: 0</text>
<polyline fill="none" stroke="black" points="1486,-165.25 1486,-200.5"/>
<text text-anchor="middle" x="1518.75" y="-178.2" font-family="Times,serif" font-size="14.00">type: 2</text>
</g>
<!-- value11&#45;&gt;value4294967285 -->
<g id="edge13" class="edge">
<title>value11&#45;&gt;value4294967285</title>
<path fill="none" stroke="darkgreen" stroke-dasharray="5,2" d="M1336.05,-182.5C1357.18,-182.5 1380.36,-182.5 1401.9,-182.5"/>
<polygon fill="darkgreen" stroke="darkgreen" points="1401.82,-186 1411.82,-182.5 1401.82,-179 1401.82,-186"/>
<text text-anchor="middle" x="1374.75" y="-186.45" font-family="Times,serif" font-size="14.00">DTOR</text>
</g>
</g>
</svg>
