<?xml version="1.0" encoding="UTF-8" standalone="no"?>
<!DOCTYPE svg PUBLIC "-//W3C//DTD SVG 1.1//EN"
 "http://www.w3.org/Graphics/SVG/1.1/DTD/svg11.dtd">
<!-- Generated by graphviz version 9.0.0 (0)
 -->
<!-- Title: structs Pages: 1 -->
<svg width="837pt" height="125pt"
 viewBox="0.00 0.00 836.50 125.00" xmlns="http://www.w3.org/2000/svg" xmlns:xlink="http://www.w3.org/1999/xlink">
<g id="graph0" class="graph" transform="scale(1 1) rotate(0) translate(4 121)">
<title>structs</title>
<polygon fill="white" stroke="none" points="-4,4 -4,-121 832.5,-121 832.5,4 -4,4"/>
<!-- value0 -->
<g id="node1" class="node">
<title>value0</title>
<path fill="darkgreen" stroke="black" d="M12,-67.5C12,-67.5 125.75,-67.5 125.75,-67.5 131.75,-67.5 137.75,-73.5 137.75,-79.5 137.75,-79.5 137.75,-91.5 137.75,-91.5 137.75,-97.5 131.75,-103.5 125.75,-103.5 125.75,-103.5 12,-103.5 12,-103.5 6,-103.5 0,-97.5 0,-91.5 0,-91.5 0,-79.5 0,-79.5 0,-73.5 6,-67.5 12,-67.5"/>
<text text-anchor="middle" x="36.12" y="-81.2" font-family="Times,serif" font-size="14.00">value: 4</text>
<polyline fill="none" stroke="black" points="72.25,-68.25 72.25,-103.5"/>
<text text-anchor="middle" x="105" y="-81.2" font-family="Times,serif" font-size="14.00">type: 0</text>
</g>
<!-- value1 -->
<g id="node2" class="node">
<title>value1</title>
<path fill="darkgreen" stroke="black" d="M227,-67.5C227,-67.5 340.75,-67.5 340.75,-67.5 346.75,-67.5 352.75,-73.5 352.75,-79.5 352.75,-79.5 352.75,-91.5 352.75,-91.5 352.75,-97.5 346.75,-103.5 340.75,-103.5 340.75,-103.5 227,-103.5 227,-103.5 221,-103.5 215,-97.5 215,-91.5 215,-91.5 215,-79.5 215,-79.5 215,-73.5 221,-67.5 227,-67.5"/>
<text text-anchor="middle" x="251.12" y="-81.2" font-family="Times,serif" font-size="14.00">value: 4</text>
<polyline fill="none" stroke="black" points="287.25,-68.25 287.25,-103.5"/>
<text text-anchor="middle" x="320" y="-81.2" font-family="Times,serif" font-size="14.00">type: 0</text>
</g>
<!-- value0&#45;&gt;value1 -->
<g id="edge1" class="edge">
<title>value0&#45;&gt;value1</title>
<path fill="none" stroke="darkgreen" stroke-dasharray="5,2" d="M138.15,-85.5C158.88,-85.5 181.84,-85.5 203.25,-85.5"/>
<polygon fill="darkgreen" stroke="darkgreen" points="203.11,-89 213.11,-85.5 203.11,-82 203.11,-89"/>
<text text-anchor="middle" x="176.38" y="-89.45" font-family="Times,serif" font-size="14.00">CTOR</text>
</g>
<!-- value3 -->
<g id="node4" class="node">
<title>value3</title>
<path fill="darkgreen" stroke="black" d="M487,-12.5C487,-12.5 600.75,-12.5 600.75,-12.5 606.75,-12.5 612.75,-18.5 612.75,-24.5 612.75,-24.5 612.75,-36.5 612.75,-36.5 612.75,-42.5 606.75,-48.5 600.75,-48.5 600.75,-48.5 487,-48.5 487,-48.5 481,-48.5 475,-42.5 475,-36.5 475,-36.5 475,-24.5 475,-24.5 475,-18.5 481,-12.5 487,-12.5"/>
<text text-anchor="middle" x="511.12" y="-26.2" font-family="Times,serif" font-size="14.00">value: 0</text>
<polyline fill="none" stroke="black" points="547.25,-13.25 547.25,-48.5"/>
<text text-anchor="middle" x="580" y="-26.2" font-family="Times,serif" font-size="14.00">type: 0</text>
</g>
<!-- value1&#45;&gt;value3 -->
<g id="edge3" class="edge">
<title>value1&#45;&gt;value3</title>
<path fill="none" stroke="darkgreen" stroke-dasharray="5,2" d="M353,-70.98C386.95,-63.74 428.19,-54.95 463.56,-47.41"/>
<polygon fill="darkgreen" stroke="darkgreen" points="464.29,-50.83 473.34,-45.32 462.83,-43.99 464.29,-50.83"/>
<text text-anchor="middle" x="413.88" y="-69.45" font-family="Times,serif" font-size="14.00">&gt;</text>
</g>
<!-- value5 -->
<g id="node5" class="node">
<title>value5</title>
<path fill="red" stroke="black" d="M487,-80.5C487,-80.5 600.75,-80.5 600.75,-80.5 606.75,-80.5 612.75,-86.5 612.75,-92.5 612.75,-92.5 612.75,-104.5 612.75,-104.5 612.75,-110.5 606.75,-116.5 600.75,-116.5 600.75,-116.5 487,-116.5 487,-116.5 481,-116.5 475,-110.5 475,-104.5 475,-104.5 475,-92.5 475,-92.5 475,-86.5 481,-80.5 487,-80.5"/>
<text text-anchor="middle" x="511.12" y="-94.2" font-family="Times,serif" font-size="14.00">value: 4</text>
<polyline fill="none" stroke="black" points="547.25,-81.25 547.25,-116.5"/>
<text text-anchor="middle" x="580" y="-94.2" font-family="Times,serif" font-size="14.00">type: 1</text>
</g>
<!-- value1&#45;&gt;value5 -->
<g id="edge4" class="edge">
<title>value1&#45;&gt;value5</title>
<path fill="none" stroke="darkgreen" stroke-dasharray="5,2" d="M353,-88.93C386.95,-90.64 428.19,-92.72 463.56,-94.5"/>
<polygon fill="darkgreen" stroke="darkgreen" points="463.14,-97.99 473.31,-94.99 463.49,-91 463.14,-97.99"/>
<text text-anchor="middle" x="413.88" y="-97.45" font-family="Times,serif" font-size="14.00">COPY CTOR</text>
</g>
<!-- value2 -->
<g id="node3" class="node">
<title>value2</title>
<path fill="darkgreen" stroke="black" d="M227,-0.5C227,-0.5 340.75,-0.5 340.75,-0.5 346.75,-0.5 352.75,-6.5 352.75,-12.5 352.75,-12.5 352.75,-24.5 352.75,-24.5 352.75,-30.5 346.75,-36.5 340.75,-36.5 340.75,-36.5 227,-36.5 227,-36.5 221,-36.5 215,-30.5 215,-24.5 215,-24.5 215,-12.5 215,-12.5 215,-6.5 221,-0.5 227,-0.5"/>
<text text-anchor="middle" x="251.12" y="-14.2" font-family="Times,serif" font-size="14.00">value: 0</text>
<polyline fill="none" stroke="black" points="287.25,-1.25 287.25,-36.5"/>
<text text-anchor="middle" x="320" y="-14.2" font-family="Times,serif" font-size="14.00">type: 0</text>
</g>
<!-- value2&#45;&gt;value3 -->
<g id="edge2" class="edge">
<title>value2&#45;&gt;value3</title>
<path fill="none" stroke="darkgreen" stroke-dasharray="5,2" d="M353.21,-16.82C384.83,-16.56 422.86,-16.95 457,-19.25 459.05,-19.39 461.12,-19.54 463.22,-19.71"/>
<polygon fill="darkgreen" stroke="darkgreen" points="462.73,-23.18 473.01,-20.62 463.37,-16.21 462.73,-23.18"/>
<text text-anchor="middle" x="413.88" y="-23.45" font-family="Times,serif" font-size="14.00">CTOR</text>
</g>
<!-- value4294967291 -->
<g id="node6" class="node">
<title>value4294967291</title>
<path fill="red" stroke="black" d="M702.75,-80.5C702.75,-80.5 816.5,-80.5 816.5,-80.5 822.5,-80.5 828.5,-86.5 828.5,-92.5 828.5,-92.5 828.5,-104.5 828.5,-104.5 828.5,-110.5 822.5,-116.5 816.5,-116.5 816.5,-116.5 702.75,-116.5 702.75,-116.5 696.75,-116.5 690.75,-110.5 690.75,-104.5 690.75,-104.5 690.75,-92.5 690.75,-92.5 690.75,-86.5 696.75,-80.5 702.75,-80.5"/>
<text text-anchor="middle" x="726.88" y="-94.2" font-family="Times,serif" font-size="14.00">value: 0</text>
<polyline fill="none" stroke="black" points="763,-81.25 763,-116.5"/>
<text text-anchor="middle" x="795.75" y="-94.2" font-family="Times,serif" font-size="14.00">type: 1</text>
</g>
<!-- value5&#45;&gt;value4294967291 -->
<g id="edge5" class="edge">
<title>value5&#45;&gt;value4294967291</title>
<path fill="none" stroke="darkgreen" stroke-dasharray="5,2" d="M613.09,-98.5C634.01,-98.5 657.22,-98.5 678.84,-98.5"/>
<polygon fill="darkgreen" stroke="darkgreen" points="678.81,-102 688.81,-98.5 678.81,-95 678.81,-102"/>
<text text-anchor="middle" x="651.75" y="-102.45" font-family="Times,serif" font-size="14.00">DTOR</text>
</g>
</g>
</svg>
