<?xml version="1.0" encoding="UTF-8" standalone="no"?>
<!DOCTYPE svg PUBLIC "-//W3C//DTD SVG 1.1//EN"
 "http://www.w3.org/Graphics/SVG/1.1/DTD/svg11.dtd">
<!-- Generated by graphviz version 9.0.0 (0)
 -->
<!-- Title: structs Pages: 1 -->
<svg width="1928pt" height="249pt"
 viewBox="0.00 0.00 1927.50 249.00" xmlns="http://www.w3.org/2000/svg" xmlns:xlink="http://www.w3.org/1999/xlink">
<g id="graph0" class="graph" transform="scale(1 1) rotate(0) translate(4 245)">
<title>structs</title>
<polygon fill="white" stroke="none" points="-4,4 -4,-245 1923.5,-245 1923.5,4 -4,4"/>
<!-- value0 -->
<g id="node1" class="node">
<title>value0</title>
<path fill="darkgreen" stroke="black" d="M12,-204.5C12,-204.5 125.75,-204.5 125.75,-204.5 131.75,-204.5 137.75,-210.5 137.75,-216.5 137.75,-216.5 137.75,-228.5 137.75,-228.5 137.75,-234.5 131.75,-240.5 125.75,-240.5 125.75,-240.5 12,-240.5 12,-240.5 6,-240.5 0,-234.5 0,-228.5 0,-228.5 0,-216.5 0,-216.5 0,-210.5 6,-204.5 12,-204.5"/>
<text text-anchor="middle" x="36.12" y="-218.2" font-family="Times,serif" font-size="14.00">value: 0</text>
<polyline fill="none" stroke="black" points="72.25,-205.25 72.25,-240.5"/>
<text text-anchor="middle" x="105" y="-218.2" font-family="Times,serif" font-size="14.00">type: 0</text>
</g>
<!-- value1 -->
<g id="node2" class="node">
<title>value1</title>
<path fill="darkgreen" stroke="black" d="M227,-204.5C227,-204.5 340.75,-204.5 340.75,-204.5 346.75,-204.5 352.75,-210.5 352.75,-216.5 352.75,-216.5 352.75,-228.5 352.75,-228.5 352.75,-234.5 346.75,-240.5 340.75,-240.5 340.75,-240.5 227,-240.5 227,-240.5 221,-240.5 215,-234.5 215,-228.5 215,-228.5 215,-216.5 215,-216.5 215,-210.5 221,-204.5 227,-204.5"/>
<text text-anchor="middle" x="251.12" y="-218.2" font-family="Times,serif" font-size="14.00">value: 0</text>
<polyline fill="none" stroke="black" points="287.25,-205.25 287.25,-240.5"/>
<text text-anchor="middle" x="320" y="-218.2" font-family="Times,serif" font-size="14.00">type: 0</text>
</g>
<!-- value0&#45;&gt;value1 -->
<g id="edge1" class="edge">
<title>value0&#45;&gt;value1</title>
<path fill="none" stroke="darkgreen" stroke-dasharray="5,2" d="M138.15,-222.5C158.88,-222.5 181.84,-222.5 203.25,-222.5"/>
<polygon fill="darkgreen" stroke="darkgreen" points="203.11,-226 213.11,-222.5 203.11,-219 203.11,-226"/>
<text text-anchor="middle" x="176.38" y="-226.45" font-family="Times,serif" font-size="14.00">CTOR</text>
</g>
<!-- oper0 -->
<g id="node9" class="node">
<title>oper0</title>
<path fill="darkmagenta" stroke="black" d="M443.62,-180.5C443.62,-180.5 473.62,-180.5 473.62,-180.5 479.62,-180.5 485.62,-186.5 485.62,-192.5 485.62,-192.5 485.62,-204.5 485.62,-204.5 485.62,-210.5 479.62,-216.5 473.62,-216.5 473.62,-216.5 443.62,-216.5 443.62,-216.5 437.62,-216.5 431.62,-210.5 431.62,-204.5 431.62,-204.5 431.62,-192.5 431.62,-192.5 431.62,-186.5 437.62,-180.5 443.62,-180.5"/>
<text text-anchor="middle" x="458.62" y="-194.2" font-family="Times,serif" font-size="14.00">+</text>
</g>
<!-- value1&#45;&gt;oper0 -->
<g id="edge5" class="edge">
<title>value1&#45;&gt;oper0</title>
<path fill="none" stroke="darkmagenta" stroke-dasharray="5,2" d="M353.15,-213.01C375.91,-209.85 400.42,-206.45 419.97,-203.73"/>
<polygon fill="darkmagenta" stroke="darkmagenta" points="420.24,-207.23 429.66,-202.39 419.27,-200.29 420.24,-207.23"/>
</g>
<!-- value2 -->
<g id="node3" class="node">
<title>value2</title>
<path fill="darkgreen" stroke="black" d="M12,-149.5C12,-149.5 125.75,-149.5 125.75,-149.5 131.75,-149.5 137.75,-155.5 137.75,-161.5 137.75,-161.5 137.75,-173.5 137.75,-173.5 137.75,-179.5 131.75,-185.5 125.75,-185.5 125.75,-185.5 12,-185.5 12,-185.5 6,-185.5 0,-179.5 0,-173.5 0,-173.5 0,-161.5 0,-161.5 0,-155.5 6,-149.5 12,-149.5"/>
<text text-anchor="middle" x="36.12" y="-163.2" font-family="Times,serif" font-size="14.00">value: 1</text>
<polyline fill="none" stroke="black" points="72.25,-150.25 72.25,-185.5"/>
<text text-anchor="middle" x="105" y="-163.2" font-family="Times,serif" font-size="14.00">type: 0</text>
</g>
<!-- value3 -->
<g id="node4" class="node">
<title>value3</title>
<path fill="darkgreen" stroke="black" d="M227,-149.5C227,-149.5 340.75,-149.5 340.75,-149.5 346.75,-149.5 352.75,-155.5 352.75,-161.5 352.75,-161.5 352.75,-173.5 352.75,-173.5 352.75,-179.5 346.75,-185.5 340.75,-185.5 340.75,-185.5 227,-185.5 227,-185.5 221,-185.5 215,-179.5 215,-173.5 215,-173.5 215,-161.5 215,-161.5 215,-155.5 221,-149.5 227,-149.5"/>
<text text-anchor="middle" x="251.12" y="-163.2" font-family="Times,serif" font-size="14.00">value: 1</text>
<polyline fill="none" stroke="black" points="287.25,-150.25 287.25,-185.5"/>
<text text-anchor="middle" x="320" y="-163.2" font-family="Times,serif" font-size="14.00">type: 0</text>
</g>
<!-- value2&#45;&gt;value3 -->
<g id="edge2" class="edge">
<title>value2&#45;&gt;value3</title>
<path fill="none" stroke="darkgreen" stroke-dasharray="5,2" d="M138.15,-167.5C158.88,-167.5 181.84,-167.5 203.25,-167.5"/>
<polygon fill="darkgreen" stroke="darkgreen" points="203.11,-171 213.11,-167.5 203.11,-164 203.11,-171"/>
<text text-anchor="middle" x="176.38" y="-171.45" font-family="Times,serif" font-size="14.00">CTOR</text>
</g>
<!-- value3&#45;&gt;oper0 -->
<g id="edge6" class="edge">
<title>value3&#45;&gt;oper0</title>
<path fill="none" stroke="darkmagenta" stroke-dasharray="5,2" d="M353.15,-179.75C375.91,-183.84 400.42,-188.23 419.97,-191.74"/>
<polygon fill="darkmagenta" stroke="darkmagenta" points="419.21,-195.16 429.67,-193.48 420.44,-188.27 419.21,-195.16"/>
</g>
<!-- value4 -->
<g id="node5" class="node">
<title>value4</title>
<path fill="darkgreen" stroke="black" d="M616.75,-57.5C616.75,-57.5 730.5,-57.5 730.5,-57.5 736.5,-57.5 742.5,-63.5 742.5,-69.5 742.5,-69.5 742.5,-81.5 742.5,-81.5 742.5,-87.5 736.5,-93.5 730.5,-93.5 730.5,-93.5 616.75,-93.5 616.75,-93.5 610.75,-93.5 604.75,-87.5 604.75,-81.5 604.75,-81.5 604.75,-69.5 604.75,-69.5 604.75,-63.5 610.75,-57.5 616.75,-57.5"/>
<text text-anchor="middle" x="640.88" y="-71.2" font-family="Times,serif" font-size="14.00">value: 6</text>
<polyline fill="none" stroke="black" points="677,-58.25 677,-93.5"/>
<text text-anchor="middle" x="709.75" y="-71.2" font-family="Times,serif" font-size="14.00">type: 0</text>
</g>
<!-- value5 -->
<g id="node6" class="node">
<title>value5</title>
<path fill="darkgreen" stroke="black" d="M882,-57.5C882,-57.5 995.75,-57.5 995.75,-57.5 1001.75,-57.5 1007.75,-63.5 1007.75,-69.5 1007.75,-69.5 1007.75,-81.5 1007.75,-81.5 1007.75,-87.5 1001.75,-93.5 995.75,-93.5 995.75,-93.5 882,-93.5 882,-93.5 876,-93.5 870,-87.5 870,-81.5 870,-81.5 870,-69.5 870,-69.5 870,-63.5 876,-57.5 882,-57.5"/>
<text text-anchor="middle" x="906.12" y="-71.2" font-family="Times,serif" font-size="14.00">value: 6</text>
<polyline fill="none" stroke="black" points="942.25,-58.25 942.25,-93.5"/>
<text text-anchor="middle" x="975" y="-71.2" font-family="Times,serif" font-size="14.00">type: 0</text>
</g>
<!-- value4&#45;&gt;value5 -->
<g id="edge3" class="edge">
<title>value4&#45;&gt;value5</title>
<path fill="none" stroke="darkgreen" stroke-dasharray="5,2" d="M742.76,-75.5C778.1,-75.5 821.48,-75.5 858.35,-75.5"/>
<polygon fill="darkgreen" stroke="darkgreen" points="858.05,-79 868.05,-75.5 858.05,-72 858.05,-79"/>
<text text-anchor="middle" x="806.25" y="-79.45" font-family="Times,serif" font-size="14.00">CTOR</text>
</g>
<!-- oper1 -->
<g id="node14" class="node">
<title>oper1</title>
<path fill="darkblue" stroke="black" d="M1139.62,-59.5C1139.62,-59.5 1169.62,-59.5 1169.62,-59.5 1175.62,-59.5 1181.62,-65.5 1181.62,-71.5 1181.62,-71.5 1181.62,-83.5 1181.62,-83.5 1181.62,-89.5 1175.62,-95.5 1169.62,-95.5 1169.62,-95.5 1139.62,-95.5 1139.62,-95.5 1133.62,-95.5 1127.62,-89.5 1127.62,-83.5 1127.62,-83.5 1127.62,-71.5 1127.62,-71.5 1127.62,-65.5 1133.62,-59.5 1139.62,-59.5"/>
<text text-anchor="middle" x="1154.62" y="-73.2" font-family="Times,serif" font-size="14.00">+</text>
</g>
<!-- value5&#45;&gt;oper1 -->
<g id="edge12" class="edge">
<title>value5&#45;&gt;oper1</title>
<path fill="none" stroke="darkblue" stroke-dasharray="5,2" d="M1008.09,-76.14C1043.9,-76.47 1086.41,-76.87 1116.2,-77.15"/>
<polygon fill="darkblue" stroke="darkblue" points="1115.81,-80.65 1125.84,-77.24 1115.87,-73.65 1115.81,-80.65"/>
</g>
<!-- value6 -->
<g id="node7" class="node">
<title>value6</title>
<path fill="darkgreen" stroke="black" d="M401.75,-125.5C401.75,-125.5 515.5,-125.5 515.5,-125.5 521.5,-125.5 527.5,-131.5 527.5,-137.5 527.5,-137.5 527.5,-149.5 527.5,-149.5 527.5,-155.5 521.5,-161.5 515.5,-161.5 515.5,-161.5 401.75,-161.5 401.75,-161.5 395.75,-161.5 389.75,-155.5 389.75,-149.5 389.75,-149.5 389.75,-137.5 389.75,-137.5 389.75,-131.5 395.75,-125.5 401.75,-125.5"/>
<text text-anchor="middle" x="425.88" y="-139.2" font-family="Times,serif" font-size="14.00">value: 1</text>
<polyline fill="none" stroke="black" points="462,-126.25 462,-161.5"/>
<text text-anchor="middle" x="494.75" y="-139.2" font-family="Times,serif" font-size="14.00">type: 0</text>
</g>
<!-- value7 -->
<g id="node8" class="node">
<title>value7</title>
<path fill="darkgreen" stroke="black" d="M616.75,-147.5C616.75,-147.5 730.5,-147.5 730.5,-147.5 736.5,-147.5 742.5,-153.5 742.5,-159.5 742.5,-159.5 742.5,-171.5 742.5,-171.5 742.5,-177.5 736.5,-183.5 730.5,-183.5 730.5,-183.5 616.75,-183.5 616.75,-183.5 610.75,-183.5 604.75,-177.5 604.75,-171.5 604.75,-171.5 604.75,-159.5 604.75,-159.5 604.75,-153.5 610.75,-147.5 616.75,-147.5"/>
<text text-anchor="middle" x="640.88" y="-161.2" font-family="Times,serif" font-size="14.00">value: 1</text>
<polyline fill="none" stroke="black" points="677,-148.25 677,-183.5"/>
<text text-anchor="middle" x="709.75" y="-161.2" font-family="Times,serif" font-size="14.00">type: 0</text>
</g>
<!-- value6&#45;&gt;value7 -->
<g id="edge4" class="edge">
<title>value6&#45;&gt;value7</title>
<path fill="none" stroke="darkgreen" stroke-dasharray="5,2" d="M527.94,-149.48C546.99,-151.24 567.68,-153.23 586.75,-155.25 588.93,-155.48 591.15,-155.72 593.38,-155.96"/>
<polygon fill="darkgreen" stroke="darkgreen" points="592.84,-159.42 603.17,-157.05 593.62,-152.47 592.84,-159.42"/>
<text text-anchor="middle" x="566.12" y="-158.45" font-family="Times,serif" font-size="14.00">CTOR</text>
</g>
<!-- value9 -->
<g id="node10" class="node">
<title>value9</title>
<path fill="blue" stroke="black" d="M882,-113.5C882,-113.5 995.75,-113.5 995.75,-113.5 1001.75,-113.5 1007.75,-119.5 1007.75,-125.5 1007.75,-125.5 1007.75,-137.5 1007.75,-137.5 1007.75,-143.5 1001.75,-149.5 995.75,-149.5 995.75,-149.5 882,-149.5 882,-149.5 876,-149.5 870,-143.5 870,-137.5 870,-137.5 870,-125.5 870,-125.5 870,-119.5 876,-113.5 882,-113.5"/>
<text text-anchor="middle" x="906.12" y="-127.2" font-family="Times,serif" font-size="14.00">value: 1</text>
<polyline fill="none" stroke="black" points="942.25,-114.25 942.25,-149.5"/>
<text text-anchor="middle" x="975" y="-127.2" font-family="Times,serif" font-size="14.00">type: 2</text>
</g>
<!-- value7&#45;&gt;value9 -->
<g id="edge8" class="edge">
<title>value7&#45;&gt;value9</title>
<path fill="none" stroke="darkgreen" stroke-dasharray="5,2" d="M742.54,-153.88C748.61,-152.95 754.66,-152.06 760.5,-151.25 792.48,-146.82 827.82,-142.72 858.47,-139.42"/>
<polygon fill="darkgreen" stroke="darkgreen" points="858.46,-142.94 868.04,-138.41 857.72,-135.98 858.46,-142.94"/>
<text text-anchor="middle" x="806.25" y="-154.45" font-family="Times,serif" font-size="14.00">MOVE CTOR</text>
</g>
<!-- value4294967289 -->
<g id="node11" class="node">
<title>value4294967289</title>
<path fill="darkgreen" stroke="black" d="M882,-168.5C882,-168.5 995.75,-168.5 995.75,-168.5 1001.75,-168.5 1007.75,-174.5 1007.75,-180.5 1007.75,-180.5 1007.75,-192.5 1007.75,-192.5 1007.75,-198.5 1001.75,-204.5 995.75,-204.5 995.75,-204.5 882,-204.5 882,-204.5 876,-204.5 870,-198.5 870,-192.5 870,-192.5 870,-180.5 870,-180.5 870,-174.5 876,-168.5 882,-168.5"/>
<text text-anchor="middle" x="906.12" y="-182.2" font-family="Times,serif" font-size="14.00">value: 0</text>
<polyline fill="none" stroke="black" points="942.25,-169.25 942.25,-204.5"/>
<text text-anchor="middle" x="975" y="-182.2" font-family="Times,serif" font-size="14.00">type: 0</text>
</g>
<!-- value7&#45;&gt;value4294967289 -->
<g id="edge9" class="edge">
<title>value7&#45;&gt;value4294967289</title>
<path fill="none" stroke="darkgreen" stroke-dasharray="5,2" d="M742.76,-170.94C778.1,-173.75 821.48,-177.21 858.35,-180.16"/>
<polygon fill="darkgreen" stroke="darkgreen" points="857.81,-183.62 868.06,-180.93 858.37,-176.65 857.81,-183.62"/>
<text text-anchor="middle" x="806.25" y="-182.45" font-family="Times,serif" font-size="14.00">DTOR</text>
</g>
<!-- oper0&#45;&gt;value7 -->
<g id="edge7" class="edge">
<title>oper0&#45;&gt;value7</title>
<path fill="none" stroke="darkmagenta" stroke-dasharray="5,2" d="M485.74,-194.45C512.54,-190.3 555.56,-183.64 593.57,-177.75"/>
<polygon fill="darkmagenta" stroke="darkmagenta" points="593.82,-181.25 603.17,-176.26 592.75,-174.33 593.82,-181.25"/>
</g>
<!-- value9&#45;&gt;oper1 -->
<g id="edge11" class="edge">
<title>value9&#45;&gt;oper1</title>
<path fill="none" stroke="darkblue" stroke-dasharray="5,2" d="M1008.09,-114.27C1043.9,-105.22 1086.41,-94.48 1116.2,-86.95"/>
<polygon fill="darkblue" stroke="darkblue" points="1117.05,-90.35 1125.88,-84.51 1115.33,-83.56 1117.05,-90.35"/>
</g>
<!-- value4294967287 -->
<g id="node17" class="node">
<title>value4294967287</title>
<path fill="blue" stroke="black" d="M1097.75,-115.5C1097.75,-115.5 1211.5,-115.5 1211.5,-115.5 1217.5,-115.5 1223.5,-121.5 1223.5,-127.5 1223.5,-127.5 1223.5,-139.5 1223.5,-139.5 1223.5,-145.5 1217.5,-151.5 1211.5,-151.5 1211.5,-151.5 1097.75,-151.5 1097.75,-151.5 1091.75,-151.5 1085.75,-145.5 1085.75,-139.5 1085.75,-139.5 1085.75,-127.5 1085.75,-127.5 1085.75,-121.5 1091.75,-115.5 1097.75,-115.5"/>
<text text-anchor="middle" x="1121.88" y="-129.2" font-family="Times,serif" font-size="14.00">value: 0</text>
<polyline fill="none" stroke="black" points="1158,-116.25 1158,-151.5"/>
<text text-anchor="middle" x="1190.75" y="-129.2" font-family="Times,serif" font-size="14.00">type: 2</text>
</g>
<!-- value9&#45;&gt;value4294967287 -->
<g id="edge16" class="edge">
<title>value9&#45;&gt;value4294967287</title>
<path fill="none" stroke="darkgreen" stroke-dasharray="5,2" d="M1008.09,-132.14C1029.01,-132.33 1052.22,-132.55 1073.84,-132.75"/>
<polygon fill="darkgreen" stroke="darkgreen" points="1073.77,-136.25 1083.81,-132.85 1073.84,-129.25 1073.77,-136.25"/>
<text text-anchor="middle" x="1046.75" y="-137.45" font-family="Times,serif" font-size="14.00">DTOR</text>
</g>
<!-- value10 -->
<g id="node12" class="node">
<title>value10</title>
<path fill="darkgreen" stroke="black" d="M1097.75,-4.5C1097.75,-4.5 1211.5,-4.5 1211.5,-4.5 1217.5,-4.5 1223.5,-10.5 1223.5,-16.5 1223.5,-16.5 1223.5,-28.5 1223.5,-28.5 1223.5,-34.5 1217.5,-40.5 1211.5,-40.5 1211.5,-40.5 1097.75,-40.5 1097.75,-40.5 1091.75,-40.5 1085.75,-34.5 1085.75,-28.5 1085.75,-28.5 1085.75,-16.5 1085.75,-16.5 1085.75,-10.5 1091.75,-4.5 1097.75,-4.5"/>
<text text-anchor="middle" x="1121.88" y="-18.2" font-family="Times,serif" font-size="14.00">value: 7</text>
<polyline fill="none" stroke="black" points="1158,-5.25 1158,-40.5"/>
<text text-anchor="middle" x="1190.75" y="-18.2" font-family="Times,serif" font-size="14.00">type: 0</text>
</g>
<!-- value11 -->
<g id="node13" class="node">
<title>value11</title>
<path fill="darkgreen" stroke="black" d="M1312.75,-20.5C1312.75,-20.5 1426.5,-20.5 1426.5,-20.5 1432.5,-20.5 1438.5,-26.5 1438.5,-32.5 1438.5,-32.5 1438.5,-44.5 1438.5,-44.5 1438.5,-50.5 1432.5,-56.5 1426.5,-56.5 1426.5,-56.5 1312.75,-56.5 1312.75,-56.5 1306.75,-56.5 1300.75,-50.5 1300.75,-44.5 1300.75,-44.5 1300.75,-32.5 1300.75,-32.5 1300.75,-26.5 1306.75,-20.5 1312.75,-20.5"/>
<text text-anchor="middle" x="1336.88" y="-34.2" font-family="Times,serif" font-size="14.00">value: 7</text>
<polyline fill="none" stroke="black" points="1373,-21.25 1373,-56.5"/>
<text text-anchor="middle" x="1405.75" y="-34.2" font-family="Times,serif" font-size="14.00">type: 0</text>
</g>
<!-- value10&#45;&gt;value11 -->
<g id="edge10" class="edge">
<title>value10&#45;&gt;value11</title>
<path fill="none" stroke="darkgreen" stroke-dasharray="5,2" d="M1223.9,-27.63C1244.63,-29.19 1267.59,-30.91 1289,-32.52"/>
<polygon fill="darkgreen" stroke="darkgreen" points="1288.63,-36 1298.86,-33.26 1289.15,-29.02 1288.63,-36"/>
<text text-anchor="middle" x="1262.12" y="-36.45" font-family="Times,serif" font-size="14.00">CTOR</text>
</g>
<!-- value13 -->
<g id="node15" class="node">
<title>value13</title>
<path fill="blue" stroke="black" d="M1578,-55.5C1578,-55.5 1691.75,-55.5 1691.75,-55.5 1697.75,-55.5 1703.75,-61.5 1703.75,-67.5 1703.75,-67.5 1703.75,-79.5 1703.75,-79.5 1703.75,-85.5 1697.75,-91.5 1691.75,-91.5 1691.75,-91.5 1578,-91.5 1578,-91.5 1572,-91.5 1566,-85.5 1566,-79.5 1566,-79.5 1566,-67.5 1566,-67.5 1566,-61.5 1572,-55.5 1578,-55.5"/>
<text text-anchor="middle" x="1602.12" y="-69.2" font-family="Times,serif" font-size="14.00">value: 7</text>
<polyline fill="none" stroke="black" points="1638.25,-56.25 1638.25,-91.5"/>
<text text-anchor="middle" x="1671" y="-69.2" font-family="Times,serif" font-size="14.00">type: 2</text>
</g>
<!-- value11&#45;&gt;value13 -->
<g id="edge14" class="edge">
<title>value11&#45;&gt;value13</title>
<path fill="none" stroke="darkgreen" stroke-dasharray="5,2" d="M1438.76,-47.56C1474.1,-52.26 1517.48,-58.02 1554.35,-62.93"/>
<polygon fill="darkgreen" stroke="darkgreen" points="1553.69,-66.37 1564.07,-64.22 1554.62,-59.43 1553.69,-66.37"/>
<text text-anchor="middle" x="1502.25" y="-65.45" font-family="Times,serif" font-size="14.00">MOVE CTOR</text>
</g>
<!-- value4294967285 -->
<g id="node16" class="node">
<title>value4294967285</title>
<path fill="darkgreen" stroke="black" d="M1578,-0.5C1578,-0.5 1691.75,-0.5 1691.75,-0.5 1697.75,-0.5 1703.75,-6.5 1703.75,-12.5 1703.75,-12.5 1703.75,-24.5 1703.75,-24.5 1703.75,-30.5 1697.75,-36.5 1691.75,-36.5 1691.75,-36.5 1578,-36.5 1578,-36.5 1572,-36.5 1566,-30.5 1566,-24.5 1566,-24.5 1566,-12.5 1566,-12.5 1566,-6.5 1572,-0.5 1578,-0.5"/>
<text text-anchor="middle" x="1602.12" y="-14.2" font-family="Times,serif" font-size="14.00">value: 0</text>
<polyline fill="none" stroke="black" points="1638.25,-1.25 1638.25,-36.5"/>
<text text-anchor="middle" x="1671" y="-14.2" font-family="Times,serif" font-size="14.00">type: 0</text>
</g>
<!-- value11&#45;&gt;value4294967285 -->
<g id="edge15" class="edge">
<title>value11&#45;&gt;value4294967285</title>
<path fill="none" stroke="darkgreen" stroke-dasharray="5,2" d="M1438.99,-28.13C1444.9,-27.42 1450.8,-26.78 1456.5,-26.25 1488.34,-23.29 1523.51,-21.46 1554.07,-20.32"/>
<polygon fill="darkgreen" stroke="darkgreen" points="1554.16,-23.82 1564.03,-19.97 1553.91,-16.83 1554.16,-23.82"/>
<text text-anchor="middle" x="1502.25" y="-30.45" font-family="Times,serif" font-size="14.00">DTOR</text>
</g>
<!-- oper1&#45;&gt;value11 -->
<g id="edge13" class="edge">
<title>oper1&#45;&gt;value11</title>
<path fill="none" stroke="darkblue" stroke-dasharray="5,2" d="M1181.74,-72.72C1208.54,-67.81 1251.56,-59.93 1289.57,-52.97"/>
<polygon fill="darkblue" stroke="darkblue" points="1289.97,-56.46 1299.17,-51.22 1288.71,-49.57 1289.97,-56.46"/>
</g>
<!-- value4294967283 -->
<g id="node18" class="node">
<title>value4294967283</title>
<path fill="blue" stroke="black" d="M1793.75,-55.5C1793.75,-55.5 1907.5,-55.5 1907.5,-55.5 1913.5,-55.5 1919.5,-61.5 1919.5,-67.5 1919.5,-67.5 1919.5,-79.5 1919.5,-79.5 1919.5,-85.5 1913.5,-91.5 1907.5,-91.5 1907.5,-91.5 1793.75,-91.5 1793.75,-91.5 1787.75,-91.5 1781.75,-85.5 1781.75,-79.5 1781.75,-79.5 1781.75,-67.5 1781.75,-67.5 1781.75,-61.5 1787.75,-55.5 1793.75,-55.5"/>
<text text-anchor="middle" x="1817.88" y="-69.2" font-family="Times,serif" font-size="14.00">value: 0</text>
<polyline fill="none" stroke="black" points="1854,-56.25 1854,-91.5"/>
<text text-anchor="middle" x="1886.75" y="-69.2" font-family="Times,serif" font-size="14.00">type: 2</text>
</g>
<!-- value13&#45;&gt;value4294967283 -->
<g id="edge17" class="edge">
<title>value13&#45;&gt;value4294967283</title>
<path fill="none" stroke="darkgreen" stroke-dasharray="5,2" d="M1704.09,-73.5C1725.01,-73.5 1748.22,-73.5 1769.84,-73.5"/>
<polygon fill="darkgreen" stroke="darkgreen" points="1769.81,-77 1779.81,-73.5 1769.81,-70 1769.81,-77"/>
<text text-anchor="middle" x="1742.75" y="-77.45" font-family="Times,serif" font-size="14.00">DTOR</text>
</g>
</g>
</svg>
