<?xml version="1.0" encoding="UTF-8" standalone="no"?>
<!DOCTYPE svg PUBLIC "-//W3C//DTD SVG 1.1//EN"
 "http://www.w3.org/Graphics/SVG/1.1/DTD/svg11.dtd">
<!-- Generated by graphviz version 9.0.0 (0)
 -->
<!-- Title: structs Pages: 1 -->
<svg width="2018pt" height="249pt"
 viewBox="0.00 0.00 2018.25 249.00" xmlns="http://www.w3.org/2000/svg" xmlns:xlink="http://www.w3.org/1999/xlink">
<g id="graph0" class="graph" transform="scale(1 1) rotate(0) translate(4 245)">
<title>structs</title>
<polygon fill="white" stroke="none" points="-4,4 -4,-245 2014.25,-245 2014.25,4 -4,4"/>
<!-- value0 -->
<g id="node1" class="node">
<title>value0</title>
<path fill="darkgreen" stroke="black" d="M12,-204.5C12,-204.5 131,-204.5 131,-204.5 137,-204.5 143,-210.5 143,-216.5 143,-216.5 143,-228.5 143,-228.5 143,-234.5 137,-240.5 131,-240.5 131,-240.5 12,-240.5 12,-240.5 6,-240.5 0,-234.5 0,-228.5 0,-228.5 0,-216.5 0,-216.5 0,-210.5 6,-204.5 12,-204.5"/>
<text text-anchor="middle" x="36.12" y="-218.2" font-family="Times,serif" font-size="14.00">value: 9</text>
<polyline fill="none" stroke="black" points="72.25,-205.25 72.25,-240.5"/>
<text text-anchor="middle" x="107.62" y="-218.2" font-family="Times,serif" font-size="14.00">temp: 0</text>
</g>
<!-- value1 -->
<g id="node2" class="node">
<title>value1</title>
<path fill="darkgreen" stroke="black" d="M232.25,-204.5C232.25,-204.5 351.25,-204.5 351.25,-204.5 357.25,-204.5 363.25,-210.5 363.25,-216.5 363.25,-216.5 363.25,-228.5 363.25,-228.5 363.25,-234.5 357.25,-240.5 351.25,-240.5 351.25,-240.5 232.25,-240.5 232.25,-240.5 226.25,-240.5 220.25,-234.5 220.25,-228.5 220.25,-228.5 220.25,-216.5 220.25,-216.5 220.25,-210.5 226.25,-204.5 232.25,-204.5"/>
<text text-anchor="middle" x="256.38" y="-218.2" font-family="Times,serif" font-size="14.00">value: 9</text>
<polyline fill="none" stroke="black" points="292.5,-205.25 292.5,-240.5"/>
<text text-anchor="middle" x="327.88" y="-218.2" font-family="Times,serif" font-size="14.00">temp: 0</text>
</g>
<!-- value0&#45;&gt;value1 -->
<g id="edge1" class="edge">
<title>value0&#45;&gt;value1</title>
<path fill="none" stroke="darkgreen" stroke-dasharray="5,2" d="M143.36,-222.5C164.14,-222.5 187.05,-222.5 208.48,-222.5"/>
<polygon fill="darkgreen" stroke="darkgreen" points="208.36,-226 218.36,-222.5 208.36,-219 208.36,-226"/>
<text text-anchor="middle" x="181.62" y="-226.45" font-family="Times,serif" font-size="14.00">CTOR</text>
</g>
<!-- oper0 -->
<g id="node9" class="node">
<title>oper0</title>
<path fill="orange" stroke="black" d="M461.25,-180.5C461.25,-180.5 491.25,-180.5 491.25,-180.5 497.25,-180.5 503.25,-186.5 503.25,-192.5 503.25,-192.5 503.25,-204.5 503.25,-204.5 503.25,-210.5 497.25,-216.5 491.25,-216.5 491.25,-216.5 461.25,-216.5 461.25,-216.5 455.25,-216.5 449.25,-210.5 449.25,-204.5 449.25,-204.5 449.25,-192.5 449.25,-192.5 449.25,-186.5 455.25,-180.5 461.25,-180.5"/>
<text text-anchor="middle" x="476.25" y="-194.2" font-family="Times,serif" font-size="14.00">+</text>
</g>
<!-- value1&#45;&gt;oper0 -->
<g id="edge5" class="edge">
<title>value1&#45;&gt;oper0</title>
<path fill="none" stroke="orange" stroke-dasharray="5,2" d="M363.57,-213.19C388.93,-209.85 416.51,-206.22 437.92,-203.41"/>
<polygon fill="orange" stroke="orange" points="438.17,-206.91 447.62,-202.13 437.25,-199.97 438.17,-206.91"/>
</g>
<!-- value2 -->
<g id="node3" class="node">
<title>value2</title>
<path fill="darkgreen" stroke="black" d="M12,-149.5C12,-149.5 131,-149.5 131,-149.5 137,-149.5 143,-155.5 143,-161.5 143,-161.5 143,-173.5 143,-173.5 143,-179.5 137,-185.5 131,-185.5 131,-185.5 12,-185.5 12,-185.5 6,-185.5 0,-179.5 0,-173.5 0,-173.5 0,-161.5 0,-161.5 0,-155.5 6,-149.5 12,-149.5"/>
<text text-anchor="middle" x="36.12" y="-163.2" font-family="Times,serif" font-size="14.00">value: 5</text>
<polyline fill="none" stroke="black" points="72.25,-150.25 72.25,-185.5"/>
<text text-anchor="middle" x="107.62" y="-163.2" font-family="Times,serif" font-size="14.00">temp: 0</text>
</g>
<!-- value3 -->
<g id="node4" class="node">
<title>value3</title>
<path fill="darkgreen" stroke="black" d="M232.25,-149.5C232.25,-149.5 351.25,-149.5 351.25,-149.5 357.25,-149.5 363.25,-155.5 363.25,-161.5 363.25,-161.5 363.25,-173.5 363.25,-173.5 363.25,-179.5 357.25,-185.5 351.25,-185.5 351.25,-185.5 232.25,-185.5 232.25,-185.5 226.25,-185.5 220.25,-179.5 220.25,-173.5 220.25,-173.5 220.25,-161.5 220.25,-161.5 220.25,-155.5 226.25,-149.5 232.25,-149.5"/>
<text text-anchor="middle" x="256.38" y="-163.2" font-family="Times,serif" font-size="14.00">value: 5</text>
<polyline fill="none" stroke="black" points="292.5,-150.25 292.5,-185.5"/>
<text text-anchor="middle" x="327.88" y="-163.2" font-family="Times,serif" font-size="14.00">temp: 0</text>
</g>
<!-- value2&#45;&gt;value3 -->
<g id="edge2" class="edge">
<title>value2&#45;&gt;value3</title>
<path fill="none" stroke="darkgreen" stroke-dasharray="5,2" d="M143.36,-167.5C164.14,-167.5 187.05,-167.5 208.48,-167.5"/>
<polygon fill="darkgreen" stroke="darkgreen" points="208.36,-171 218.36,-167.5 208.36,-164 208.36,-171"/>
<text text-anchor="middle" x="181.62" y="-171.45" font-family="Times,serif" font-size="14.00">CTOR</text>
</g>
<!-- value3&#45;&gt;oper0 -->
<g id="edge6" class="edge">
<title>value3&#45;&gt;oper0</title>
<path fill="none" stroke="orange" stroke-dasharray="5,2" d="M363.57,-179.53C388.93,-183.84 416.51,-188.52 437.92,-192.16"/>
<polygon fill="orange" stroke="orange" points="437.19,-195.58 447.63,-193.81 438.36,-188.68 437.19,-195.58"/>
</g>
<!-- value4 -->
<g id="node5" class="node">
<title>value4</title>
<path fill="darkgreen" stroke="black" d="M646,-57.5C646,-57.5 765,-57.5 765,-57.5 771,-57.5 777,-63.5 777,-69.5 777,-69.5 777,-81.5 777,-81.5 777,-87.5 771,-93.5 765,-93.5 765,-93.5 646,-93.5 646,-93.5 640,-93.5 634,-87.5 634,-81.5 634,-81.5 634,-69.5 634,-69.5 634,-63.5 640,-57.5 646,-57.5"/>
<text text-anchor="middle" x="670.12" y="-71.2" font-family="Times,serif" font-size="14.00">value: 9</text>
<polyline fill="none" stroke="black" points="706.25,-58.25 706.25,-93.5"/>
<text text-anchor="middle" x="741.62" y="-71.2" font-family="Times,serif" font-size="14.00">temp: 0</text>
</g>
<!-- value5 -->
<g id="node6" class="node">
<title>value5</title>
<path fill="darkgreen" stroke="black" d="M920.25,-57.5C920.25,-57.5 1039.25,-57.5 1039.25,-57.5 1045.25,-57.5 1051.25,-63.5 1051.25,-69.5 1051.25,-69.5 1051.25,-81.5 1051.25,-81.5 1051.25,-87.5 1045.25,-93.5 1039.25,-93.5 1039.25,-93.5 920.25,-93.5 920.25,-93.5 914.25,-93.5 908.25,-87.5 908.25,-81.5 908.25,-81.5 908.25,-69.5 908.25,-69.5 908.25,-63.5 914.25,-57.5 920.25,-57.5"/>
<text text-anchor="middle" x="944.38" y="-71.2" font-family="Times,serif" font-size="14.00">value: 9</text>
<polyline fill="none" stroke="black" points="980.5,-58.25 980.5,-93.5"/>
<text text-anchor="middle" x="1015.88" y="-71.2" font-family="Times,serif" font-size="14.00">temp: 0</text>
</g>
<!-- value4&#45;&gt;value5 -->
<g id="edge3" class="edge">
<title>value4&#45;&gt;value5</title>
<path fill="none" stroke="darkgreen" stroke-dasharray="5,2" d="M777.32,-75.5C813.89,-75.5 858.69,-75.5 896.75,-75.5"/>
<polygon fill="darkgreen" stroke="darkgreen" points="896.3,-79 906.3,-75.5 896.3,-72 896.3,-79"/>
<text text-anchor="middle" x="842.62" y="-79.45" font-family="Times,serif" font-size="14.00">CTOR</text>
</g>
<!-- oper1 -->
<g id="node14" class="node">
<title>oper1</title>
<path fill="#8b4513" stroke="black" d="M1194.75,-59.5C1194.75,-59.5 1224.75,-59.5 1224.75,-59.5 1230.75,-59.5 1236.75,-65.5 1236.75,-71.5 1236.75,-71.5 1236.75,-83.5 1236.75,-83.5 1236.75,-89.5 1230.75,-95.5 1224.75,-95.5 1224.75,-95.5 1194.75,-95.5 1194.75,-95.5 1188.75,-95.5 1182.75,-89.5 1182.75,-83.5 1182.75,-83.5 1182.75,-71.5 1182.75,-71.5 1182.75,-65.5 1188.75,-59.5 1194.75,-59.5"/>
<text text-anchor="middle" x="1209.75" y="-73.2" font-family="Times,serif" font-size="14.00">+</text>
</g>
<!-- value5&#45;&gt;oper1 -->
<g id="edge12" class="edge">
<title>value5&#45;&gt;oper1</title>
<path fill="none" stroke="#8b4513" stroke-dasharray="5,2" d="M1051.64,-76.12C1091.23,-76.47 1138.94,-76.89 1171.33,-77.17"/>
<polygon fill="#8b4513" stroke="#8b4513" points="1170.98,-80.67 1181.01,-77.26 1171.04,-73.67 1170.98,-80.67"/>
</g>
<!-- value6 -->
<g id="node7" class="node">
<title>value6</title>
<path fill="darkgreen" stroke="black" d="M412.25,-125.5C412.25,-125.5 540.25,-125.5 540.25,-125.5 546.25,-125.5 552.25,-131.5 552.25,-137.5 552.25,-137.5 552.25,-149.5 552.25,-149.5 552.25,-155.5 546.25,-161.5 540.25,-161.5 540.25,-161.5 412.25,-161.5 412.25,-161.5 406.25,-161.5 400.25,-155.5 400.25,-149.5 400.25,-149.5 400.25,-137.5 400.25,-137.5 400.25,-131.5 406.25,-125.5 412.25,-125.5"/>
<text text-anchor="middle" x="440.88" y="-139.2" font-family="Times,serif" font-size="14.00">value: 14</text>
<polyline fill="none" stroke="black" points="481.5,-126.25 481.5,-161.5"/>
<text text-anchor="middle" x="516.88" y="-139.2" font-family="Times,serif" font-size="14.00">temp: 0</text>
</g>
<!-- value7 -->
<g id="node8" class="node">
<title>value7</title>
<path fill="darkgreen" stroke="black" d="M641.5,-147.5C641.5,-147.5 769.5,-147.5 769.5,-147.5 775.5,-147.5 781.5,-153.5 781.5,-159.5 781.5,-159.5 781.5,-171.5 781.5,-171.5 781.5,-177.5 775.5,-183.5 769.5,-183.5 769.5,-183.5 641.5,-183.5 641.5,-183.5 635.5,-183.5 629.5,-177.5 629.5,-171.5 629.5,-171.5 629.5,-159.5 629.5,-159.5 629.5,-153.5 635.5,-147.5 641.5,-147.5"/>
<text text-anchor="middle" x="670.12" y="-161.2" font-family="Times,serif" font-size="14.00">value: 14</text>
<polyline fill="none" stroke="black" points="710.75,-148.25 710.75,-183.5"/>
<text text-anchor="middle" x="746.12" y="-161.2" font-family="Times,serif" font-size="14.00">temp: 0</text>
</g>
<!-- value6&#45;&gt;value7 -->
<g id="edge4" class="edge">
<title>value6&#45;&gt;value7</title>
<path fill="none" stroke="darkgreen" stroke-dasharray="5,2" d="M552.54,-149.79C571.77,-151.48 592.41,-153.36 611.5,-155.25 613.56,-155.45 615.65,-155.66 617.76,-155.88"/>
<polygon fill="darkgreen" stroke="darkgreen" points="617.33,-159.35 627.64,-156.89 618.05,-152.39 617.33,-159.35"/>
<text text-anchor="middle" x="590.88" y="-158.45" font-family="Times,serif" font-size="14.00">CTOR</text>
</g>
<!-- value9 -->
<g id="node10" class="node">
<title>value9</title>
<path fill="red" stroke="black" d="M915.75,-113.5C915.75,-113.5 1043.75,-113.5 1043.75,-113.5 1049.75,-113.5 1055.75,-119.5 1055.75,-125.5 1055.75,-125.5 1055.75,-137.5 1055.75,-137.5 1055.75,-143.5 1049.75,-149.5 1043.75,-149.5 1043.75,-149.5 915.75,-149.5 915.75,-149.5 909.75,-149.5 903.75,-143.5 903.75,-137.5 903.75,-137.5 903.75,-125.5 903.75,-125.5 903.75,-119.5 909.75,-113.5 915.75,-113.5"/>
<text text-anchor="middle" x="944.38" y="-127.2" font-family="Times,serif" font-size="14.00">value: 14</text>
<polyline fill="none" stroke="black" points="985,-114.25 985,-149.5"/>
<text text-anchor="middle" x="1020.38" y="-127.2" font-family="Times,serif" font-size="14.00">temp: 1</text>
</g>
<!-- value7&#45;&gt;value9 -->
<g id="edge8" class="edge">
<title>value7&#45;&gt;value9</title>
<path fill="none" stroke="darkgreen" stroke-dasharray="5,2" d="M781.84,-153.68C787.81,-152.83 793.75,-152.01 799.5,-151.25 829.78,-147.26 863,-143.45 892.54,-140.25"/>
<polygon fill="darkgreen" stroke="darkgreen" points="892.59,-143.77 902.16,-139.22 891.84,-136.81 892.59,-143.77"/>
<text text-anchor="middle" x="842.62" y="-154.45" font-family="Times,serif" font-size="14.00">COPY CTOR</text>
</g>
<!-- value4294967289 -->
<g id="node11" class="node">
<title>value4294967289</title>
<path fill="darkgreen" stroke="black" d="M920.25,-168.5C920.25,-168.5 1039.25,-168.5 1039.25,-168.5 1045.25,-168.5 1051.25,-174.5 1051.25,-180.5 1051.25,-180.5 1051.25,-192.5 1051.25,-192.5 1051.25,-198.5 1045.25,-204.5 1039.25,-204.5 1039.25,-204.5 920.25,-204.5 920.25,-204.5 914.25,-204.5 908.25,-198.5 908.25,-192.5 908.25,-192.5 908.25,-180.5 908.25,-180.5 908.25,-174.5 914.25,-168.5 920.25,-168.5"/>
<text text-anchor="middle" x="944.38" y="-182.2" font-family="Times,serif" font-size="14.00">value: 0</text>
<polyline fill="none" stroke="black" points="980.5,-169.25 980.5,-204.5"/>
<text text-anchor="middle" x="1015.88" y="-182.2" font-family="Times,serif" font-size="14.00">temp: 0</text>
</g>
<!-- value7&#45;&gt;value4294967289 -->
<g id="edge9" class="edge">
<title>value7&#45;&gt;value4294967289</title>
<path fill="none" stroke="darkgreen" stroke-dasharray="5,2" d="M781.98,-171.32C817.63,-174.07 860.26,-177.36 896.71,-180.17"/>
<polygon fill="darkgreen" stroke="darkgreen" points="896.06,-183.63 906.3,-180.91 896.6,-176.65 896.06,-183.63"/>
<text text-anchor="middle" x="842.62" y="-182.45" font-family="Times,serif" font-size="14.00">DTOR</text>
</g>
<!-- oper0&#45;&gt;value7 -->
<g id="edge7" class="edge">
<title>oper0&#45;&gt;value7</title>
<path fill="none" stroke="orange" stroke-dasharray="5,2" d="M503.32,-194.71C531.24,-190.66 577.06,-184.01 617.92,-178.07"/>
<polygon fill="orange" stroke="orange" points="618.4,-181.54 627.79,-176.64 617.4,-174.61 618.4,-181.54"/>
</g>
<!-- value9&#45;&gt;oper1 -->
<g id="edge11" class="edge">
<title>value9&#45;&gt;oper1</title>
<path fill="none" stroke="#8b4513" stroke-dasharray="5,2" d="M1056.04,-113.67C1094.85,-104.48 1140.46,-93.67 1171.67,-86.28"/>
<polygon fill="#8b4513" stroke="#8b4513" points="1172.07,-89.78 1181,-84.07 1170.46,-82.97 1172.07,-89.78"/>
</g>
<!-- value4294967287 -->
<g id="node17" class="node">
<title>value4294967287</title>
<path fill="red" stroke="black" d="M1150.25,-115.5C1150.25,-115.5 1269.25,-115.5 1269.25,-115.5 1275.25,-115.5 1281.25,-121.5 1281.25,-127.5 1281.25,-127.5 1281.25,-139.5 1281.25,-139.5 1281.25,-145.5 1275.25,-151.5 1269.25,-151.5 1269.25,-151.5 1150.25,-151.5 1150.25,-151.5 1144.25,-151.5 1138.25,-145.5 1138.25,-139.5 1138.25,-139.5 1138.25,-127.5 1138.25,-127.5 1138.25,-121.5 1144.25,-115.5 1150.25,-115.5"/>
<text text-anchor="middle" x="1174.38" y="-129.2" font-family="Times,serif" font-size="14.00">value: 0</text>
<polyline fill="none" stroke="black" points="1210.5,-116.25 1210.5,-151.5"/>
<text text-anchor="middle" x="1245.88" y="-129.2" font-family="Times,serif" font-size="14.00">temp: 1</text>
</g>
<!-- value9&#45;&gt;value4294967287 -->
<g id="edge16" class="edge">
<title>value9&#45;&gt;value4294967287</title>
<path fill="none" stroke="darkgreen" stroke-dasharray="5,2" d="M1056.04,-132.16C1078.56,-132.36 1103.38,-132.58 1126.33,-132.78"/>
<polygon fill="darkgreen" stroke="darkgreen" points="1126.25,-136.28 1136.28,-132.86 1126.31,-129.28 1126.25,-136.28"/>
<text text-anchor="middle" x="1094.75" y="-137.45" font-family="Times,serif" font-size="14.00">DTOR</text>
</g>
<!-- value10 -->
<g id="node12" class="node">
<title>value10</title>
<path fill="darkgreen" stroke="black" d="M1145.75,-4.5C1145.75,-4.5 1273.75,-4.5 1273.75,-4.5 1279.75,-4.5 1285.75,-10.5 1285.75,-16.5 1285.75,-16.5 1285.75,-28.5 1285.75,-28.5 1285.75,-34.5 1279.75,-40.5 1273.75,-40.5 1273.75,-40.5 1145.75,-40.5 1145.75,-40.5 1139.75,-40.5 1133.75,-34.5 1133.75,-28.5 1133.75,-28.5 1133.75,-16.5 1133.75,-16.5 1133.75,-10.5 1139.75,-4.5 1145.75,-4.5"/>
<text text-anchor="middle" x="1174.38" y="-18.2" font-family="Times,serif" font-size="14.00">value: 23</text>
<polyline fill="none" stroke="black" points="1215,-5.25 1215,-40.5"/>
<text text-anchor="middle" x="1250.38" y="-18.2" font-family="Times,serif" font-size="14.00">temp: 0</text>
</g>
<!-- value11 -->
<g id="node13" class="node">
<title>value11</title>
<path fill="darkgreen" stroke="black" d="M1375,-20.5C1375,-20.5 1503,-20.5 1503,-20.5 1509,-20.5 1515,-26.5 1515,-32.5 1515,-32.5 1515,-44.5 1515,-44.5 1515,-50.5 1509,-56.5 1503,-56.5 1503,-56.5 1375,-56.5 1375,-56.5 1369,-56.5 1363,-50.5 1363,-44.5 1363,-44.5 1363,-32.5 1363,-32.5 1363,-26.5 1369,-20.5 1375,-20.5"/>
<text text-anchor="middle" x="1403.62" y="-34.2" font-family="Times,serif" font-size="14.00">value: 23</text>
<polyline fill="none" stroke="black" points="1444.25,-21.25 1444.25,-56.5"/>
<text text-anchor="middle" x="1479.62" y="-34.2" font-family="Times,serif" font-size="14.00">temp: 0</text>
</g>
<!-- value10&#45;&gt;value11 -->
<g id="edge10" class="edge">
<title>value10&#45;&gt;value11</title>
<path fill="none" stroke="darkgreen" stroke-dasharray="5,2" d="M1286.11,-27.81C1307.02,-29.28 1329.9,-30.89 1351.41,-32.4"/>
<polygon fill="darkgreen" stroke="darkgreen" points="1351.12,-35.89 1361.34,-33.1 1351.61,-28.91 1351.12,-35.89"/>
<text text-anchor="middle" x="1324.38" y="-36.45" font-family="Times,serif" font-size="14.00">CTOR</text>
</g>
<!-- value13 -->
<g id="node15" class="node">
<title>value13</title>
<path fill="red" stroke="black" d="M1649.25,-55.5C1649.25,-55.5 1777.25,-55.5 1777.25,-55.5 1783.25,-55.5 1789.25,-61.5 1789.25,-67.5 1789.25,-67.5 1789.25,-79.5 1789.25,-79.5 1789.25,-85.5 1783.25,-91.5 1777.25,-91.5 1777.25,-91.5 1649.25,-91.5 1649.25,-91.5 1643.25,-91.5 1637.25,-85.5 1637.25,-79.5 1637.25,-79.5 1637.25,-67.5 1637.25,-67.5 1637.25,-61.5 1643.25,-55.5 1649.25,-55.5"/>
<text text-anchor="middle" x="1677.88" y="-69.2" font-family="Times,serif" font-size="14.00">value: 23</text>
<polyline fill="none" stroke="black" points="1718.5,-56.25 1718.5,-91.5"/>
<text text-anchor="middle" x="1753.88" y="-69.2" font-family="Times,serif" font-size="14.00">temp: 1</text>
</g>
<!-- value11&#45;&gt;value13 -->
<g id="edge14" class="edge">
<title>value11&#45;&gt;value13</title>
<path fill="none" stroke="darkgreen" stroke-dasharray="5,2" d="M1515.48,-48.2C1549.7,-52.6 1590.35,-57.83 1625.79,-62.38"/>
<polygon fill="darkgreen" stroke="darkgreen" points="1625.23,-65.84 1635.6,-63.65 1626.13,-58.9 1625.23,-65.84"/>
<text text-anchor="middle" x="1576.12" y="-65.45" font-family="Times,serif" font-size="14.00">COPY CTOR</text>
</g>
<!-- value4294967285 -->
<g id="node16" class="node">
<title>value4294967285</title>
<path fill="darkgreen" stroke="black" d="M1653.75,-0.5C1653.75,-0.5 1772.75,-0.5 1772.75,-0.5 1778.75,-0.5 1784.75,-6.5 1784.75,-12.5 1784.75,-12.5 1784.75,-24.5 1784.75,-24.5 1784.75,-30.5 1778.75,-36.5 1772.75,-36.5 1772.75,-36.5 1653.75,-36.5 1653.75,-36.5 1647.75,-36.5 1641.75,-30.5 1641.75,-24.5 1641.75,-24.5 1641.75,-12.5 1641.75,-12.5 1641.75,-6.5 1647.75,-0.5 1653.75,-0.5"/>
<text text-anchor="middle" x="1677.88" y="-14.2" font-family="Times,serif" font-size="14.00">value: 0</text>
<polyline fill="none" stroke="black" points="1714,-1.25 1714,-36.5"/>
<text text-anchor="middle" x="1749.38" y="-14.2" font-family="Times,serif" font-size="14.00">temp: 0</text>
</g>
<!-- value11&#45;&gt;value4294967285 -->
<g id="edge15" class="edge">
<title>value11&#45;&gt;value4294967285</title>
<path fill="none" stroke="darkgreen" stroke-dasharray="5,2" d="M1515.31,-28.01C1521.29,-27.35 1527.24,-26.75 1533,-26.25 1564.64,-23.49 1599.52,-21.7 1630.03,-20.54"/>
<polygon fill="darkgreen" stroke="darkgreen" points="1630.11,-24.04 1639.98,-20.18 1629.86,-17.04 1630.11,-24.04"/>
<text text-anchor="middle" x="1576.12" y="-30.45" font-family="Times,serif" font-size="14.00">DTOR</text>
</g>
<!-- oper1&#45;&gt;value11 -->
<g id="edge13" class="edge">
<title>oper1&#45;&gt;value11</title>
<path fill="none" stroke="#8b4513" stroke-dasharray="5,2" d="M1236.82,-73.03C1264.8,-68.22 1310.75,-60.34 1351.68,-53.31"/>
<polygon fill="#8b4513" stroke="#8b4513" points="1352.04,-56.8 1361.3,-51.66 1350.85,-49.9 1352.04,-56.8"/>
</g>
<!-- value4294967283 -->
<g id="node18" class="node">
<title>value4294967283</title>
<path fill="red" stroke="black" d="M1879.25,-55.5C1879.25,-55.5 1998.25,-55.5 1998.25,-55.5 2004.25,-55.5 2010.25,-61.5 2010.25,-67.5 2010.25,-67.5 2010.25,-79.5 2010.25,-79.5 2010.25,-85.5 2004.25,-91.5 1998.25,-91.5 1998.25,-91.5 1879.25,-91.5 1879.25,-91.5 1873.25,-91.5 1867.25,-85.5 1867.25,-79.5 1867.25,-79.5 1867.25,-67.5 1867.25,-67.5 1867.25,-61.5 1873.25,-55.5 1879.25,-55.5"/>
<text text-anchor="middle" x="1903.38" y="-69.2" font-family="Times,serif" font-size="14.00">value: 0</text>
<polyline fill="none" stroke="black" points="1939.5,-56.25 1939.5,-91.5"/>
<text text-anchor="middle" x="1974.88" y="-69.2" font-family="Times,serif" font-size="14.00">temp: 1</text>
</g>
<!-- value13&#45;&gt;value4294967283 -->
<g id="edge17" class="edge">
<title>value13&#45;&gt;value4294967283</title>
<path fill="none" stroke="darkgreen" stroke-dasharray="5,2" d="M1789.61,-73.5C1810.77,-73.5 1833.88,-73.5 1855.43,-73.5"/>
<polygon fill="darkgreen" stroke="darkgreen" points="1855.36,-77 1865.36,-73.5 1855.36,-70 1855.36,-77"/>
<text text-anchor="middle" x="1828.25" y="-77.45" font-family="Times,serif" font-size="14.00">DTOR</text>
</g>
</g>
</svg>
