<?xml version="1.0" encoding="UTF-8" standalone="no"?>
<!DOCTYPE svg PUBLIC "-//W3C//DTD SVG 1.1//EN"
 "http://www.w3.org/Graphics/SVG/1.1/DTD/svg11.dtd">
<!-- Generated by graphviz version 9.0.0 (0)
 -->
<!-- Title: structs Pages: 1 -->
<svg width="1591pt" height="210pt"
 viewBox="0.00 0.00 1591.00 210.00" xmlns="http://www.w3.org/2000/svg" xmlns:xlink="http://www.w3.org/1999/xlink">
<g id="graph0" class="graph" transform="scale(1 1) rotate(0) translate(4 206)">
<title>structs</title>
<polygon fill="white" stroke="none" points="-4,4 -4,-206 1587,-206 1587,4 -4,4"/>
<!-- value0 -->
<g id="node1" class="node">
<title>value0</title>
<path fill="darkgreen" stroke="black" d="M12,-22.5C12,-22.5 131,-22.5 131,-22.5 137,-22.5 143,-28.5 143,-34.5 143,-34.5 143,-46.5 143,-46.5 143,-52.5 137,-58.5 131,-58.5 131,-58.5 12,-58.5 12,-58.5 6,-58.5 0,-52.5 0,-46.5 0,-46.5 0,-34.5 0,-34.5 0,-28.5 6,-22.5 12,-22.5"/>
<text text-anchor="middle" x="36.12" y="-36.2" font-family="Times,serif" font-size="14.00">value: 5</text>
<polyline fill="none" stroke="black" points="72.25,-23.25 72.25,-58.5"/>
<text text-anchor="middle" x="107.62" y="-36.2" font-family="Times,serif" font-size="14.00">temp: 0</text>
</g>
<!-- value1 -->
<g id="node2" class="node">
<title>value1</title>
<path fill="darkgreen" stroke="black" d="M232.25,-22.5C232.25,-22.5 351.25,-22.5 351.25,-22.5 357.25,-22.5 363.25,-28.5 363.25,-34.5 363.25,-34.5 363.25,-46.5 363.25,-46.5 363.25,-52.5 357.25,-58.5 351.25,-58.5 351.25,-58.5 232.25,-58.5 232.25,-58.5 226.25,-58.5 220.25,-52.5 220.25,-46.5 220.25,-46.5 220.25,-34.5 220.25,-34.5 220.25,-28.5 226.25,-22.5 232.25,-22.5"/>
<text text-anchor="middle" x="256.38" y="-36.2" font-family="Times,serif" font-size="14.00">value: 5</text>
<polyline fill="none" stroke="black" points="292.5,-23.25 292.5,-58.5"/>
<text text-anchor="middle" x="327.88" y="-36.2" font-family="Times,serif" font-size="14.00">temp: 0</text>
</g>
<!-- value0&#45;&gt;value1 -->
<g id="edge1" class="edge">
<title>value0&#45;&gt;value1</title>
<path fill="none" stroke="darkgreen" stroke-dasharray="5,2" d="M143.36,-40.5C164.14,-40.5 187.05,-40.5 208.48,-40.5"/>
<polygon fill="darkgreen" stroke="darkgreen" points="208.36,-44 218.36,-40.5 208.36,-37 208.36,-44"/>
<text text-anchor="middle" x="181.62" y="-44.45" font-family="Times,serif" font-size="14.00">CTOR</text>
</g>
<!-- value7 -->
<g id="node6" class="node">
<title>value7</title>
<path fill="red" stroke="black" d="M497.5,-22.5C497.5,-22.5 616.5,-22.5 616.5,-22.5 622.5,-22.5 628.5,-28.5 628.5,-34.5 628.5,-34.5 628.5,-46.5 628.5,-46.5 628.5,-52.5 622.5,-58.5 616.5,-58.5 616.5,-58.5 497.5,-58.5 497.5,-58.5 491.5,-58.5 485.5,-52.5 485.5,-46.5 485.5,-46.5 485.5,-34.5 485.5,-34.5 485.5,-28.5 491.5,-22.5 497.5,-22.5"/>
<text text-anchor="middle" x="521.62" y="-36.2" font-family="Times,serif" font-size="14.00">value: 5</text>
<polyline fill="none" stroke="black" points="557.75,-23.25 557.75,-58.5"/>
<text text-anchor="middle" x="593.12" y="-36.2" font-family="Times,serif" font-size="14.00">temp: 1</text>
</g>
<!-- value1&#45;&gt;value7 -->
<g id="edge4" class="edge">
<title>value1&#45;&gt;value7</title>
<path fill="none" stroke="darkgreen" stroke-dasharray="5,2" d="M363.64,-40.5C397.72,-40.5 438.76,-40.5 474.16,-40.5"/>
<polygon fill="darkgreen" stroke="darkgreen" points="473.92,-44 483.92,-40.5 473.92,-37 473.92,-44"/>
<text text-anchor="middle" x="424.38" y="-44.45" font-family="Times,serif" font-size="14.00">COPY CTOR</text>
</g>
<!-- value2 -->
<g id="node3" class="node">
<title>value2</title>
<path fill="darkgreen" stroke="black" d="M12,-88.5C12,-88.5 131,-88.5 131,-88.5 137,-88.5 143,-94.5 143,-100.5 143,-100.5 143,-112.5 143,-112.5 143,-118.5 137,-124.5 131,-124.5 131,-124.5 12,-124.5 12,-124.5 6,-124.5 0,-118.5 0,-112.5 0,-112.5 0,-100.5 0,-100.5 0,-94.5 6,-88.5 12,-88.5"/>
<text text-anchor="middle" x="36.12" y="-102.2" font-family="Times,serif" font-size="14.00">value: 5</text>
<polyline fill="none" stroke="black" points="72.25,-89.25 72.25,-124.5"/>
<text text-anchor="middle" x="107.62" y="-102.2" font-family="Times,serif" font-size="14.00">temp: 0</text>
</g>
<!-- value3 -->
<g id="node4" class="node">
<title>value3</title>
<path fill="darkgreen" stroke="black" d="M232.25,-88.5C232.25,-88.5 351.25,-88.5 351.25,-88.5 357.25,-88.5 363.25,-94.5 363.25,-100.5 363.25,-100.5 363.25,-112.5 363.25,-112.5 363.25,-118.5 357.25,-124.5 351.25,-124.5 351.25,-124.5 232.25,-124.5 232.25,-124.5 226.25,-124.5 220.25,-118.5 220.25,-112.5 220.25,-112.5 220.25,-100.5 220.25,-100.5 220.25,-94.5 226.25,-88.5 232.25,-88.5"/>
<text text-anchor="middle" x="256.38" y="-102.2" font-family="Times,serif" font-size="14.00">value: 5</text>
<polyline fill="none" stroke="black" points="292.5,-89.25 292.5,-124.5"/>
<text text-anchor="middle" x="327.88" y="-102.2" font-family="Times,serif" font-size="14.00">temp: 0</text>
</g>
<!-- value2&#45;&gt;value3 -->
<g id="edge2" class="edge">
<title>value2&#45;&gt;value3</title>
<path fill="none" stroke="darkgreen" stroke-dasharray="5,2" d="M143.36,-106.5C164.14,-106.5 187.05,-106.5 208.48,-106.5"/>
<polygon fill="darkgreen" stroke="darkgreen" points="208.36,-110 218.36,-106.5 208.36,-103 208.36,-110"/>
<text text-anchor="middle" x="181.62" y="-110.45" font-family="Times,serif" font-size="14.00">CTOR</text>
</g>
<!-- value5 -->
<g id="node5" class="node">
<title>value5</title>
<path fill="red" stroke="black" d="M497.5,-88.5C497.5,-88.5 616.5,-88.5 616.5,-88.5 622.5,-88.5 628.5,-94.5 628.5,-100.5 628.5,-100.5 628.5,-112.5 628.5,-112.5 628.5,-118.5 622.5,-124.5 616.5,-124.5 616.5,-124.5 497.5,-124.5 497.5,-124.5 491.5,-124.5 485.5,-118.5 485.5,-112.5 485.5,-112.5 485.5,-100.5 485.5,-100.5 485.5,-94.5 491.5,-88.5 497.5,-88.5"/>
<text text-anchor="middle" x="521.62" y="-102.2" font-family="Times,serif" font-size="14.00">value: 5</text>
<polyline fill="none" stroke="black" points="557.75,-89.25 557.75,-124.5"/>
<text text-anchor="middle" x="593.12" y="-102.2" font-family="Times,serif" font-size="14.00">temp: 1</text>
</g>
<!-- value3&#45;&gt;value5 -->
<g id="edge3" class="edge">
<title>value3&#45;&gt;value5</title>
<path fill="none" stroke="darkgreen" stroke-dasharray="5,2" d="M363.64,-106.5C397.72,-106.5 438.76,-106.5 474.16,-106.5"/>
<polygon fill="darkgreen" stroke="darkgreen" points="473.92,-110 483.92,-106.5 473.92,-103 473.92,-110"/>
<text text-anchor="middle" x="424.38" y="-110.45" font-family="Times,serif" font-size="14.00">COPY CTOR</text>
</g>
<!-- oper0 -->
<g id="node9" class="node">
<title>oper0</title>
<path fill="blue" stroke="black" d="M767.5,-55.5C767.5,-55.5 797.5,-55.5 797.5,-55.5 803.5,-55.5 809.5,-61.5 809.5,-67.5 809.5,-67.5 809.5,-79.5 809.5,-79.5 809.5,-85.5 803.5,-91.5 797.5,-91.5 797.5,-91.5 767.5,-91.5 767.5,-91.5 761.5,-91.5 755.5,-85.5 755.5,-79.5 755.5,-79.5 755.5,-67.5 755.5,-67.5 755.5,-61.5 761.5,-55.5 767.5,-55.5"/>
<text text-anchor="middle" x="782.5" y="-69.2" font-family="Times,serif" font-size="14.00">+</text>
</g>
<!-- value5&#45;&gt;oper0 -->
<g id="edge7" class="edge">
<title>value5&#45;&gt;oper0</title>
<path fill="none" stroke="blue" stroke-dasharray="5,2" d="M628.72,-96.06C666.93,-90.42 712.58,-83.68 743.97,-79.04"/>
<polygon fill="blue" stroke="blue" points="744.38,-82.52 753.76,-77.6 743.36,-75.59 744.38,-82.52"/>
</g>
<!-- value4294967291 -->
<g id="node13" class="node">
<title>value4294967291</title>
<path fill="red" stroke="black" d="M723,-110.5C723,-110.5 842,-110.5 842,-110.5 848,-110.5 854,-116.5 854,-122.5 854,-122.5 854,-134.5 854,-134.5 854,-140.5 848,-146.5 842,-146.5 842,-146.5 723,-146.5 723,-146.5 717,-146.5 711,-140.5 711,-134.5 711,-134.5 711,-122.5 711,-122.5 711,-116.5 717,-110.5 723,-110.5"/>
<text text-anchor="middle" x="747.12" y="-124.2" font-family="Times,serif" font-size="14.00">value: 0</text>
<polyline fill="none" stroke="black" points="783.25,-111.25 783.25,-146.5"/>
<text text-anchor="middle" x="818.62" y="-124.2" font-family="Times,serif" font-size="14.00">temp: 1</text>
</g>
<!-- value5&#45;&gt;value4294967291 -->
<g id="edge12" class="edge">
<title>value5&#45;&gt;value4294967291</title>
<path fill="none" stroke="darkgreen" stroke-dasharray="5,2" d="M628.72,-113.46C651.25,-115.68 676.36,-118.15 699.61,-120.44"/>
<polygon fill="darkgreen" stroke="darkgreen" points="699.06,-123.9 709.35,-121.4 699.74,-116.94 699.06,-123.9"/>
<text text-anchor="middle" x="667.5" y="-122.45" font-family="Times,serif" font-size="14.00">DTOR</text>
</g>
<!-- value7&#45;&gt;oper0 -->
<g id="edge6" class="edge">
<title>value7&#45;&gt;oper0</title>
<path fill="none" stroke="blue" stroke-dasharray="5,2" d="M628.72,-50.94C666.93,-56.58 712.58,-63.32 743.97,-67.96"/>
<polygon fill="blue" stroke="blue" points="743.36,-71.41 753.76,-69.4 744.38,-64.48 743.36,-71.41"/>
</g>
<!-- value4294967289 -->
<g id="node12" class="node">
<title>value4294967289</title>
<path fill="red" stroke="black" d="M723,-0.5C723,-0.5 842,-0.5 842,-0.5 848,-0.5 854,-6.5 854,-12.5 854,-12.5 854,-24.5 854,-24.5 854,-30.5 848,-36.5 842,-36.5 842,-36.5 723,-36.5 723,-36.5 717,-36.5 711,-30.5 711,-24.5 711,-24.5 711,-12.5 711,-12.5 711,-6.5 717,-0.5 723,-0.5"/>
<text text-anchor="middle" x="747.12" y="-14.2" font-family="Times,serif" font-size="14.00">value: 0</text>
<polyline fill="none" stroke="black" points="783.25,-1.25 783.25,-36.5"/>
<text text-anchor="middle" x="818.62" y="-14.2" font-family="Times,serif" font-size="14.00">temp: 1</text>
</g>
<!-- value7&#45;&gt;value4294967289 -->
<g id="edge11" class="edge">
<title>value7&#45;&gt;value4294967289</title>
<path fill="none" stroke="darkgreen" stroke-dasharray="5,2" d="M628.88,-26.59C634.82,-25.7 640.76,-24.9 646.5,-24.25 663.52,-22.33 681.81,-21.04 699.27,-20.18"/>
<polygon fill="darkgreen" stroke="darkgreen" points="699.25,-23.68 709.08,-19.74 698.93,-16.69 699.25,-23.68"/>
<text text-anchor="middle" x="667.5" y="-28.45" font-family="Times,serif" font-size="14.00">DTOR</text>
</g>
<!-- value8 -->
<g id="node7" class="node">
<title>value8</title>
<path fill="darkgreen" stroke="black" d="M718.5,-165.5C718.5,-165.5 846.5,-165.5 846.5,-165.5 852.5,-165.5 858.5,-171.5 858.5,-177.5 858.5,-177.5 858.5,-189.5 858.5,-189.5 858.5,-195.5 852.5,-201.5 846.5,-201.5 846.5,-201.5 718.5,-201.5 718.5,-201.5 712.5,-201.5 706.5,-195.5 706.5,-189.5 706.5,-189.5 706.5,-177.5 706.5,-177.5 706.5,-171.5 712.5,-165.5 718.5,-165.5"/>
<text text-anchor="middle" x="747.12" y="-179.2" font-family="Times,serif" font-size="14.00">value: 10</text>
<polyline fill="none" stroke="black" points="787.75,-166.25 787.75,-201.5"/>
<text text-anchor="middle" x="823.12" y="-179.2" font-family="Times,serif" font-size="14.00">temp: 0</text>
</g>
<!-- value9 -->
<g id="node8" class="node">
<title>value9</title>
<path fill="darkgreen" stroke="black" d="M947.75,-129.5C947.75,-129.5 1075.75,-129.5 1075.75,-129.5 1081.75,-129.5 1087.75,-135.5 1087.75,-141.5 1087.75,-141.5 1087.75,-153.5 1087.75,-153.5 1087.75,-159.5 1081.75,-165.5 1075.75,-165.5 1075.75,-165.5 947.75,-165.5 947.75,-165.5 941.75,-165.5 935.75,-159.5 935.75,-153.5 935.75,-153.5 935.75,-141.5 935.75,-141.5 935.75,-135.5 941.75,-129.5 947.75,-129.5"/>
<text text-anchor="middle" x="976.38" y="-143.2" font-family="Times,serif" font-size="14.00">value: 10</text>
<polyline fill="none" stroke="black" points="1017,-130.25 1017,-165.5"/>
<text text-anchor="middle" x="1052.38" y="-143.2" font-family="Times,serif" font-size="14.00">temp: 0</text>
</g>
<!-- value8&#45;&gt;value9 -->
<g id="edge5" class="edge">
<title>value8&#45;&gt;value9</title>
<path fill="none" stroke="darkgreen" stroke-dasharray="5,2" d="M858.86,-171.56C879.87,-168.23 902.86,-164.59 924.45,-161.17"/>
<polygon fill="darkgreen" stroke="darkgreen" points="924.77,-164.66 934.1,-159.64 923.68,-157.75 924.77,-164.66"/>
<text text-anchor="middle" x="897.12" y="-172.45" font-family="Times,serif" font-size="14.00">CTOR</text>
</g>
<!-- value11 -->
<g id="node10" class="node">
<title>value11</title>
<path fill="red" stroke="black" d="M1222,-164.5C1222,-164.5 1350,-164.5 1350,-164.5 1356,-164.5 1362,-170.5 1362,-176.5 1362,-176.5 1362,-188.5 1362,-188.5 1362,-194.5 1356,-200.5 1350,-200.5 1350,-200.5 1222,-200.5 1222,-200.5 1216,-200.5 1210,-194.5 1210,-188.5 1210,-188.5 1210,-176.5 1210,-176.5 1210,-170.5 1216,-164.5 1222,-164.5"/>
<text text-anchor="middle" x="1250.62" y="-178.2" font-family="Times,serif" font-size="14.00">value: 10</text>
<polyline fill="none" stroke="black" points="1291.25,-165.25 1291.25,-200.5"/>
<text text-anchor="middle" x="1326.62" y="-178.2" font-family="Times,serif" font-size="14.00">temp: 1</text>
</g>
<!-- value9&#45;&gt;value11 -->
<g id="edge9" class="edge">
<title>value9&#45;&gt;value11</title>
<path fill="none" stroke="darkgreen" stroke-dasharray="5,2" d="M1088.23,-157.2C1122.45,-161.6 1163.1,-166.83 1198.54,-171.38"/>
<polygon fill="darkgreen" stroke="darkgreen" points="1197.98,-174.84 1208.35,-172.65 1198.88,-167.9 1197.98,-174.84"/>
<text text-anchor="middle" x="1148.88" y="-173.45" font-family="Times,serif" font-size="14.00">COPY CTOR</text>
</g>
<!-- value4294967287 -->
<g id="node11" class="node">
<title>value4294967287</title>
<path fill="darkgreen" stroke="black" d="M1226.5,-109.5C1226.5,-109.5 1345.5,-109.5 1345.5,-109.5 1351.5,-109.5 1357.5,-115.5 1357.5,-121.5 1357.5,-121.5 1357.5,-133.5 1357.5,-133.5 1357.5,-139.5 1351.5,-145.5 1345.5,-145.5 1345.5,-145.5 1226.5,-145.5 1226.5,-145.5 1220.5,-145.5 1214.5,-139.5 1214.5,-133.5 1214.5,-133.5 1214.5,-121.5 1214.5,-121.5 1214.5,-115.5 1220.5,-109.5 1226.5,-109.5"/>
<text text-anchor="middle" x="1250.62" y="-123.2" font-family="Times,serif" font-size="14.00">value: 0</text>
<polyline fill="none" stroke="black" points="1286.75,-110.25 1286.75,-145.5"/>
<text text-anchor="middle" x="1322.12" y="-123.2" font-family="Times,serif" font-size="14.00">temp: 0</text>
</g>
<!-- value9&#45;&gt;value4294967287 -->
<g id="edge10" class="edge">
<title>value9&#45;&gt;value4294967287</title>
<path fill="none" stroke="darkgreen" stroke-dasharray="5,2" d="M1088.06,-137.01C1094.04,-136.35 1099.99,-135.75 1105.75,-135.25 1137.39,-132.49 1172.27,-130.7 1202.78,-129.54"/>
<polygon fill="darkgreen" stroke="darkgreen" points="1202.86,-133.04 1212.73,-129.18 1202.61,-126.04 1202.86,-133.04"/>
<text text-anchor="middle" x="1148.88" y="-138.45" font-family="Times,serif" font-size="14.00">DTOR</text>
</g>
<!-- oper0&#45;&gt;value9 -->
<g id="edge8" class="edge">
<title>oper0&#45;&gt;value9</title>
<path fill="none" stroke="blue" stroke-dasharray="5,2" d="M809.57,-81.99C841.99,-92.55 898.53,-110.96 943.44,-125.58"/>
<polygon fill="blue" stroke="blue" points="942.26,-128.88 952.85,-128.65 944.42,-122.22 942.26,-128.88"/>
</g>
<!-- value4294967285 -->
<g id="node14" class="node">
<title>value4294967285</title>
<path fill="red" stroke="black" d="M1452,-164.5C1452,-164.5 1571,-164.5 1571,-164.5 1577,-164.5 1583,-170.5 1583,-176.5 1583,-176.5 1583,-188.5 1583,-188.5 1583,-194.5 1577,-200.5 1571,-200.5 1571,-200.5 1452,-200.5 1452,-200.5 1446,-200.5 1440,-194.5 1440,-188.5 1440,-188.5 1440,-176.5 1440,-176.5 1440,-170.5 1446,-164.5 1452,-164.5"/>
<text text-anchor="middle" x="1476.12" y="-178.2" font-family="Times,serif" font-size="14.00">value: 0</text>
<polyline fill="none" stroke="black" points="1512.25,-165.25 1512.25,-200.5"/>
<text text-anchor="middle" x="1547.62" y="-178.2" font-family="Times,serif" font-size="14.00">temp: 1</text>
</g>
<!-- value11&#45;&gt;value4294967285 -->
<g id="edge13" class="edge">
<title>value11&#45;&gt;value4294967285</title>
<path fill="none" stroke="darkgreen" stroke-dasharray="5,2" d="M1362.36,-182.5C1383.52,-182.5 1406.63,-182.5 1428.18,-182.5"/>
<polygon fill="darkgreen" stroke="darkgreen" points="1428.11,-186 1438.11,-182.5 1428.11,-179 1428.11,-186"/>
<text text-anchor="middle" x="1401" y="-186.45" font-family="Times,serif" font-size="14.00">DTOR</text>
</g>
</g>
</svg>
