<?xml version="1.0" encoding="UTF-8" standalone="no"?>
<!DOCTYPE svg PUBLIC "-//W3C//DTD SVG 1.1//EN"
 "http://www.w3.org/Graphics/SVG/1.1/DTD/svg11.dtd">
<!-- Generated by graphviz version 9.0.0 (0)
 -->
<!-- Title: structs Pages: 1 -->
<svg width="1258pt" height="128pt"
 viewBox="0.00 0.00 1257.75 128.00" xmlns="http://www.w3.org/2000/svg" xmlns:xlink="http://www.w3.org/1999/xlink">
<g id="graph0" class="graph" transform="scale(1 1) rotate(0) translate(4 124)">
<title>structs</title>
<polygon fill="white" stroke="none" points="-4,4 -4,-124 1253.75,-124 1253.75,4 -4,4"/>
<!-- value0 -->
<g id="node1" class="node">
<title>value0</title>
<path fill="darkgreen" stroke="black" d="M12,-83.5C12,-83.5 131,-83.5 131,-83.5 137,-83.5 143,-89.5 143,-95.5 143,-95.5 143,-107.5 143,-107.5 143,-113.5 137,-119.5 131,-119.5 131,-119.5 12,-119.5 12,-119.5 6,-119.5 0,-113.5 0,-107.5 0,-107.5 0,-95.5 0,-95.5 0,-89.5 6,-83.5 12,-83.5"/>
<text text-anchor="middle" x="36.12" y="-97.2" font-family="Times,serif" font-size="14.00">value: 1</text>
<polyline fill="none" stroke="black" points="72.25,-84.25 72.25,-119.5"/>
<text text-anchor="middle" x="107.62" y="-97.2" font-family="Times,serif" font-size="14.00">temp: 0</text>
</g>
<!-- value1 -->
<g id="node2" class="node">
<title>value1</title>
<path fill="darkgreen" stroke="black" d="M232.25,-83.5C232.25,-83.5 351.25,-83.5 351.25,-83.5 357.25,-83.5 363.25,-89.5 363.25,-95.5 363.25,-95.5 363.25,-107.5 363.25,-107.5 363.25,-113.5 357.25,-119.5 351.25,-119.5 351.25,-119.5 232.25,-119.5 232.25,-119.5 226.25,-119.5 220.25,-113.5 220.25,-107.5 220.25,-107.5 220.25,-95.5 220.25,-95.5 220.25,-89.5 226.25,-83.5 232.25,-83.5"/>
<text text-anchor="middle" x="256.38" y="-97.2" font-family="Times,serif" font-size="14.00">value: 1</text>
<polyline fill="none" stroke="black" points="292.5,-84.25 292.5,-119.5"/>
<text text-anchor="middle" x="327.88" y="-97.2" font-family="Times,serif" font-size="14.00">temp: 0</text>
</g>
<!-- value0&#45;&gt;value1 -->
<g id="edge1" class="edge">
<title>value0&#45;&gt;value1</title>
<path fill="none" stroke="darkgreen" stroke-dasharray="5,2" d="M143.36,-101.5C164.14,-101.5 187.05,-101.5 208.48,-101.5"/>
<polygon fill="darkgreen" stroke="darkgreen" points="208.36,-105 218.36,-101.5 208.36,-98 208.36,-105"/>
<text text-anchor="middle" x="181.62" y="-105.45" font-family="Times,serif" font-size="14.00">CTOR</text>
</g>
<!-- oper0 -->
<g id="node7" class="node">
<title>oper0</title>
<path fill="orange" stroke="black" d="M456.75,-59.5C456.75,-59.5 486.75,-59.5 486.75,-59.5 492.75,-59.5 498.75,-65.5 498.75,-71.5 498.75,-71.5 498.75,-83.5 498.75,-83.5 498.75,-89.5 492.75,-95.5 486.75,-95.5 486.75,-95.5 456.75,-95.5 456.75,-95.5 450.75,-95.5 444.75,-89.5 444.75,-83.5 444.75,-83.5 444.75,-71.5 444.75,-71.5 444.75,-65.5 450.75,-59.5 456.75,-59.5"/>
<text text-anchor="middle" x="471.75" y="-73.2" font-family="Times,serif" font-size="14.00">+</text>
</g>
<!-- value1&#45;&gt;oper0 -->
<g id="edge4" class="edge">
<title>value1&#45;&gt;oper0</title>
<path fill="none" stroke="orange" stroke-dasharray="5,2" d="M363.61,-91.95C387.44,-88.73 413.08,-85.28 433.3,-82.55"/>
<polygon fill="orange" stroke="orange" points="433.58,-86.04 443.02,-81.24 432.64,-79.11 433.58,-86.04"/>
</g>
<!-- value2 -->
<g id="node3" class="node">
<title>value2</title>
<path fill="darkgreen" stroke="black" d="M12,-28.5C12,-28.5 131,-28.5 131,-28.5 137,-28.5 143,-34.5 143,-40.5 143,-40.5 143,-52.5 143,-52.5 143,-58.5 137,-64.5 131,-64.5 131,-64.5 12,-64.5 12,-64.5 6,-64.5 0,-58.5 0,-52.5 0,-52.5 0,-40.5 0,-40.5 0,-34.5 6,-28.5 12,-28.5"/>
<text text-anchor="middle" x="36.12" y="-42.2" font-family="Times,serif" font-size="14.00">value: 5</text>
<polyline fill="none" stroke="black" points="72.25,-29.25 72.25,-64.5"/>
<text text-anchor="middle" x="107.62" y="-42.2" font-family="Times,serif" font-size="14.00">temp: 0</text>
</g>
<!-- value3 -->
<g id="node4" class="node">
<title>value3</title>
<path fill="darkgreen" stroke="black" d="M232.25,-28.5C232.25,-28.5 351.25,-28.5 351.25,-28.5 357.25,-28.5 363.25,-34.5 363.25,-40.5 363.25,-40.5 363.25,-52.5 363.25,-52.5 363.25,-58.5 357.25,-64.5 351.25,-64.5 351.25,-64.5 232.25,-64.5 232.25,-64.5 226.25,-64.5 220.25,-58.5 220.25,-52.5 220.25,-52.5 220.25,-40.5 220.25,-40.5 220.25,-34.5 226.25,-28.5 232.25,-28.5"/>
<text text-anchor="middle" x="256.38" y="-42.2" font-family="Times,serif" font-size="14.00">value: 5</text>
<polyline fill="none" stroke="black" points="292.5,-29.25 292.5,-64.5"/>
<text text-anchor="middle" x="327.88" y="-42.2" font-family="Times,serif" font-size="14.00">temp: 0</text>
</g>
<!-- value2&#45;&gt;value3 -->
<g id="edge2" class="edge">
<title>value2&#45;&gt;value3</title>
<path fill="none" stroke="darkgreen" stroke-dasharray="5,2" d="M143.36,-46.5C164.14,-46.5 187.05,-46.5 208.48,-46.5"/>
<polygon fill="darkgreen" stroke="darkgreen" points="208.36,-50 218.36,-46.5 208.36,-43 208.36,-50"/>
<text text-anchor="middle" x="181.62" y="-50.45" font-family="Times,serif" font-size="14.00">CTOR</text>
</g>
<!-- value3&#45;&gt;oper0 -->
<g id="edge5" class="edge">
<title>value3&#45;&gt;oper0</title>
<path fill="none" stroke="orange" stroke-dasharray="5,2" d="M363.61,-58.84C387.44,-62.99 413.08,-67.46 433.3,-70.98"/>
<polygon fill="orange" stroke="orange" points="432.58,-74.4 443.03,-72.67 433.78,-67.51 432.58,-74.4"/>
</g>
<!-- value4 -->
<g id="node5" class="node">
<title>value4</title>
<path fill="darkgreen" stroke="black" d="M412.25,-4.5C412.25,-4.5 531.25,-4.5 531.25,-4.5 537.25,-4.5 543.25,-10.5 543.25,-16.5 543.25,-16.5 543.25,-28.5 543.25,-28.5 543.25,-34.5 537.25,-40.5 531.25,-40.5 531.25,-40.5 412.25,-40.5 412.25,-40.5 406.25,-40.5 400.25,-34.5 400.25,-28.5 400.25,-28.5 400.25,-16.5 400.25,-16.5 400.25,-10.5 406.25,-4.5 412.25,-4.5"/>
<text text-anchor="middle" x="436.38" y="-18.2" font-family="Times,serif" font-size="14.00">value: 6</text>
<polyline fill="none" stroke="black" points="472.5,-5.25 472.5,-40.5"/>
<text text-anchor="middle" x="507.88" y="-18.2" font-family="Times,serif" font-size="14.00">temp: 0</text>
</g>
<!-- value5 -->
<g id="node6" class="node">
<title>value5</title>
<path fill="darkgreen" stroke="black" d="M632.5,-20.5C632.5,-20.5 751.5,-20.5 751.5,-20.5 757.5,-20.5 763.5,-26.5 763.5,-32.5 763.5,-32.5 763.5,-44.5 763.5,-44.5 763.5,-50.5 757.5,-56.5 751.5,-56.5 751.5,-56.5 632.5,-56.5 632.5,-56.5 626.5,-56.5 620.5,-50.5 620.5,-44.5 620.5,-44.5 620.5,-32.5 620.5,-32.5 620.5,-26.5 626.5,-20.5 632.5,-20.5"/>
<text text-anchor="middle" x="656.62" y="-34.2" font-family="Times,serif" font-size="14.00">value: 6</text>
<polyline fill="none" stroke="black" points="692.75,-21.25 692.75,-56.5"/>
<text text-anchor="middle" x="728.12" y="-34.2" font-family="Times,serif" font-size="14.00">temp: 0</text>
</g>
<!-- value4&#45;&gt;value5 -->
<g id="edge3" class="edge">
<title>value4&#45;&gt;value5</title>
<path fill="none" stroke="darkgreen" stroke-dasharray="5,2" d="M543.61,-27.69C564.39,-29.22 587.3,-30.9 608.73,-32.47"/>
<polygon fill="darkgreen" stroke="darkgreen" points="608.38,-35.95 618.61,-33.19 608.9,-28.97 608.38,-35.95"/>
<text text-anchor="middle" x="581.88" y="-35.45" font-family="Times,serif" font-size="14.00">CTOR</text>
</g>
<!-- value7 -->
<g id="node8" class="node">
<title>value7</title>
<path fill="red" stroke="black" d="M897.75,-55.5C897.75,-55.5 1016.75,-55.5 1016.75,-55.5 1022.75,-55.5 1028.75,-61.5 1028.75,-67.5 1028.75,-67.5 1028.75,-79.5 1028.75,-79.5 1028.75,-85.5 1022.75,-91.5 1016.75,-91.5 1016.75,-91.5 897.75,-91.5 897.75,-91.5 891.75,-91.5 885.75,-85.5 885.75,-79.5 885.75,-79.5 885.75,-67.5 885.75,-67.5 885.75,-61.5 891.75,-55.5 897.75,-55.5"/>
<text text-anchor="middle" x="921.88" y="-69.2" font-family="Times,serif" font-size="14.00">value: 6</text>
<polyline fill="none" stroke="black" points="958,-56.25 958,-91.5"/>
<text text-anchor="middle" x="993.38" y="-69.2" font-family="Times,serif" font-size="14.00">temp: 1</text>
</g>
<!-- value5&#45;&gt;value7 -->
<g id="edge7" class="edge">
<title>value5&#45;&gt;value7</title>
<path fill="none" stroke="darkgreen" stroke-dasharray="5,2" d="M763.89,-47.93C797.97,-52.46 839.01,-57.91 874.41,-62.62"/>
<polygon fill="darkgreen" stroke="darkgreen" points="873.81,-66.07 884.19,-63.92 874.74,-59.13 873.81,-66.07"/>
<text text-anchor="middle" x="824.62" y="-64.45" font-family="Times,serif" font-size="14.00">COPY CTOR</text>
</g>
<!-- value4294967291 -->
<g id="node9" class="node">
<title>value4294967291</title>
<path fill="darkgreen" stroke="black" d="M897.75,-0.5C897.75,-0.5 1016.75,-0.5 1016.75,-0.5 1022.75,-0.5 1028.75,-6.5 1028.75,-12.5 1028.75,-12.5 1028.75,-24.5 1028.75,-24.5 1028.75,-30.5 1022.75,-36.5 1016.75,-36.5 1016.75,-36.5 897.75,-36.5 897.75,-36.5 891.75,-36.5 885.75,-30.5 885.75,-24.5 885.75,-24.5 885.75,-12.5 885.75,-12.5 885.75,-6.5 891.75,-0.5 897.75,-0.5"/>
<text text-anchor="middle" x="921.88" y="-14.2" font-family="Times,serif" font-size="14.00">value: 0</text>
<polyline fill="none" stroke="black" points="958,-1.25 958,-36.5"/>
<text text-anchor="middle" x="993.38" y="-14.2" font-family="Times,serif" font-size="14.00">temp: 0</text>
</g>
<!-- value5&#45;&gt;value4294967291 -->
<g id="edge8" class="edge">
<title>value5&#45;&gt;value4294967291</title>
<path fill="none" stroke="darkgreen" stroke-dasharray="5,2" d="M763.94,-28.09C769.87,-27.4 775.78,-26.77 781.5,-26.25 811.67,-23.5 844.86,-21.72 874.14,-20.56"/>
<polygon fill="darkgreen" stroke="darkgreen" points="874.2,-24.06 884.06,-20.19 873.94,-17.07 874.2,-24.06"/>
<text text-anchor="middle" x="824.62" y="-29.45" font-family="Times,serif" font-size="14.00">DTOR</text>
</g>
<!-- oper0&#45;&gt;value5 -->
<g id="edge6" class="edge">
<title>oper0&#45;&gt;value5</title>
<path fill="none" stroke="orange" stroke-dasharray="5,2" d="M499.08,-72.8C526.27,-67.94 570.12,-60.1 609.04,-53.15"/>
<polygon fill="orange" stroke="orange" points="609.41,-56.63 618.64,-51.43 608.18,-49.74 609.41,-56.63"/>
</g>
<!-- value4294967289 -->
<g id="node10" class="node">
<title>value4294967289</title>
<path fill="red" stroke="black" d="M1118.75,-55.5C1118.75,-55.5 1237.75,-55.5 1237.75,-55.5 1243.75,-55.5 1249.75,-61.5 1249.75,-67.5 1249.75,-67.5 1249.75,-79.5 1249.75,-79.5 1249.75,-85.5 1243.75,-91.5 1237.75,-91.5 1237.75,-91.5 1118.75,-91.5 1118.75,-91.5 1112.75,-91.5 1106.75,-85.5 1106.75,-79.5 1106.75,-79.5 1106.75,-67.5 1106.75,-67.5 1106.75,-61.5 1112.75,-55.5 1118.75,-55.5"/>
<text text-anchor="middle" x="1142.88" y="-69.2" font-family="Times,serif" font-size="14.00">value: 0</text>
<polyline fill="none" stroke="black" points="1179,-56.25 1179,-91.5"/>
<text text-anchor="middle" x="1214.38" y="-69.2" font-family="Times,serif" font-size="14.00">temp: 1</text>
</g>
<!-- value7&#45;&gt;value4294967289 -->
<g id="edge9" class="edge">
<title>value7&#45;&gt;value4294967289</title>
<path fill="none" stroke="darkgreen" stroke-dasharray="5,2" d="M1029.05,-73.5C1050.02,-73.5 1073.17,-73.5 1094.82,-73.5"/>
<polygon fill="darkgreen" stroke="darkgreen" points="1094.8,-77 1104.8,-73.5 1094.8,-70 1094.8,-77"/>
<text text-anchor="middle" x="1067.75" y="-77.45" font-family="Times,serif" font-size="14.00">DTOR</text>
</g>
</g>
</svg>
