<?xml version="1.0" encoding="UTF-8" standalone="no"?>
<!DOCTYPE svg PUBLIC "-//W3C//DTD SVG 1.1//EN"
 "http://www.w3.org/Graphics/SVG/1.1/DTD/svg11.dtd">
<!-- Generated by graphviz version 9.0.0 (0)
 -->
<!-- Title: structs Pages: 1 -->
<svg width="1069pt" height="210pt"
 viewBox="0.00 0.00 1068.75 210.00" xmlns="http://www.w3.org/2000/svg" xmlns:xlink="http://www.w3.org/1999/xlink">
<g id="graph0" class="graph" transform="scale(1 1) rotate(0) translate(4 206)">
<title>structs</title>
<polygon fill="white" stroke="none" points="-4,4 -4,-206 1064.75,-206 1064.75,4 -4,4"/>
<!-- value0 -->
<g id="node1" class="node">
<title>value0</title>
<path fill="red" stroke="black" d="M12,-22.5C12,-22.5 60.25,-22.5 60.25,-22.5 66.25,-22.5 72.25,-28.5 72.25,-34.5 72.25,-34.5 72.25,-46.5 72.25,-46.5 72.25,-52.5 66.25,-58.5 60.25,-58.5 60.25,-58.5 12,-58.5 12,-58.5 6,-58.5 0,-52.5 0,-46.5 0,-46.5 0,-34.5 0,-34.5 0,-28.5 6,-22.5 12,-22.5"/>
<text text-anchor="middle" x="36.12" y="-36.2" font-family="Times,serif" font-size="14.00">value: 1</text>
</g>
<!-- value1 -->
<g id="node2" class="node">
<title>value1</title>
<path fill="red" stroke="black" d="M161.5,-22.5C161.5,-22.5 209.75,-22.5 209.75,-22.5 215.75,-22.5 221.75,-28.5 221.75,-34.5 221.75,-34.5 221.75,-46.5 221.75,-46.5 221.75,-52.5 215.75,-58.5 209.75,-58.5 209.75,-58.5 161.5,-58.5 161.5,-58.5 155.5,-58.5 149.5,-52.5 149.5,-46.5 149.5,-46.5 149.5,-34.5 149.5,-34.5 149.5,-28.5 155.5,-22.5 161.5,-22.5"/>
<text text-anchor="middle" x="185.62" y="-36.2" font-family="Times,serif" font-size="14.00">value: 1</text>
</g>
<!-- value0&#45;&gt;value1 -->
<g id="edge1" class="edge">
<title>value0&#45;&gt;value1</title>
<path fill="none" stroke="red" stroke-dasharray="5,2" d="M72.45,-40.5C92.01,-40.5 116.58,-40.5 137.73,-40.5"/>
<polygon fill="red" stroke="red" points="137.56,-44 147.56,-40.5 137.56,-37 137.56,-44"/>
<text text-anchor="middle" x="110.88" y="-44.45" font-family="Times,serif" font-size="14.00">CTOR</text>
</g>
<!-- value7 -->
<g id="node6" class="node">
<title>value7</title>
<path fill="red" stroke="black" d="M356,-22.5C356,-22.5 404.25,-22.5 404.25,-22.5 410.25,-22.5 416.25,-28.5 416.25,-34.5 416.25,-34.5 416.25,-46.5 416.25,-46.5 416.25,-52.5 410.25,-58.5 404.25,-58.5 404.25,-58.5 356,-58.5 356,-58.5 350,-58.5 344,-52.5 344,-46.5 344,-46.5 344,-34.5 344,-34.5 344,-28.5 350,-22.5 356,-22.5"/>
<text text-anchor="middle" x="380.12" y="-36.2" font-family="Times,serif" font-size="14.00">value: 1</text>
</g>
<!-- value1&#45;&gt;value7 -->
<g id="edge4" class="edge">
<title>value1&#45;&gt;value7</title>
<path fill="none" stroke="red" stroke-dasharray="5,2" d="M221.93,-40.5C253.04,-40.5 298.58,-40.5 332.64,-40.5"/>
<polygon fill="red" stroke="red" points="332.2,-44 342.2,-40.5 332.2,-37 332.2,-44"/>
<text text-anchor="middle" x="282.88" y="-44.45" font-family="Times,serif" font-size="14.00">COPY CTOR</text>
</g>
<!-- value2 -->
<g id="node3" class="node">
<title>value2</title>
<path fill="red" stroke="black" d="M12,-88.5C12,-88.5 60.25,-88.5 60.25,-88.5 66.25,-88.5 72.25,-94.5 72.25,-100.5 72.25,-100.5 72.25,-112.5 72.25,-112.5 72.25,-118.5 66.25,-124.5 60.25,-124.5 60.25,-124.5 12,-124.5 12,-124.5 6,-124.5 0,-118.5 0,-112.5 0,-112.5 0,-100.5 0,-100.5 0,-94.5 6,-88.5 12,-88.5"/>
<text text-anchor="middle" x="36.12" y="-102.2" font-family="Times,serif" font-size="14.00">value: 5</text>
</g>
<!-- value3 -->
<g id="node4" class="node">
<title>value3</title>
<path fill="red" stroke="black" d="M161.5,-88.5C161.5,-88.5 209.75,-88.5 209.75,-88.5 215.75,-88.5 221.75,-94.5 221.75,-100.5 221.75,-100.5 221.75,-112.5 221.75,-112.5 221.75,-118.5 215.75,-124.5 209.75,-124.5 209.75,-124.5 161.5,-124.5 161.5,-124.5 155.5,-124.5 149.5,-118.5 149.5,-112.5 149.5,-112.5 149.5,-100.5 149.5,-100.5 149.5,-94.5 155.5,-88.5 161.5,-88.5"/>
<text text-anchor="middle" x="185.62" y="-102.2" font-family="Times,serif" font-size="14.00">value: 5</text>
</g>
<!-- value2&#45;&gt;value3 -->
<g id="edge2" class="edge">
<title>value2&#45;&gt;value3</title>
<path fill="none" stroke="red" stroke-dasharray="5,2" d="M72.45,-106.5C92.01,-106.5 116.58,-106.5 137.73,-106.5"/>
<polygon fill="red" stroke="red" points="137.56,-110 147.56,-106.5 137.56,-103 137.56,-110"/>
<text text-anchor="middle" x="110.88" y="-110.45" font-family="Times,serif" font-size="14.00">CTOR</text>
</g>
<!-- value5 -->
<g id="node5" class="node">
<title>value5</title>
<path fill="red" stroke="black" d="M356,-88.5C356,-88.5 404.25,-88.5 404.25,-88.5 410.25,-88.5 416.25,-94.5 416.25,-100.5 416.25,-100.5 416.25,-112.5 416.25,-112.5 416.25,-118.5 410.25,-124.5 404.25,-124.5 404.25,-124.5 356,-124.5 356,-124.5 350,-124.5 344,-118.5 344,-112.5 344,-112.5 344,-100.5 344,-100.5 344,-94.5 350,-88.5 356,-88.5"/>
<text text-anchor="middle" x="380.12" y="-102.2" font-family="Times,serif" font-size="14.00">value: 5</text>
</g>
<!-- value3&#45;&gt;value5 -->
<g id="edge3" class="edge">
<title>value3&#45;&gt;value5</title>
<path fill="none" stroke="red" stroke-dasharray="5,2" d="M221.93,-106.5C253.04,-106.5 298.58,-106.5 332.64,-106.5"/>
<polygon fill="red" stroke="red" points="332.2,-110 342.2,-106.5 332.2,-103 332.2,-110"/>
<text text-anchor="middle" x="282.88" y="-110.45" font-family="Times,serif" font-size="14.00">COPY CTOR</text>
</g>
<!-- oper0 -->
<g id="node9" class="node">
<title>oper0</title>
<path fill="sienna" stroke="black" d="M515.38,-55.5C515.38,-55.5 545.38,-55.5 545.38,-55.5 551.38,-55.5 557.38,-61.5 557.38,-67.5 557.38,-67.5 557.38,-79.5 557.38,-79.5 557.38,-85.5 551.38,-91.5 545.38,-91.5 545.38,-91.5 515.38,-91.5 515.38,-91.5 509.38,-91.5 503.38,-85.5 503.38,-79.5 503.38,-79.5 503.38,-67.5 503.38,-67.5 503.38,-61.5 509.38,-55.5 515.38,-55.5"/>
<text text-anchor="middle" x="530.38" y="-69.2" font-family="Times,serif" font-size="14.00">+</text>
</g>
<!-- value5&#45;&gt;oper0 -->
<g id="edge7" class="edge">
<title>value5&#45;&gt;oper0</title>
<path fill="none" stroke="sienna" stroke-dasharray="5,2" d="M416.63,-98.6C439.35,-93.54 468.78,-86.99 491.88,-81.85"/>
<polygon fill="sienna" stroke="sienna" points="492.5,-85.29 501.5,-79.71 490.98,-78.46 492.5,-85.29"/>
</g>
<!-- value4294967291 -->
<g id="node13" class="node">
<title>value4294967291</title>
<path fill="red" stroke="black" d="M506.25,-110.5C506.25,-110.5 554.5,-110.5 554.5,-110.5 560.5,-110.5 566.5,-116.5 566.5,-122.5 566.5,-122.5 566.5,-134.5 566.5,-134.5 566.5,-140.5 560.5,-146.5 554.5,-146.5 554.5,-146.5 506.25,-146.5 506.25,-146.5 500.25,-146.5 494.25,-140.5 494.25,-134.5 494.25,-134.5 494.25,-122.5 494.25,-122.5 494.25,-116.5 500.25,-110.5 506.25,-110.5"/>
<text text-anchor="middle" x="530.38" y="-124.2" font-family="Times,serif" font-size="14.00">value: 0</text>
</g>
<!-- value5&#45;&gt;value4294967291 -->
<g id="edge12" class="edge">
<title>value5&#45;&gt;value4294967291</title>
<path fill="none" stroke="red" stroke-dasharray="5,2" d="M416.63,-111.77C436.46,-114.71 461.39,-118.41 482.77,-121.58"/>
<polygon fill="red" stroke="red" points="482,-125.01 492.4,-123.01 483.02,-118.08 482,-125.01"/>
<text text-anchor="middle" x="455.25" y="-123.45" font-family="Times,serif" font-size="14.00">DTOR</text>
</g>
<!-- value7&#45;&gt;oper0 -->
<g id="edge6" class="edge">
<title>value7&#45;&gt;oper0</title>
<path fill="none" stroke="sienna" stroke-dasharray="5,2" d="M416.63,-48.4C439.35,-53.46 468.78,-60.01 491.88,-65.15"/>
<polygon fill="sienna" stroke="sienna" points="490.98,-68.54 501.5,-67.29 492.5,-61.71 490.98,-68.54"/>
</g>
<!-- value4294967289 -->
<g id="node12" class="node">
<title>value4294967289</title>
<path fill="red" stroke="black" d="M506.25,-0.5C506.25,-0.5 554.5,-0.5 554.5,-0.5 560.5,-0.5 566.5,-6.5 566.5,-12.5 566.5,-12.5 566.5,-24.5 566.5,-24.5 566.5,-30.5 560.5,-36.5 554.5,-36.5 554.5,-36.5 506.25,-36.5 506.25,-36.5 500.25,-36.5 494.25,-30.5 494.25,-24.5 494.25,-24.5 494.25,-12.5 494.25,-12.5 494.25,-6.5 500.25,-0.5 506.25,-0.5"/>
<text text-anchor="middle" x="530.38" y="-14.2" font-family="Times,serif" font-size="14.00">value: 0</text>
</g>
<!-- value7&#45;&gt;value4294967289 -->
<g id="edge11" class="edge">
<title>value7&#45;&gt;value4294967289</title>
<path fill="none" stroke="red" stroke-dasharray="5,2" d="M416.56,-28.4C422.41,-26.77 428.46,-25.3 434.25,-24.25 449.82,-21.44 467.03,-19.93 482.48,-19.13"/>
<polygon fill="red" stroke="red" points="482.54,-22.63 492.39,-18.72 482.25,-15.64 482.54,-22.63"/>
<text text-anchor="middle" x="455.25" y="-28.45" font-family="Times,serif" font-size="14.00">DTOR</text>
</g>
<!-- value8 -->
<g id="node7" class="node">
<title>value8</title>
<path fill="red" stroke="black" d="M506.25,-165.5C506.25,-165.5 554.5,-165.5 554.5,-165.5 560.5,-165.5 566.5,-171.5 566.5,-177.5 566.5,-177.5 566.5,-189.5 566.5,-189.5 566.5,-195.5 560.5,-201.5 554.5,-201.5 554.5,-201.5 506.25,-201.5 506.25,-201.5 500.25,-201.5 494.25,-195.5 494.25,-189.5 494.25,-189.5 494.25,-177.5 494.25,-177.5 494.25,-171.5 500.25,-165.5 506.25,-165.5"/>
<text text-anchor="middle" x="530.38" y="-179.2" font-family="Times,serif" font-size="14.00">value: 6</text>
</g>
<!-- value9 -->
<g id="node8" class="node">
<title>value9</title>
<path fill="red" stroke="black" d="M655.75,-129.5C655.75,-129.5 704,-129.5 704,-129.5 710,-129.5 716,-135.5 716,-141.5 716,-141.5 716,-153.5 716,-153.5 716,-159.5 710,-165.5 704,-165.5 704,-165.5 655.75,-165.5 655.75,-165.5 649.75,-165.5 643.75,-159.5 643.75,-153.5 643.75,-153.5 643.75,-141.5 643.75,-141.5 643.75,-135.5 649.75,-129.5 655.75,-129.5"/>
<text text-anchor="middle" x="679.88" y="-143.2" font-family="Times,serif" font-size="14.00">value: 6</text>
</g>
<!-- value8&#45;&gt;value9 -->
<g id="edge5" class="edge">
<title>value8&#45;&gt;value9</title>
<path fill="none" stroke="red" stroke-dasharray="5,2" d="M566.7,-174.88C586.36,-170.08 611.05,-164.05 632.27,-158.87"/>
<polygon fill="red" stroke="red" points="632.97,-162.31 641.85,-156.54 631.31,-155.51 632.97,-162.31"/>
<text text-anchor="middle" x="605.12" y="-173.45" font-family="Times,serif" font-size="14.00">CTOR</text>
</g>
<!-- value11 -->
<g id="node10" class="node">
<title>value11</title>
<path fill="red" stroke="black" d="M850.25,-164.5C850.25,-164.5 898.5,-164.5 898.5,-164.5 904.5,-164.5 910.5,-170.5 910.5,-176.5 910.5,-176.5 910.5,-188.5 910.5,-188.5 910.5,-194.5 904.5,-200.5 898.5,-200.5 898.5,-200.5 850.25,-200.5 850.25,-200.5 844.25,-200.5 838.25,-194.5 838.25,-188.5 838.25,-188.5 838.25,-176.5 838.25,-176.5 838.25,-170.5 844.25,-164.5 850.25,-164.5"/>
<text text-anchor="middle" x="874.38" y="-178.2" font-family="Times,serif" font-size="14.00">value: 6</text>
</g>
<!-- value9&#45;&gt;value11 -->
<g id="edge9" class="edge">
<title>value9&#45;&gt;value11</title>
<path fill="none" stroke="red" stroke-dasharray="5,2" d="M716.18,-153.92C747.29,-159.58 792.83,-167.85 826.89,-174.05"/>
<polygon fill="red" stroke="red" points="826.01,-177.45 836.48,-175.79 827.26,-170.56 826.01,-177.45"/>
<text text-anchor="middle" x="777.12" y="-175.45" font-family="Times,serif" font-size="14.00">COPY CTOR</text>
</g>
<!-- value4294967287 -->
<g id="node11" class="node">
<title>value4294967287</title>
<path fill="red" stroke="black" d="M850.25,-109.5C850.25,-109.5 898.5,-109.5 898.5,-109.5 904.5,-109.5 910.5,-115.5 910.5,-121.5 910.5,-121.5 910.5,-133.5 910.5,-133.5 910.5,-139.5 904.5,-145.5 898.5,-145.5 898.5,-145.5 850.25,-145.5 850.25,-145.5 844.25,-145.5 838.25,-139.5 838.25,-133.5 838.25,-133.5 838.25,-121.5 838.25,-121.5 838.25,-115.5 844.25,-109.5 850.25,-109.5"/>
<text text-anchor="middle" x="874.38" y="-123.2" font-family="Times,serif" font-size="14.00">value: 0</text>
</g>
<!-- value9&#45;&gt;value4294967287 -->
<g id="edge10" class="edge">
<title>value9&#45;&gt;value4294967287</title>
<path fill="none" stroke="red" stroke-dasharray="5,2" d="M716.44,-138.42C722.28,-137.18 728.28,-136.06 734,-135.25 764.62,-130.9 799.35,-128.96 826.48,-128.11"/>
<polygon fill="red" stroke="red" points="826.57,-131.61 836.47,-127.84 826.38,-124.61 826.57,-131.61"/>
<text text-anchor="middle" x="777.12" y="-138.45" font-family="Times,serif" font-size="14.00">DTOR</text>
</g>
<!-- oper0&#45;&gt;value9 -->
<g id="edge8" class="edge">
<title>oper0&#45;&gt;value9</title>
<path fill="none" stroke="sienna" stroke-dasharray="5,2" d="M557.75,-86.73C578.63,-97.21 608.3,-112.09 633.05,-124.51"/>
<polygon fill="sienna" stroke="sienna" points="631.45,-127.62 641.96,-128.98 634.59,-121.37 631.45,-127.62"/>
</g>
<!-- value4294967285 -->
<g id="node14" class="node">
<title>value4294967285</title>
<path fill="red" stroke="black" d="M1000.5,-164.5C1000.5,-164.5 1048.75,-164.5 1048.75,-164.5 1054.75,-164.5 1060.75,-170.5 1060.75,-176.5 1060.75,-176.5 1060.75,-188.5 1060.75,-188.5 1060.75,-194.5 1054.75,-200.5 1048.75,-200.5 1048.75,-200.5 1000.5,-200.5 1000.5,-200.5 994.5,-200.5 988.5,-194.5 988.5,-188.5 988.5,-188.5 988.5,-176.5 988.5,-176.5 988.5,-170.5 994.5,-164.5 1000.5,-164.5"/>
<text text-anchor="middle" x="1024.62" y="-178.2" font-family="Times,serif" font-size="14.00">value: 0</text>
</g>
<!-- value11&#45;&gt;value4294967285 -->
<g id="edge13" class="edge">
<title>value11&#45;&gt;value4294967285</title>
<path fill="none" stroke="red" stroke-dasharray="5,2" d="M910.88,-182.5C930.62,-182.5 955.41,-182.5 976.72,-182.5"/>
<polygon fill="red" stroke="red" points="976.64,-186 986.64,-182.5 976.63,-179 976.64,-186"/>
<text text-anchor="middle" x="949.5" y="-186.45" font-family="Times,serif" font-size="14.00">DTOR</text>
</g>
</g>
</svg>
