<?xml version="1.0" encoding="UTF-8" standalone="no"?>
<!DOCTYPE svg PUBLIC "-//W3C//DTD SVG 1.1//EN"
 "http://www.w3.org/Graphics/SVG/1.1/DTD/svg11.dtd">
<!-- Generated by graphviz version 9.0.0 (0)
 -->
<!-- Title: structs Pages: 1 -->
<svg width="1564pt" height="210pt"
 viewBox="0.00 0.00 1564.00 210.00" xmlns="http://www.w3.org/2000/svg" xmlns:xlink="http://www.w3.org/1999/xlink">
<g id="graph0" class="graph" transform="scale(1 1) rotate(0) translate(4 206)">
<title>structs</title>
<polygon fill="white" stroke="none" points="-4,4 -4,-206 1560,-206 1560,4 -4,4"/>
<!-- value0 -->
<g id="node1" class="node">
<title>value0</title>
<path fill="darkgreen" stroke="black" d="M12,-22.5C12,-22.5 131,-22.5 131,-22.5 137,-22.5 143,-28.5 143,-34.5 143,-34.5 143,-46.5 143,-46.5 143,-52.5 137,-58.5 131,-58.5 131,-58.5 12,-58.5 12,-58.5 6,-58.5 0,-52.5 0,-46.5 0,-46.5 0,-34.5 0,-34.5 0,-28.5 6,-22.5 12,-22.5"/>
<text text-anchor="middle" x="36.12" y="-36.2" font-family="Times,serif" font-size="14.00">value: 4</text>
<polyline fill="none" stroke="black" points="72.25,-23.25 72.25,-58.5"/>
<text text-anchor="middle" x="107.62" y="-36.2" font-family="Times,serif" font-size="14.00">temp: 0</text>
</g>
<!-- value1 -->
<g id="node2" class="node">
<title>value1</title>
<path fill="darkgreen" stroke="black" d="M232.25,-22.5C232.25,-22.5 351.25,-22.5 351.25,-22.5 357.25,-22.5 363.25,-28.5 363.25,-34.5 363.25,-34.5 363.25,-46.5 363.25,-46.5 363.25,-52.5 357.25,-58.5 351.25,-58.5 351.25,-58.5 232.25,-58.5 232.25,-58.5 226.25,-58.5 220.25,-52.5 220.25,-46.5 220.25,-46.5 220.25,-34.5 220.25,-34.5 220.25,-28.5 226.25,-22.5 232.25,-22.5"/>
<text text-anchor="middle" x="256.38" y="-36.2" font-family="Times,serif" font-size="14.00">value: 4</text>
<polyline fill="none" stroke="black" points="292.5,-23.25 292.5,-58.5"/>
<text text-anchor="middle" x="327.88" y="-36.2" font-family="Times,serif" font-size="14.00">temp: 0</text>
</g>
<!-- value0&#45;&gt;value1 -->
<g id="edge1" class="edge">
<title>value0&#45;&gt;value1</title>
<path fill="none" stroke="darkgreen" stroke-dasharray="5,2" d="M143.36,-40.5C164.14,-40.5 187.05,-40.5 208.48,-40.5"/>
<polygon fill="darkgreen" stroke="darkgreen" points="208.36,-44 218.36,-40.5 208.36,-37 208.36,-44"/>
<text text-anchor="middle" x="181.62" y="-44.45" font-family="Times,serif" font-size="14.00">CTOR</text>
</g>
<!-- value7 -->
<g id="node6" class="node">
<title>value7</title>
<path fill="red" stroke="black" d="M497.5,-22.5C497.5,-22.5 616.5,-22.5 616.5,-22.5 622.5,-22.5 628.5,-28.5 628.5,-34.5 628.5,-34.5 628.5,-46.5 628.5,-46.5 628.5,-52.5 622.5,-58.5 616.5,-58.5 616.5,-58.5 497.5,-58.5 497.5,-58.5 491.5,-58.5 485.5,-52.5 485.5,-46.5 485.5,-46.5 485.5,-34.5 485.5,-34.5 485.5,-28.5 491.5,-22.5 497.5,-22.5"/>
<text text-anchor="middle" x="521.62" y="-36.2" font-family="Times,serif" font-size="14.00">value: 4</text>
<polyline fill="none" stroke="black" points="557.75,-23.25 557.75,-58.5"/>
<text text-anchor="middle" x="593.12" y="-36.2" font-family="Times,serif" font-size="14.00">temp: 1</text>
</g>
<!-- value1&#45;&gt;value7 -->
<g id="edge4" class="edge">
<title>value1&#45;&gt;value7</title>
<path fill="none" stroke="darkgreen" stroke-dasharray="5,2" d="M363.64,-40.5C397.72,-40.5 438.76,-40.5 474.16,-40.5"/>
<polygon fill="darkgreen" stroke="darkgreen" points="473.92,-44 483.92,-40.5 473.92,-37 473.92,-44"/>
<text text-anchor="middle" x="424.38" y="-44.45" font-family="Times,serif" font-size="14.00">COPY CTOR</text>
</g>
<!-- value2 -->
<g id="node3" class="node">
<title>value2</title>
<path fill="darkgreen" stroke="black" d="M12,-88.5C12,-88.5 131,-88.5 131,-88.5 137,-88.5 143,-94.5 143,-100.5 143,-100.5 143,-112.5 143,-112.5 143,-118.5 137,-124.5 131,-124.5 131,-124.5 12,-124.5 12,-124.5 6,-124.5 0,-118.5 0,-112.5 0,-112.5 0,-100.5 0,-100.5 0,-94.5 6,-88.5 12,-88.5"/>
<text text-anchor="middle" x="36.12" y="-102.2" font-family="Times,serif" font-size="14.00">value: 2</text>
<polyline fill="none" stroke="black" points="72.25,-89.25 72.25,-124.5"/>
<text text-anchor="middle" x="107.62" y="-102.2" font-family="Times,serif" font-size="14.00">temp: 0</text>
</g>
<!-- value3 -->
<g id="node4" class="node">
<title>value3</title>
<path fill="darkgreen" stroke="black" d="M232.25,-88.5C232.25,-88.5 351.25,-88.5 351.25,-88.5 357.25,-88.5 363.25,-94.5 363.25,-100.5 363.25,-100.5 363.25,-112.5 363.25,-112.5 363.25,-118.5 357.25,-124.5 351.25,-124.5 351.25,-124.5 232.25,-124.5 232.25,-124.5 226.25,-124.5 220.25,-118.5 220.25,-112.5 220.25,-112.5 220.25,-100.5 220.25,-100.5 220.25,-94.5 226.25,-88.5 232.25,-88.5"/>
<text text-anchor="middle" x="256.38" y="-102.2" font-family="Times,serif" font-size="14.00">value: 2</text>
<polyline fill="none" stroke="black" points="292.5,-89.25 292.5,-124.5"/>
<text text-anchor="middle" x="327.88" y="-102.2" font-family="Times,serif" font-size="14.00">temp: 0</text>
</g>
<!-- value2&#45;&gt;value3 -->
<g id="edge2" class="edge">
<title>value2&#45;&gt;value3</title>
<path fill="none" stroke="darkgreen" stroke-dasharray="5,2" d="M143.36,-106.5C164.14,-106.5 187.05,-106.5 208.48,-106.5"/>
<polygon fill="darkgreen" stroke="darkgreen" points="208.36,-110 218.36,-106.5 208.36,-103 208.36,-110"/>
<text text-anchor="middle" x="181.62" y="-110.45" font-family="Times,serif" font-size="14.00">CTOR</text>
</g>
<!-- value5 -->
<g id="node5" class="node">
<title>value5</title>
<path fill="red" stroke="black" d="M497.5,-88.5C497.5,-88.5 616.5,-88.5 616.5,-88.5 622.5,-88.5 628.5,-94.5 628.5,-100.5 628.5,-100.5 628.5,-112.5 628.5,-112.5 628.5,-118.5 622.5,-124.5 616.5,-124.5 616.5,-124.5 497.5,-124.5 497.5,-124.5 491.5,-124.5 485.5,-118.5 485.5,-112.5 485.5,-112.5 485.5,-100.5 485.5,-100.5 485.5,-94.5 491.5,-88.5 497.5,-88.5"/>
<text text-anchor="middle" x="521.62" y="-102.2" font-family="Times,serif" font-size="14.00">value: 2</text>
<polyline fill="none" stroke="black" points="557.75,-89.25 557.75,-124.5"/>
<text text-anchor="middle" x="593.12" y="-102.2" font-family="Times,serif" font-size="14.00">temp: 1</text>
</g>
<!-- value3&#45;&gt;value5 -->
<g id="edge3" class="edge">
<title>value3&#45;&gt;value5</title>
<path fill="none" stroke="darkgreen" stroke-dasharray="5,2" d="M363.64,-106.5C397.72,-106.5 438.76,-106.5 474.16,-106.5"/>
<polygon fill="darkgreen" stroke="darkgreen" points="473.92,-110 483.92,-106.5 473.92,-103 473.92,-110"/>
<text text-anchor="middle" x="424.38" y="-110.45" font-family="Times,serif" font-size="14.00">COPY CTOR</text>
</g>
<!-- oper0 -->
<g id="node9" class="node">
<title>oper0</title>
<path fill="blue" stroke="black" d="M763,-55.5C763,-55.5 793,-55.5 793,-55.5 799,-55.5 805,-61.5 805,-67.5 805,-67.5 805,-79.5 805,-79.5 805,-85.5 799,-91.5 793,-91.5 793,-91.5 763,-91.5 763,-91.5 757,-91.5 751,-85.5 751,-79.5 751,-79.5 751,-67.5 751,-67.5 751,-61.5 757,-55.5 763,-55.5"/>
<text text-anchor="middle" x="778" y="-69.2" font-family="Times,serif" font-size="14.00">+</text>
</g>
<!-- value5&#45;&gt;oper0 -->
<g id="edge7" class="edge">
<title>value5&#45;&gt;oper0</title>
<path fill="none" stroke="blue" stroke-dasharray="5,2" d="M628.8,-95.83C665.54,-90.3 708.95,-83.75 739.25,-79.19"/>
<polygon fill="blue" stroke="blue" points="739.72,-82.66 749.09,-77.71 738.68,-75.74 739.72,-82.66"/>
</g>
<!-- value4294967291 -->
<g id="node13" class="node">
<title>value4294967291</title>
<path fill="red" stroke="black" d="M718.5,-110.5C718.5,-110.5 837.5,-110.5 837.5,-110.5 843.5,-110.5 849.5,-116.5 849.5,-122.5 849.5,-122.5 849.5,-134.5 849.5,-134.5 849.5,-140.5 843.5,-146.5 837.5,-146.5 837.5,-146.5 718.5,-146.5 718.5,-146.5 712.5,-146.5 706.5,-140.5 706.5,-134.5 706.5,-134.5 706.5,-122.5 706.5,-122.5 706.5,-116.5 712.5,-110.5 718.5,-110.5"/>
<text text-anchor="middle" x="742.62" y="-124.2" font-family="Times,serif" font-size="14.00">value: 0</text>
<polyline fill="none" stroke="black" points="778.75,-111.25 778.75,-146.5"/>
<text text-anchor="middle" x="814.12" y="-124.2" font-family="Times,serif" font-size="14.00">temp: 1</text>
</g>
<!-- value5&#45;&gt;value4294967291 -->
<g id="edge12" class="edge">
<title>value5&#45;&gt;value4294967291</title>
<path fill="none" stroke="darkgreen" stroke-dasharray="5,2" d="M628.8,-113.61C649.87,-115.73 673.14,-118.07 694.87,-120.25"/>
<polygon fill="darkgreen" stroke="darkgreen" points="694.26,-123.71 704.56,-121.22 694.96,-116.74 694.26,-123.71"/>
<text text-anchor="middle" x="667.5" y="-122.45" font-family="Times,serif" font-size="14.00">DTOR</text>
</g>
<!-- value7&#45;&gt;oper0 -->
<g id="edge6" class="edge">
<title>value7&#45;&gt;oper0</title>
<path fill="none" stroke="blue" stroke-dasharray="5,2" d="M628.8,-51.17C665.54,-56.7 708.95,-63.25 739.25,-67.81"/>
<polygon fill="blue" stroke="blue" points="738.68,-71.26 749.09,-69.29 739.72,-64.34 738.68,-71.26"/>
</g>
<!-- value4294967289 -->
<g id="node12" class="node">
<title>value4294967289</title>
<path fill="red" stroke="black" d="M718.5,-0.5C718.5,-0.5 837.5,-0.5 837.5,-0.5 843.5,-0.5 849.5,-6.5 849.5,-12.5 849.5,-12.5 849.5,-24.5 849.5,-24.5 849.5,-30.5 843.5,-36.5 837.5,-36.5 837.5,-36.5 718.5,-36.5 718.5,-36.5 712.5,-36.5 706.5,-30.5 706.5,-24.5 706.5,-24.5 706.5,-12.5 706.5,-12.5 706.5,-6.5 712.5,-0.5 718.5,-0.5"/>
<text text-anchor="middle" x="742.62" y="-14.2" font-family="Times,serif" font-size="14.00">value: 0</text>
<polyline fill="none" stroke="black" points="778.75,-1.25 778.75,-36.5"/>
<text text-anchor="middle" x="814.12" y="-14.2" font-family="Times,serif" font-size="14.00">temp: 1</text>
</g>
<!-- value7&#45;&gt;value4294967289 -->
<g id="edge11" class="edge">
<title>value7&#45;&gt;value4294967289</title>
<path fill="none" stroke="darkgreen" stroke-dasharray="5,2" d="M628.88,-26.6C634.83,-25.7 640.76,-24.9 646.5,-24.25 662.15,-22.48 678.92,-21.24 695.05,-20.38"/>
<polygon fill="darkgreen" stroke="darkgreen" points="694.75,-23.9 704.57,-19.92 694.42,-16.91 694.75,-23.9"/>
<text text-anchor="middle" x="667.5" y="-28.45" font-family="Times,serif" font-size="14.00">DTOR</text>
</g>
<!-- value8 -->
<g id="node7" class="node">
<title>value8</title>
<path fill="darkgreen" stroke="black" d="M718.5,-165.5C718.5,-165.5 837.5,-165.5 837.5,-165.5 843.5,-165.5 849.5,-171.5 849.5,-177.5 849.5,-177.5 849.5,-189.5 849.5,-189.5 849.5,-195.5 843.5,-201.5 837.5,-201.5 837.5,-201.5 718.5,-201.5 718.5,-201.5 712.5,-201.5 706.5,-195.5 706.5,-189.5 706.5,-189.5 706.5,-177.5 706.5,-177.5 706.5,-171.5 712.5,-165.5 718.5,-165.5"/>
<text text-anchor="middle" x="742.62" y="-179.2" font-family="Times,serif" font-size="14.00">value: 6</text>
<polyline fill="none" stroke="black" points="778.75,-166.25 778.75,-201.5"/>
<text text-anchor="middle" x="814.12" y="-179.2" font-family="Times,serif" font-size="14.00">temp: 0</text>
</g>
<!-- value9 -->
<g id="node8" class="node">
<title>value9</title>
<path fill="darkgreen" stroke="black" d="M938.75,-129.5C938.75,-129.5 1057.75,-129.5 1057.75,-129.5 1063.75,-129.5 1069.75,-135.5 1069.75,-141.5 1069.75,-141.5 1069.75,-153.5 1069.75,-153.5 1069.75,-159.5 1063.75,-165.5 1057.75,-165.5 1057.75,-165.5 938.75,-165.5 938.75,-165.5 932.75,-165.5 926.75,-159.5 926.75,-153.5 926.75,-153.5 926.75,-141.5 926.75,-141.5 926.75,-135.5 932.75,-129.5 938.75,-129.5"/>
<text text-anchor="middle" x="962.88" y="-143.2" font-family="Times,serif" font-size="14.00">value: 6</text>
<polyline fill="none" stroke="black" points="999,-130.25 999,-165.5"/>
<text text-anchor="middle" x="1034.38" y="-143.2" font-family="Times,serif" font-size="14.00">temp: 0</text>
</g>
<!-- value8&#45;&gt;value9 -->
<g id="edge5" class="edge">
<title>value8&#45;&gt;value9</title>
<path fill="none" stroke="darkgreen" stroke-dasharray="5,2" d="M849.86,-171.81C870.74,-168.37 893.76,-164.57 915.28,-161.02"/>
<polygon fill="darkgreen" stroke="darkgreen" points="915.58,-164.52 924.88,-159.44 914.44,-157.61 915.58,-164.52"/>
<text text-anchor="middle" x="888.12" y="-172.45" font-family="Times,serif" font-size="14.00">CTOR</text>
</g>
<!-- value11 -->
<g id="node10" class="node">
<title>value11</title>
<path fill="red" stroke="black" d="M1204,-164.5C1204,-164.5 1323,-164.5 1323,-164.5 1329,-164.5 1335,-170.5 1335,-176.5 1335,-176.5 1335,-188.5 1335,-188.5 1335,-194.5 1329,-200.5 1323,-200.5 1323,-200.5 1204,-200.5 1204,-200.5 1198,-200.5 1192,-194.5 1192,-188.5 1192,-188.5 1192,-176.5 1192,-176.5 1192,-170.5 1198,-164.5 1204,-164.5"/>
<text text-anchor="middle" x="1228.12" y="-178.2" font-family="Times,serif" font-size="14.00">value: 6</text>
<polyline fill="none" stroke="black" points="1264.25,-165.25 1264.25,-200.5"/>
<text text-anchor="middle" x="1299.62" y="-178.2" font-family="Times,serif" font-size="14.00">temp: 1</text>
</g>
<!-- value9&#45;&gt;value11 -->
<g id="edge9" class="edge">
<title>value9&#45;&gt;value11</title>
<path fill="none" stroke="darkgreen" stroke-dasharray="5,2" d="M1070.14,-156.93C1104.22,-161.46 1145.26,-166.91 1180.66,-171.62"/>
<polygon fill="darkgreen" stroke="darkgreen" points="1180.06,-175.07 1190.44,-172.92 1180.99,-168.13 1180.06,-175.07"/>
<text text-anchor="middle" x="1130.88" y="-173.45" font-family="Times,serif" font-size="14.00">COPY CTOR</text>
</g>
<!-- value4294967287 -->
<g id="node11" class="node">
<title>value4294967287</title>
<path fill="darkgreen" stroke="black" d="M1204,-109.5C1204,-109.5 1323,-109.5 1323,-109.5 1329,-109.5 1335,-115.5 1335,-121.5 1335,-121.5 1335,-133.5 1335,-133.5 1335,-139.5 1329,-145.5 1323,-145.5 1323,-145.5 1204,-145.5 1204,-145.5 1198,-145.5 1192,-139.5 1192,-133.5 1192,-133.5 1192,-121.5 1192,-121.5 1192,-115.5 1198,-109.5 1204,-109.5"/>
<text text-anchor="middle" x="1228.12" y="-123.2" font-family="Times,serif" font-size="14.00">value: 0</text>
<polyline fill="none" stroke="black" points="1264.25,-110.25 1264.25,-145.5"/>
<text text-anchor="middle" x="1299.62" y="-123.2" font-family="Times,serif" font-size="14.00">temp: 0</text>
</g>
<!-- value9&#45;&gt;value4294967287 -->
<g id="edge10" class="edge">
<title>value9&#45;&gt;value4294967287</title>
<path fill="none" stroke="darkgreen" stroke-dasharray="5,2" d="M1070.19,-137.09C1076.12,-136.4 1082.03,-135.77 1087.75,-135.25 1117.92,-132.5 1151.11,-130.72 1180.39,-129.56"/>
<polygon fill="darkgreen" stroke="darkgreen" points="1180.45,-133.06 1190.31,-129.19 1180.19,-126.07 1180.45,-133.06"/>
<text text-anchor="middle" x="1130.88" y="-138.45" font-family="Times,serif" font-size="14.00">DTOR</text>
</g>
<!-- oper0&#45;&gt;value9 -->
<g id="edge8" class="edge">
<title>oper0&#45;&gt;value9</title>
<path fill="none" stroke="blue" stroke-dasharray="5,2" d="M805.33,-82.43C836.51,-93 889.58,-110.99 932.02,-125.38"/>
<polygon fill="blue" stroke="blue" points="930.81,-128.67 941.41,-128.57 933.06,-122.04 930.81,-128.67"/>
</g>
<!-- value4294967285 -->
<g id="node14" class="node">
<title>value4294967285</title>
<path fill="red" stroke="black" d="M1425,-164.5C1425,-164.5 1544,-164.5 1544,-164.5 1550,-164.5 1556,-170.5 1556,-176.5 1556,-176.5 1556,-188.5 1556,-188.5 1556,-194.5 1550,-200.5 1544,-200.5 1544,-200.5 1425,-200.5 1425,-200.5 1419,-200.5 1413,-194.5 1413,-188.5 1413,-188.5 1413,-176.5 1413,-176.5 1413,-170.5 1419,-164.5 1425,-164.5"/>
<text text-anchor="middle" x="1449.12" y="-178.2" font-family="Times,serif" font-size="14.00">value: 0</text>
<polyline fill="none" stroke="black" points="1485.25,-165.25 1485.25,-200.5"/>
<text text-anchor="middle" x="1520.62" y="-178.2" font-family="Times,serif" font-size="14.00">temp: 1</text>
</g>
<!-- value11&#45;&gt;value4294967285 -->
<g id="edge13" class="edge">
<title>value11&#45;&gt;value4294967285</title>
<path fill="none" stroke="darkgreen" stroke-dasharray="5,2" d="M1335.3,-182.5C1356.27,-182.5 1379.42,-182.5 1401.07,-182.5"/>
<polygon fill="darkgreen" stroke="darkgreen" points="1401.05,-186 1411.05,-182.5 1401.05,-179 1401.05,-186"/>
<text text-anchor="middle" x="1374" y="-186.45" font-family="Times,serif" font-size="14.00">DTOR</text>
</g>
</g>
</svg>
