<?xml version="1.0" encoding="UTF-8" standalone="no"?>
<!DOCTYPE svg PUBLIC "-//W3C//DTD SVG 1.1//EN"
 "http://www.w3.org/Graphics/SVG/1.1/DTD/svg11.dtd">
<!-- Generated by graphviz version 9.0.0 (0)
 -->
<!-- Title: structs Pages: 1 -->
<svg width="1760pt" height="265pt"
 viewBox="0.00 0.00 1760.25 265.00" xmlns="http://www.w3.org/2000/svg" xmlns:xlink="http://www.w3.org/1999/xlink">
<g id="graph0" class="graph" transform="scale(1 1) rotate(0) translate(4 261)">
<title>structs</title>
<polygon fill="white" stroke="none" points="-4,4 -4,-261 1756.25,-261 1756.25,4 -4,4"/>
<!-- label22 -->
<g id="node1" class="node">
<title>label22</title>
<path fill="red" stroke="black" d="M12,-70.5C12,-70.5 116.75,-70.5 116.75,-70.5 122.75,-70.5 128.75,-76.5 128.75,-82.5 128.75,-82.5 128.75,-94.5 128.75,-94.5 128.75,-100.5 122.75,-106.5 116.75,-106.5 116.75,-106.5 12,-106.5 12,-106.5 6,-106.5 0,-100.5 0,-94.5 0,-94.5 0,-82.5 0,-82.5 0,-76.5 6,-70.5 12,-70.5"/>
<text text-anchor="middle" x="28.25" y="-84.2" font-family="Times,serif" font-size="14.00">id: 22</text>
<polyline fill="none" stroke="black" points="56.5,-71.25 56.5,-106.5"/>
<text text-anchor="middle" x="92.62" y="-84.2" font-family="Times,serif" font-size="14.00">value: 7</text>
</g>
<!-- label23 -->
<g id="node2" class="node">
<title>label23</title>
<path fill="red" stroke="black" d="M218,-70.5C218,-70.5 322.75,-70.5 322.75,-70.5 328.75,-70.5 334.75,-76.5 334.75,-82.5 334.75,-82.5 334.75,-94.5 334.75,-94.5 334.75,-100.5 328.75,-106.5 322.75,-106.5 322.75,-106.5 218,-106.5 218,-106.5 212,-106.5 206,-100.5 206,-94.5 206,-94.5 206,-82.5 206,-82.5 206,-76.5 212,-70.5 218,-70.5"/>
<text text-anchor="middle" x="234.25" y="-84.2" font-family="Times,serif" font-size="14.00">id: 23</text>
<polyline fill="none" stroke="black" points="262.5,-71.25 262.5,-106.5"/>
<text text-anchor="middle" x="298.62" y="-84.2" font-family="Times,serif" font-size="14.00">value: 7</text>
</g>
<!-- label22&#45;&gt;label23 -->
<g id="edge1" class="edge">
<title>label22&#45;&gt;label23</title>
<path fill="none" stroke="black" stroke-dasharray="5,2" d="M129.08,-88.5C153.52,-88.5 181.38,-88.5 205.8,-88.5"/>
<text text-anchor="middle" x="167.38" y="-92.45" font-family="Times,serif" font-size="14.00">CTOR</text>
</g>
<!-- label29 -->
<g id="node6" class="node">
<title>label29</title>
<path fill="red" stroke="black" d="M469,-70.5C469,-70.5 573.75,-70.5 573.75,-70.5 579.75,-70.5 585.75,-76.5 585.75,-82.5 585.75,-82.5 585.75,-94.5 585.75,-94.5 585.75,-100.5 579.75,-106.5 573.75,-106.5 573.75,-106.5 469,-106.5 469,-106.5 463,-106.5 457,-100.5 457,-94.5 457,-94.5 457,-82.5 457,-82.5 457,-76.5 463,-70.5 469,-70.5"/>
<text text-anchor="middle" x="485.25" y="-84.2" font-family="Times,serif" font-size="14.00">id: 29</text>
<polyline fill="none" stroke="black" points="513.5,-71.25 513.5,-106.5"/>
<text text-anchor="middle" x="549.62" y="-84.2" font-family="Times,serif" font-size="14.00">value: 7</text>
</g>
<!-- label23&#45;&gt;label29 -->
<g id="edge4" class="edge">
<title>label23&#45;&gt;label29</title>
<path fill="none" stroke="black" stroke-dasharray="5,2" d="M335.18,-88.5C372.5,-88.5 419.45,-88.5 456.74,-88.5"/>
<text text-anchor="middle" x="395.88" y="-92.45" font-family="Times,serif" font-size="14.00">COPY CTOR</text>
</g>
<!-- label24 -->
<g id="node3" class="node">
<title>label24</title>
<path fill="red" stroke="black" d="M12,-148.5C12,-148.5 116.75,-148.5 116.75,-148.5 122.75,-148.5 128.75,-154.5 128.75,-160.5 128.75,-160.5 128.75,-172.5 128.75,-172.5 128.75,-178.5 122.75,-184.5 116.75,-184.5 116.75,-184.5 12,-184.5 12,-184.5 6,-184.5 0,-178.5 0,-172.5 0,-172.5 0,-160.5 0,-160.5 0,-154.5 6,-148.5 12,-148.5"/>
<text text-anchor="middle" x="28.25" y="-162.2" font-family="Times,serif" font-size="14.00">id: 24</text>
<polyline fill="none" stroke="black" points="56.5,-149.25 56.5,-184.5"/>
<text text-anchor="middle" x="92.62" y="-162.2" font-family="Times,serif" font-size="14.00">value: 0</text>
</g>
<!-- label25 -->
<g id="node4" class="node">
<title>label25</title>
<path fill="red" stroke="black" d="M218,-148.5C218,-148.5 322.75,-148.5 322.75,-148.5 328.75,-148.5 334.75,-154.5 334.75,-160.5 334.75,-160.5 334.75,-172.5 334.75,-172.5 334.75,-178.5 328.75,-184.5 322.75,-184.5 322.75,-184.5 218,-184.5 218,-184.5 212,-184.5 206,-178.5 206,-172.5 206,-172.5 206,-160.5 206,-160.5 206,-154.5 212,-148.5 218,-148.5"/>
<text text-anchor="middle" x="234.25" y="-162.2" font-family="Times,serif" font-size="14.00">id: 25</text>
<polyline fill="none" stroke="black" points="262.5,-149.25 262.5,-184.5"/>
<text text-anchor="middle" x="298.62" y="-162.2" font-family="Times,serif" font-size="14.00">value: 0</text>
</g>
<!-- label24&#45;&gt;label25 -->
<g id="edge2" class="edge">
<title>label24&#45;&gt;label25</title>
<path fill="none" stroke="black" stroke-dasharray="5,2" d="M129.08,-166.5C153.52,-166.5 181.38,-166.5 205.8,-166.5"/>
<text text-anchor="middle" x="167.38" y="-170.45" font-family="Times,serif" font-size="14.00">CTOR</text>
</g>
<!-- label27 -->
<g id="node5" class="node">
<title>label27</title>
<path fill="red" stroke="black" d="M469,-148.5C469,-148.5 573.75,-148.5 573.75,-148.5 579.75,-148.5 585.75,-154.5 585.75,-160.5 585.75,-160.5 585.75,-172.5 585.75,-172.5 585.75,-178.5 579.75,-184.5 573.75,-184.5 573.75,-184.5 469,-184.5 469,-184.5 463,-184.5 457,-178.5 457,-172.5 457,-172.5 457,-160.5 457,-160.5 457,-154.5 463,-148.5 469,-148.5"/>
<text text-anchor="middle" x="485.25" y="-162.2" font-family="Times,serif" font-size="14.00">id: 27</text>
<polyline fill="none" stroke="black" points="513.5,-149.25 513.5,-184.5"/>
<text text-anchor="middle" x="549.62" y="-162.2" font-family="Times,serif" font-size="14.00">value: 0</text>
</g>
<!-- label25&#45;&gt;label27 -->
<g id="edge3" class="edge">
<title>label25&#45;&gt;label27</title>
<path fill="none" stroke="black" stroke-dasharray="5,2" d="M335.18,-166.5C372.5,-166.5 419.45,-166.5 456.74,-166.5"/>
<text text-anchor="middle" x="395.88" y="-170.45" font-family="Times,serif" font-size="14.00">COPY CTOR</text>
</g>
<!-- label31 -->
<g id="node7" class="node">
<title>label31</title>
<path fill="red" stroke="black" d="M720,-192.5C720,-192.5 824.75,-192.5 824.75,-192.5 830.75,-192.5 836.75,-198.5 836.75,-204.5 836.75,-204.5 836.75,-216.5 836.75,-216.5 836.75,-222.5 830.75,-228.5 824.75,-228.5 824.75,-228.5 720,-228.5 720,-228.5 714,-228.5 708,-222.5 708,-216.5 708,-216.5 708,-204.5 708,-204.5 708,-198.5 714,-192.5 720,-192.5"/>
<text text-anchor="middle" x="736.25" y="-206.2" font-family="Times,serif" font-size="14.00">id: 31</text>
<polyline fill="none" stroke="black" points="764.5,-193.25 764.5,-228.5"/>
<text text-anchor="middle" x="800.62" y="-206.2" font-family="Times,serif" font-size="14.00">value: 0</text>
</g>
<!-- label27&#45;&gt;label31 -->
<g id="edge5" class="edge">
<title>label27&#45;&gt;label31</title>
<path fill="none" stroke="black" stroke-dasharray="5,2" d="M586.18,-177.77C623.5,-184.37 670.45,-192.67 707.74,-199.26"/>
<text text-anchor="middle" x="646.88" y="-198.45" font-family="Times,serif" font-size="14.00">COPY CTOR</text>
</g>
<!-- label4294967269 -->
<g id="node21" class="node">
<title>label4294967269</title>
<path fill="red" stroke="black" d="M720,-137.5C720,-137.5 824.75,-137.5 824.75,-137.5 830.75,-137.5 836.75,-143.5 836.75,-149.5 836.75,-149.5 836.75,-161.5 836.75,-161.5 836.75,-167.5 830.75,-173.5 824.75,-173.5 824.75,-173.5 720,-173.5 720,-173.5 714,-173.5 708,-167.5 708,-161.5 708,-161.5 708,-149.5 708,-149.5 708,-143.5 714,-137.5 720,-137.5"/>
<text text-anchor="middle" x="736.25" y="-151.2" font-family="Times,serif" font-size="14.00">id: 27</text>
<polyline fill="none" stroke="black" points="764.5,-138.25 764.5,-173.5"/>
<text text-anchor="middle" x="800.62" y="-151.2" font-family="Times,serif" font-size="14.00">value: 0</text>
</g>
<!-- label27&#45;&gt;label4294967269 -->
<g id="edge20" class="edge">
<title>label27&#45;&gt;label4294967269</title>
<path fill="none" stroke="black" stroke-dasharray="5,2" d="M586.18,-163.68C623.5,-162.03 670.45,-159.96 707.74,-158.31"/>
<text text-anchor="middle" x="646.88" y="-166.45" font-family="Times,serif" font-size="14.00">DTOR</text>
</g>
<!-- label35 -->
<g id="node9" class="node">
<title>label35</title>
<path fill="red" stroke="black" d="M720,-21.5C720,-21.5 824.75,-21.5 824.75,-21.5 830.75,-21.5 836.75,-27.5 836.75,-33.5 836.75,-33.5 836.75,-45.5 836.75,-45.5 836.75,-51.5 830.75,-57.5 824.75,-57.5 824.75,-57.5 720,-57.5 720,-57.5 714,-57.5 708,-51.5 708,-45.5 708,-45.5 708,-33.5 708,-33.5 708,-27.5 714,-21.5 720,-21.5"/>
<text text-anchor="middle" x="736.25" y="-35.2" font-family="Times,serif" font-size="14.00">id: 35</text>
<polyline fill="none" stroke="black" points="764.5,-22.25 764.5,-57.5"/>
<text text-anchor="middle" x="800.62" y="-35.2" font-family="Times,serif" font-size="14.00">value: 7</text>
</g>
<!-- label29&#45;&gt;label35 -->
<g id="edge7" class="edge">
<title>label29&#45;&gt;label35</title>
<path fill="none" stroke="black" stroke-dasharray="5,2" d="M585.82,-73.12C591.87,-71.77 597.92,-70.46 603.75,-69.25 637.9,-62.19 676.19,-55.31 707.53,-49.96"/>
<text text-anchor="middle" x="646.88" y="-73.45" font-family="Times,serif" font-size="14.00">COPY CTOR</text>
</g>
<!-- label4294967267 -->
<g id="node20" class="node">
<title>label4294967267</title>
<path fill="red" stroke="black" d="M720,-76.5C720,-76.5 824.75,-76.5 824.75,-76.5 830.75,-76.5 836.75,-82.5 836.75,-88.5 836.75,-88.5 836.75,-100.5 836.75,-100.5 836.75,-106.5 830.75,-112.5 824.75,-112.5 824.75,-112.5 720,-112.5 720,-112.5 714,-112.5 708,-106.5 708,-100.5 708,-100.5 708,-88.5 708,-88.5 708,-82.5 714,-76.5 720,-76.5"/>
<text text-anchor="middle" x="736.25" y="-90.2" font-family="Times,serif" font-size="14.00">id: 29</text>
<polyline fill="none" stroke="black" points="764.5,-77.25 764.5,-112.5"/>
<text text-anchor="middle" x="800.62" y="-90.2" font-family="Times,serif" font-size="14.00">value: 0</text>
</g>
<!-- label29&#45;&gt;label4294967267 -->
<g id="edge19" class="edge">
<title>label29&#45;&gt;label4294967267</title>
<path fill="none" stroke="black" stroke-dasharray="5,2" d="M586.18,-90.04C623.5,-90.94 670.45,-92.07 707.74,-92.97"/>
<text text-anchor="middle" x="646.88" y="-95.45" font-family="Times,serif" font-size="14.00">DTOR</text>
</g>
<!-- label33 -->
<g id="node8" class="node">
<title>label33</title>
<path fill="red" stroke="black" d="M971,-220.5C971,-220.5 1075.75,-220.5 1075.75,-220.5 1081.75,-220.5 1087.75,-226.5 1087.75,-232.5 1087.75,-232.5 1087.75,-244.5 1087.75,-244.5 1087.75,-250.5 1081.75,-256.5 1075.75,-256.5 1075.75,-256.5 971,-256.5 971,-256.5 965,-256.5 959,-250.5 959,-244.5 959,-244.5 959,-232.5 959,-232.5 959,-226.5 965,-220.5 971,-220.5"/>
<text text-anchor="middle" x="987.25" y="-234.2" font-family="Times,serif" font-size="14.00">id: 33</text>
<polyline fill="none" stroke="black" points="1015.5,-221.25 1015.5,-256.5"/>
<text text-anchor="middle" x="1051.62" y="-234.2" font-family="Times,serif" font-size="14.00">value: 0</text>
</g>
<!-- label31&#45;&gt;label33 -->
<g id="edge6" class="edge">
<title>label31&#45;&gt;label33</title>
<path fill="none" stroke="black" stroke-dasharray="5,2" d="M837.18,-217.67C874.5,-221.87 921.45,-227.15 958.74,-231.34"/>
<text text-anchor="middle" x="897.88" y="-232.45" font-family="Times,serif" font-size="14.00">COPY CTOR</text>
</g>
<!-- label4294967265 -->
<g id="node18" class="node">
<title>label4294967265</title>
<path fill="red" stroke="black" d="M971,-165.5C971,-165.5 1075.75,-165.5 1075.75,-165.5 1081.75,-165.5 1087.75,-171.5 1087.75,-177.5 1087.75,-177.5 1087.75,-189.5 1087.75,-189.5 1087.75,-195.5 1081.75,-201.5 1075.75,-201.5 1075.75,-201.5 971,-201.5 971,-201.5 965,-201.5 959,-195.5 959,-189.5 959,-189.5 959,-177.5 959,-177.5 959,-171.5 965,-165.5 971,-165.5"/>
<text text-anchor="middle" x="987.25" y="-179.2" font-family="Times,serif" font-size="14.00">id: 31</text>
<polyline fill="none" stroke="black" points="1015.5,-166.25 1015.5,-201.5"/>
<text text-anchor="middle" x="1051.62" y="-179.2" font-family="Times,serif" font-size="14.00">value: 0</text>
</g>
<!-- label31&#45;&gt;label4294967265 -->
<g id="edge17" class="edge">
<title>label31&#45;&gt;label4294967265</title>
<path fill="none" stroke="black" stroke-dasharray="5,2" d="M837.13,-194.23C843.06,-193.08 849,-192.06 854.75,-191.25 888.94,-186.46 927.39,-184.44 958.84,-183.66"/>
<text text-anchor="middle" x="897.88" y="-194.45" font-family="Times,serif" font-size="14.00">DTOR</text>
</g>
<!-- label39 -->
<g id="node12" class="node">
<title>label39</title>
<path fill="red" stroke="black" d="M1177.75,-110.5C1177.75,-110.5 1282.5,-110.5 1282.5,-110.5 1288.5,-110.5 1294.5,-116.5 1294.5,-122.5 1294.5,-122.5 1294.5,-134.5 1294.5,-134.5 1294.5,-140.5 1288.5,-146.5 1282.5,-146.5 1282.5,-146.5 1177.75,-146.5 1177.75,-146.5 1171.75,-146.5 1165.75,-140.5 1165.75,-134.5 1165.75,-134.5 1165.75,-122.5 1165.75,-122.5 1165.75,-116.5 1171.75,-110.5 1177.75,-110.5"/>
<text text-anchor="middle" x="1194" y="-124.2" font-family="Times,serif" font-size="14.00">id: 39</text>
<polyline fill="none" stroke="black" points="1222.25,-111.25 1222.25,-146.5"/>
<text text-anchor="middle" x="1258.38" y="-124.2" font-family="Times,serif" font-size="14.00">value: 7</text>
</g>
<!-- label33&#45;&gt;label39 -->
<g id="edge11" class="edge">
<title>label33&#45;&gt;label39</title>
<path fill="none" stroke="black" stroke-dasharray="5,2" d="M1069.71,-220.03C1075.83,-217.29 1081.98,-214.41 1087.75,-211.5 1127.78,-191.33 1172.07,-164.56 1200.22,-146.95"/>
<text text-anchor="middle" x="1126.75" y="-204.45" font-family="Times,serif" font-size="14.00">+</text>
</g>
<!-- label4294967263 -->
<g id="node17" class="node">
<title>label4294967263</title>
<path fill="red" stroke="black" d="M1177.75,-220.5C1177.75,-220.5 1282.5,-220.5 1282.5,-220.5 1288.5,-220.5 1294.5,-226.5 1294.5,-232.5 1294.5,-232.5 1294.5,-244.5 1294.5,-244.5 1294.5,-250.5 1288.5,-256.5 1282.5,-256.5 1282.5,-256.5 1177.75,-256.5 1177.75,-256.5 1171.75,-256.5 1165.75,-250.5 1165.75,-244.5 1165.75,-244.5 1165.75,-232.5 1165.75,-232.5 1165.75,-226.5 1171.75,-220.5 1177.75,-220.5"/>
<text text-anchor="middle" x="1194" y="-234.2" font-family="Times,serif" font-size="14.00">id: 33</text>
<polyline fill="none" stroke="black" points="1222.25,-221.25 1222.25,-256.5"/>
<text text-anchor="middle" x="1258.38" y="-234.2" font-family="Times,serif" font-size="14.00">value: 0</text>
</g>
<!-- label33&#45;&gt;label4294967263 -->
<g id="edge16" class="edge">
<title>label33&#45;&gt;label4294967263</title>
<path fill="none" stroke="black" stroke-dasharray="5,2" d="M1088.04,-238.5C1112.69,-238.5 1140.85,-238.5 1165.5,-238.5"/>
<text text-anchor="middle" x="1126.75" y="-242.45" font-family="Times,serif" font-size="14.00">DTOR</text>
</g>
<!-- label37 -->
<g id="node10" class="node">
<title>label37</title>
<path fill="red" stroke="black" d="M971,-0.5C971,-0.5 1075.75,-0.5 1075.75,-0.5 1081.75,-0.5 1087.75,-6.5 1087.75,-12.5 1087.75,-12.5 1087.75,-24.5 1087.75,-24.5 1087.75,-30.5 1081.75,-36.5 1075.75,-36.5 1075.75,-36.5 971,-36.5 971,-36.5 965,-36.5 959,-30.5 959,-24.5 959,-24.5 959,-12.5 959,-12.5 959,-6.5 965,-0.5 971,-0.5"/>
<text text-anchor="middle" x="987.25" y="-14.2" font-family="Times,serif" font-size="14.00">id: 37</text>
<polyline fill="none" stroke="black" points="1015.5,-1.25 1015.5,-36.5"/>
<text text-anchor="middle" x="1051.62" y="-14.2" font-family="Times,serif" font-size="14.00">value: 7</text>
</g>
<!-- label35&#45;&gt;label37 -->
<g id="edge8" class="edge">
<title>label35&#45;&gt;label37</title>
<path fill="none" stroke="black" stroke-dasharray="5,2" d="M837.18,-34.12C874.5,-30.97 921.45,-27.01 958.74,-23.87"/>
<text text-anchor="middle" x="897.88" y="-36.45" font-family="Times,serif" font-size="14.00">COPY CTOR</text>
</g>
<!-- label4294967261 -->
<g id="node16" class="node">
<title>label4294967261</title>
<path fill="red" stroke="black" d="M971,-55.5C971,-55.5 1075.75,-55.5 1075.75,-55.5 1081.75,-55.5 1087.75,-61.5 1087.75,-67.5 1087.75,-67.5 1087.75,-79.5 1087.75,-79.5 1087.75,-85.5 1081.75,-91.5 1075.75,-91.5 1075.75,-91.5 971,-91.5 971,-91.5 965,-91.5 959,-85.5 959,-79.5 959,-79.5 959,-67.5 959,-67.5 959,-61.5 965,-55.5 971,-55.5"/>
<text text-anchor="middle" x="987.25" y="-69.2" font-family="Times,serif" font-size="14.00">id: 35</text>
<polyline fill="none" stroke="black" points="1015.5,-56.25 1015.5,-91.5"/>
<text text-anchor="middle" x="1051.62" y="-69.2" font-family="Times,serif" font-size="14.00">value: 0</text>
</g>
<!-- label35&#45;&gt;label4294967261 -->
<g id="edge15" class="edge">
<title>label35&#45;&gt;label4294967261</title>
<path fill="none" stroke="black" stroke-dasharray="5,2" d="M836.89,-48.97C842.92,-49.83 848.95,-50.69 854.75,-51.5 889.05,-56.28 927.35,-61.33 958.66,-65.38"/>
<text text-anchor="middle" x="897.88" y="-67.45" font-family="Times,serif" font-size="14.00">DTOR</text>
</g>
<!-- label37&#45;&gt;label39 -->
<g id="edge10" class="edge">
<title>label37&#45;&gt;label39</title>
<path fill="none" stroke="black" stroke-dasharray="5,2" d="M1069.71,-36.97C1075.83,-39.71 1081.98,-42.59 1087.75,-45.5 1127.78,-65.67 1172.07,-92.44 1200.22,-110.05"/>
<text text-anchor="middle" x="1126.75" y="-81.45" font-family="Times,serif" font-size="14.00">+</text>
</g>
<!-- label4294967259 -->
<g id="node15" class="node">
<title>label4294967259</title>
<path fill="red" stroke="black" d="M1177.75,-0.5C1177.75,-0.5 1282.5,-0.5 1282.5,-0.5 1288.5,-0.5 1294.5,-6.5 1294.5,-12.5 1294.5,-12.5 1294.5,-24.5 1294.5,-24.5 1294.5,-30.5 1288.5,-36.5 1282.5,-36.5 1282.5,-36.5 1177.75,-36.5 1177.75,-36.5 1171.75,-36.5 1165.75,-30.5 1165.75,-24.5 1165.75,-24.5 1165.75,-12.5 1165.75,-12.5 1165.75,-6.5 1171.75,-0.5 1177.75,-0.5"/>
<text text-anchor="middle" x="1194" y="-14.2" font-family="Times,serif" font-size="14.00">id: 37</text>
<polyline fill="none" stroke="black" points="1222.25,-1.25 1222.25,-36.5"/>
<text text-anchor="middle" x="1258.38" y="-14.2" font-family="Times,serif" font-size="14.00">value: 0</text>
</g>
<!-- label37&#45;&gt;label4294967259 -->
<g id="edge14" class="edge">
<title>label37&#45;&gt;label4294967259</title>
<path fill="none" stroke="black" stroke-dasharray="5,2" d="M1088.04,-18.5C1112.69,-18.5 1140.85,-18.5 1165.5,-18.5"/>
<text text-anchor="middle" x="1126.75" y="-22.45" font-family="Times,serif" font-size="14.00">DTOR</text>
</g>
<!-- label38 -->
<g id="node11" class="node">
<title>label38</title>
<path fill="red" stroke="black" d="M971,-110.5C971,-110.5 1075.75,-110.5 1075.75,-110.5 1081.75,-110.5 1087.75,-116.5 1087.75,-122.5 1087.75,-122.5 1087.75,-134.5 1087.75,-134.5 1087.75,-140.5 1081.75,-146.5 1075.75,-146.5 1075.75,-146.5 971,-146.5 971,-146.5 965,-146.5 959,-140.5 959,-134.5 959,-134.5 959,-122.5 959,-122.5 959,-116.5 965,-110.5 971,-110.5"/>
<text text-anchor="middle" x="987.25" y="-124.2" font-family="Times,serif" font-size="14.00">id: 38</text>
<polyline fill="none" stroke="black" points="1015.5,-111.25 1015.5,-146.5"/>
<text text-anchor="middle" x="1051.62" y="-124.2" font-family="Times,serif" font-size="14.00">value: 7</text>
</g>
<!-- label38&#45;&gt;label39 -->
<g id="edge9" class="edge">
<title>label38&#45;&gt;label39</title>
<path fill="none" stroke="black" stroke-dasharray="5,2" d="M1088.04,-128.5C1112.69,-128.5 1140.85,-128.5 1165.5,-128.5"/>
<text text-anchor="middle" x="1126.75" y="-132.45" font-family="Times,serif" font-size="14.00">CTOR</text>
</g>
<!-- label41 -->
<g id="node13" class="node">
<title>label41</title>
<path fill="red" stroke="black" d="M1428.75,-141.5C1428.75,-141.5 1533.5,-141.5 1533.5,-141.5 1539.5,-141.5 1545.5,-147.5 1545.5,-153.5 1545.5,-153.5 1545.5,-165.5 1545.5,-165.5 1545.5,-171.5 1539.5,-177.5 1533.5,-177.5 1533.5,-177.5 1428.75,-177.5 1428.75,-177.5 1422.75,-177.5 1416.75,-171.5 1416.75,-165.5 1416.75,-165.5 1416.75,-153.5 1416.75,-153.5 1416.75,-147.5 1422.75,-141.5 1428.75,-141.5"/>
<text text-anchor="middle" x="1445" y="-155.2" font-family="Times,serif" font-size="14.00">id: 41</text>
<polyline fill="none" stroke="black" points="1473.25,-142.25 1473.25,-177.5"/>
<text text-anchor="middle" x="1509.38" y="-155.2" font-family="Times,serif" font-size="14.00">value: 7</text>
</g>
<!-- label39&#45;&gt;label41 -->
<g id="edge12" class="edge">
<title>label39&#45;&gt;label41</title>
<path fill="none" stroke="black" stroke-dasharray="5,2" d="M1294.93,-136.44C1332.25,-141.09 1379.2,-146.93 1416.49,-151.58"/>
<text text-anchor="middle" x="1355.62" y="-152.45" font-family="Times,serif" font-size="14.00">COPY CTOR</text>
</g>
<!-- label4294967257 -->
<g id="node14" class="node">
<title>label4294967257</title>
<path fill="red" stroke="black" d="M1428.75,-86.5C1428.75,-86.5 1533.5,-86.5 1533.5,-86.5 1539.5,-86.5 1545.5,-92.5 1545.5,-98.5 1545.5,-98.5 1545.5,-110.5 1545.5,-110.5 1545.5,-116.5 1539.5,-122.5 1533.5,-122.5 1533.5,-122.5 1428.75,-122.5 1428.75,-122.5 1422.75,-122.5 1416.75,-116.5 1416.75,-110.5 1416.75,-110.5 1416.75,-98.5 1416.75,-98.5 1416.75,-92.5 1422.75,-86.5 1428.75,-86.5"/>
<text text-anchor="middle" x="1445" y="-100.2" font-family="Times,serif" font-size="14.00">id: 39</text>
<polyline fill="none" stroke="black" points="1473.25,-87.25 1473.25,-122.5"/>
<text text-anchor="middle" x="1509.38" y="-100.2" font-family="Times,serif" font-size="14.00">value: 0</text>
</g>
<!-- label39&#45;&gt;label4294967257 -->
<g id="edge13" class="edge">
<title>label39&#45;&gt;label4294967257</title>
<path fill="none" stroke="black" stroke-dasharray="5,2" d="M1294.94,-114.81C1300.86,-113.83 1306.78,-112.95 1312.5,-112.25 1346.62,-108.08 1384.9,-106.11 1416.26,-105.19"/>
<text text-anchor="middle" x="1355.62" y="-115.45" font-family="Times,serif" font-size="14.00">DTOR</text>
</g>
<!-- label4294967255 -->
<g id="node19" class="node">
<title>label4294967255</title>
<path fill="red" stroke="black" d="M1635.5,-141.5C1635.5,-141.5 1740.25,-141.5 1740.25,-141.5 1746.25,-141.5 1752.25,-147.5 1752.25,-153.5 1752.25,-153.5 1752.25,-165.5 1752.25,-165.5 1752.25,-171.5 1746.25,-177.5 1740.25,-177.5 1740.25,-177.5 1635.5,-177.5 1635.5,-177.5 1629.5,-177.5 1623.5,-171.5 1623.5,-165.5 1623.5,-165.5 1623.5,-153.5 1623.5,-153.5 1623.5,-147.5 1629.5,-141.5 1635.5,-141.5"/>
<text text-anchor="middle" x="1651.75" y="-155.2" font-family="Times,serif" font-size="14.00">id: 41</text>
<polyline fill="none" stroke="black" points="1680,-142.25 1680,-177.5"/>
<text text-anchor="middle" x="1716.12" y="-155.2" font-family="Times,serif" font-size="14.00">value: 0</text>
</g>
<!-- label41&#45;&gt;label4294967255 -->
<g id="edge18" class="edge">
<title>label41&#45;&gt;label4294967255</title>
<path fill="none" stroke="black" stroke-dasharray="5,2" d="M1545.79,-159.5C1570.44,-159.5 1598.6,-159.5 1623.25,-159.5"/>
<text text-anchor="middle" x="1584.5" y="-163.45" font-family="Times,serif" font-size="14.00">DTOR</text>
</g>
</g>
</svg>
