<?xml version="1.0" encoding="UTF-8" standalone="no"?>
<!DOCTYPE svg PUBLIC "-//W3C//DTD SVG 1.1//EN"
 "http://www.w3.org/Graphics/SVG/1.1/DTD/svg11.dtd">
<!-- Generated by graphviz version 9.0.0 (0)
 -->
<!-- Title: structs Pages: 1 -->
<svg width="1464pt" height="210pt"
 viewBox="0.00 0.00 1464.25 210.00" xmlns="http://www.w3.org/2000/svg" xmlns:xlink="http://www.w3.org/1999/xlink">
<g id="graph0" class="graph" transform="scale(1 1) rotate(0) translate(4 206)">
<title>structs</title>
<polygon fill="white" stroke="none" points="-4,4 -4,-206 1460.25,-206 1460.25,4 -4,4"/>
<!-- value14 -->
<g id="node1" class="node">
<title>value14</title>
<path fill="red" stroke="black" d="M12,-22.5C12,-22.5 116.75,-22.5 116.75,-22.5 122.75,-22.5 128.75,-28.5 128.75,-34.5 128.75,-34.5 128.75,-46.5 128.75,-46.5 128.75,-52.5 122.75,-58.5 116.75,-58.5 116.75,-58.5 12,-58.5 12,-58.5 6,-58.5 0,-52.5 0,-46.5 0,-46.5 0,-34.5 0,-34.5 0,-28.5 6,-22.5 12,-22.5"/>
<text text-anchor="middle" x="28.25" y="-36.2" font-family="Times,serif" font-size="14.00">id: 14</text>
<polyline fill="none" stroke="black" points="56.5,-23.25 56.5,-58.5"/>
<text text-anchor="middle" x="92.62" y="-36.2" font-family="Times,serif" font-size="14.00">value: 6</text>
</g>
<!-- value15 -->
<g id="node2" class="node">
<title>value15</title>
<path fill="red" stroke="black" d="M218,-22.5C218,-22.5 322.75,-22.5 322.75,-22.5 328.75,-22.5 334.75,-28.5 334.75,-34.5 334.75,-34.5 334.75,-46.5 334.75,-46.5 334.75,-52.5 328.75,-58.5 322.75,-58.5 322.75,-58.5 218,-58.5 218,-58.5 212,-58.5 206,-52.5 206,-46.5 206,-46.5 206,-34.5 206,-34.5 206,-28.5 212,-22.5 218,-22.5"/>
<text text-anchor="middle" x="234.25" y="-36.2" font-family="Times,serif" font-size="14.00">id: 15</text>
<polyline fill="none" stroke="black" points="262.5,-23.25 262.5,-58.5"/>
<text text-anchor="middle" x="298.62" y="-36.2" font-family="Times,serif" font-size="14.00">value: 6</text>
</g>
<!-- value14&#45;&gt;value15 -->
<g id="edge1" class="edge">
<title>value14&#45;&gt;value15</title>
<path fill="none" stroke="red" stroke-dasharray="5,2" d="M129.08,-40.5C149.79,-40.5 172.97,-40.5 194.42,-40.5"/>
<polygon fill="red" stroke="red" points="194.29,-44 204.29,-40.5 194.29,-37 194.29,-44"/>
<text text-anchor="middle" x="167.38" y="-44.45" font-family="Times,serif" font-size="14.00">CTOR</text>
</g>
<!-- value21 -->
<g id="node6" class="node">
<title>value21</title>
<path fill="red" stroke="black" d="M469,-22.5C469,-22.5 573.75,-22.5 573.75,-22.5 579.75,-22.5 585.75,-28.5 585.75,-34.5 585.75,-34.5 585.75,-46.5 585.75,-46.5 585.75,-52.5 579.75,-58.5 573.75,-58.5 573.75,-58.5 469,-58.5 469,-58.5 463,-58.5 457,-52.5 457,-46.5 457,-46.5 457,-34.5 457,-34.5 457,-28.5 463,-22.5 469,-22.5"/>
<text text-anchor="middle" x="485.25" y="-36.2" font-family="Times,serif" font-size="14.00">id: 21</text>
<polyline fill="none" stroke="black" points="513.5,-23.25 513.5,-58.5"/>
<text text-anchor="middle" x="549.62" y="-36.2" font-family="Times,serif" font-size="14.00">value: 6</text>
</g>
<!-- value15&#45;&gt;value21 -->
<g id="edge4" class="edge">
<title>value15&#45;&gt;value21</title>
<path fill="none" stroke="red" stroke-dasharray="5,2" d="M335.18,-40.5C368.85,-40.5 410.37,-40.5 445.56,-40.5"/>
<polygon fill="red" stroke="red" points="445.23,-44 455.23,-40.5 445.23,-37 445.23,-44"/>
<text text-anchor="middle" x="395.88" y="-44.45" font-family="Times,serif" font-size="14.00">COPY CTOR</text>
</g>
<!-- value16 -->
<g id="node3" class="node">
<title>value16</title>
<path fill="red" stroke="black" d="M12,-88.5C12,-88.5 116.75,-88.5 116.75,-88.5 122.75,-88.5 128.75,-94.5 128.75,-100.5 128.75,-100.5 128.75,-112.5 128.75,-112.5 128.75,-118.5 122.75,-124.5 116.75,-124.5 116.75,-124.5 12,-124.5 12,-124.5 6,-124.5 0,-118.5 0,-112.5 0,-112.5 0,-100.5 0,-100.5 0,-94.5 6,-88.5 12,-88.5"/>
<text text-anchor="middle" x="28.25" y="-102.2" font-family="Times,serif" font-size="14.00">id: 16</text>
<polyline fill="none" stroke="black" points="56.5,-89.25 56.5,-124.5"/>
<text text-anchor="middle" x="92.62" y="-102.2" font-family="Times,serif" font-size="14.00">value: 3</text>
</g>
<!-- value17 -->
<g id="node4" class="node">
<title>value17</title>
<path fill="red" stroke="black" d="M218,-88.5C218,-88.5 322.75,-88.5 322.75,-88.5 328.75,-88.5 334.75,-94.5 334.75,-100.5 334.75,-100.5 334.75,-112.5 334.75,-112.5 334.75,-118.5 328.75,-124.5 322.75,-124.5 322.75,-124.5 218,-124.5 218,-124.5 212,-124.5 206,-118.5 206,-112.5 206,-112.5 206,-100.5 206,-100.5 206,-94.5 212,-88.5 218,-88.5"/>
<text text-anchor="middle" x="234.25" y="-102.2" font-family="Times,serif" font-size="14.00">id: 17</text>
<polyline fill="none" stroke="black" points="262.5,-89.25 262.5,-124.5"/>
<text text-anchor="middle" x="298.62" y="-102.2" font-family="Times,serif" font-size="14.00">value: 3</text>
</g>
<!-- value16&#45;&gt;value17 -->
<g id="edge2" class="edge">
<title>value16&#45;&gt;value17</title>
<path fill="none" stroke="red" stroke-dasharray="5,2" d="M129.08,-106.5C149.79,-106.5 172.97,-106.5 194.42,-106.5"/>
<polygon fill="red" stroke="red" points="194.29,-110 204.29,-106.5 194.29,-103 194.29,-110"/>
<text text-anchor="middle" x="167.38" y="-110.45" font-family="Times,serif" font-size="14.00">CTOR</text>
</g>
<!-- value19 -->
<g id="node5" class="node">
<title>value19</title>
<path fill="red" stroke="black" d="M469,-88.5C469,-88.5 573.75,-88.5 573.75,-88.5 579.75,-88.5 585.75,-94.5 585.75,-100.5 585.75,-100.5 585.75,-112.5 585.75,-112.5 585.75,-118.5 579.75,-124.5 573.75,-124.5 573.75,-124.5 469,-124.5 469,-124.5 463,-124.5 457,-118.5 457,-112.5 457,-112.5 457,-100.5 457,-100.5 457,-94.5 463,-88.5 469,-88.5"/>
<text text-anchor="middle" x="485.25" y="-102.2" font-family="Times,serif" font-size="14.00">id: 19</text>
<polyline fill="none" stroke="black" points="513.5,-89.25 513.5,-124.5"/>
<text text-anchor="middle" x="549.62" y="-102.2" font-family="Times,serif" font-size="14.00">value: 3</text>
</g>
<!-- value17&#45;&gt;value19 -->
<g id="edge3" class="edge">
<title>value17&#45;&gt;value19</title>
<path fill="none" stroke="red" stroke-dasharray="5,2" d="M335.18,-106.5C368.85,-106.5 410.37,-106.5 445.56,-106.5"/>
<polygon fill="red" stroke="red" points="445.23,-110 455.23,-106.5 445.23,-103 445.23,-110"/>
<text text-anchor="middle" x="395.88" y="-110.45" font-family="Times,serif" font-size="14.00">COPY CTOR</text>
</g>
<!-- oper1 -->
<g id="node9" class="node">
<title>oper1</title>
<path fill="white" stroke="black" d="M713.12,-55.5C713.12,-55.5 743.12,-55.5 743.12,-55.5 749.12,-55.5 755.12,-61.5 755.12,-67.5 755.12,-67.5 755.12,-79.5 755.12,-79.5 755.12,-85.5 749.12,-91.5 743.12,-91.5 743.12,-91.5 713.12,-91.5 713.12,-91.5 707.12,-91.5 701.12,-85.5 701.12,-79.5 701.12,-79.5 701.12,-67.5 701.12,-67.5 701.12,-61.5 707.12,-55.5 713.12,-55.5"/>
<text text-anchor="middle" x="728.12" y="-69.2" font-family="Times,serif" font-size="14.00">+</text>
</g>
<!-- value19&#45;&gt;oper1 -->
<g id="edge7" class="edge">
<title>value19&#45;&gt;oper1</title>
<path fill="none" stroke="white" stroke-dasharray="5,2" d="M586.04,-96.24C619.98,-90.77 660.59,-84.22 689.5,-79.56"/>
<polygon fill="white" stroke="white" points="689.93,-83.04 699.24,-77.99 688.82,-76.13 689.93,-83.04"/>
</g>
<!-- value4294967277 -->
<g id="node13" class="node">
<title>value4294967277</title>
<path fill="red" stroke="black" d="M675.75,-110.5C675.75,-110.5 780.5,-110.5 780.5,-110.5 786.5,-110.5 792.5,-116.5 792.5,-122.5 792.5,-122.5 792.5,-134.5 792.5,-134.5 792.5,-140.5 786.5,-146.5 780.5,-146.5 780.5,-146.5 675.75,-146.5 675.75,-146.5 669.75,-146.5 663.75,-140.5 663.75,-134.5 663.75,-134.5 663.75,-122.5 663.75,-122.5 663.75,-116.5 669.75,-110.5 675.75,-110.5"/>
<text text-anchor="middle" x="692" y="-124.2" font-family="Times,serif" font-size="14.00">id: 19</text>
<polyline fill="none" stroke="black" points="720.25,-111.25 720.25,-146.5"/>
<text text-anchor="middle" x="756.38" y="-124.2" font-family="Times,serif" font-size="14.00">value: 0</text>
</g>
<!-- value19&#45;&gt;value4294967277 -->
<g id="edge12" class="edge">
<title>value19&#45;&gt;value4294967277</title>
<path fill="none" stroke="red" stroke-dasharray="5,2" d="M586.04,-113.34C607.03,-115.6 630.57,-118.13 652.32,-120.46"/>
<polygon fill="red" stroke="red" points="651.68,-123.91 662,-121.5 652.43,-116.95 651.68,-123.91"/>
<text text-anchor="middle" x="624.75" y="-122.45" font-family="Times,serif" font-size="14.00">DTOR</text>
</g>
<!-- value21&#45;&gt;oper1 -->
<g id="edge6" class="edge">
<title>value21&#45;&gt;oper1</title>
<path fill="none" stroke="white" stroke-dasharray="5,2" d="M586.04,-50.76C619.98,-56.23 660.59,-62.78 689.5,-67.44"/>
<polygon fill="white" stroke="white" points="688.82,-70.87 699.24,-69.01 689.93,-63.96 688.82,-70.87"/>
</g>
<!-- value4294967275 -->
<g id="node12" class="node">
<title>value4294967275</title>
<path fill="red" stroke="black" d="M675.75,-0.5C675.75,-0.5 780.5,-0.5 780.5,-0.5 786.5,-0.5 792.5,-6.5 792.5,-12.5 792.5,-12.5 792.5,-24.5 792.5,-24.5 792.5,-30.5 786.5,-36.5 780.5,-36.5 780.5,-36.5 675.75,-36.5 675.75,-36.5 669.75,-36.5 663.75,-30.5 663.75,-24.5 663.75,-24.5 663.75,-12.5 663.75,-12.5 663.75,-6.5 669.75,-0.5 675.75,-0.5"/>
<text text-anchor="middle" x="692" y="-14.2" font-family="Times,serif" font-size="14.00">id: 21</text>
<polyline fill="none" stroke="black" points="720.25,-1.25 720.25,-36.5"/>
<text text-anchor="middle" x="756.38" y="-14.2" font-family="Times,serif" font-size="14.00">value: 0</text>
</g>
<!-- value21&#45;&gt;value4294967275 -->
<g id="edge11" class="edge">
<title>value21&#45;&gt;value4294967275</title>
<path fill="none" stroke="red" stroke-dasharray="5,2" d="M586.19,-26.81C592.11,-25.83 598.03,-24.95 603.75,-24.25 619.25,-22.35 635.91,-21.07 651.83,-20.2"/>
<polygon fill="red" stroke="red" points="651.93,-23.7 661.74,-19.72 651.58,-16.71 651.93,-23.7"/>
<text text-anchor="middle" x="624.75" y="-28.45" font-family="Times,serif" font-size="14.00">DTOR</text>
</g>
<!-- value22 -->
<g id="node7" class="node">
<title>value22</title>
<path fill="red" stroke="black" d="M675.75,-165.5C675.75,-165.5 780.5,-165.5 780.5,-165.5 786.5,-165.5 792.5,-171.5 792.5,-177.5 792.5,-177.5 792.5,-189.5 792.5,-189.5 792.5,-195.5 786.5,-201.5 780.5,-201.5 780.5,-201.5 675.75,-201.5 675.75,-201.5 669.75,-201.5 663.75,-195.5 663.75,-189.5 663.75,-189.5 663.75,-177.5 663.75,-177.5 663.75,-171.5 669.75,-165.5 675.75,-165.5"/>
<text text-anchor="middle" x="692" y="-179.2" font-family="Times,serif" font-size="14.00">id: 22</text>
<polyline fill="none" stroke="black" points="720.25,-166.25 720.25,-201.5"/>
<text text-anchor="middle" x="756.38" y="-179.2" font-family="Times,serif" font-size="14.00">value: 9</text>
</g>
<!-- value23 -->
<g id="node8" class="node">
<title>value23</title>
<path fill="red" stroke="black" d="M881.75,-129.5C881.75,-129.5 986.5,-129.5 986.5,-129.5 992.5,-129.5 998.5,-135.5 998.5,-141.5 998.5,-141.5 998.5,-153.5 998.5,-153.5 998.5,-159.5 992.5,-165.5 986.5,-165.5 986.5,-165.5 881.75,-165.5 881.75,-165.5 875.75,-165.5 869.75,-159.5 869.75,-153.5 869.75,-153.5 869.75,-141.5 869.75,-141.5 869.75,-135.5 875.75,-129.5 881.75,-129.5"/>
<text text-anchor="middle" x="898" y="-143.2" font-family="Times,serif" font-size="14.00">id: 23</text>
<polyline fill="none" stroke="black" points="926.25,-130.25 926.25,-165.5"/>
<text text-anchor="middle" x="962.38" y="-143.2" font-family="Times,serif" font-size="14.00">value: 9</text>
</g>
<!-- value22&#45;&gt;value23 -->
<g id="edge5" class="edge">
<title>value22&#45;&gt;value23</title>
<path fill="none" stroke="red" stroke-dasharray="5,2" d="M792.83,-172.26C813.64,-168.59 836.93,-164.48 858.47,-160.67"/>
<polygon fill="red" stroke="red" points="858.82,-164.17 868.06,-158.98 857.6,-157.27 858.82,-164.17"/>
<text text-anchor="middle" x="831.12" y="-172.45" font-family="Times,serif" font-size="14.00">CTOR</text>
</g>
<!-- value25 -->
<g id="node10" class="node">
<title>value25</title>
<path fill="red" stroke="black" d="M1132.75,-164.5C1132.75,-164.5 1237.5,-164.5 1237.5,-164.5 1243.5,-164.5 1249.5,-170.5 1249.5,-176.5 1249.5,-176.5 1249.5,-188.5 1249.5,-188.5 1249.5,-194.5 1243.5,-200.5 1237.5,-200.5 1237.5,-200.5 1132.75,-200.5 1132.75,-200.5 1126.75,-200.5 1120.75,-194.5 1120.75,-188.5 1120.75,-188.5 1120.75,-176.5 1120.75,-176.5 1120.75,-170.5 1126.75,-164.5 1132.75,-164.5"/>
<text text-anchor="middle" x="1149" y="-178.2" font-family="Times,serif" font-size="14.00">id: 25</text>
<polyline fill="none" stroke="black" points="1177.25,-165.25 1177.25,-200.5"/>
<text text-anchor="middle" x="1213.38" y="-178.2" font-family="Times,serif" font-size="14.00">value: 9</text>
</g>
<!-- value23&#45;&gt;value25 -->
<g id="edge9" class="edge">
<title>value23&#45;&gt;value25</title>
<path fill="none" stroke="red" stroke-dasharray="5,2" d="M998.93,-156.47C1032.6,-161.2 1074.12,-167.04 1109.31,-171.98"/>
<polygon fill="red" stroke="red" points="1108.6,-175.42 1118.99,-173.34 1109.58,-168.49 1108.6,-175.42"/>
<text text-anchor="middle" x="1059.62" y="-173.45" font-family="Times,serif" font-size="14.00">COPY CTOR</text>
</g>
<!-- value4294967273 -->
<g id="node11" class="node">
<title>value4294967273</title>
<path fill="red" stroke="black" d="M1132.75,-109.5C1132.75,-109.5 1237.5,-109.5 1237.5,-109.5 1243.5,-109.5 1249.5,-115.5 1249.5,-121.5 1249.5,-121.5 1249.5,-133.5 1249.5,-133.5 1249.5,-139.5 1243.5,-145.5 1237.5,-145.5 1237.5,-145.5 1132.75,-145.5 1132.75,-145.5 1126.75,-145.5 1120.75,-139.5 1120.75,-133.5 1120.75,-133.5 1120.75,-121.5 1120.75,-121.5 1120.75,-115.5 1126.75,-109.5 1132.75,-109.5"/>
<text text-anchor="middle" x="1149" y="-123.2" font-family="Times,serif" font-size="14.00">id: 23</text>
<polyline fill="none" stroke="black" points="1177.25,-110.25 1177.25,-145.5"/>
<text text-anchor="middle" x="1213.38" y="-123.2" font-family="Times,serif" font-size="14.00">value: 0</text>
</g>
<!-- value23&#45;&gt;value4294967273 -->
<g id="edge10" class="edge">
<title>value23&#45;&gt;value4294967273</title>
<path fill="none" stroke="red" stroke-dasharray="5,2" d="M998.57,-137.3C1004.62,-136.53 1010.67,-135.82 1016.5,-135.25 1046.7,-132.29 1080.08,-130.45 1109.05,-129.32"/>
<polygon fill="red" stroke="red" points="1108.96,-132.82 1118.82,-128.96 1108.7,-125.83 1108.96,-132.82"/>
<text text-anchor="middle" x="1059.62" y="-138.45" font-family="Times,serif" font-size="14.00">DTOR</text>
</g>
<!-- oper1&#45;&gt;value23 -->
<g id="edge8" class="edge">
<title>oper1&#45;&gt;value23</title>
<path fill="none" stroke="white" stroke-dasharray="5,2" d="M755.38,-83.02C784.59,-93.62 832.8,-111.11 871.64,-125.2"/>
<polygon fill="white" stroke="white" points="870.31,-128.44 880.9,-128.56 872.7,-121.86 870.31,-128.44"/>
</g>
<!-- value4294967271 -->
<g id="node14" class="node">
<title>value4294967271</title>
<path fill="red" stroke="black" d="M1339.5,-164.5C1339.5,-164.5 1444.25,-164.5 1444.25,-164.5 1450.25,-164.5 1456.25,-170.5 1456.25,-176.5 1456.25,-176.5 1456.25,-188.5 1456.25,-188.5 1456.25,-194.5 1450.25,-200.5 1444.25,-200.5 1444.25,-200.5 1339.5,-200.5 1339.5,-200.5 1333.5,-200.5 1327.5,-194.5 1327.5,-188.5 1327.5,-188.5 1327.5,-176.5 1327.5,-176.5 1327.5,-170.5 1333.5,-164.5 1339.5,-164.5"/>
<text text-anchor="middle" x="1355.75" y="-178.2" font-family="Times,serif" font-size="14.00">id: 25</text>
<polyline fill="none" stroke="black" points="1384,-165.25 1384,-200.5"/>
<text text-anchor="middle" x="1420.12" y="-178.2" font-family="Times,serif" font-size="14.00">value: 0</text>
</g>
<!-- value25&#45;&gt;value4294967271 -->
<g id="edge13" class="edge">
<title>value25&#45;&gt;value4294967271</title>
<path fill="none" stroke="red" stroke-dasharray="5,2" d="M1249.79,-182.5C1270.68,-182.5 1294.1,-182.5 1315.77,-182.5"/>
<polygon fill="red" stroke="red" points="1315.74,-186 1325.74,-182.5 1315.74,-179 1315.74,-186"/>
<text text-anchor="middle" x="1288.5" y="-186.45" font-family="Times,serif" font-size="14.00">DTOR</text>
</g>
</g>
</svg>
