<?xml version="1.0" encoding="UTF-8" standalone="no"?>
<!DOCTYPE svg PUBLIC "-//W3C//DTD SVG 1.1//EN"
 "http://www.w3.org/Graphics/SVG/1.1/DTD/svg11.dtd">
<!-- Generated by graphviz version 9.0.0 (0)
 -->
<!-- Title: structs Pages: 1 -->
<svg width="1068pt" height="130pt"
 viewBox="0.00 0.00 1067.50 129.50" xmlns="http://www.w3.org/2000/svg" xmlns:xlink="http://www.w3.org/1999/xlink">
<g id="graph0" class="graph" transform="scale(1 1) rotate(0) translate(4 125.5)">
<title>structs</title>
<polygon fill="white" stroke="none" points="-4,4 -4,-125.5 1063.5,-125.5 1063.5,4 -4,4"/>
<!-- value0 -->
<g id="node1" class="node">
<title>value0</title>
<path fill="red" stroke="black" d="M12,-70.5C12,-70.5 60.25,-70.5 60.25,-70.5 66.25,-70.5 72.25,-76.5 72.25,-82.5 72.25,-82.5 72.25,-109 72.25,-109 72.25,-115 66.25,-121 60.25,-121 60.25,-121 12,-121 12,-121 6,-121 0,-115 0,-109 0,-109 0,-82.5 0,-82.5 0,-76.5 6,-70.5 12,-70.5"/>
<text text-anchor="middle" x="36.12" y="-103.7" font-family="Times,serif" font-size="14.00">value: 1</text>
<polyline fill="none" stroke="black" points="0,-95.75 72.25,-95.75"/>
<text text-anchor="middle" x="36.12" y="-78.45" font-family="Times,serif" font-size="14.00"> </text>
</g>
<!-- value1 -->
<g id="node2" class="node">
<title>value1</title>
<path fill="red" stroke="black" d="M231.62,-70.5C231.62,-70.5 279.88,-70.5 279.88,-70.5 285.88,-70.5 291.88,-76.5 291.88,-82.5 291.88,-82.5 291.88,-109 291.88,-109 291.88,-115 285.88,-121 279.88,-121 279.88,-121 231.62,-121 231.62,-121 225.62,-121 219.62,-115 219.62,-109 219.62,-109 219.62,-82.5 219.62,-82.5 219.62,-76.5 225.62,-70.5 231.62,-70.5"/>
<text text-anchor="middle" x="255.75" y="-103.7" font-family="Times,serif" font-size="14.00">value: 1</text>
<polyline fill="none" stroke="black" points="219.62,-95.75 291.88,-95.75"/>
<text text-anchor="middle" x="255.75" y="-78.45" font-family="Times,serif" font-size="14.00"> </text>
</g>
<!-- value0&#45;&gt;value1 -->
<g id="edge1" class="edge">
<title>value0&#45;&gt;value1</title>
<path fill="none" stroke="red" stroke-dasharray="5,2" d="M72.57,-95.75C109.41,-95.75 167.23,-95.75 207.83,-95.75"/>
<polygon fill="red" stroke="red" points="207.8,-99.25 217.8,-95.75 207.8,-92.25 207.8,-99.25"/>
<text text-anchor="middle" x="110.88" y="-99.7" font-family="Times,serif" font-size="14.00">CTOR</text>
</g>
<!-- value3 -->
<g id="node4" class="node">
<title>value3</title>
<path fill="red" stroke="black" d="M451.25,-20.5C451.25,-20.5 639.75,-20.5 639.75,-20.5 645.75,-20.5 651.75,-26.5 651.75,-32.5 651.75,-32.5 651.75,-59 651.75,-59 651.75,-65 645.75,-71 639.75,-71 639.75,-71 451.25,-71 451.25,-71 445.25,-71 439.25,-65 439.25,-59 439.25,-59 439.25,-32.5 439.25,-32.5 439.25,-26.5 445.25,-20.5 451.25,-20.5"/>
<text text-anchor="middle" x="545.5" y="-53.7" font-family="Times,serif" font-size="14.00">value: 1</text>
<polyline fill="none" stroke="black" points="439.25,-45.75 651.75,-45.75"/>
<text text-anchor="middle" x="545.5" y="-28.45" font-family="Times,serif" font-size="14.00">OBJECT CREATED FROM 1</text>
</g>
<!-- value1&#45;&gt;value3 -->
<g id="edge3" class="edge">
<title>value1&#45;&gt;value3</title>
<path fill="none" stroke="red" stroke-dasharray="5,2" d="M292.32,-89.57C326.15,-83.69 378.94,-74.52 427.5,-66.08"/>
<polygon fill="red" stroke="red" points="428.01,-69.54 437.26,-64.38 426.81,-62.65 428.01,-69.54"/>
<text text-anchor="middle" x="400.62" y="-76.7" font-family="Times,serif" font-size="14.00">&gt;</text>
</g>
<!-- value2 -->
<g id="node3" class="node">
<title>value2</title>
<path fill="red" stroke="black" d="M161.5,-0.5C161.5,-0.5 350,-0.5 350,-0.5 356,-0.5 362,-6.5 362,-12.5 362,-12.5 362,-39 362,-39 362,-45 356,-51 350,-51 350,-51 161.5,-51 161.5,-51 155.5,-51 149.5,-45 149.5,-39 149.5,-39 149.5,-12.5 149.5,-12.5 149.5,-6.5 155.5,-0.5 161.5,-0.5"/>
<text text-anchor="middle" x="255.75" y="-33.7" font-family="Times,serif" font-size="14.00">value: 1</text>
<polyline fill="none" stroke="black" points="149.5,-25.75 362,-25.75"/>
<text text-anchor="middle" x="255.75" y="-8.45" font-family="Times,serif" font-size="14.00">OBJECT CREATED FROM 1</text>
</g>
<!-- value2&#45;&gt;value3 -->
<g id="edge2" class="edge">
<title>value2&#45;&gt;value3</title>
<path fill="none" stroke="red" stroke-dasharray="5,2" d="M362.26,-33.08C383.57,-34.56 406.09,-36.13 427.76,-37.64"/>
<polygon fill="red" stroke="red" points="427.27,-41.11 437.49,-38.31 427.76,-34.13 427.27,-41.11"/>
<text text-anchor="middle" x="400.62" y="-41.7" font-family="Times,serif" font-size="14.00">CTOR</text>
</g>
<!-- value5 -->
<g id="node5" class="node">
<title>value5</title>
<path fill="red" stroke="black" d="M786,-27.75C786,-27.75 825.25,-27.75 825.25,-27.75 831.25,-27.75 837.25,-33.75 837.25,-39.75 837.25,-39.75 837.25,-51.75 837.25,-51.75 837.25,-57.75 831.25,-63.75 825.25,-63.75 825.25,-63.75 786,-63.75 786,-63.75 780,-63.75 774,-57.75 774,-51.75 774,-51.75 774,-39.75 774,-39.75 774,-33.75 780,-27.75 786,-27.75"/>
<text text-anchor="middle" x="805.62" y="-41.45" font-family="Times,serif" font-size="14.00">value5</text>
</g>
<!-- value3&#45;&gt;value5 -->
<g id="edge4" class="edge">
<title>value3&#45;&gt;value5</title>
<path fill="none" stroke="red" stroke-dasharray="5,2" d="M652.23,-45.75C690.95,-45.75 732.57,-45.75 762.51,-45.75"/>
<polygon fill="red" stroke="red" points="762.27,-49.25 772.27,-45.75 762.27,-42.25 762.27,-49.25"/>
<text text-anchor="middle" x="712.88" y="-49.7" font-family="Times,serif" font-size="14.00">COPY CTOR</text>
</g>
<!-- value4294967291 -->
<g id="node6" class="node">
<title>value4294967291</title>
<path fill="red" stroke="black" d="M927.25,-27.75C927.25,-27.75 1047.5,-27.75 1047.5,-27.75 1053.5,-27.75 1059.5,-33.75 1059.5,-39.75 1059.5,-39.75 1059.5,-51.75 1059.5,-51.75 1059.5,-57.75 1053.5,-63.75 1047.5,-63.75 1047.5,-63.75 927.25,-63.75 927.25,-63.75 921.25,-63.75 915.25,-57.75 915.25,-51.75 915.25,-51.75 915.25,-39.75 915.25,-39.75 915.25,-33.75 921.25,-27.75 927.25,-27.75"/>
<text text-anchor="middle" x="987.38" y="-41.45" font-family="Times,serif" font-size="14.00">value4294967291</text>
</g>
<!-- value5&#45;&gt;value4294967291 -->
<g id="edge5" class="edge">
<title>value5&#45;&gt;value4294967291</title>
<path fill="none" stroke="red" stroke-dasharray="5,2" d="M837.53,-45.75C855.81,-45.75 879.93,-45.75 903.42,-45.75"/>
<polygon fill="red" stroke="red" points="903.36,-49.25 913.36,-45.75 903.36,-42.25 903.36,-49.25"/>
<text text-anchor="middle" x="876.25" y="-49.7" font-family="Times,serif" font-size="14.00">DTOR</text>
</g>
</g>
</svg>
