<?xml version="1.0" encoding="UTF-8" standalone="no"?>
<!DOCTYPE svg PUBLIC "-//W3C//DTD SVG 1.1//EN"
 "http://www.w3.org/Graphics/SVG/1.1/DTD/svg11.dtd">
<!-- Generated by graphviz version 9.0.0 (0)
 -->
<!-- Title: structs Pages: 1 -->
<svg width="724pt" height="130pt"
 viewBox="0.00 0.00 724.00 129.50" xmlns="http://www.w3.org/2000/svg" xmlns:xlink="http://www.w3.org/1999/xlink">
<g id="graph0" class="graph" transform="scale(1 1) rotate(0) translate(4 125.5)">
<title>structs</title>
<polygon fill="white" stroke="none" points="-4,4 -4,-125.5 720,-125.5 720,4 -4,4"/>
<!-- value0 -->
<g id="node1" class="node">
<title>value0</title>
<path fill="red" stroke="black" d="M12,-70.5C12,-70.5 60.25,-70.5 60.25,-70.5 66.25,-70.5 72.25,-76.5 72.25,-82.5 72.25,-82.5 72.25,-109 72.25,-109 72.25,-115 66.25,-121 60.25,-121 60.25,-121 12,-121 12,-121 6,-121 0,-115 0,-109 0,-109 0,-82.5 0,-82.5 0,-76.5 6,-70.5 12,-70.5"/>
<text text-anchor="middle" x="36.12" y="-103.7" font-family="Times,serif" font-size="14.00">value: 0</text>
<polyline fill="none" stroke="black" points="0,-95.75 72.25,-95.75"/>
<text text-anchor="middle" x="36.12" y="-78.45" font-family="Times,serif" font-size="14.00">(null)</text>
</g>
<!-- value1 -->
<g id="node2" class="node">
<title>value1</title>
<path fill="red" stroke="black" d="M161.5,-70.5C161.5,-70.5 209.75,-70.5 209.75,-70.5 215.75,-70.5 221.75,-76.5 221.75,-82.5 221.75,-82.5 221.75,-109 221.75,-109 221.75,-115 215.75,-121 209.75,-121 209.75,-121 161.5,-121 161.5,-121 155.5,-121 149.5,-115 149.5,-109 149.5,-109 149.5,-82.5 149.5,-82.5 149.5,-76.5 155.5,-70.5 161.5,-70.5"/>
<text text-anchor="middle" x="185.62" y="-103.7" font-family="Times,serif" font-size="14.00">value: 1</text>
<polyline fill="none" stroke="black" points="149.5,-95.75 221.75,-95.75"/>
<text text-anchor="middle" x="185.62" y="-78.45" font-family="Times,serif" font-size="14.00">(null)</text>
</g>
<!-- value0&#45;&gt;value1 -->
<g id="edge1" class="edge">
<title>value0&#45;&gt;value1</title>
<path fill="none" stroke="red" stroke-dasharray="5,2" d="M72.45,-95.75C92.01,-95.75 116.58,-95.75 137.73,-95.75"/>
<polygon fill="red" stroke="red" points="137.56,-99.25 147.56,-95.75 137.56,-92.25 137.56,-99.25"/>
<text text-anchor="middle" x="110.88" y="-99.7" font-family="Times,serif" font-size="14.00">CTOR</text>
</g>
<!-- value3 -->
<g id="node4" class="node">
<title>value3</title>
<path fill="red" stroke="black" d="M311,-20.5C311,-20.5 359.25,-20.5 359.25,-20.5 365.25,-20.5 371.25,-26.5 371.25,-32.5 371.25,-32.5 371.25,-59 371.25,-59 371.25,-65 365.25,-71 359.25,-71 359.25,-71 311,-71 311,-71 305,-71 299,-65 299,-59 299,-59 299,-32.5 299,-32.5 299,-26.5 305,-20.5 311,-20.5"/>
<text text-anchor="middle" x="335.12" y="-53.7" font-family="Times,serif" font-size="14.00">value: 3</text>
<polyline fill="none" stroke="black" points="299,-45.75 371.25,-45.75"/>
<text text-anchor="middle" x="335.12" y="-28.45" font-family="Times,serif" font-size="14.00">(null)</text>
</g>
<!-- value1&#45;&gt;value3 -->
<g id="edge3" class="edge">
<title>value1&#45;&gt;value3</title>
<path fill="none" stroke="red" stroke-dasharray="5,2" d="M221.95,-83.77C241.7,-77.08 266.53,-68.66 287.81,-61.45"/>
<polygon fill="red" stroke="red" points="288.79,-64.81 297.14,-58.29 286.54,-58.18 288.79,-64.81"/>
<text text-anchor="middle" x="260.38" y="-79.7" font-family="Times,serif" font-size="14.00">&gt;</text>
</g>
<!-- value2 -->
<g id="node3" class="node">
<title>value2</title>
<path fill="red" stroke="black" d="M161.5,-0.5C161.5,-0.5 209.75,-0.5 209.75,-0.5 215.75,-0.5 221.75,-6.5 221.75,-12.5 221.75,-12.5 221.75,-39 221.75,-39 221.75,-45 215.75,-51 209.75,-51 209.75,-51 161.5,-51 161.5,-51 155.5,-51 149.5,-45 149.5,-39 149.5,-39 149.5,-12.5 149.5,-12.5 149.5,-6.5 155.5,-0.5 161.5,-0.5"/>
<text text-anchor="middle" x="185.62" y="-33.7" font-family="Times,serif" font-size="14.00">value: 2</text>
<polyline fill="none" stroke="black" points="149.5,-25.75 221.75,-25.75"/>
<text text-anchor="middle" x="185.62" y="-8.45" font-family="Times,serif" font-size="14.00">(null)</text>
</g>
<!-- value2&#45;&gt;value3 -->
<g id="edge2" class="edge">
<title>value2&#45;&gt;value3</title>
<path fill="none" stroke="red" stroke-dasharray="5,2" d="M221.95,-30.54C241.51,-33.19 266.08,-36.52 287.23,-39.39"/>
<polygon fill="red" stroke="red" points="286.69,-42.85 297.07,-40.73 287.63,-35.91 286.69,-42.85"/>
<text text-anchor="middle" x="260.38" y="-42.7" font-family="Times,serif" font-size="14.00">CTOR</text>
</g>
<!-- value5 -->
<g id="node5" class="node">
<title>value5</title>
<path fill="red" stroke="black" d="M505.5,-20.5C505.5,-20.5 553.75,-20.5 553.75,-20.5 559.75,-20.5 565.75,-26.5 565.75,-32.5 565.75,-32.5 565.75,-59 565.75,-59 565.75,-65 559.75,-71 553.75,-71 553.75,-71 505.5,-71 505.5,-71 499.5,-71 493.5,-65 493.5,-59 493.5,-59 493.5,-32.5 493.5,-32.5 493.5,-26.5 499.5,-20.5 505.5,-20.5"/>
<text text-anchor="middle" x="529.62" y="-53.7" font-family="Times,serif" font-size="14.00">value: 5</text>
<polyline fill="none" stroke="black" points="493.5,-45.75 565.75,-45.75"/>
<text text-anchor="middle" x="529.62" y="-28.45" font-family="Times,serif" font-size="14.00">(null)</text>
</g>
<!-- value3&#45;&gt;value5 -->
<g id="edge4" class="edge">
<title>value3&#45;&gt;value5</title>
<path fill="none" stroke="red" stroke-dasharray="5,2" d="M371.43,-45.75C402.54,-45.75 448.08,-45.75 482.14,-45.75"/>
<polygon fill="red" stroke="red" points="481.7,-49.25 491.7,-45.75 481.7,-42.25 481.7,-49.25"/>
<text text-anchor="middle" x="432.38" y="-49.7" font-family="Times,serif" font-size="14.00">COPY CTOR</text>
</g>
<!-- value4294967291 -->
<g id="node6" class="node">
<title>value4294967291</title>
<path fill="red" stroke="black" d="M655.75,-20.5C655.75,-20.5 704,-20.5 704,-20.5 710,-20.5 716,-26.5 716,-32.5 716,-32.5 716,-59 716,-59 716,-65 710,-71 704,-71 704,-71 655.75,-71 655.75,-71 649.75,-71 643.75,-65 643.75,-59 643.75,-59 643.75,-32.5 643.75,-32.5 643.75,-26.5 649.75,-20.5 655.75,-20.5"/>
<text text-anchor="middle" x="679.88" y="-53.7" font-family="Times,serif" font-size="14.00">value: 5</text>
<polyline fill="none" stroke="black" points="643.75,-45.75 716,-45.75"/>
<text text-anchor="middle" x="679.88" y="-28.45" font-family="Times,serif" font-size="14.00">(null)</text>
</g>
<!-- value5&#45;&gt;value4294967291 -->
<g id="edge5" class="edge">
<title>value5&#45;&gt;value4294967291</title>
<path fill="none" stroke="red" stroke-dasharray="5,2" d="M566.13,-45.75C585.87,-45.75 610.66,-45.75 631.97,-45.75"/>
<polygon fill="red" stroke="red" points="631.89,-49.25 641.89,-45.75 631.88,-42.25 631.89,-49.25"/>
<text text-anchor="middle" x="604.75" y="-49.7" font-family="Times,serif" font-size="14.00">DTOR</text>
</g>
</g>
</svg>
