<?xml version="1.0" encoding="UTF-8" standalone="no"?>
<!DOCTYPE svg PUBLIC "-//W3C//DTD SVG 1.1//EN"
 "http://www.w3.org/Graphics/SVG/1.1/DTD/svg11.dtd">
<!-- Generated by graphviz version 9.0.0 (0)
 -->
<!-- Title: structs Pages: 1 -->
<svg width="575pt" height="125pt"
 viewBox="0.00 0.00 574.50 125.00" xmlns="http://www.w3.org/2000/svg" xmlns:xlink="http://www.w3.org/1999/xlink">
<g id="graph0" class="graph" transform="scale(1 1) rotate(0) translate(4 121)">
<title>structs</title>
<polygon fill="white" stroke="none" points="-4,4 -4,-121 570.5,-121 570.5,4 -4,4"/>
<!-- value0 -->
<g id="node1" class="node">
<title>value0</title>
<path fill="red" stroke="black" d="M12,-67.5C12,-67.5 60.25,-67.5 60.25,-67.5 66.25,-67.5 72.25,-73.5 72.25,-79.5 72.25,-79.5 72.25,-91.5 72.25,-91.5 72.25,-97.5 66.25,-103.5 60.25,-103.5 60.25,-103.5 12,-103.5 12,-103.5 6,-103.5 0,-97.5 0,-91.5 0,-91.5 0,-79.5 0,-79.5 0,-73.5 6,-67.5 12,-67.5"/>
<text text-anchor="middle" x="36.12" y="-81.2" font-family="Times,serif" font-size="14.00">value: 6</text>
</g>
<!-- value1 -->
<g id="node2" class="node">
<title>value1</title>
<path fill="red" stroke="black" d="M161.5,-67.5C161.5,-67.5 209.75,-67.5 209.75,-67.5 215.75,-67.5 221.75,-73.5 221.75,-79.5 221.75,-79.5 221.75,-91.5 221.75,-91.5 221.75,-97.5 215.75,-103.5 209.75,-103.5 209.75,-103.5 161.5,-103.5 161.5,-103.5 155.5,-103.5 149.5,-97.5 149.5,-91.5 149.5,-91.5 149.5,-79.5 149.5,-79.5 149.5,-73.5 155.5,-67.5 161.5,-67.5"/>
<text text-anchor="middle" x="185.62" y="-81.2" font-family="Times,serif" font-size="14.00">value: 6</text>
</g>
<!-- value0&#45;&gt;value1 -->
<g id="edge1" class="edge">
<title>value0&#45;&gt;value1</title>
<path fill="none" stroke="red" stroke-dasharray="5,2" d="M72.45,-85.5C92.01,-85.5 116.58,-85.5 137.73,-85.5"/>
<polygon fill="red" stroke="red" points="137.56,-89 147.56,-85.5 137.56,-82 137.56,-89"/>
<text text-anchor="middle" x="110.88" y="-89.45" font-family="Times,serif" font-size="14.00">CTOR</text>
</g>
<!-- value3 -->
<g id="node4" class="node">
<title>value3</title>
<path fill="red" stroke="black" d="M356,-12.5C356,-12.5 404.25,-12.5 404.25,-12.5 410.25,-12.5 416.25,-18.5 416.25,-24.5 416.25,-24.5 416.25,-36.5 416.25,-36.5 416.25,-42.5 410.25,-48.5 404.25,-48.5 404.25,-48.5 356,-48.5 356,-48.5 350,-48.5 344,-42.5 344,-36.5 344,-36.5 344,-24.5 344,-24.5 344,-18.5 350,-12.5 356,-12.5"/>
<text text-anchor="middle" x="380.12" y="-26.2" font-family="Times,serif" font-size="14.00">value: 1</text>
</g>
<!-- value1&#45;&gt;value3 -->
<g id="edge3" class="edge">
<title>value1&#45;&gt;value3</title>
<path fill="none" stroke="red" stroke-dasharray="5,2" d="M222.23,-72.87C228.06,-70.92 234.06,-68.98 239.75,-67.25 270.45,-57.94 305.35,-48.74 332.55,-41.88"/>
<polygon fill="red" stroke="red" points="333.38,-45.27 342.23,-39.45 331.68,-38.48 333.38,-45.27"/>
<text text-anchor="middle" x="282.88" y="-70.45" font-family="Times,serif" font-size="14.00">&gt;</text>
</g>
<!-- value5 -->
<g id="node5" class="node">
<title>value5</title>
<path fill="red" stroke="black" d="M356,-80.5C356,-80.5 404.25,-80.5 404.25,-80.5 410.25,-80.5 416.25,-86.5 416.25,-92.5 416.25,-92.5 416.25,-104.5 416.25,-104.5 416.25,-110.5 410.25,-116.5 404.25,-116.5 404.25,-116.5 356,-116.5 356,-116.5 350,-116.5 344,-110.5 344,-104.5 344,-104.5 344,-92.5 344,-92.5 344,-86.5 350,-80.5 356,-80.5"/>
<text text-anchor="middle" x="380.12" y="-94.2" font-family="Times,serif" font-size="14.00">value: 6</text>
</g>
<!-- value1&#45;&gt;value5 -->
<g id="edge4" class="edge">
<title>value1&#45;&gt;value5</title>
<path fill="none" stroke="red" stroke-dasharray="5,2" d="M221.93,-87.88C253.04,-89.99 298.58,-93.06 332.64,-95.36"/>
<polygon fill="red" stroke="red" points="331.99,-98.82 342.21,-96.01 332.46,-91.84 331.99,-98.82"/>
<text text-anchor="middle" x="282.88" y="-98.45" font-family="Times,serif" font-size="14.00">COPY CTOR</text>
</g>
<!-- value2 -->
<g id="node3" class="node">
<title>value2</title>
<path fill="red" stroke="black" d="M161.5,-0.5C161.5,-0.5 209.75,-0.5 209.75,-0.5 215.75,-0.5 221.75,-6.5 221.75,-12.5 221.75,-12.5 221.75,-24.5 221.75,-24.5 221.75,-30.5 215.75,-36.5 209.75,-36.5 209.75,-36.5 161.5,-36.5 161.5,-36.5 155.5,-36.5 149.5,-30.5 149.5,-24.5 149.5,-24.5 149.5,-12.5 149.5,-12.5 149.5,-6.5 155.5,-0.5 161.5,-0.5"/>
<text text-anchor="middle" x="185.62" y="-14.2" font-family="Times,serif" font-size="14.00">value: 1</text>
</g>
<!-- value2&#45;&gt;value3 -->
<g id="edge2" class="edge">
<title>value2&#45;&gt;value3</title>
<path fill="none" stroke="red" stroke-dasharray="5,2" d="M221.96,-16.72C250.2,-15.76 290.75,-15.46 326,-19.25 328.05,-19.47 330.15,-19.74 332.26,-20.04"/>
<polygon fill="red" stroke="red" points="331.63,-23.48 342.07,-21.68 332.79,-16.58 331.63,-23.48"/>
<text text-anchor="middle" x="282.88" y="-23.45" font-family="Times,serif" font-size="14.00">CTOR</text>
</g>
<!-- value4294967291 -->
<g id="node6" class="node">
<title>value4294967291</title>
<path fill="red" stroke="black" d="M506.25,-80.5C506.25,-80.5 554.5,-80.5 554.5,-80.5 560.5,-80.5 566.5,-86.5 566.5,-92.5 566.5,-92.5 566.5,-104.5 566.5,-104.5 566.5,-110.5 560.5,-116.5 554.5,-116.5 554.5,-116.5 506.25,-116.5 506.25,-116.5 500.25,-116.5 494.25,-110.5 494.25,-104.5 494.25,-104.5 494.25,-92.5 494.25,-92.5 494.25,-86.5 500.25,-80.5 506.25,-80.5"/>
<text text-anchor="middle" x="530.38" y="-94.2" font-family="Times,serif" font-size="14.00">value: 0</text>
</g>
<!-- value5&#45;&gt;value4294967291 -->
<g id="edge5" class="edge">
<title>value5&#45;&gt;value4294967291</title>
<path fill="none" stroke="red" stroke-dasharray="5,2" d="M416.63,-98.5C436.37,-98.5 461.16,-98.5 482.47,-98.5"/>
<polygon fill="red" stroke="red" points="482.39,-102 492.39,-98.5 482.38,-95 482.39,-102"/>
<text text-anchor="middle" x="455.25" y="-102.45" font-family="Times,serif" font-size="14.00">DTOR</text>
</g>
</g>
</svg>
