<?xml version="1.0" encoding="UTF-8" standalone="no"?>
<!DOCTYPE svg PUBLIC "-//W3C//DTD SVG 1.1//EN"
 "http://www.w3.org/Graphics/SVG/1.1/DTD/svg11.dtd">
<!-- Generated by graphviz version 9.0.0 (0)
 -->
<!-- Title: structs Pages: 1 -->
<svg width="858pt" height="125pt"
 viewBox="0.00 0.00 857.50 125.00" xmlns="http://www.w3.org/2000/svg" xmlns:xlink="http://www.w3.org/1999/xlink">
<g id="graph0" class="graph" transform="scale(1 1) rotate(0) translate(4 121)">
<title>structs</title>
<polygon fill="white" stroke="none" points="-4,4 -4,-121 853.5,-121 853.5,4 -4,4"/>
<!-- value0 -->
<g id="node1" class="node">
<title>value0</title>
<path fill="darkgreen" stroke="black" d="M12,-67.5C12,-67.5 131,-67.5 131,-67.5 137,-67.5 143,-73.5 143,-79.5 143,-79.5 143,-91.5 143,-91.5 143,-97.5 137,-103.5 131,-103.5 131,-103.5 12,-103.5 12,-103.5 6,-103.5 0,-97.5 0,-91.5 0,-91.5 0,-79.5 0,-79.5 0,-73.5 6,-67.5 12,-67.5"/>
<text text-anchor="middle" x="36.12" y="-81.2" font-family="Times,serif" font-size="14.00">value: 4</text>
<polyline fill="none" stroke="black" points="72.25,-68.25 72.25,-103.5"/>
<text text-anchor="middle" x="107.62" y="-81.2" font-family="Times,serif" font-size="14.00">temp: 0</text>
</g>
<!-- value1 -->
<g id="node2" class="node">
<title>value1</title>
<path fill="darkgreen" stroke="black" d="M232.25,-67.5C232.25,-67.5 351.25,-67.5 351.25,-67.5 357.25,-67.5 363.25,-73.5 363.25,-79.5 363.25,-79.5 363.25,-91.5 363.25,-91.5 363.25,-97.5 357.25,-103.5 351.25,-103.5 351.25,-103.5 232.25,-103.5 232.25,-103.5 226.25,-103.5 220.25,-97.5 220.25,-91.5 220.25,-91.5 220.25,-79.5 220.25,-79.5 220.25,-73.5 226.25,-67.5 232.25,-67.5"/>
<text text-anchor="middle" x="256.38" y="-81.2" font-family="Times,serif" font-size="14.00">value: 4</text>
<polyline fill="none" stroke="black" points="292.5,-68.25 292.5,-103.5"/>
<text text-anchor="middle" x="327.88" y="-81.2" font-family="Times,serif" font-size="14.00">temp: 0</text>
</g>
<!-- value0&#45;&gt;value1 -->
<g id="edge1" class="edge">
<title>value0&#45;&gt;value1</title>
<path fill="none" stroke="darkgreen" stroke-dasharray="5,2" d="M143.36,-85.5C164.14,-85.5 187.05,-85.5 208.48,-85.5"/>
<polygon fill="darkgreen" stroke="darkgreen" points="208.36,-89 218.36,-85.5 208.36,-82 208.36,-89"/>
<text text-anchor="middle" x="181.62" y="-89.45" font-family="Times,serif" font-size="14.00">CTOR</text>
</g>
<!-- value3 -->
<g id="node4" class="node">
<title>value3</title>
<path fill="darkgreen" stroke="black" d="M497.5,-12.5C497.5,-12.5 616.5,-12.5 616.5,-12.5 622.5,-12.5 628.5,-18.5 628.5,-24.5 628.5,-24.5 628.5,-36.5 628.5,-36.5 628.5,-42.5 622.5,-48.5 616.5,-48.5 616.5,-48.5 497.5,-48.5 497.5,-48.5 491.5,-48.5 485.5,-42.5 485.5,-36.5 485.5,-36.5 485.5,-24.5 485.5,-24.5 485.5,-18.5 491.5,-12.5 497.5,-12.5"/>
<text text-anchor="middle" x="521.62" y="-26.2" font-family="Times,serif" font-size="14.00">value: 2</text>
<polyline fill="none" stroke="black" points="557.75,-13.25 557.75,-48.5"/>
<text text-anchor="middle" x="593.12" y="-26.2" font-family="Times,serif" font-size="14.00">temp: 0</text>
</g>
<!-- value1&#45;&gt;value3 -->
<g id="edge3" class="edge">
<title>value1&#45;&gt;value3</title>
<path fill="none" stroke="darkgreen" stroke-dasharray="5,2" d="M363.64,-70.69C397.87,-63.54 439.11,-54.92 474.62,-47.5"/>
<polygon fill="darkgreen" stroke="darkgreen" points="474.88,-51.02 483.96,-45.55 473.45,-44.17 474.88,-51.02"/>
<text text-anchor="middle" x="424.38" y="-69.45" font-family="Times,serif" font-size="14.00">&gt;</text>
</g>
<!-- value5 -->
<g id="node5" class="node">
<title>value5</title>
<path fill="red" stroke="black" d="M497.5,-80.5C497.5,-80.5 616.5,-80.5 616.5,-80.5 622.5,-80.5 628.5,-86.5 628.5,-92.5 628.5,-92.5 628.5,-104.5 628.5,-104.5 628.5,-110.5 622.5,-116.5 616.5,-116.5 616.5,-116.5 497.5,-116.5 497.5,-116.5 491.5,-116.5 485.5,-110.5 485.5,-104.5 485.5,-104.5 485.5,-92.5 485.5,-92.5 485.5,-86.5 491.5,-80.5 497.5,-80.5"/>
<text text-anchor="middle" x="521.62" y="-94.2" font-family="Times,serif" font-size="14.00">value: 4</text>
<polyline fill="none" stroke="black" points="557.75,-81.25 557.75,-116.5"/>
<text text-anchor="middle" x="593.12" y="-94.2" font-family="Times,serif" font-size="14.00">temp: 1</text>
</g>
<!-- value1&#45;&gt;value5 -->
<g id="edge4" class="edge">
<title>value1&#45;&gt;value5</title>
<path fill="none" stroke="darkgreen" stroke-dasharray="5,2" d="M363.64,-89C397.72,-90.68 438.76,-92.71 474.16,-94.46"/>
<polygon fill="darkgreen" stroke="darkgreen" points="473.77,-97.94 483.93,-94.94 474.11,-90.95 473.77,-97.94"/>
<text text-anchor="middle" x="424.38" y="-97.45" font-family="Times,serif" font-size="14.00">COPY CTOR</text>
</g>
<!-- value2 -->
<g id="node3" class="node">
<title>value2</title>
<path fill="darkgreen" stroke="black" d="M232.25,-0.5C232.25,-0.5 351.25,-0.5 351.25,-0.5 357.25,-0.5 363.25,-6.5 363.25,-12.5 363.25,-12.5 363.25,-24.5 363.25,-24.5 363.25,-30.5 357.25,-36.5 351.25,-36.5 351.25,-36.5 232.25,-36.5 232.25,-36.5 226.25,-36.5 220.25,-30.5 220.25,-24.5 220.25,-24.5 220.25,-12.5 220.25,-12.5 220.25,-6.5 226.25,-0.5 232.25,-0.5"/>
<text text-anchor="middle" x="256.38" y="-14.2" font-family="Times,serif" font-size="14.00">value: 2</text>
<polyline fill="none" stroke="black" points="292.5,-1.25 292.5,-36.5"/>
<text text-anchor="middle" x="327.88" y="-14.2" font-family="Times,serif" font-size="14.00">temp: 0</text>
</g>
<!-- value2&#45;&gt;value3 -->
<g id="edge2" class="edge">
<title>value2&#45;&gt;value3</title>
<path fill="none" stroke="darkgreen" stroke-dasharray="5,2" d="M363.39,-16.84C395.23,-16.6 433.29,-17.01 467.5,-19.25 469.56,-19.38 471.64,-19.54 473.73,-19.7"/>
<polygon fill="darkgreen" stroke="darkgreen" points="473.29,-23.17 483.56,-20.57 473.91,-16.2 473.29,-23.17"/>
<text text-anchor="middle" x="424.38" y="-23.45" font-family="Times,serif" font-size="14.00">CTOR</text>
</g>
<!-- value4294967291 -->
<g id="node6" class="node">
<title>value4294967291</title>
<path fill="red" stroke="black" d="M718.5,-80.5C718.5,-80.5 837.5,-80.5 837.5,-80.5 843.5,-80.5 849.5,-86.5 849.5,-92.5 849.5,-92.5 849.5,-104.5 849.5,-104.5 849.5,-110.5 843.5,-116.5 837.5,-116.5 837.5,-116.5 718.5,-116.5 718.5,-116.5 712.5,-116.5 706.5,-110.5 706.5,-104.5 706.5,-104.5 706.5,-92.5 706.5,-92.5 706.5,-86.5 712.5,-80.5 718.5,-80.5"/>
<text text-anchor="middle" x="742.62" y="-94.2" font-family="Times,serif" font-size="14.00">value: 0</text>
<polyline fill="none" stroke="black" points="778.75,-81.25 778.75,-116.5"/>
<text text-anchor="middle" x="814.12" y="-94.2" font-family="Times,serif" font-size="14.00">temp: 1</text>
</g>
<!-- value5&#45;&gt;value4294967291 -->
<g id="edge5" class="edge">
<title>value5&#45;&gt;value4294967291</title>
<path fill="none" stroke="darkgreen" stroke-dasharray="5,2" d="M628.8,-98.5C649.77,-98.5 672.92,-98.5 694.57,-98.5"/>
<polygon fill="darkgreen" stroke="darkgreen" points="694.55,-102 704.55,-98.5 694.55,-95 694.55,-102"/>
<text text-anchor="middle" x="667.5" y="-102.45" font-family="Times,serif" font-size="14.00">DTOR</text>
</g>
</g>
</svg>
