<?xml version="1.0" encoding="UTF-8" standalone="no"?>
<!DOCTYPE svg PUBLIC "-//W3C//DTD SVG 1.1//EN"
 "http://www.w3.org/Graphics/SVG/1.1/DTD/svg11.dtd">
<!-- Generated by graphviz version 9.0.0 (0)
 -->
<!-- Title: structs Pages: 1 -->
<svg width="1078pt" height="100pt"
 viewBox="0.00 0.00 1077.75 100.00" xmlns="http://www.w3.org/2000/svg" xmlns:xlink="http://www.w3.org/1999/xlink">
<g id="graph0" class="graph" transform="scale(1 1) rotate(0) translate(4 96)">
<title>structs</title>
<polygon fill="white" stroke="none" points="-4,4 -4,-96 1073.75,-96 1073.75,4 -4,4"/>
<!-- value0 -->
<g id="node1" class="node">
<title>value0</title>
<path fill="red" stroke="black" d="M12,-55.5C12,-55.5 131,-55.5 131,-55.5 137,-55.5 143,-61.5 143,-67.5 143,-67.5 143,-79.5 143,-79.5 143,-85.5 137,-91.5 131,-91.5 131,-91.5 12,-91.5 12,-91.5 6,-91.5 0,-85.5 0,-79.5 0,-79.5 0,-67.5 0,-67.5 0,-61.5 6,-55.5 12,-55.5"/>
<text text-anchor="middle" x="36.12" y="-69.2" font-family="Times,serif" font-size="14.00">value: 1</text>
<polyline fill="none" stroke="black" points="72.25,-56.25 72.25,-91.5"/>
<text text-anchor="middle" x="107.62" y="-69.2" font-family="Times,serif" font-size="14.00">temp: 0</text>
</g>
<!-- value1 -->
<g id="node2" class="node">
<title>value1</title>
<path fill="red" stroke="black" d="M232.25,-55.5C232.25,-55.5 351.25,-55.5 351.25,-55.5 357.25,-55.5 363.25,-61.5 363.25,-67.5 363.25,-67.5 363.25,-79.5 363.25,-79.5 363.25,-85.5 357.25,-91.5 351.25,-91.5 351.25,-91.5 232.25,-91.5 232.25,-91.5 226.25,-91.5 220.25,-85.5 220.25,-79.5 220.25,-79.5 220.25,-67.5 220.25,-67.5 220.25,-61.5 226.25,-55.5 232.25,-55.5"/>
<text text-anchor="middle" x="256.38" y="-69.2" font-family="Times,serif" font-size="14.00">value: 1</text>
<polyline fill="none" stroke="black" points="292.5,-56.25 292.5,-91.5"/>
<text text-anchor="middle" x="327.88" y="-69.2" font-family="Times,serif" font-size="14.00">temp: 0</text>
</g>
<!-- value0&#45;&gt;value1 -->
<g id="edge1" class="edge">
<title>value0&#45;&gt;value1</title>
<path fill="none" stroke="red" stroke-dasharray="5,2" d="M143.36,-73.5C164.14,-73.5 187.05,-73.5 208.48,-73.5"/>
<polygon fill="red" stroke="red" points="208.36,-77 218.36,-73.5 208.36,-70 208.36,-77"/>
<text text-anchor="middle" x="181.62" y="-77.45" font-family="Times,serif" font-size="14.00">CTOR</text>
</g>
<!-- value3 -->
<g id="node4" class="node">
<title>value3</title>
<path fill="red" stroke="black" d="M452.5,-20.5C452.5,-20.5 571.5,-20.5 571.5,-20.5 577.5,-20.5 583.5,-26.5 583.5,-32.5 583.5,-32.5 583.5,-44.5 583.5,-44.5 583.5,-50.5 577.5,-56.5 571.5,-56.5 571.5,-56.5 452.5,-56.5 452.5,-56.5 446.5,-56.5 440.5,-50.5 440.5,-44.5 440.5,-44.5 440.5,-32.5 440.5,-32.5 440.5,-26.5 446.5,-20.5 452.5,-20.5"/>
<text text-anchor="middle" x="476.62" y="-34.2" font-family="Times,serif" font-size="14.00">value: 9</text>
<polyline fill="none" stroke="black" points="512.75,-21.25 512.75,-56.5"/>
<text text-anchor="middle" x="548.12" y="-34.2" font-family="Times,serif" font-size="14.00">temp: 0</text>
</g>
<!-- value1&#45;&gt;value3 -->
<g id="edge3" class="edge">
<title>value1&#45;&gt;value3</title>
<path fill="none" stroke="red" stroke-dasharray="5,2" d="M363.61,-62.14C384.49,-58.79 407.51,-55.1 429.03,-51.65"/>
<polygon fill="red" stroke="red" points="429.31,-55.15 438.63,-50.11 428.2,-48.23 429.31,-55.15"/>
<text text-anchor="middle" x="401.88" y="-63.45" font-family="Times,serif" font-size="14.00">&gt;</text>
</g>
<!-- value2 -->
<g id="node3" class="node">
<title>value2</title>
<path fill="red" stroke="black" d="M232.25,-0.5C232.25,-0.5 351.25,-0.5 351.25,-0.5 357.25,-0.5 363.25,-6.5 363.25,-12.5 363.25,-12.5 363.25,-24.5 363.25,-24.5 363.25,-30.5 357.25,-36.5 351.25,-36.5 351.25,-36.5 232.25,-36.5 232.25,-36.5 226.25,-36.5 220.25,-30.5 220.25,-24.5 220.25,-24.5 220.25,-12.5 220.25,-12.5 220.25,-6.5 226.25,-0.5 232.25,-0.5"/>
<text text-anchor="middle" x="256.38" y="-14.2" font-family="Times,serif" font-size="14.00">value: 9</text>
<polyline fill="none" stroke="black" points="292.5,-1.25 292.5,-36.5"/>
<text text-anchor="middle" x="327.88" y="-14.2" font-family="Times,serif" font-size="14.00">temp: 0</text>
</g>
<!-- value2&#45;&gt;value3 -->
<g id="edge2" class="edge">
<title>value2&#45;&gt;value3</title>
<path fill="none" stroke="red" stroke-dasharray="5,2" d="M363.54,-21.73C382.7,-22.87 403.41,-24.36 422.5,-26.25 424.55,-26.45 426.63,-26.67 428.73,-26.89"/>
<polygon fill="red" stroke="red" points="428.21,-30.36 438.55,-28.01 429.01,-23.4 428.21,-30.36"/>
<text text-anchor="middle" x="401.88" y="-30.45" font-family="Times,serif" font-size="14.00">CTOR</text>
</g>
<!-- value5 -->
<g id="node5" class="node">
<title>value5</title>
<path fill="darkgreen" stroke="black" d="M717.75,-20.5C717.75,-20.5 836.75,-20.5 836.75,-20.5 842.75,-20.5 848.75,-26.5 848.75,-32.5 848.75,-32.5 848.75,-44.5 848.75,-44.5 848.75,-50.5 842.75,-56.5 836.75,-56.5 836.75,-56.5 717.75,-56.5 717.75,-56.5 711.75,-56.5 705.75,-50.5 705.75,-44.5 705.75,-44.5 705.75,-32.5 705.75,-32.5 705.75,-26.5 711.75,-20.5 717.75,-20.5"/>
<text text-anchor="middle" x="741.88" y="-34.2" font-family="Times,serif" font-size="14.00">value: 9</text>
<polyline fill="none" stroke="black" points="778,-21.25 778,-56.5"/>
<text text-anchor="middle" x="813.38" y="-34.2" font-family="Times,serif" font-size="14.00">temp: 1</text>
</g>
<!-- value3&#45;&gt;value5 -->
<g id="edge4" class="edge">
<title>value3&#45;&gt;value5</title>
<path fill="none" stroke="red" stroke-dasharray="5,2" d="M583.89,-38.5C617.97,-38.5 659.01,-38.5 694.41,-38.5"/>
<polygon fill="red" stroke="red" points="694.17,-42 704.17,-38.5 694.17,-35 694.17,-42"/>
<text text-anchor="middle" x="644.62" y="-42.45" font-family="Times,serif" font-size="14.00">COPY CTOR</text>
</g>
<!-- value4294967291 -->
<g id="node6" class="node">
<title>value4294967291</title>
<path fill="darkgreen" stroke="black" d="M938.75,-20.5C938.75,-20.5 1057.75,-20.5 1057.75,-20.5 1063.75,-20.5 1069.75,-26.5 1069.75,-32.5 1069.75,-32.5 1069.75,-44.5 1069.75,-44.5 1069.75,-50.5 1063.75,-56.5 1057.75,-56.5 1057.75,-56.5 938.75,-56.5 938.75,-56.5 932.75,-56.5 926.75,-50.5 926.75,-44.5 926.75,-44.5 926.75,-32.5 926.75,-32.5 926.75,-26.5 932.75,-20.5 938.75,-20.5"/>
<text text-anchor="middle" x="962.88" y="-34.2" font-family="Times,serif" font-size="14.00">value: 0</text>
<polyline fill="none" stroke="black" points="999,-21.25 999,-56.5"/>
<text text-anchor="middle" x="1034.38" y="-34.2" font-family="Times,serif" font-size="14.00">temp: 1</text>
</g>
<!-- value5&#45;&gt;value4294967291 -->
<g id="edge5" class="edge">
<title>value5&#45;&gt;value4294967291</title>
<path fill="none" stroke="red" stroke-dasharray="5,2" d="M849.05,-38.5C870.02,-38.5 893.17,-38.5 914.82,-38.5"/>
<polygon fill="red" stroke="red" points="914.8,-42 924.8,-38.5 914.8,-35 914.8,-42"/>
<text text-anchor="middle" x="887.75" y="-42.45" font-family="Times,serif" font-size="14.00">DTOR</text>
</g>
</g>
</svg>
