<?xml version="1.0" encoding="UTF-8" standalone="no"?>
<!DOCTYPE svg PUBLIC "-//W3C//DTD SVG 1.1//EN"
 "http://www.w3.org/Graphics/SVG/1.1/DTD/svg11.dtd">
<!-- Generated by graphviz version 9.0.0 (0)
 -->
<!-- Title: structs Pages: 1 -->
<svg width="1007pt" height="172pt"
 viewBox="0.00 0.00 1006.50 172.00" xmlns="http://www.w3.org/2000/svg" xmlns:xlink="http://www.w3.org/1999/xlink">
<g id="graph0" class="graph" transform="scale(1 1) rotate(0) translate(4 168)">
<title>structs</title>
<polygon fill="white" stroke="none" points="-4,4 -4,-168 1002.5,-168 1002.5,4 -4,4"/>
<!-- label0 -->
<g id="node1" class="node">
<title>label0</title>
<path fill="red" stroke="black" d="M12,-47.5C12,-47.5 107.75,-47.5 107.75,-47.5 113.75,-47.5 119.75,-53.5 119.75,-59.5 119.75,-59.5 119.75,-71.5 119.75,-71.5 119.75,-77.5 113.75,-83.5 107.75,-83.5 107.75,-83.5 12,-83.5 12,-83.5 6,-83.5 0,-77.5 0,-71.5 0,-71.5 0,-59.5 0,-59.5 0,-53.5 6,-47.5 12,-47.5"/>
<text text-anchor="middle" x="23.75" y="-61.2" font-family="Times,serif" font-size="14.00">id: 0</text>
<polyline fill="none" stroke="black" points="47.5,-48.25 47.5,-83.5"/>
<text text-anchor="middle" x="83.62" y="-61.2" font-family="Times,serif" font-size="14.00">value: 8</text>
</g>
<!-- label1 -->
<g id="node2" class="node">
<title>label1</title>
<path fill="red" stroke="black" d="M209,-47.5C209,-47.5 304.75,-47.5 304.75,-47.5 310.75,-47.5 316.75,-53.5 316.75,-59.5 316.75,-59.5 316.75,-71.5 316.75,-71.5 316.75,-77.5 310.75,-83.5 304.75,-83.5 304.75,-83.5 209,-83.5 209,-83.5 203,-83.5 197,-77.5 197,-71.5 197,-71.5 197,-59.5 197,-59.5 197,-53.5 203,-47.5 209,-47.5"/>
<text text-anchor="middle" x="220.75" y="-61.2" font-family="Times,serif" font-size="14.00">id: 1</text>
<polyline fill="none" stroke="black" points="244.5,-48.25 244.5,-83.5"/>
<text text-anchor="middle" x="280.62" y="-61.2" font-family="Times,serif" font-size="14.00">value: 8</text>
</g>
<!-- label0&#45;&gt;label1 -->
<g id="edge1" class="edge">
<title>label0&#45;&gt;label1</title>
<path fill="none" stroke="black" stroke-dasharray="5,2" d="M120.18,-65.5C144.38,-65.5 172.31,-65.5 196.52,-65.5"/>
<text text-anchor="middle" x="158.38" y="-69.45" font-family="Times,serif" font-size="14.00">CTOR</text>
</g>
<!-- label7 -->
<g id="node6" class="node">
<title>label7</title>
<path fill="red" stroke="black" d="M451,-47.5C451,-47.5 546.75,-47.5 546.75,-47.5 552.75,-47.5 558.75,-53.5 558.75,-59.5 558.75,-59.5 558.75,-71.5 558.75,-71.5 558.75,-77.5 552.75,-83.5 546.75,-83.5 546.75,-83.5 451,-83.5 451,-83.5 445,-83.5 439,-77.5 439,-71.5 439,-71.5 439,-59.5 439,-59.5 439,-53.5 445,-47.5 451,-47.5"/>
<text text-anchor="middle" x="462.75" y="-61.2" font-family="Times,serif" font-size="14.00">id: 7</text>
<polyline fill="none" stroke="black" points="486.5,-48.25 486.5,-83.5"/>
<text text-anchor="middle" x="522.62" y="-61.2" font-family="Times,serif" font-size="14.00">value: 8</text>
</g>
<!-- label1&#45;&gt;label7 -->
<g id="edge4" class="edge">
<title>label1&#45;&gt;label7</title>
<path fill="none" stroke="black" stroke-dasharray="5,2" d="M317.2,-65.5C354.26,-65.5 401.8,-65.5 438.82,-65.5"/>
<text text-anchor="middle" x="377.88" y="-69.45" font-family="Times,serif" font-size="14.00">COPY CTOR</text>
</g>
<!-- label2 -->
<g id="node3" class="node">
<title>label2</title>
<path fill="red" stroke="black" d="M209,-127.5C209,-127.5 304.75,-127.5 304.75,-127.5 310.75,-127.5 316.75,-133.5 316.75,-139.5 316.75,-139.5 316.75,-151.5 316.75,-151.5 316.75,-157.5 310.75,-163.5 304.75,-163.5 304.75,-163.5 209,-163.5 209,-163.5 203,-163.5 197,-157.5 197,-151.5 197,-151.5 197,-139.5 197,-139.5 197,-133.5 203,-127.5 209,-127.5"/>
<text text-anchor="middle" x="220.75" y="-141.2" font-family="Times,serif" font-size="14.00">id: 2</text>
<polyline fill="none" stroke="black" points="244.5,-128.25 244.5,-163.5"/>
<text text-anchor="middle" x="280.62" y="-141.2" font-family="Times,serif" font-size="14.00">value: 6</text>
</g>
<!-- label3 -->
<g id="node4" class="node">
<title>label3</title>
<path fill="red" stroke="black" d="M451,-127.5C451,-127.5 546.75,-127.5 546.75,-127.5 552.75,-127.5 558.75,-133.5 558.75,-139.5 558.75,-139.5 558.75,-151.5 558.75,-151.5 558.75,-157.5 552.75,-163.5 546.75,-163.5 546.75,-163.5 451,-163.5 451,-163.5 445,-163.5 439,-157.5 439,-151.5 439,-151.5 439,-139.5 439,-139.5 439,-133.5 445,-127.5 451,-127.5"/>
<text text-anchor="middle" x="462.75" y="-141.2" font-family="Times,serif" font-size="14.00">id: 3</text>
<polyline fill="none" stroke="black" points="486.5,-128.25 486.5,-163.5"/>
<text text-anchor="middle" x="522.62" y="-141.2" font-family="Times,serif" font-size="14.00">value: 6</text>
</g>
<!-- label2&#45;&gt;label3 -->
<g id="edge2" class="edge">
<title>label2&#45;&gt;label3</title>
<path fill="none" stroke="black" stroke-dasharray="5,2" d="M317.2,-145.5C354.26,-145.5 401.8,-145.5 438.82,-145.5"/>
<text text-anchor="middle" x="377.88" y="-149.45" font-family="Times,serif" font-size="14.00">CTOR</text>
</g>
<!-- label5 -->
<g id="node5" class="node">
<title>label5</title>
<path fill="red" stroke="black" d="M693,-118.5C693,-118.5 788.75,-118.5 788.75,-118.5 794.75,-118.5 800.75,-124.5 800.75,-130.5 800.75,-130.5 800.75,-142.5 800.75,-142.5 800.75,-148.5 794.75,-154.5 788.75,-154.5 788.75,-154.5 693,-154.5 693,-154.5 687,-154.5 681,-148.5 681,-142.5 681,-142.5 681,-130.5 681,-130.5 681,-124.5 687,-118.5 693,-118.5"/>
<text text-anchor="middle" x="704.75" y="-132.2" font-family="Times,serif" font-size="14.00">id: 5</text>
<polyline fill="none" stroke="black" points="728.5,-119.25 728.5,-154.5"/>
<text text-anchor="middle" x="764.62" y="-132.2" font-family="Times,serif" font-size="14.00">value: 6</text>
</g>
<!-- label3&#45;&gt;label5 -->
<g id="edge3" class="edge">
<title>label3&#45;&gt;label5</title>
<path fill="none" stroke="black" stroke-dasharray="5,2" d="M559.2,-143.28C596.26,-141.89 643.8,-140.1 680.82,-138.71"/>
<text text-anchor="middle" x="619.88" y="-146.45" font-family="Times,serif" font-size="14.00">COPY CTOR</text>
</g>
<!-- label4294967291 -->
<g id="node10" class="node">
<title>label4294967291</title>
<path fill="red" stroke="black" d="M890.75,-118.5C890.75,-118.5 986.5,-118.5 986.5,-118.5 992.5,-118.5 998.5,-124.5 998.5,-130.5 998.5,-130.5 998.5,-142.5 998.5,-142.5 998.5,-148.5 992.5,-154.5 986.5,-154.5 986.5,-154.5 890.75,-154.5 890.75,-154.5 884.75,-154.5 878.75,-148.5 878.75,-142.5 878.75,-142.5 878.75,-130.5 878.75,-130.5 878.75,-124.5 884.75,-118.5 890.75,-118.5"/>
<text text-anchor="middle" x="902.5" y="-132.2" font-family="Times,serif" font-size="14.00">id: 5</text>
<polyline fill="none" stroke="black" points="926.25,-119.25 926.25,-154.5"/>
<text text-anchor="middle" x="962.38" y="-132.2" font-family="Times,serif" font-size="14.00">value: 0</text>
</g>
<!-- label5&#45;&gt;label4294967291 -->
<g id="edge9" class="edge">
<title>label5&#45;&gt;label4294967291</title>
<path fill="none" stroke="black" stroke-dasharray="5,2" d="M801.14,-136.5C825.67,-136.5 854.05,-136.5 878.56,-136.5"/>
<text text-anchor="middle" x="839.75" y="-140.45" font-family="Times,serif" font-size="14.00">DTOR</text>
</g>
<!-- label7&#45;&gt;label5 -->
<g id="edge5" class="edge">
<title>label7&#45;&gt;label5</title>
<path fill="none" stroke="black" stroke-dasharray="5,2" d="M559.2,-83.05C596.26,-94.01 643.8,-108.08 680.82,-119.03"/>
<text text-anchor="middle" x="619.88" y="-117.45" font-family="Times,serif" font-size="14.00">&gt;</text>
</g>
<!-- label9 -->
<g id="node7" class="node">
<title>label9</title>
<path fill="red" stroke="black" d="M693,-55.5C693,-55.5 788.75,-55.5 788.75,-55.5 794.75,-55.5 800.75,-61.5 800.75,-67.5 800.75,-67.5 800.75,-79.5 800.75,-79.5 800.75,-85.5 794.75,-91.5 788.75,-91.5 788.75,-91.5 693,-91.5 693,-91.5 687,-91.5 681,-85.5 681,-79.5 681,-79.5 681,-67.5 681,-67.5 681,-61.5 687,-55.5 693,-55.5"/>
<text text-anchor="middle" x="704.75" y="-69.2" font-family="Times,serif" font-size="14.00">id: 9</text>
<polyline fill="none" stroke="black" points="728.5,-56.25 728.5,-91.5"/>
<text text-anchor="middle" x="764.62" y="-69.2" font-family="Times,serif" font-size="14.00">value: 8</text>
</g>
<!-- label7&#45;&gt;label9 -->
<g id="edge6" class="edge">
<title>label7&#45;&gt;label9</title>
<path fill="none" stroke="black" stroke-dasharray="5,2" d="M559.18,-64.5C590.14,-64.3 628.63,-64.55 663,-66.25 668.76,-66.53 674.75,-66.93 680.74,-67.39"/>
<text text-anchor="middle" x="619.88" y="-70.45" font-family="Times,serif" font-size="14.00">COPY CTOR</text>
</g>
<!-- label4294967289 -->
<g id="node9" class="node">
<title>label4294967289</title>
<path fill="red" stroke="black" d="M693,-0.5C693,-0.5 788.75,-0.5 788.75,-0.5 794.75,-0.5 800.75,-6.5 800.75,-12.5 800.75,-12.5 800.75,-24.5 800.75,-24.5 800.75,-30.5 794.75,-36.5 788.75,-36.5 788.75,-36.5 693,-36.5 693,-36.5 687,-36.5 681,-30.5 681,-24.5 681,-24.5 681,-12.5 681,-12.5 681,-6.5 687,-0.5 693,-0.5"/>
<text text-anchor="middle" x="704.75" y="-14.2" font-family="Times,serif" font-size="14.00">id: 7</text>
<polyline fill="none" stroke="black" points="728.5,-1.25 728.5,-36.5"/>
<text text-anchor="middle" x="764.62" y="-14.2" font-family="Times,serif" font-size="14.00">value: 0</text>
</g>
<!-- label7&#45;&gt;label4294967289 -->
<g id="edge8" class="edge">
<title>label7&#45;&gt;label4294967289</title>
<path fill="none" stroke="black" stroke-dasharray="5,2" d="M558.85,-47.58C564.87,-46.01 570.91,-44.53 576.75,-43.25 610.88,-35.75 649.53,-29.78 680.64,-25.58"/>
<text text-anchor="middle" x="619.88" y="-47.45" font-family="Times,serif" font-size="14.00">DTOR</text>
</g>
<!-- label4294967287 -->
<g id="node8" class="node">
<title>label4294967287</title>
<path fill="red" stroke="black" d="M890.75,-55.5C890.75,-55.5 986.5,-55.5 986.5,-55.5 992.5,-55.5 998.5,-61.5 998.5,-67.5 998.5,-67.5 998.5,-79.5 998.5,-79.5 998.5,-85.5 992.5,-91.5 986.5,-91.5 986.5,-91.5 890.75,-91.5 890.75,-91.5 884.75,-91.5 878.75,-85.5 878.75,-79.5 878.75,-79.5 878.75,-67.5 878.75,-67.5 878.75,-61.5 884.75,-55.5 890.75,-55.5"/>
<text text-anchor="middle" x="902.5" y="-69.2" font-family="Times,serif" font-size="14.00">id: 9</text>
<polyline fill="none" stroke="black" points="926.25,-56.25 926.25,-91.5"/>
<text text-anchor="middle" x="962.38" y="-69.2" font-family="Times,serif" font-size="14.00">value: 0</text>
</g>
<!-- label9&#45;&gt;label4294967287 -->
<g id="edge7" class="edge">
<title>label9&#45;&gt;label4294967287</title>
<path fill="none" stroke="black" stroke-dasharray="5,2" d="M801.14,-73.5C825.67,-73.5 854.05,-73.5 878.56,-73.5"/>
<text text-anchor="middle" x="839.75" y="-77.45" font-family="Times,serif" font-size="14.00">DTOR</text>
</g>
</g>
</svg>
