<?xml version="1.0" encoding="UTF-8" standalone="no"?>
<!DOCTYPE svg PUBLIC "-//W3C//DTD SVG 1.1//EN"
 "http://www.w3.org/Graphics/SVG/1.1/DTD/svg11.dtd">
<!-- Generated by graphviz version 9.0.0 (0)
 -->
<!-- Title: structs Pages: 1 -->
<svg width="1285pt" height="128pt"
 viewBox="0.00 0.00 1284.75 128.00" xmlns="http://www.w3.org/2000/svg" xmlns:xlink="http://www.w3.org/1999/xlink">
<g id="graph0" class="graph" transform="scale(1 1) rotate(0) translate(4 124)">
<title>structs</title>
<polygon fill="white" stroke="none" points="-4,4 -4,-124 1280.75,-124 1280.75,4 -4,4"/>
<!-- value0 -->
<g id="node1" class="node">
<title>value0</title>
<path fill="darkgreen" stroke="black" d="M12,-83.5C12,-83.5 131,-83.5 131,-83.5 137,-83.5 143,-89.5 143,-95.5 143,-95.5 143,-107.5 143,-107.5 143,-113.5 137,-119.5 131,-119.5 131,-119.5 12,-119.5 12,-119.5 6,-119.5 0,-113.5 0,-107.5 0,-107.5 0,-95.5 0,-95.5 0,-89.5 6,-83.5 12,-83.5"/>
<text text-anchor="middle" x="36.12" y="-97.2" font-family="Times,serif" font-size="14.00">value: 9</text>
<polyline fill="none" stroke="black" points="72.25,-84.25 72.25,-119.5"/>
<text text-anchor="middle" x="107.62" y="-97.2" font-family="Times,serif" font-size="14.00">temp: 0</text>
</g>
<!-- value1 -->
<g id="node2" class="node">
<title>value1</title>
<path fill="darkgreen" stroke="black" d="M232.25,-83.5C232.25,-83.5 351.25,-83.5 351.25,-83.5 357.25,-83.5 363.25,-89.5 363.25,-95.5 363.25,-95.5 363.25,-107.5 363.25,-107.5 363.25,-113.5 357.25,-119.5 351.25,-119.5 351.25,-119.5 232.25,-119.5 232.25,-119.5 226.25,-119.5 220.25,-113.5 220.25,-107.5 220.25,-107.5 220.25,-95.5 220.25,-95.5 220.25,-89.5 226.25,-83.5 232.25,-83.5"/>
<text text-anchor="middle" x="256.38" y="-97.2" font-family="Times,serif" font-size="14.00">value: 9</text>
<polyline fill="none" stroke="black" points="292.5,-84.25 292.5,-119.5"/>
<text text-anchor="middle" x="327.88" y="-97.2" font-family="Times,serif" font-size="14.00">temp: 0</text>
</g>
<!-- value0&#45;&gt;value1 -->
<g id="edge1" class="edge">
<title>value0&#45;&gt;value1</title>
<path fill="none" stroke="darkgreen" stroke-dasharray="5,2" d="M143.36,-101.5C164.14,-101.5 187.05,-101.5 208.48,-101.5"/>
<polygon fill="darkgreen" stroke="darkgreen" points="208.36,-105 218.36,-101.5 208.36,-98 208.36,-105"/>
<text text-anchor="middle" x="181.62" y="-105.45" font-family="Times,serif" font-size="14.00">CTOR</text>
</g>
<!-- oper0 -->
<g id="node7" class="node">
<title>oper0</title>
<path fill="orange" stroke="black" d="M461.25,-59.5C461.25,-59.5 491.25,-59.5 491.25,-59.5 497.25,-59.5 503.25,-65.5 503.25,-71.5 503.25,-71.5 503.25,-83.5 503.25,-83.5 503.25,-89.5 497.25,-95.5 491.25,-95.5 491.25,-95.5 461.25,-95.5 461.25,-95.5 455.25,-95.5 449.25,-89.5 449.25,-83.5 449.25,-83.5 449.25,-71.5 449.25,-71.5 449.25,-65.5 455.25,-59.5 461.25,-59.5"/>
<text text-anchor="middle" x="476.25" y="-73.2" font-family="Times,serif" font-size="14.00">+</text>
</g>
<!-- value1&#45;&gt;oper0 -->
<g id="edge4" class="edge">
<title>value1&#45;&gt;oper0</title>
<path fill="none" stroke="orange" stroke-dasharray="5,2" d="M363.57,-92.19C388.93,-88.85 416.51,-85.22 437.92,-82.41"/>
<polygon fill="orange" stroke="orange" points="438.17,-85.91 447.62,-81.13 437.25,-78.97 438.17,-85.91"/>
</g>
<!-- value2 -->
<g id="node3" class="node">
<title>value2</title>
<path fill="darkgreen" stroke="black" d="M12,-28.5C12,-28.5 131,-28.5 131,-28.5 137,-28.5 143,-34.5 143,-40.5 143,-40.5 143,-52.5 143,-52.5 143,-58.5 137,-64.5 131,-64.5 131,-64.5 12,-64.5 12,-64.5 6,-64.5 0,-58.5 0,-52.5 0,-52.5 0,-40.5 0,-40.5 0,-34.5 6,-28.5 12,-28.5"/>
<text text-anchor="middle" x="36.12" y="-42.2" font-family="Times,serif" font-size="14.00">value: 6</text>
<polyline fill="none" stroke="black" points="72.25,-29.25 72.25,-64.5"/>
<text text-anchor="middle" x="107.62" y="-42.2" font-family="Times,serif" font-size="14.00">temp: 0</text>
</g>
<!-- value3 -->
<g id="node4" class="node">
<title>value3</title>
<path fill="darkgreen" stroke="black" d="M232.25,-28.5C232.25,-28.5 351.25,-28.5 351.25,-28.5 357.25,-28.5 363.25,-34.5 363.25,-40.5 363.25,-40.5 363.25,-52.5 363.25,-52.5 363.25,-58.5 357.25,-64.5 351.25,-64.5 351.25,-64.5 232.25,-64.5 232.25,-64.5 226.25,-64.5 220.25,-58.5 220.25,-52.5 220.25,-52.5 220.25,-40.5 220.25,-40.5 220.25,-34.5 226.25,-28.5 232.25,-28.5"/>
<text text-anchor="middle" x="256.38" y="-42.2" font-family="Times,serif" font-size="14.00">value: 6</text>
<polyline fill="none" stroke="black" points="292.5,-29.25 292.5,-64.5"/>
<text text-anchor="middle" x="327.88" y="-42.2" font-family="Times,serif" font-size="14.00">temp: 0</text>
</g>
<!-- value2&#45;&gt;value3 -->
<g id="edge2" class="edge">
<title>value2&#45;&gt;value3</title>
<path fill="none" stroke="darkgreen" stroke-dasharray="5,2" d="M143.36,-46.5C164.14,-46.5 187.05,-46.5 208.48,-46.5"/>
<polygon fill="darkgreen" stroke="darkgreen" points="208.36,-50 218.36,-46.5 208.36,-43 208.36,-50"/>
<text text-anchor="middle" x="181.62" y="-50.45" font-family="Times,serif" font-size="14.00">CTOR</text>
</g>
<!-- value3&#45;&gt;oper0 -->
<g id="edge5" class="edge">
<title>value3&#45;&gt;oper0</title>
<path fill="none" stroke="orange" stroke-dasharray="5,2" d="M363.57,-58.53C388.93,-62.84 416.51,-67.52 437.92,-71.16"/>
<polygon fill="orange" stroke="orange" points="437.19,-74.58 447.63,-72.81 438.36,-67.68 437.19,-74.58"/>
</g>
<!-- value4 -->
<g id="node5" class="node">
<title>value4</title>
<path fill="darkgreen" stroke="black" d="M412.25,-4.5C412.25,-4.5 540.25,-4.5 540.25,-4.5 546.25,-4.5 552.25,-10.5 552.25,-16.5 552.25,-16.5 552.25,-28.5 552.25,-28.5 552.25,-34.5 546.25,-40.5 540.25,-40.5 540.25,-40.5 412.25,-40.5 412.25,-40.5 406.25,-40.5 400.25,-34.5 400.25,-28.5 400.25,-28.5 400.25,-16.5 400.25,-16.5 400.25,-10.5 406.25,-4.5 412.25,-4.5"/>
<text text-anchor="middle" x="440.88" y="-18.2" font-family="Times,serif" font-size="14.00">value: 15</text>
<polyline fill="none" stroke="black" points="481.5,-5.25 481.5,-40.5"/>
<text text-anchor="middle" x="516.88" y="-18.2" font-family="Times,serif" font-size="14.00">temp: 0</text>
</g>
<!-- value5 -->
<g id="node6" class="node">
<title>value5</title>
<path fill="darkgreen" stroke="black" d="M641.5,-20.5C641.5,-20.5 769.5,-20.5 769.5,-20.5 775.5,-20.5 781.5,-26.5 781.5,-32.5 781.5,-32.5 781.5,-44.5 781.5,-44.5 781.5,-50.5 775.5,-56.5 769.5,-56.5 769.5,-56.5 641.5,-56.5 641.5,-56.5 635.5,-56.5 629.5,-50.5 629.5,-44.5 629.5,-44.5 629.5,-32.5 629.5,-32.5 629.5,-26.5 635.5,-20.5 641.5,-20.5"/>
<text text-anchor="middle" x="670.12" y="-34.2" font-family="Times,serif" font-size="14.00">value: 15</text>
<polyline fill="none" stroke="black" points="710.75,-21.25 710.75,-56.5"/>
<text text-anchor="middle" x="746.12" y="-34.2" font-family="Times,serif" font-size="14.00">temp: 0</text>
</g>
<!-- value4&#45;&gt;value5 -->
<g id="edge3" class="edge">
<title>value4&#45;&gt;value5</title>
<path fill="none" stroke="darkgreen" stroke-dasharray="5,2" d="M552.61,-27.81C573.52,-29.28 596.4,-30.89 617.91,-32.4"/>
<polygon fill="darkgreen" stroke="darkgreen" points="617.62,-35.89 627.84,-33.1 618.11,-28.91 617.62,-35.89"/>
<text text-anchor="middle" x="590.88" y="-35.45" font-family="Times,serif" font-size="14.00">CTOR</text>
</g>
<!-- value7 -->
<g id="node8" class="node">
<title>value7</title>
<path fill="red" stroke="black" d="M915.75,-55.5C915.75,-55.5 1043.75,-55.5 1043.75,-55.5 1049.75,-55.5 1055.75,-61.5 1055.75,-67.5 1055.75,-67.5 1055.75,-79.5 1055.75,-79.5 1055.75,-85.5 1049.75,-91.5 1043.75,-91.5 1043.75,-91.5 915.75,-91.5 915.75,-91.5 909.75,-91.5 903.75,-85.5 903.75,-79.5 903.75,-79.5 903.75,-67.5 903.75,-67.5 903.75,-61.5 909.75,-55.5 915.75,-55.5"/>
<text text-anchor="middle" x="944.38" y="-69.2" font-family="Times,serif" font-size="14.00">value: 15</text>
<polyline fill="none" stroke="black" points="985,-56.25 985,-91.5"/>
<text text-anchor="middle" x="1020.38" y="-69.2" font-family="Times,serif" font-size="14.00">temp: 1</text>
</g>
<!-- value5&#45;&gt;value7 -->
<g id="edge7" class="edge">
<title>value5&#45;&gt;value7</title>
<path fill="none" stroke="darkgreen" stroke-dasharray="5,2" d="M781.98,-48.2C816.2,-52.6 856.85,-57.83 892.29,-62.38"/>
<polygon fill="darkgreen" stroke="darkgreen" points="891.73,-65.84 902.1,-63.65 892.63,-58.9 891.73,-65.84"/>
<text text-anchor="middle" x="842.62" y="-64.45" font-family="Times,serif" font-size="14.00">COPY CTOR</text>
</g>
<!-- value4294967291 -->
<g id="node9" class="node">
<title>value4294967291</title>
<path fill="darkgreen" stroke="black" d="M920.25,-0.5C920.25,-0.5 1039.25,-0.5 1039.25,-0.5 1045.25,-0.5 1051.25,-6.5 1051.25,-12.5 1051.25,-12.5 1051.25,-24.5 1051.25,-24.5 1051.25,-30.5 1045.25,-36.5 1039.25,-36.5 1039.25,-36.5 920.25,-36.5 920.25,-36.5 914.25,-36.5 908.25,-30.5 908.25,-24.5 908.25,-24.5 908.25,-12.5 908.25,-12.5 908.25,-6.5 914.25,-0.5 920.25,-0.5"/>
<text text-anchor="middle" x="944.38" y="-14.2" font-family="Times,serif" font-size="14.00">value: 0</text>
<polyline fill="none" stroke="black" points="980.5,-1.25 980.5,-36.5"/>
<text text-anchor="middle" x="1015.88" y="-14.2" font-family="Times,serif" font-size="14.00">temp: 0</text>
</g>
<!-- value5&#45;&gt;value4294967291 -->
<g id="edge8" class="edge">
<title>value5&#45;&gt;value4294967291</title>
<path fill="none" stroke="darkgreen" stroke-dasharray="5,2" d="M781.81,-28.01C787.79,-27.35 793.74,-26.75 799.5,-26.25 831.14,-23.49 866.02,-21.7 896.53,-20.54"/>
<polygon fill="darkgreen" stroke="darkgreen" points="896.61,-24.04 906.48,-20.18 896.36,-17.04 896.61,-24.04"/>
<text text-anchor="middle" x="842.62" y="-29.45" font-family="Times,serif" font-size="14.00">DTOR</text>
</g>
<!-- oper0&#45;&gt;value5 -->
<g id="edge6" class="edge">
<title>oper0&#45;&gt;value5</title>
<path fill="none" stroke="orange" stroke-dasharray="5,2" d="M503.32,-73.03C531.3,-68.22 577.25,-60.34 618.18,-53.31"/>
<polygon fill="orange" stroke="orange" points="618.54,-56.8 627.8,-51.66 617.35,-49.9 618.54,-56.8"/>
</g>
<!-- value4294967289 -->
<g id="node10" class="node">
<title>value4294967289</title>
<path fill="red" stroke="black" d="M1145.75,-55.5C1145.75,-55.5 1264.75,-55.5 1264.75,-55.5 1270.75,-55.5 1276.75,-61.5 1276.75,-67.5 1276.75,-67.5 1276.75,-79.5 1276.75,-79.5 1276.75,-85.5 1270.75,-91.5 1264.75,-91.5 1264.75,-91.5 1145.75,-91.5 1145.75,-91.5 1139.75,-91.5 1133.75,-85.5 1133.75,-79.5 1133.75,-79.5 1133.75,-67.5 1133.75,-67.5 1133.75,-61.5 1139.75,-55.5 1145.75,-55.5"/>
<text text-anchor="middle" x="1169.88" y="-69.2" font-family="Times,serif" font-size="14.00">value: 0</text>
<polyline fill="none" stroke="black" points="1206,-56.25 1206,-91.5"/>
<text text-anchor="middle" x="1241.38" y="-69.2" font-family="Times,serif" font-size="14.00">temp: 1</text>
</g>
<!-- value7&#45;&gt;value4294967289 -->
<g id="edge9" class="edge">
<title>value7&#45;&gt;value4294967289</title>
<path fill="none" stroke="darkgreen" stroke-dasharray="5,2" d="M1056.11,-73.5C1077.27,-73.5 1100.38,-73.5 1121.93,-73.5"/>
<polygon fill="darkgreen" stroke="darkgreen" points="1121.86,-77 1131.86,-73.5 1121.86,-70 1121.86,-77"/>
<text text-anchor="middle" x="1094.75" y="-77.45" font-family="Times,serif" font-size="14.00">DTOR</text>
</g>
</g>
</svg>
