<?xml version="1.0" encoding="UTF-8" standalone="no"?>
<!DOCTYPE svg PUBLIC "-//W3C//DTD SVG 1.1//EN"
 "http://www.w3.org/Graphics/SVG/1.1/DTD/svg11.dtd">
<!-- Generated by graphviz version 9.0.0 (0)
 -->
<!-- Title: structs Pages: 1 -->
<svg width="860pt" height="128pt"
 viewBox="0.00 0.00 860.25 128.00" xmlns="http://www.w3.org/2000/svg" xmlns:xlink="http://www.w3.org/1999/xlink">
<g id="graph0" class="graph" transform="scale(1 1) rotate(0) translate(4 124)">
<title>structs</title>
<polygon fill="white" stroke="none" points="-4,4 -4,-124 856.25,-124 856.25,4 -4,4"/>
<!-- value0 -->
<g id="node1" class="node">
<title>value0</title>
<path fill="red" stroke="black" d="M12,-83.5C12,-83.5 60.25,-83.5 60.25,-83.5 66.25,-83.5 72.25,-89.5 72.25,-95.5 72.25,-95.5 72.25,-107.5 72.25,-107.5 72.25,-113.5 66.25,-119.5 60.25,-119.5 60.25,-119.5 12,-119.5 12,-119.5 6,-119.5 0,-113.5 0,-107.5 0,-107.5 0,-95.5 0,-95.5 0,-89.5 6,-83.5 12,-83.5"/>
<text text-anchor="middle" x="36.12" y="-97.2" font-family="Times,serif" font-size="14.00">value: 7</text>
</g>
<!-- value1 -->
<g id="node2" class="node">
<title>value1</title>
<path fill="red" stroke="black" d="M161.5,-83.5C161.5,-83.5 209.75,-83.5 209.75,-83.5 215.75,-83.5 221.75,-89.5 221.75,-95.5 221.75,-95.5 221.75,-107.5 221.75,-107.5 221.75,-113.5 215.75,-119.5 209.75,-119.5 209.75,-119.5 161.5,-119.5 161.5,-119.5 155.5,-119.5 149.5,-113.5 149.5,-107.5 149.5,-107.5 149.5,-95.5 149.5,-95.5 149.5,-89.5 155.5,-83.5 161.5,-83.5"/>
<text text-anchor="middle" x="185.62" y="-97.2" font-family="Times,serif" font-size="14.00">value: 7</text>
</g>
<!-- value0&#45;&gt;value1 -->
<g id="edge1" class="edge">
<title>value0&#45;&gt;value1</title>
<path fill="none" stroke="red" stroke-dasharray="5,2" d="M72.45,-101.5C92.01,-101.5 116.58,-101.5 137.73,-101.5"/>
<polygon fill="red" stroke="red" points="137.56,-105 147.56,-101.5 137.56,-98 137.56,-105"/>
<text text-anchor="middle" x="110.88" y="-105.45" font-family="Times,serif" font-size="14.00">CTOR</text>
</g>
<!-- oper0 -->
<g id="node7" class="node">
<title>oper0</title>
<path fill="yellow" stroke="black" d="M284.38,-59.5C284.38,-59.5 314.38,-59.5 314.38,-59.5 320.38,-59.5 326.38,-65.5 326.38,-71.5 326.38,-71.5 326.38,-83.5 326.38,-83.5 326.38,-89.5 320.38,-95.5 314.38,-95.5 314.38,-95.5 284.38,-95.5 284.38,-95.5 278.38,-95.5 272.38,-89.5 272.38,-83.5 272.38,-83.5 272.38,-71.5 272.38,-71.5 272.38,-65.5 278.38,-59.5 284.38,-59.5"/>
<text text-anchor="middle" x="299.38" y="-73.2" font-family="Times,serif" font-size="14.00">+</text>
</g>
<!-- value1&#45;&gt;oper0 -->
<g id="edge4" class="edge">
<title>value1&#45;&gt;oper0</title>
<path fill="none" stroke="yellow" stroke-dasharray="5,2" d="M221.98,-93.91C234.42,-91.24 248.43,-88.23 261.02,-85.52"/>
<polygon fill="yellow" stroke="yellow" points="261.58,-88.98 270.62,-83.46 260.11,-82.14 261.58,-88.98"/>
</g>
<!-- value2 -->
<g id="node3" class="node">
<title>value2</title>
<path fill="red" stroke="black" d="M12,-28.5C12,-28.5 60.25,-28.5 60.25,-28.5 66.25,-28.5 72.25,-34.5 72.25,-40.5 72.25,-40.5 72.25,-52.5 72.25,-52.5 72.25,-58.5 66.25,-64.5 60.25,-64.5 60.25,-64.5 12,-64.5 12,-64.5 6,-64.5 0,-58.5 0,-52.5 0,-52.5 0,-40.5 0,-40.5 0,-34.5 6,-28.5 12,-28.5"/>
<text text-anchor="middle" x="36.12" y="-42.2" font-family="Times,serif" font-size="14.00">value: 3</text>
</g>
<!-- value3 -->
<g id="node4" class="node">
<title>value3</title>
<path fill="red" stroke="black" d="M161.5,-28.5C161.5,-28.5 209.75,-28.5 209.75,-28.5 215.75,-28.5 221.75,-34.5 221.75,-40.5 221.75,-40.5 221.75,-52.5 221.75,-52.5 221.75,-58.5 215.75,-64.5 209.75,-64.5 209.75,-64.5 161.5,-64.5 161.5,-64.5 155.5,-64.5 149.5,-58.5 149.5,-52.5 149.5,-52.5 149.5,-40.5 149.5,-40.5 149.5,-34.5 155.5,-28.5 161.5,-28.5"/>
<text text-anchor="middle" x="185.62" y="-42.2" font-family="Times,serif" font-size="14.00">value: 3</text>
</g>
<!-- value2&#45;&gt;value3 -->
<g id="edge2" class="edge">
<title>value2&#45;&gt;value3</title>
<path fill="none" stroke="red" stroke-dasharray="5,2" d="M72.45,-46.5C92.01,-46.5 116.58,-46.5 137.73,-46.5"/>
<polygon fill="red" stroke="red" points="137.56,-50 147.56,-46.5 137.56,-43 137.56,-50"/>
<text text-anchor="middle" x="110.88" y="-50.45" font-family="Times,serif" font-size="14.00">CTOR</text>
</g>
<!-- value3&#45;&gt;oper0 -->
<g id="edge5" class="edge">
<title>value3&#45;&gt;oper0</title>
<path fill="none" stroke="yellow" stroke-dasharray="5,2" d="M221.98,-56.31C234.42,-59.76 248.43,-63.64 261.02,-67.14"/>
<polygon fill="yellow" stroke="yellow" points="260.07,-70.51 270.65,-69.81 261.95,-63.76 260.07,-70.51"/>
</g>
<!-- value4 -->
<g id="node5" class="node">
<title>value4</title>
<path fill="red" stroke="black" d="M270.75,-4.5C270.75,-4.5 328,-4.5 328,-4.5 334,-4.5 340,-10.5 340,-16.5 340,-16.5 340,-28.5 340,-28.5 340,-34.5 334,-40.5 328,-40.5 328,-40.5 270.75,-40.5 270.75,-40.5 264.75,-40.5 258.75,-34.5 258.75,-28.5 258.75,-28.5 258.75,-16.5 258.75,-16.5 258.75,-10.5 264.75,-4.5 270.75,-4.5"/>
<text text-anchor="middle" x="299.38" y="-18.2" font-family="Times,serif" font-size="14.00">value: 10</text>
</g>
<!-- value5 -->
<g id="node6" class="node">
<title>value5</title>
<path fill="red" stroke="black" d="M429.25,-20.5C429.25,-20.5 486.5,-20.5 486.5,-20.5 492.5,-20.5 498.5,-26.5 498.5,-32.5 498.5,-32.5 498.5,-44.5 498.5,-44.5 498.5,-50.5 492.5,-56.5 486.5,-56.5 486.5,-56.5 429.25,-56.5 429.25,-56.5 423.25,-56.5 417.25,-50.5 417.25,-44.5 417.25,-44.5 417.25,-32.5 417.25,-32.5 417.25,-26.5 423.25,-20.5 429.25,-20.5"/>
<text text-anchor="middle" x="457.88" y="-34.2" font-family="Times,serif" font-size="14.00">value: 10</text>
</g>
<!-- value4&#45;&gt;value5 -->
<g id="edge3" class="edge">
<title>value4&#45;&gt;value5</title>
<path fill="none" stroke="red" stroke-dasharray="5,2" d="M340.27,-26.58C360.06,-28.6 384.2,-31.07 405.37,-33.23"/>
<polygon fill="red" stroke="red" points="404.97,-36.71 415.27,-34.25 405.68,-29.75 404.97,-36.71"/>
<text text-anchor="middle" x="378.62" y="-35.45" font-family="Times,serif" font-size="14.00">CTOR</text>
</g>
<!-- value7 -->
<g id="node8" class="node">
<title>value7</title>
<path fill="red" stroke="black" d="M632.75,-55.5C632.75,-55.5 690,-55.5 690,-55.5 696,-55.5 702,-61.5 702,-67.5 702,-67.5 702,-79.5 702,-79.5 702,-85.5 696,-91.5 690,-91.5 690,-91.5 632.75,-91.5 632.75,-91.5 626.75,-91.5 620.75,-85.5 620.75,-79.5 620.75,-79.5 620.75,-67.5 620.75,-67.5 620.75,-61.5 626.75,-55.5 632.75,-55.5"/>
<text text-anchor="middle" x="661.38" y="-69.2" font-family="Times,serif" font-size="14.00">value: 10</text>
</g>
<!-- value5&#45;&gt;value7 -->
<g id="edge7" class="edge">
<title>value5&#45;&gt;value7</title>
<path fill="none" stroke="red" stroke-dasharray="5,2" d="M498.68,-45.41C530.32,-50.91 574.79,-58.63 609.09,-64.59"/>
<polygon fill="red" stroke="red" points="608.36,-68.02 618.81,-66.28 609.56,-61.12 608.36,-68.02"/>
<text text-anchor="middle" x="559.62" y="-66.45" font-family="Times,serif" font-size="14.00">COPY CTOR</text>
</g>
<!-- value4294967291 -->
<g id="node9" class="node">
<title>value4294967291</title>
<path fill="red" stroke="black" d="M637.25,-0.5C637.25,-0.5 685.5,-0.5 685.5,-0.5 691.5,-0.5 697.5,-6.5 697.5,-12.5 697.5,-12.5 697.5,-24.5 697.5,-24.5 697.5,-30.5 691.5,-36.5 685.5,-36.5 685.5,-36.5 637.25,-36.5 637.25,-36.5 631.25,-36.5 625.25,-30.5 625.25,-24.5 625.25,-24.5 625.25,-12.5 625.25,-12.5 625.25,-6.5 631.25,-0.5 637.25,-0.5"/>
<text text-anchor="middle" x="661.38" y="-14.2" font-family="Times,serif" font-size="14.00">value: 0</text>
</g>
<!-- value5&#45;&gt;value4294967291 -->
<g id="edge8" class="edge">
<title>value5&#45;&gt;value4294967291</title>
<path fill="none" stroke="red" stroke-dasharray="5,2" d="M498.72,-29.19C504.66,-28.05 510.72,-27.02 516.5,-26.25 548.76,-21.98 585.38,-20.05 613.6,-19.18"/>
<polygon fill="red" stroke="red" points="613.34,-22.69 623.24,-18.92 613.15,-15.69 613.34,-22.69"/>
<text text-anchor="middle" x="559.62" y="-29.45" font-family="Times,serif" font-size="14.00">DTOR</text>
</g>
<!-- oper0&#45;&gt;value5 -->
<g id="edge6" class="edge">
<title>oper0&#45;&gt;value5</title>
<path fill="none" stroke="yellow" stroke-dasharray="5,2" d="M326.57,-70.97C348.12,-65.6 379.3,-57.83 405.76,-51.24"/>
<polygon fill="yellow" stroke="yellow" points="406.44,-54.67 415.3,-48.86 404.75,-47.88 406.44,-54.67"/>
</g>
<!-- value4294967289 -->
<g id="node10" class="node">
<title>value4294967289</title>
<path fill="red" stroke="black" d="M792,-55.5C792,-55.5 840.25,-55.5 840.25,-55.5 846.25,-55.5 852.25,-61.5 852.25,-67.5 852.25,-67.5 852.25,-79.5 852.25,-79.5 852.25,-85.5 846.25,-91.5 840.25,-91.5 840.25,-91.5 792,-91.5 792,-91.5 786,-91.5 780,-85.5 780,-79.5 780,-79.5 780,-67.5 780,-67.5 780,-61.5 786,-55.5 792,-55.5"/>
<text text-anchor="middle" x="816.12" y="-69.2" font-family="Times,serif" font-size="14.00">value: 0</text>
</g>
<!-- value7&#45;&gt;value4294967289 -->
<g id="edge9" class="edge">
<title>value7&#45;&gt;value4294967289</title>
<path fill="none" stroke="red" stroke-dasharray="5,2" d="M702.11,-73.5C722.32,-73.5 747.02,-73.5 768.17,-73.5"/>
<polygon fill="red" stroke="red" points="767.99,-77 777.99,-73.5 767.99,-70 767.99,-77"/>
<text text-anchor="middle" x="741" y="-77.45" font-family="Times,serif" font-size="14.00">DTOR</text>
</g>
</g>
</svg>
