<?xml version="1.0" encoding="UTF-8" standalone="no"?>
<!DOCTYPE svg PUBLIC "-//W3C//DTD SVG 1.1//EN"
 "http://www.w3.org/Graphics/SVG/1.1/DTD/svg11.dtd">
<!-- Generated by graphviz version 9.0.0 (0)
 -->
<!-- Title: structs Pages: 1 -->
<svg width="833pt" height="128pt"
 viewBox="0.00 0.00 833.25 128.00" xmlns="http://www.w3.org/2000/svg" xmlns:xlink="http://www.w3.org/1999/xlink">
<g id="graph0" class="graph" transform="scale(1 1) rotate(0) translate(4 124)">
<title>structs</title>
<polygon fill="white" stroke="none" points="-4,4 -4,-124 829.25,-124 829.25,4 -4,4"/>
<!-- value0 -->
<g id="node1" class="node">
<title>value0</title>
<path fill="red" stroke="black" d="M12,-83.5C12,-83.5 60.25,-83.5 60.25,-83.5 66.25,-83.5 72.25,-89.5 72.25,-95.5 72.25,-95.5 72.25,-107.5 72.25,-107.5 72.25,-113.5 66.25,-119.5 60.25,-119.5 60.25,-119.5 12,-119.5 12,-119.5 6,-119.5 0,-113.5 0,-107.5 0,-107.5 0,-95.5 0,-95.5 0,-89.5 6,-83.5 12,-83.5"/>
<text text-anchor="middle" x="36.12" y="-97.2" font-family="Times,serif" font-size="14.00">value: 0</text>
</g>
<!-- value1 -->
<g id="node2" class="node">
<title>value1</title>
<path fill="red" stroke="black" d="M161.5,-83.5C161.5,-83.5 209.75,-83.5 209.75,-83.5 215.75,-83.5 221.75,-89.5 221.75,-95.5 221.75,-95.5 221.75,-107.5 221.75,-107.5 221.75,-113.5 215.75,-119.5 209.75,-119.5 209.75,-119.5 161.5,-119.5 161.5,-119.5 155.5,-119.5 149.5,-113.5 149.5,-107.5 149.5,-107.5 149.5,-95.5 149.5,-95.5 149.5,-89.5 155.5,-83.5 161.5,-83.5"/>
<text text-anchor="middle" x="185.62" y="-97.2" font-family="Times,serif" font-size="14.00">value: 0</text>
</g>
<!-- value0&#45;&gt;value1 -->
<g id="edge1" class="edge">
<title>value0&#45;&gt;value1</title>
<path fill="none" stroke="red" stroke-dasharray="5,2" d="M72.45,-101.5C92.01,-101.5 116.58,-101.5 137.73,-101.5"/>
<polygon fill="red" stroke="red" points="137.56,-105 147.56,-101.5 137.56,-98 137.56,-105"/>
<text text-anchor="middle" x="110.88" y="-105.45" font-family="Times,serif" font-size="14.00">CTOR</text>
</g>
<!-- oper0 -->
<g id="node7" class="node">
<title>oper0</title>
<path fill="turquoise" stroke="black" d="M279.88,-59.5C279.88,-59.5 309.88,-59.5 309.88,-59.5 315.88,-59.5 321.88,-65.5 321.88,-71.5 321.88,-71.5 321.88,-83.5 321.88,-83.5 321.88,-89.5 315.88,-95.5 309.88,-95.5 309.88,-95.5 279.88,-95.5 279.88,-95.5 273.88,-95.5 267.88,-89.5 267.88,-83.5 267.88,-83.5 267.88,-71.5 267.88,-71.5 267.88,-65.5 273.88,-59.5 279.88,-59.5"/>
<text text-anchor="middle" x="294.88" y="-73.2" font-family="Times,serif" font-size="14.00">+</text>
</g>
<!-- value1&#45;&gt;oper0 -->
<g id="edge4" class="edge">
<title>value1&#45;&gt;oper0</title>
<path fill="none" stroke="turquoise" stroke-dasharray="5,2" d="M222.04,-93.57C233.09,-91.1 245.31,-88.37 256.49,-85.87"/>
<polygon fill="turquoise" stroke="turquoise" points="257.2,-89.29 266.19,-83.69 255.67,-82.46 257.2,-89.29"/>
</g>
<!-- value2 -->
<g id="node3" class="node">
<title>value2</title>
<path fill="red" stroke="black" d="M12,-28.5C12,-28.5 60.25,-28.5 60.25,-28.5 66.25,-28.5 72.25,-34.5 72.25,-40.5 72.25,-40.5 72.25,-52.5 72.25,-52.5 72.25,-58.5 66.25,-64.5 60.25,-64.5 60.25,-64.5 12,-64.5 12,-64.5 6,-64.5 0,-58.5 0,-52.5 0,-52.5 0,-40.5 0,-40.5 0,-34.5 6,-28.5 12,-28.5"/>
<text text-anchor="middle" x="36.12" y="-42.2" font-family="Times,serif" font-size="14.00">value: 3</text>
</g>
<!-- value3 -->
<g id="node4" class="node">
<title>value3</title>
<path fill="red" stroke="black" d="M161.5,-28.5C161.5,-28.5 209.75,-28.5 209.75,-28.5 215.75,-28.5 221.75,-34.5 221.75,-40.5 221.75,-40.5 221.75,-52.5 221.75,-52.5 221.75,-58.5 215.75,-64.5 209.75,-64.5 209.75,-64.5 161.5,-64.5 161.5,-64.5 155.5,-64.5 149.5,-58.5 149.5,-52.5 149.5,-52.5 149.5,-40.5 149.5,-40.5 149.5,-34.5 155.5,-28.5 161.5,-28.5"/>
<text text-anchor="middle" x="185.62" y="-42.2" font-family="Times,serif" font-size="14.00">value: 3</text>
</g>
<!-- value2&#45;&gt;value3 -->
<g id="edge2" class="edge">
<title>value2&#45;&gt;value3</title>
<path fill="none" stroke="red" stroke-dasharray="5,2" d="M72.45,-46.5C92.01,-46.5 116.58,-46.5 137.73,-46.5"/>
<polygon fill="red" stroke="red" points="137.56,-50 147.56,-46.5 137.56,-43 137.56,-50"/>
<text text-anchor="middle" x="110.88" y="-50.45" font-family="Times,serif" font-size="14.00">CTOR</text>
</g>
<!-- value3&#45;&gt;oper0 -->
<g id="edge5" class="edge">
<title>value3&#45;&gt;oper0</title>
<path fill="none" stroke="turquoise" stroke-dasharray="5,2" d="M222.04,-56.74C233.21,-59.96 245.57,-63.54 256.84,-66.8"/>
<polygon fill="turquoise" stroke="turquoise" points="255.64,-70.09 266.22,-69.51 257.58,-63.37 255.64,-70.09"/>
</g>
<!-- value4 -->
<g id="node5" class="node">
<title>value4</title>
<path fill="red" stroke="black" d="M270.75,-4.5C270.75,-4.5 319,-4.5 319,-4.5 325,-4.5 331,-10.5 331,-16.5 331,-16.5 331,-28.5 331,-28.5 331,-34.5 325,-40.5 319,-40.5 319,-40.5 270.75,-40.5 270.75,-40.5 264.75,-40.5 258.75,-34.5 258.75,-28.5 258.75,-28.5 258.75,-16.5 258.75,-16.5 258.75,-10.5 264.75,-4.5 270.75,-4.5"/>
<text text-anchor="middle" x="294.88" y="-18.2" font-family="Times,serif" font-size="14.00">value: 3</text>
</g>
<!-- value5 -->
<g id="node6" class="node">
<title>value5</title>
<path fill="red" stroke="black" d="M420.25,-20.5C420.25,-20.5 468.5,-20.5 468.5,-20.5 474.5,-20.5 480.5,-26.5 480.5,-32.5 480.5,-32.5 480.5,-44.5 480.5,-44.5 480.5,-50.5 474.5,-56.5 468.5,-56.5 468.5,-56.5 420.25,-56.5 420.25,-56.5 414.25,-56.5 408.25,-50.5 408.25,-44.5 408.25,-44.5 408.25,-32.5 408.25,-32.5 408.25,-26.5 414.25,-20.5 420.25,-20.5"/>
<text text-anchor="middle" x="444.38" y="-34.2" font-family="Times,serif" font-size="14.00">value: 3</text>
</g>
<!-- value4&#45;&gt;value5 -->
<g id="edge3" class="edge">
<title>value4&#45;&gt;value5</title>
<path fill="none" stroke="red" stroke-dasharray="5,2" d="M331.2,-26.33C350.76,-28.45 375.33,-31.12 396.48,-33.41"/>
<polygon fill="red" stroke="red" points="396,-36.88 406.32,-34.48 396.75,-29.92 396,-36.88"/>
<text text-anchor="middle" x="369.62" y="-35.45" font-family="Times,serif" font-size="14.00">CTOR</text>
</g>
<!-- value7 -->
<g id="node8" class="node">
<title>value7</title>
<path fill="red" stroke="black" d="M614.75,-55.5C614.75,-55.5 663,-55.5 663,-55.5 669,-55.5 675,-61.5 675,-67.5 675,-67.5 675,-79.5 675,-79.5 675,-85.5 669,-91.5 663,-91.5 663,-91.5 614.75,-91.5 614.75,-91.5 608.75,-91.5 602.75,-85.5 602.75,-79.5 602.75,-79.5 602.75,-67.5 602.75,-67.5 602.75,-61.5 608.75,-55.5 614.75,-55.5"/>
<text text-anchor="middle" x="638.88" y="-69.2" font-family="Times,serif" font-size="14.00">value: 3</text>
</g>
<!-- value5&#45;&gt;value7 -->
<g id="edge7" class="edge">
<title>value5&#45;&gt;value7</title>
<path fill="none" stroke="red" stroke-dasharray="5,2" d="M480.68,-44.92C511.79,-50.58 557.33,-58.85 591.39,-65.05"/>
<polygon fill="red" stroke="red" points="590.51,-68.45 600.98,-66.79 591.76,-61.56 590.51,-68.45"/>
<text text-anchor="middle" x="541.62" y="-66.45" font-family="Times,serif" font-size="14.00">COPY CTOR</text>
</g>
<!-- value4294967291 -->
<g id="node9" class="node">
<title>value4294967291</title>
<path fill="red" stroke="black" d="M614.75,-0.5C614.75,-0.5 663,-0.5 663,-0.5 669,-0.5 675,-6.5 675,-12.5 675,-12.5 675,-24.5 675,-24.5 675,-30.5 669,-36.5 663,-36.5 663,-36.5 614.75,-36.5 614.75,-36.5 608.75,-36.5 602.75,-30.5 602.75,-24.5 602.75,-24.5 602.75,-12.5 602.75,-12.5 602.75,-6.5 608.75,-0.5 614.75,-0.5"/>
<text text-anchor="middle" x="638.88" y="-14.2" font-family="Times,serif" font-size="14.00">value: 0</text>
</g>
<!-- value5&#45;&gt;value4294967291 -->
<g id="edge8" class="edge">
<title>value5&#45;&gt;value4294967291</title>
<path fill="none" stroke="red" stroke-dasharray="5,2" d="M480.94,-29.42C486.78,-28.18 492.78,-27.06 498.5,-26.25 529.12,-21.9 563.85,-19.96 590.98,-19.11"/>
<polygon fill="red" stroke="red" points="591.07,-22.61 600.97,-18.84 590.88,-15.61 591.07,-22.61"/>
<text text-anchor="middle" x="541.62" y="-29.45" font-family="Times,serif" font-size="14.00">DTOR</text>
</g>
<!-- oper0&#45;&gt;value5 -->
<g id="edge6" class="edge">
<title>oper0&#45;&gt;value5</title>
<path fill="none" stroke="turquoise" stroke-dasharray="5,2" d="M322.25,-70.53C342.94,-65.06 372.27,-57.3 396.88,-50.79"/>
<polygon fill="turquoise" stroke="turquoise" points="397.57,-54.23 406.35,-48.29 395.78,-47.46 397.57,-54.23"/>
</g>
<!-- value4294967289 -->
<g id="node10" class="node">
<title>value4294967289</title>
<path fill="red" stroke="black" d="M765,-55.5C765,-55.5 813.25,-55.5 813.25,-55.5 819.25,-55.5 825.25,-61.5 825.25,-67.5 825.25,-67.5 825.25,-79.5 825.25,-79.5 825.25,-85.5 819.25,-91.5 813.25,-91.5 813.25,-91.5 765,-91.5 765,-91.5 759,-91.5 753,-85.5 753,-79.5 753,-79.5 753,-67.5 753,-67.5 753,-61.5 759,-55.5 765,-55.5"/>
<text text-anchor="middle" x="789.12" y="-69.2" font-family="Times,serif" font-size="14.00">value: 0</text>
</g>
<!-- value7&#45;&gt;value4294967289 -->
<g id="edge9" class="edge">
<title>value7&#45;&gt;value4294967289</title>
<path fill="none" stroke="red" stroke-dasharray="5,2" d="M675.38,-73.5C695.12,-73.5 719.91,-73.5 741.22,-73.5"/>
<polygon fill="red" stroke="red" points="741.14,-77 751.14,-73.5 741.13,-70 741.14,-77"/>
<text text-anchor="middle" x="714" y="-77.45" font-family="Times,serif" font-size="14.00">DTOR</text>
</g>
</g>
</svg>
