<?xml version="1.0" encoding="UTF-8" standalone="no"?>
<!DOCTYPE svg PUBLIC "-//W3C//DTD SVG 1.1//EN"
 "http://www.w3.org/Graphics/SVG/1.1/DTD/svg11.dtd">
<!-- Generated by graphviz version 9.0.0 (0)
 -->
<!-- Title: structs Pages: 1 -->
<svg width="1355pt" height="249pt"
 viewBox="0.00 0.00 1354.50 249.00" xmlns="http://www.w3.org/2000/svg" xmlns:xlink="http://www.w3.org/1999/xlink">
<g id="graph0" class="graph" transform="scale(1 1) rotate(0) translate(4 245)">
<title>structs</title>
<polygon fill="white" stroke="none" points="-4,4 -4,-245 1350.5,-245 1350.5,4 -4,4"/>
<!-- value0 -->
<g id="node1" class="node">
<title>value0</title>
<path fill="red" stroke="black" d="M12,-204.5C12,-204.5 60.25,-204.5 60.25,-204.5 66.25,-204.5 72.25,-210.5 72.25,-216.5 72.25,-216.5 72.25,-228.5 72.25,-228.5 72.25,-234.5 66.25,-240.5 60.25,-240.5 60.25,-240.5 12,-240.5 12,-240.5 6,-240.5 0,-234.5 0,-228.5 0,-228.5 0,-216.5 0,-216.5 0,-210.5 6,-204.5 12,-204.5"/>
<text text-anchor="middle" x="36.12" y="-218.2" font-family="Times,serif" font-size="14.00">value: 6</text>
</g>
<!-- value1 -->
<g id="node2" class="node">
<title>value1</title>
<path fill="red" stroke="black" d="M161.5,-204.5C161.5,-204.5 209.75,-204.5 209.75,-204.5 215.75,-204.5 221.75,-210.5 221.75,-216.5 221.75,-216.5 221.75,-228.5 221.75,-228.5 221.75,-234.5 215.75,-240.5 209.75,-240.5 209.75,-240.5 161.5,-240.5 161.5,-240.5 155.5,-240.5 149.5,-234.5 149.5,-228.5 149.5,-228.5 149.5,-216.5 149.5,-216.5 149.5,-210.5 155.5,-204.5 161.5,-204.5"/>
<text text-anchor="middle" x="185.62" y="-218.2" font-family="Times,serif" font-size="14.00">value: 6</text>
</g>
<!-- value0&#45;&gt;value1 -->
<g id="edge1" class="edge">
<title>value0&#45;&gt;value1</title>
<path fill="none" stroke="red" stroke-dasharray="5,2" d="M72.45,-222.5C92.01,-222.5 116.58,-222.5 137.73,-222.5"/>
<polygon fill="red" stroke="red" points="137.56,-226 147.56,-222.5 137.56,-219 137.56,-226"/>
<text text-anchor="middle" x="110.88" y="-226.45" font-family="Times,serif" font-size="14.00">CTOR</text>
</g>
<!-- oper0 -->
<g id="node9" class="node">
<title>oper0</title>
<path fill="#ffb90f" stroke="black" d="M279.88,-180.5C279.88,-180.5 309.88,-180.5 309.88,-180.5 315.88,-180.5 321.88,-186.5 321.88,-192.5 321.88,-192.5 321.88,-204.5 321.88,-204.5 321.88,-210.5 315.88,-216.5 309.88,-216.5 309.88,-216.5 279.88,-216.5 279.88,-216.5 273.88,-216.5 267.88,-210.5 267.88,-204.5 267.88,-204.5 267.88,-192.5 267.88,-192.5 267.88,-186.5 273.88,-180.5 279.88,-180.5"/>
<text text-anchor="middle" x="294.88" y="-194.2" font-family="Times,serif" font-size="14.00">+</text>
</g>
<!-- value1&#45;&gt;oper0 -->
<g id="edge5" class="edge">
<title>value1&#45;&gt;oper0</title>
<path fill="none" stroke="#ffb90f" stroke-dasharray="5,2" d="M222.04,-214.57C233.09,-212.1 245.31,-209.37 256.49,-206.87"/>
<polygon fill="#ffb90f" stroke="#ffb90f" points="257.2,-210.29 266.19,-204.69 255.67,-203.46 257.2,-210.29"/>
</g>
<!-- value2 -->
<g id="node3" class="node">
<title>value2</title>
<path fill="red" stroke="black" d="M12,-149.5C12,-149.5 60.25,-149.5 60.25,-149.5 66.25,-149.5 72.25,-155.5 72.25,-161.5 72.25,-161.5 72.25,-173.5 72.25,-173.5 72.25,-179.5 66.25,-185.5 60.25,-185.5 60.25,-185.5 12,-185.5 12,-185.5 6,-185.5 0,-179.5 0,-173.5 0,-173.5 0,-161.5 0,-161.5 0,-155.5 6,-149.5 12,-149.5"/>
<text text-anchor="middle" x="36.12" y="-163.2" font-family="Times,serif" font-size="14.00">value: 2</text>
</g>
<!-- value3 -->
<g id="node4" class="node">
<title>value3</title>
<path fill="red" stroke="black" d="M161.5,-149.5C161.5,-149.5 209.75,-149.5 209.75,-149.5 215.75,-149.5 221.75,-155.5 221.75,-161.5 221.75,-161.5 221.75,-173.5 221.75,-173.5 221.75,-179.5 215.75,-185.5 209.75,-185.5 209.75,-185.5 161.5,-185.5 161.5,-185.5 155.5,-185.5 149.5,-179.5 149.5,-173.5 149.5,-173.5 149.5,-161.5 149.5,-161.5 149.5,-155.5 155.5,-149.5 161.5,-149.5"/>
<text text-anchor="middle" x="185.62" y="-163.2" font-family="Times,serif" font-size="14.00">value: 2</text>
</g>
<!-- value2&#45;&gt;value3 -->
<g id="edge2" class="edge">
<title>value2&#45;&gt;value3</title>
<path fill="none" stroke="red" stroke-dasharray="5,2" d="M72.45,-167.5C92.01,-167.5 116.58,-167.5 137.73,-167.5"/>
<polygon fill="red" stroke="red" points="137.56,-171 147.56,-167.5 137.56,-164 137.56,-171"/>
<text text-anchor="middle" x="110.88" y="-171.45" font-family="Times,serif" font-size="14.00">CTOR</text>
</g>
<!-- value3&#45;&gt;oper0 -->
<g id="edge6" class="edge">
<title>value3&#45;&gt;oper0</title>
<path fill="none" stroke="#ffb90f" stroke-dasharray="5,2" d="M222.04,-177.74C233.21,-180.96 245.57,-184.54 256.84,-187.8"/>
<polygon fill="#ffb90f" stroke="#ffb90f" points="255.64,-191.09 266.22,-190.51 257.58,-184.37 255.64,-191.09"/>
</g>
<!-- value4 -->
<g id="node5" class="node">
<title>value4</title>
<path fill="red" stroke="black" d="M420.25,-57.5C420.25,-57.5 468.5,-57.5 468.5,-57.5 474.5,-57.5 480.5,-63.5 480.5,-69.5 480.5,-69.5 480.5,-81.5 480.5,-81.5 480.5,-87.5 474.5,-93.5 468.5,-93.5 468.5,-93.5 420.25,-93.5 420.25,-93.5 414.25,-93.5 408.25,-87.5 408.25,-81.5 408.25,-81.5 408.25,-69.5 408.25,-69.5 408.25,-63.5 414.25,-57.5 420.25,-57.5"/>
<text text-anchor="middle" x="444.38" y="-71.2" font-family="Times,serif" font-size="14.00">value: 2</text>
</g>
<!-- value5 -->
<g id="node6" class="node">
<title>value5</title>
<path fill="red" stroke="black" d="M614.75,-57.5C614.75,-57.5 663,-57.5 663,-57.5 669,-57.5 675,-63.5 675,-69.5 675,-69.5 675,-81.5 675,-81.5 675,-87.5 669,-93.5 663,-93.5 663,-93.5 614.75,-93.5 614.75,-93.5 608.75,-93.5 602.75,-87.5 602.75,-81.5 602.75,-81.5 602.75,-69.5 602.75,-69.5 602.75,-63.5 608.75,-57.5 614.75,-57.5"/>
<text text-anchor="middle" x="638.88" y="-71.2" font-family="Times,serif" font-size="14.00">value: 2</text>
</g>
<!-- value4&#45;&gt;value5 -->
<g id="edge3" class="edge">
<title>value4&#45;&gt;value5</title>
<path fill="none" stroke="red" stroke-dasharray="5,2" d="M480.68,-75.5C511.79,-75.5 557.33,-75.5 591.39,-75.5"/>
<polygon fill="red" stroke="red" points="590.95,-79 600.95,-75.5 590.95,-72 590.95,-79"/>
<text text-anchor="middle" x="541.62" y="-79.45" font-family="Times,serif" font-size="14.00">CTOR</text>
</g>
<!-- oper1 -->
<g id="node14" class="node">
<title>oper1</title>
<path fill="darkmagenta" stroke="black" d="M778.62,-59.5C778.62,-59.5 808.62,-59.5 808.62,-59.5 814.62,-59.5 820.62,-65.5 820.62,-71.5 820.62,-71.5 820.62,-83.5 820.62,-83.5 820.62,-89.5 814.62,-95.5 808.62,-95.5 808.62,-95.5 778.62,-95.5 778.62,-95.5 772.62,-95.5 766.62,-89.5 766.62,-83.5 766.62,-83.5 766.62,-71.5 766.62,-71.5 766.62,-65.5 772.62,-59.5 778.62,-59.5"/>
<text text-anchor="middle" x="793.62" y="-73.2" font-family="Times,serif" font-size="14.00">+</text>
</g>
<!-- value5&#45;&gt;oper1 -->
<g id="edge12" class="edge">
<title>value5&#45;&gt;oper1</title>
<path fill="none" stroke="darkmagenta" stroke-dasharray="5,2" d="M675.3,-75.96C699.24,-76.28 730.79,-76.69 755.14,-77.01"/>
<polygon fill="darkmagenta" stroke="darkmagenta" points="754.89,-80.51 764.94,-77.14 754.99,-73.51 754.89,-80.51"/>
</g>
<!-- value6 -->
<g id="node7" class="node">
<title>value6</title>
<path fill="red" stroke="black" d="M270.75,-125.5C270.75,-125.5 319,-125.5 319,-125.5 325,-125.5 331,-131.5 331,-137.5 331,-137.5 331,-149.5 331,-149.5 331,-155.5 325,-161.5 319,-161.5 319,-161.5 270.75,-161.5 270.75,-161.5 264.75,-161.5 258.75,-155.5 258.75,-149.5 258.75,-149.5 258.75,-137.5 258.75,-137.5 258.75,-131.5 264.75,-125.5 270.75,-125.5"/>
<text text-anchor="middle" x="294.88" y="-139.2" font-family="Times,serif" font-size="14.00">value: 8</text>
</g>
<!-- value7 -->
<g id="node8" class="node">
<title>value7</title>
<path fill="red" stroke="black" d="M420.25,-147.5C420.25,-147.5 468.5,-147.5 468.5,-147.5 474.5,-147.5 480.5,-153.5 480.5,-159.5 480.5,-159.5 480.5,-171.5 480.5,-171.5 480.5,-177.5 474.5,-183.5 468.5,-183.5 468.5,-183.5 420.25,-183.5 420.25,-183.5 414.25,-183.5 408.25,-177.5 408.25,-171.5 408.25,-171.5 408.25,-159.5 408.25,-159.5 408.25,-153.5 414.25,-147.5 420.25,-147.5"/>
<text text-anchor="middle" x="444.38" y="-161.2" font-family="Times,serif" font-size="14.00">value: 8</text>
</g>
<!-- value6&#45;&gt;value7 -->
<g id="edge4" class="edge">
<title>value6&#45;&gt;value7</title>
<path fill="none" stroke="red" stroke-dasharray="5,2" d="M331.36,-147.35C349.09,-149.42 370.84,-152.17 390.25,-155.25 392.41,-155.59 394.61,-155.96 396.83,-156.34"/>
<polygon fill="red" stroke="red" points="396.05,-159.75 406.51,-158.07 397.28,-152.86 396.05,-159.75"/>
<text text-anchor="middle" x="369.62" y="-158.45" font-family="Times,serif" font-size="14.00">CTOR</text>
</g>
<!-- value9 -->
<g id="node10" class="node">
<title>value9</title>
<path fill="red" stroke="black" d="M614.75,-113.5C614.75,-113.5 663,-113.5 663,-113.5 669,-113.5 675,-119.5 675,-125.5 675,-125.5 675,-137.5 675,-137.5 675,-143.5 669,-149.5 663,-149.5 663,-149.5 614.75,-149.5 614.75,-149.5 608.75,-149.5 602.75,-143.5 602.75,-137.5 602.75,-137.5 602.75,-125.5 602.75,-125.5 602.75,-119.5 608.75,-113.5 614.75,-113.5"/>
<text text-anchor="middle" x="638.88" y="-127.2" font-family="Times,serif" font-size="14.00">value: 8</text>
</g>
<!-- value7&#45;&gt;value9 -->
<g id="edge8" class="edge">
<title>value7&#45;&gt;value9</title>
<path fill="none" stroke="red" stroke-dasharray="5,2" d="M480.92,-154.53C486.76,-152.95 492.77,-151.45 498.5,-150.25 529.13,-143.83 564.03,-139.14 591.25,-136.05"/>
<polygon fill="red" stroke="red" points="591.34,-139.56 600.9,-134.99 590.58,-132.61 591.34,-139.56"/>
<text text-anchor="middle" x="541.62" y="-153.45" font-family="Times,serif" font-size="14.00">COPY CTOR</text>
</g>
<!-- value4294967289 -->
<g id="node11" class="node">
<title>value4294967289</title>
<path fill="red" stroke="black" d="M614.75,-168.5C614.75,-168.5 663,-168.5 663,-168.5 669,-168.5 675,-174.5 675,-180.5 675,-180.5 675,-192.5 675,-192.5 675,-198.5 669,-204.5 663,-204.5 663,-204.5 614.75,-204.5 614.75,-204.5 608.75,-204.5 602.75,-198.5 602.75,-192.5 602.75,-192.5 602.75,-180.5 602.75,-180.5 602.75,-174.5 608.75,-168.5 614.75,-168.5"/>
<text text-anchor="middle" x="638.88" y="-182.2" font-family="Times,serif" font-size="14.00">value: 0</text>
</g>
<!-- value7&#45;&gt;value4294967289 -->
<g id="edge9" class="edge">
<title>value7&#45;&gt;value4294967289</title>
<path fill="none" stroke="red" stroke-dasharray="5,2" d="M480.68,-169.35C511.79,-172.75 557.33,-177.71 591.39,-181.43"/>
<polygon fill="red" stroke="red" points="590.64,-184.87 600.96,-182.47 591.4,-177.91 590.64,-184.87"/>
<text text-anchor="middle" x="541.62" y="-183.45" font-family="Times,serif" font-size="14.00">DTOR</text>
</g>
<!-- oper0&#45;&gt;value7 -->
<g id="edge7" class="edge">
<title>oper0&#45;&gt;value7</title>
<path fill="none" stroke="#ffb90f" stroke-dasharray="5,2" d="M322.25,-192.6C342.94,-187.97 372.27,-181.41 396.88,-175.9"/>
<polygon fill="#ffb90f" stroke="#ffb90f" points="397.34,-179.39 406.33,-173.79 395.81,-172.56 397.34,-179.39"/>
</g>
<!-- value9&#45;&gt;oper1 -->
<g id="edge11" class="edge">
<title>value9&#45;&gt;oper1</title>
<path fill="none" stroke="darkmagenta" stroke-dasharray="5,2" d="M675.3,-118.98C699.45,-110.44 731.36,-99.16 755.8,-90.52"/>
<polygon fill="darkmagenta" stroke="darkmagenta" points="756.76,-93.89 765.03,-87.26 754.43,-87.29 756.76,-93.89"/>
</g>
<!-- value4294967287 -->
<g id="node17" class="node">
<title>value4294967287</title>
<path fill="red" stroke="black" d="M769.5,-115.5C769.5,-115.5 817.75,-115.5 817.75,-115.5 823.75,-115.5 829.75,-121.5 829.75,-127.5 829.75,-127.5 829.75,-139.5 829.75,-139.5 829.75,-145.5 823.75,-151.5 817.75,-151.5 817.75,-151.5 769.5,-151.5 769.5,-151.5 763.5,-151.5 757.5,-145.5 757.5,-139.5 757.5,-139.5 757.5,-127.5 757.5,-127.5 757.5,-121.5 763.5,-115.5 769.5,-115.5"/>
<text text-anchor="middle" x="793.62" y="-129.2" font-family="Times,serif" font-size="14.00">value: 0</text>
</g>
<!-- value9&#45;&gt;value4294967287 -->
<g id="edge16" class="edge">
<title>value9&#45;&gt;value4294967287</title>
<path fill="none" stroke="red" stroke-dasharray="5,2" d="M675.3,-131.96C696.24,-132.24 723.01,-132.59 745.69,-132.89"/>
<polygon fill="red" stroke="red" points="745.57,-136.38 755.61,-133.02 745.66,-129.38 745.57,-136.38"/>
<text text-anchor="middle" x="714" y="-137.45" font-family="Times,serif" font-size="14.00">DTOR</text>
</g>
<!-- value10 -->
<g id="node12" class="node">
<title>value10</title>
<path fill="red" stroke="black" d="M765,-4.5C765,-4.5 822.25,-4.5 822.25,-4.5 828.25,-4.5 834.25,-10.5 834.25,-16.5 834.25,-16.5 834.25,-28.5 834.25,-28.5 834.25,-34.5 828.25,-40.5 822.25,-40.5 822.25,-40.5 765,-40.5 765,-40.5 759,-40.5 753,-34.5 753,-28.5 753,-28.5 753,-16.5 753,-16.5 753,-10.5 759,-4.5 765,-4.5"/>
<text text-anchor="middle" x="793.62" y="-18.2" font-family="Times,serif" font-size="14.00">value: 10</text>
</g>
<!-- value11 -->
<g id="node13" class="node">
<title>value11</title>
<path fill="red" stroke="black" d="M923.5,-20.5C923.5,-20.5 980.75,-20.5 980.75,-20.5 986.75,-20.5 992.75,-26.5 992.75,-32.5 992.75,-32.5 992.75,-44.5 992.75,-44.5 992.75,-50.5 986.75,-56.5 980.75,-56.5 980.75,-56.5 923.5,-56.5 923.5,-56.5 917.5,-56.5 911.5,-50.5 911.5,-44.5 911.5,-44.5 911.5,-32.5 911.5,-32.5 911.5,-26.5 917.5,-20.5 923.5,-20.5"/>
<text text-anchor="middle" x="952.12" y="-34.2" font-family="Times,serif" font-size="14.00">value: 10</text>
</g>
<!-- value10&#45;&gt;value11 -->
<g id="edge10" class="edge">
<title>value10&#45;&gt;value11</title>
<path fill="none" stroke="red" stroke-dasharray="5,2" d="M834.52,-26.58C854.31,-28.6 878.45,-31.07 899.62,-33.23"/>
<polygon fill="red" stroke="red" points="899.22,-36.71 909.52,-34.25 899.93,-29.75 899.22,-36.71"/>
<text text-anchor="middle" x="872.88" y="-36.45" font-family="Times,serif" font-size="14.00">CTOR</text>
</g>
<!-- value13 -->
<g id="node15" class="node">
<title>value13</title>
<path fill="red" stroke="black" d="M1127,-55.5C1127,-55.5 1184.25,-55.5 1184.25,-55.5 1190.25,-55.5 1196.25,-61.5 1196.25,-67.5 1196.25,-67.5 1196.25,-79.5 1196.25,-79.5 1196.25,-85.5 1190.25,-91.5 1184.25,-91.5 1184.25,-91.5 1127,-91.5 1127,-91.5 1121,-91.5 1115,-85.5 1115,-79.5 1115,-79.5 1115,-67.5 1115,-67.5 1115,-61.5 1121,-55.5 1127,-55.5"/>
<text text-anchor="middle" x="1155.62" y="-69.2" font-family="Times,serif" font-size="14.00">value: 10</text>
</g>
<!-- value11&#45;&gt;value13 -->
<g id="edge14" class="edge">
<title>value11&#45;&gt;value13</title>
<path fill="none" stroke="red" stroke-dasharray="5,2" d="M992.93,-45.41C1024.57,-50.91 1069.04,-58.63 1103.34,-64.59"/>
<polygon fill="red" stroke="red" points="1102.61,-68.02 1113.06,-66.28 1103.81,-61.12 1102.61,-68.02"/>
<text text-anchor="middle" x="1053.88" y="-67.45" font-family="Times,serif" font-size="14.00">COPY CTOR</text>
</g>
<!-- value4294967285 -->
<g id="node16" class="node">
<title>value4294967285</title>
<path fill="red" stroke="black" d="M1131.5,-0.5C1131.5,-0.5 1179.75,-0.5 1179.75,-0.5 1185.75,-0.5 1191.75,-6.5 1191.75,-12.5 1191.75,-12.5 1191.75,-24.5 1191.75,-24.5 1191.75,-30.5 1185.75,-36.5 1179.75,-36.5 1179.75,-36.5 1131.5,-36.5 1131.5,-36.5 1125.5,-36.5 1119.5,-30.5 1119.5,-24.5 1119.5,-24.5 1119.5,-12.5 1119.5,-12.5 1119.5,-6.5 1125.5,-0.5 1131.5,-0.5"/>
<text text-anchor="middle" x="1155.62" y="-14.2" font-family="Times,serif" font-size="14.00">value: 0</text>
</g>
<!-- value11&#45;&gt;value4294967285 -->
<g id="edge15" class="edge">
<title>value11&#45;&gt;value4294967285</title>
<path fill="none" stroke="red" stroke-dasharray="5,2" d="M992.97,-29.19C998.91,-28.05 1004.97,-27.02 1010.75,-26.25 1043.01,-21.98 1079.63,-20.05 1107.85,-19.18"/>
<polygon fill="red" stroke="red" points="1107.59,-22.69 1117.49,-18.92 1107.4,-15.69 1107.59,-22.69"/>
<text text-anchor="middle" x="1053.88" y="-30.45" font-family="Times,serif" font-size="14.00">DTOR</text>
</g>
<!-- oper1&#45;&gt;value11 -->
<g id="edge13" class="edge">
<title>oper1&#45;&gt;value11</title>
<path fill="none" stroke="darkmagenta" stroke-dasharray="5,2" d="M820.82,-70.97C842.37,-65.6 873.55,-57.83 900.01,-51.24"/>
<polygon fill="darkmagenta" stroke="darkmagenta" points="900.69,-54.67 909.55,-48.86 899,-47.88 900.69,-54.67"/>
</g>
<!-- value4294967283 -->
<g id="node18" class="node">
<title>value4294967283</title>
<path fill="red" stroke="black" d="M1286.25,-55.5C1286.25,-55.5 1334.5,-55.5 1334.5,-55.5 1340.5,-55.5 1346.5,-61.5 1346.5,-67.5 1346.5,-67.5 1346.5,-79.5 1346.5,-79.5 1346.5,-85.5 1340.5,-91.5 1334.5,-91.5 1334.5,-91.5 1286.25,-91.5 1286.25,-91.5 1280.25,-91.5 1274.25,-85.5 1274.25,-79.5 1274.25,-79.5 1274.25,-67.5 1274.25,-67.5 1274.25,-61.5 1280.25,-55.5 1286.25,-55.5"/>
<text text-anchor="middle" x="1310.38" y="-69.2" font-family="Times,serif" font-size="14.00">value: 0</text>
</g>
<!-- value13&#45;&gt;value4294967283 -->
<g id="edge17" class="edge">
<title>value13&#45;&gt;value4294967283</title>
<path fill="none" stroke="red" stroke-dasharray="5,2" d="M1196.36,-73.5C1216.57,-73.5 1241.27,-73.5 1262.42,-73.5"/>
<polygon fill="red" stroke="red" points="1262.24,-77 1272.24,-73.5 1262.24,-70 1262.24,-77"/>
<text text-anchor="middle" x="1235.25" y="-77.45" font-family="Times,serif" font-size="14.00">DTOR</text>
</g>
</g>
</svg>
