<?xml version="1.0" encoding="UTF-8" standalone="no"?>
<!DOCTYPE svg PUBLIC "-//W3C//DTD SVG 1.1//EN"
 "http://www.w3.org/Graphics/SVG/1.1/DTD/svg11.dtd">
<!-- Generated by graphviz version 9.0.0 (0)
 -->
<!-- Title: structs Pages: 1 -->
<svg width="1181pt" height="128pt"
 viewBox="0.00 0.00 1181.25 128.00" xmlns="http://www.w3.org/2000/svg" xmlns:xlink="http://www.w3.org/1999/xlink">
<g id="graph0" class="graph" transform="scale(1 1) rotate(0) translate(4 124)">
<title>structs</title>
<polygon fill="white" stroke="none" points="-4,4 -4,-124 1177.25,-124 1177.25,4 -4,4"/>
<!-- value6 -->
<g id="node1" class="node">
<title>value6</title>
<path fill="red" stroke="black" d="M12,-83.5C12,-83.5 107.75,-83.5 107.75,-83.5 113.75,-83.5 119.75,-89.5 119.75,-95.5 119.75,-95.5 119.75,-107.5 119.75,-107.5 119.75,-113.5 113.75,-119.5 107.75,-119.5 107.75,-119.5 12,-119.5 12,-119.5 6,-119.5 0,-113.5 0,-107.5 0,-107.5 0,-95.5 0,-95.5 0,-89.5 6,-83.5 12,-83.5"/>
<text text-anchor="middle" x="23.75" y="-97.2" font-family="Times,serif" font-size="14.00">id: 6</text>
<polyline fill="none" stroke="black" points="47.5,-84.25 47.5,-119.5"/>
<text text-anchor="middle" x="83.62" y="-97.2" font-family="Times,serif" font-size="14.00">value: 7</text>
</g>
<!-- value7 -->
<g id="node2" class="node">
<title>value7</title>
<path fill="red" stroke="black" d="M209,-83.5C209,-83.5 304.75,-83.5 304.75,-83.5 310.75,-83.5 316.75,-89.5 316.75,-95.5 316.75,-95.5 316.75,-107.5 316.75,-107.5 316.75,-113.5 310.75,-119.5 304.75,-119.5 304.75,-119.5 209,-119.5 209,-119.5 203,-119.5 197,-113.5 197,-107.5 197,-107.5 197,-95.5 197,-95.5 197,-89.5 203,-83.5 209,-83.5"/>
<text text-anchor="middle" x="220.75" y="-97.2" font-family="Times,serif" font-size="14.00">id: 7</text>
<polyline fill="none" stroke="black" points="244.5,-84.25 244.5,-119.5"/>
<text text-anchor="middle" x="280.62" y="-97.2" font-family="Times,serif" font-size="14.00">value: 7</text>
</g>
<!-- value6&#45;&gt;value7 -->
<g id="edge1" class="edge">
<title>value6&#45;&gt;value7</title>
<path fill="none" stroke="red" stroke-dasharray="5,2" d="M120.18,-101.5C140.69,-101.5 163.89,-101.5 185.22,-101.5"/>
<polygon fill="red" stroke="red" points="185.01,-105 195.01,-101.5 185.01,-98 185.01,-105"/>
<text text-anchor="middle" x="158.38" y="-105.45" font-family="Times,serif" font-size="14.00">CTOR</text>
</g>
<!-- oper0 -->
<g id="node7" class="node">
<title>oper0</title>
<path fill="blueviolet" stroke="black" d="M407.62,-59.5C407.62,-59.5 437.62,-59.5 437.62,-59.5 443.62,-59.5 449.62,-65.5 449.62,-71.5 449.62,-71.5 449.62,-83.5 449.62,-83.5 449.62,-89.5 443.62,-95.5 437.62,-95.5 437.62,-95.5 407.62,-95.5 407.62,-95.5 401.62,-95.5 395.62,-89.5 395.62,-83.5 395.62,-83.5 395.62,-71.5 395.62,-71.5 395.62,-65.5 401.62,-59.5 407.62,-59.5"/>
<text text-anchor="middle" x="422.62" y="-73.2" font-family="Times,serif" font-size="14.00">+</text>
</g>
<!-- value7&#45;&gt;oper0 -->
<g id="edge4" class="edge">
<title>value7&#45;&gt;oper0</title>
<path fill="none" stroke="blueviolet" stroke-dasharray="5,2" d="M316.99,-92.84C339.4,-89.55 364.28,-85.9 384.16,-82.99"/>
<polygon fill="blueviolet" stroke="blueviolet" points="384.64,-86.46 394.02,-81.55 383.62,-79.53 384.64,-86.46"/>
</g>
<!-- value8 -->
<g id="node3" class="node">
<title>value8</title>
<path fill="red" stroke="black" d="M12,-28.5C12,-28.5 107.75,-28.5 107.75,-28.5 113.75,-28.5 119.75,-34.5 119.75,-40.5 119.75,-40.5 119.75,-52.5 119.75,-52.5 119.75,-58.5 113.75,-64.5 107.75,-64.5 107.75,-64.5 12,-64.5 12,-64.5 6,-64.5 0,-58.5 0,-52.5 0,-52.5 0,-40.5 0,-40.5 0,-34.5 6,-28.5 12,-28.5"/>
<text text-anchor="middle" x="23.75" y="-42.2" font-family="Times,serif" font-size="14.00">id: 8</text>
<polyline fill="none" stroke="black" points="47.5,-29.25 47.5,-64.5"/>
<text text-anchor="middle" x="83.62" y="-42.2" font-family="Times,serif" font-size="14.00">value: 4</text>
</g>
<!-- value9 -->
<g id="node4" class="node">
<title>value9</title>
<path fill="red" stroke="black" d="M209,-28.5C209,-28.5 304.75,-28.5 304.75,-28.5 310.75,-28.5 316.75,-34.5 316.75,-40.5 316.75,-40.5 316.75,-52.5 316.75,-52.5 316.75,-58.5 310.75,-64.5 304.75,-64.5 304.75,-64.5 209,-64.5 209,-64.5 203,-64.5 197,-58.5 197,-52.5 197,-52.5 197,-40.5 197,-40.5 197,-34.5 203,-28.5 209,-28.5"/>
<text text-anchor="middle" x="220.75" y="-42.2" font-family="Times,serif" font-size="14.00">id: 9</text>
<polyline fill="none" stroke="black" points="244.5,-29.25 244.5,-64.5"/>
<text text-anchor="middle" x="280.62" y="-42.2" font-family="Times,serif" font-size="14.00">value: 4</text>
</g>
<!-- value8&#45;&gt;value9 -->
<g id="edge2" class="edge">
<title>value8&#45;&gt;value9</title>
<path fill="none" stroke="red" stroke-dasharray="5,2" d="M120.18,-46.5C140.69,-46.5 163.89,-46.5 185.22,-46.5"/>
<polygon fill="red" stroke="red" points="185.01,-50 195.01,-46.5 185.01,-43 185.01,-50"/>
<text text-anchor="middle" x="158.38" y="-50.45" font-family="Times,serif" font-size="14.00">CTOR</text>
</g>
<!-- value9&#45;&gt;oper0 -->
<g id="edge5" class="edge">
<title>value9&#45;&gt;oper0</title>
<path fill="none" stroke="blueviolet" stroke-dasharray="5,2" d="M316.99,-57.69C339.51,-61.95 364.52,-66.69 384.44,-70.46"/>
<polygon fill="blueviolet" stroke="blueviolet" points="383.56,-73.86 394.03,-72.28 384.86,-66.98 383.56,-73.86"/>
</g>
<!-- value10 -->
<g id="node5" class="node">
<title>value10</title>
<path fill="red" stroke="black" d="M365.75,-4.5C365.75,-4.5 479.5,-4.5 479.5,-4.5 485.5,-4.5 491.5,-10.5 491.5,-16.5 491.5,-16.5 491.5,-28.5 491.5,-28.5 491.5,-34.5 485.5,-40.5 479.5,-40.5 479.5,-40.5 365.75,-40.5 365.75,-40.5 359.75,-40.5 353.75,-34.5 353.75,-28.5 353.75,-28.5 353.75,-16.5 353.75,-16.5 353.75,-10.5 359.75,-4.5 365.75,-4.5"/>
<text text-anchor="middle" x="382" y="-18.2" font-family="Times,serif" font-size="14.00">id: 10</text>
<polyline fill="none" stroke="black" points="410.25,-5.25 410.25,-40.5"/>
<text text-anchor="middle" x="450.88" y="-18.2" font-family="Times,serif" font-size="14.00">value: 11</text>
</g>
<!-- value11 -->
<g id="node6" class="node">
<title>value11</title>
<path fill="red" stroke="black" d="M580.75,-20.5C580.75,-20.5 694.5,-20.5 694.5,-20.5 700.5,-20.5 706.5,-26.5 706.5,-32.5 706.5,-32.5 706.5,-44.5 706.5,-44.5 706.5,-50.5 700.5,-56.5 694.5,-56.5 694.5,-56.5 580.75,-56.5 580.75,-56.5 574.75,-56.5 568.75,-50.5 568.75,-44.5 568.75,-44.5 568.75,-32.5 568.75,-32.5 568.75,-26.5 574.75,-20.5 580.75,-20.5"/>
<text text-anchor="middle" x="597" y="-34.2" font-family="Times,serif" font-size="14.00">id: 11</text>
<polyline fill="none" stroke="black" points="625.25,-21.25 625.25,-56.5"/>
<text text-anchor="middle" x="665.88" y="-34.2" font-family="Times,serif" font-size="14.00">value: 11</text>
</g>
<!-- value10&#45;&gt;value11 -->
<g id="edge3" class="edge">
<title>value10&#45;&gt;value11</title>
<path fill="none" stroke="red" stroke-dasharray="5,2" d="M491.9,-27.63C512.63,-29.19 535.59,-30.91 557,-32.52"/>
<polygon fill="red" stroke="red" points="556.63,-36 566.86,-33.26 557.15,-29.02 556.63,-36"/>
<text text-anchor="middle" x="530.12" y="-35.45" font-family="Times,serif" font-size="14.00">CTOR</text>
</g>
<!-- value13 -->
<g id="node8" class="node">
<title>value13</title>
<path fill="red" stroke="black" d="M840.75,-55.5C840.75,-55.5 954.5,-55.5 954.5,-55.5 960.5,-55.5 966.5,-61.5 966.5,-67.5 966.5,-67.5 966.5,-79.5 966.5,-79.5 966.5,-85.5 960.5,-91.5 954.5,-91.5 954.5,-91.5 840.75,-91.5 840.75,-91.5 834.75,-91.5 828.75,-85.5 828.75,-79.5 828.75,-79.5 828.75,-67.5 828.75,-67.5 828.75,-61.5 834.75,-55.5 840.75,-55.5"/>
<text text-anchor="middle" x="857" y="-69.2" font-family="Times,serif" font-size="14.00">id: 13</text>
<polyline fill="none" stroke="black" points="885.25,-56.25 885.25,-91.5"/>
<text text-anchor="middle" x="925.88" y="-69.2" font-family="Times,serif" font-size="14.00">value: 11</text>
</g>
<!-- value11&#45;&gt;value13 -->
<g id="edge7" class="edge">
<title>value11&#45;&gt;value13</title>
<path fill="none" stroke="red" stroke-dasharray="5,2" d="M706.75,-47.74C740.7,-52.35 781.94,-57.94 817.31,-62.74"/>
<polygon fill="red" stroke="red" points="816.69,-66.19 827.07,-64.06 817.63,-59.25 816.69,-66.19"/>
<text text-anchor="middle" x="767.62" y="-64.45" font-family="Times,serif" font-size="14.00">COPY CTOR</text>
</g>
<!-- value4294967285 -->
<g id="node9" class="node">
<title>value4294967285</title>
<path fill="red" stroke="black" d="M845.25,-0.5C845.25,-0.5 950,-0.5 950,-0.5 956,-0.5 962,-6.5 962,-12.5 962,-12.5 962,-24.5 962,-24.5 962,-30.5 956,-36.5 950,-36.5 950,-36.5 845.25,-36.5 845.25,-36.5 839.25,-36.5 833.25,-30.5 833.25,-24.5 833.25,-24.5 833.25,-12.5 833.25,-12.5 833.25,-6.5 839.25,-0.5 845.25,-0.5"/>
<text text-anchor="middle" x="861.5" y="-14.2" font-family="Times,serif" font-size="14.00">id: 11</text>
<polyline fill="none" stroke="black" points="889.75,-1.25 889.75,-36.5"/>
<text text-anchor="middle" x="925.88" y="-14.2" font-family="Times,serif" font-size="14.00">value: 0</text>
</g>
<!-- value11&#45;&gt;value4294967285 -->
<g id="edge8" class="edge">
<title>value11&#45;&gt;value4294967285</title>
<path fill="none" stroke="red" stroke-dasharray="5,2" d="M706.99,-28.14C712.9,-27.43 718.8,-26.78 724.5,-26.25 756.19,-23.28 791.27,-21.44 821.45,-20.31"/>
<polygon fill="red" stroke="red" points="821.38,-23.81 831.25,-19.96 821.13,-16.82 821.38,-23.81"/>
<text text-anchor="middle" x="767.62" y="-29.45" font-family="Times,serif" font-size="14.00">DTOR</text>
</g>
<!-- oper0&#45;&gt;value11 -->
<g id="edge6" class="edge">
<title>oper0&#45;&gt;value11</title>
<path fill="none" stroke="blueviolet" stroke-dasharray="5,2" d="M449.74,-72.72C476.54,-67.81 519.56,-59.93 557.57,-52.97"/>
<polygon fill="blueviolet" stroke="blueviolet" points="557.97,-56.46 567.17,-51.22 556.71,-49.57 557.97,-56.46"/>
</g>
<!-- value4294967283 -->
<g id="node10" class="node">
<title>value4294967283</title>
<path fill="red" stroke="black" d="M1056.5,-55.5C1056.5,-55.5 1161.25,-55.5 1161.25,-55.5 1167.25,-55.5 1173.25,-61.5 1173.25,-67.5 1173.25,-67.5 1173.25,-79.5 1173.25,-79.5 1173.25,-85.5 1167.25,-91.5 1161.25,-91.5 1161.25,-91.5 1056.5,-91.5 1056.5,-91.5 1050.5,-91.5 1044.5,-85.5 1044.5,-79.5 1044.5,-79.5 1044.5,-67.5 1044.5,-67.5 1044.5,-61.5 1050.5,-55.5 1056.5,-55.5"/>
<text text-anchor="middle" x="1072.75" y="-69.2" font-family="Times,serif" font-size="14.00">id: 13</text>
<polyline fill="none" stroke="black" points="1101,-56.25 1101,-91.5"/>
<text text-anchor="middle" x="1137.12" y="-69.2" font-family="Times,serif" font-size="14.00">value: 0</text>
</g>
<!-- value13&#45;&gt;value4294967283 -->
<g id="edge9" class="edge">
<title>value13&#45;&gt;value4294967283</title>
<path fill="none" stroke="red" stroke-dasharray="5,2" d="M966.85,-73.5C987.88,-73.5 1011.15,-73.5 1032.62,-73.5"/>
<polygon fill="red" stroke="red" points="1032.49,-77 1042.49,-73.5 1032.49,-70 1032.49,-77"/>
<text text-anchor="middle" x="1005.5" y="-77.45" font-family="Times,serif" font-size="14.00">DTOR</text>
</g>
</g>
</svg>
