<?xml version="1.0" encoding="UTF-8" standalone="no"?>
<!DOCTYPE svg PUBLIC "-//W3C//DTD SVG 1.1//EN"
 "http://www.w3.org/Graphics/SVG/1.1/DTD/svg11.dtd">
<!-- Generated by graphviz version 9.0.0 (0)
 -->
<!-- Title: structs Pages: 1 -->
<svg width="1382pt" height="249pt"
 viewBox="0.00 0.00 1381.50 249.00" xmlns="http://www.w3.org/2000/svg" xmlns:xlink="http://www.w3.org/1999/xlink">
<g id="graph0" class="graph" transform="scale(1 1) rotate(0) translate(4 245)">
<title>structs</title>
<polygon fill="white" stroke="none" points="-4,4 -4,-245 1377.5,-245 1377.5,4 -4,4"/>
<!-- value0 -->
<g id="node1" class="node">
<title>value0</title>
<path fill="red" stroke="black" d="M12,-204.5C12,-204.5 60.25,-204.5 60.25,-204.5 66.25,-204.5 72.25,-210.5 72.25,-216.5 72.25,-216.5 72.25,-228.5 72.25,-228.5 72.25,-234.5 66.25,-240.5 60.25,-240.5 60.25,-240.5 12,-240.5 12,-240.5 6,-240.5 0,-234.5 0,-228.5 0,-228.5 0,-216.5 0,-216.5 0,-210.5 6,-204.5 12,-204.5"/>
<text text-anchor="middle" x="36.12" y="-218.2" font-family="Times,serif" font-size="14.00">value: 8</text>
</g>
<!-- value1 -->
<g id="node2" class="node">
<title>value1</title>
<path fill="red" stroke="black" d="M161.5,-204.5C161.5,-204.5 209.75,-204.5 209.75,-204.5 215.75,-204.5 221.75,-210.5 221.75,-216.5 221.75,-216.5 221.75,-228.5 221.75,-228.5 221.75,-234.5 215.75,-240.5 209.75,-240.5 209.75,-240.5 161.5,-240.5 161.5,-240.5 155.5,-240.5 149.5,-234.5 149.5,-228.5 149.5,-228.5 149.5,-216.5 149.5,-216.5 149.5,-210.5 155.5,-204.5 161.5,-204.5"/>
<text text-anchor="middle" x="185.62" y="-218.2" font-family="Times,serif" font-size="14.00">value: 8</text>
</g>
<!-- value0&#45;&gt;value1 -->
<g id="edge1" class="edge">
<title>value0&#45;&gt;value1</title>
<path fill="none" stroke="red" stroke-dasharray="5,2" d="M72.45,-222.5C92.01,-222.5 116.58,-222.5 137.73,-222.5"/>
<polygon fill="red" stroke="red" points="137.56,-226 147.56,-222.5 137.56,-219 137.56,-226"/>
<text text-anchor="middle" x="110.88" y="-226.45" font-family="Times,serif" font-size="14.00">CTOR</text>
</g>
<!-- oper0 -->
<g id="node9" class="node">
<title>oper0</title>
<path fill="#8b4513" stroke="black" d="M284.38,-180.5C284.38,-180.5 314.38,-180.5 314.38,-180.5 320.38,-180.5 326.38,-186.5 326.38,-192.5 326.38,-192.5 326.38,-204.5 326.38,-204.5 326.38,-210.5 320.38,-216.5 314.38,-216.5 314.38,-216.5 284.38,-216.5 284.38,-216.5 278.38,-216.5 272.38,-210.5 272.38,-204.5 272.38,-204.5 272.38,-192.5 272.38,-192.5 272.38,-186.5 278.38,-180.5 284.38,-180.5"/>
<text text-anchor="middle" x="299.38" y="-194.2" font-family="Times,serif" font-size="14.00">+</text>
</g>
<!-- value1&#45;&gt;oper0 -->
<g id="edge5" class="edge">
<title>value1&#45;&gt;oper0</title>
<path fill="none" stroke="#8b4513" stroke-dasharray="5,2" d="M221.98,-214.91C234.42,-212.24 248.43,-209.23 261.02,-206.52"/>
<polygon fill="#8b4513" stroke="#8b4513" points="261.58,-209.98 270.62,-204.46 260.11,-203.14 261.58,-209.98"/>
</g>
<!-- value2 -->
<g id="node3" class="node">
<title>value2</title>
<path fill="red" stroke="black" d="M12,-149.5C12,-149.5 60.25,-149.5 60.25,-149.5 66.25,-149.5 72.25,-155.5 72.25,-161.5 72.25,-161.5 72.25,-173.5 72.25,-173.5 72.25,-179.5 66.25,-185.5 60.25,-185.5 60.25,-185.5 12,-185.5 12,-185.5 6,-185.5 0,-179.5 0,-173.5 0,-173.5 0,-161.5 0,-161.5 0,-155.5 6,-149.5 12,-149.5"/>
<text text-anchor="middle" x="36.12" y="-163.2" font-family="Times,serif" font-size="14.00">value: 8</text>
</g>
<!-- value3 -->
<g id="node4" class="node">
<title>value3</title>
<path fill="red" stroke="black" d="M161.5,-149.5C161.5,-149.5 209.75,-149.5 209.75,-149.5 215.75,-149.5 221.75,-155.5 221.75,-161.5 221.75,-161.5 221.75,-173.5 221.75,-173.5 221.75,-179.5 215.75,-185.5 209.75,-185.5 209.75,-185.5 161.5,-185.5 161.5,-185.5 155.5,-185.5 149.5,-179.5 149.5,-173.5 149.5,-173.5 149.5,-161.5 149.5,-161.5 149.5,-155.5 155.5,-149.5 161.5,-149.5"/>
<text text-anchor="middle" x="185.62" y="-163.2" font-family="Times,serif" font-size="14.00">value: 8</text>
</g>
<!-- value2&#45;&gt;value3 -->
<g id="edge2" class="edge">
<title>value2&#45;&gt;value3</title>
<path fill="none" stroke="red" stroke-dasharray="5,2" d="M72.45,-167.5C92.01,-167.5 116.58,-167.5 137.73,-167.5"/>
<polygon fill="red" stroke="red" points="137.56,-171 147.56,-167.5 137.56,-164 137.56,-171"/>
<text text-anchor="middle" x="110.88" y="-171.45" font-family="Times,serif" font-size="14.00">CTOR</text>
</g>
<!-- value3&#45;&gt;oper0 -->
<g id="edge6" class="edge">
<title>value3&#45;&gt;oper0</title>
<path fill="none" stroke="#8b4513" stroke-dasharray="5,2" d="M221.98,-177.31C234.42,-180.76 248.43,-184.64 261.02,-188.14"/>
<polygon fill="#8b4513" stroke="#8b4513" points="260.07,-191.51 270.65,-190.81 261.95,-184.76 260.07,-191.51"/>
</g>
<!-- value4 -->
<g id="node5" class="node">
<title>value4</title>
<path fill="red" stroke="black" d="M433.75,-57.5C433.75,-57.5 482,-57.5 482,-57.5 488,-57.5 494,-63.5 494,-69.5 494,-69.5 494,-81.5 494,-81.5 494,-87.5 488,-93.5 482,-93.5 482,-93.5 433.75,-93.5 433.75,-93.5 427.75,-93.5 421.75,-87.5 421.75,-81.5 421.75,-81.5 421.75,-69.5 421.75,-69.5 421.75,-63.5 427.75,-57.5 433.75,-57.5"/>
<text text-anchor="middle" x="457.88" y="-71.2" font-family="Times,serif" font-size="14.00">value: 6</text>
</g>
<!-- value5 -->
<g id="node6" class="node">
<title>value5</title>
<path fill="red" stroke="black" d="M637.25,-57.5C637.25,-57.5 685.5,-57.5 685.5,-57.5 691.5,-57.5 697.5,-63.5 697.5,-69.5 697.5,-69.5 697.5,-81.5 697.5,-81.5 697.5,-87.5 691.5,-93.5 685.5,-93.5 685.5,-93.5 637.25,-93.5 637.25,-93.5 631.25,-93.5 625.25,-87.5 625.25,-81.5 625.25,-81.5 625.25,-69.5 625.25,-69.5 625.25,-63.5 631.25,-57.5 637.25,-57.5"/>
<text text-anchor="middle" x="661.38" y="-71.2" font-family="Times,serif" font-size="14.00">value: 6</text>
</g>
<!-- value4&#45;&gt;value5 -->
<g id="edge3" class="edge">
<title>value4&#45;&gt;value5</title>
<path fill="none" stroke="red" stroke-dasharray="5,2" d="M494.44,-75.5C527.57,-75.5 577.19,-75.5 613.53,-75.5"/>
<polygon fill="red" stroke="red" points="613.32,-79 623.32,-75.5 613.32,-72 613.32,-79"/>
<text text-anchor="middle" x="559.62" y="-79.45" font-family="Times,serif" font-size="14.00">CTOR</text>
</g>
<!-- oper1 -->
<g id="node14" class="node">
<title>oper1</title>
<path fill="blue" stroke="black" d="M805.62,-59.5C805.62,-59.5 835.62,-59.5 835.62,-59.5 841.62,-59.5 847.62,-65.5 847.62,-71.5 847.62,-71.5 847.62,-83.5 847.62,-83.5 847.62,-89.5 841.62,-95.5 835.62,-95.5 835.62,-95.5 805.62,-95.5 805.62,-95.5 799.62,-95.5 793.62,-89.5 793.62,-83.5 793.62,-83.5 793.62,-71.5 793.62,-71.5 793.62,-65.5 799.62,-59.5 805.62,-59.5"/>
<text text-anchor="middle" x="820.62" y="-73.2" font-family="Times,serif" font-size="14.00">+</text>
</g>
<!-- value5&#45;&gt;oper1 -->
<g id="edge12" class="edge">
<title>value5&#45;&gt;oper1</title>
<path fill="none" stroke="blue" stroke-dasharray="5,2" d="M697.66,-75.95C722.68,-76.27 756.21,-76.69 781.78,-77.02"/>
<polygon fill="blue" stroke="blue" points="781.7,-80.52 791.75,-77.15 781.79,-73.52 781.7,-80.52"/>
</g>
<!-- value6 -->
<g id="node7" class="node">
<title>value6</title>
<path fill="red" stroke="black" d="M270.75,-125.5C270.75,-125.5 328,-125.5 328,-125.5 334,-125.5 340,-131.5 340,-137.5 340,-137.5 340,-149.5 340,-149.5 340,-155.5 334,-161.5 328,-161.5 328,-161.5 270.75,-161.5 270.75,-161.5 264.75,-161.5 258.75,-155.5 258.75,-149.5 258.75,-149.5 258.75,-137.5 258.75,-137.5 258.75,-131.5 264.75,-125.5 270.75,-125.5"/>
<text text-anchor="middle" x="299.38" y="-139.2" font-family="Times,serif" font-size="14.00">value: 16</text>
</g>
<!-- value7 -->
<g id="node8" class="node">
<title>value7</title>
<path fill="red" stroke="black" d="M429.25,-147.5C429.25,-147.5 486.5,-147.5 486.5,-147.5 492.5,-147.5 498.5,-153.5 498.5,-159.5 498.5,-159.5 498.5,-171.5 498.5,-171.5 498.5,-177.5 492.5,-183.5 486.5,-183.5 486.5,-183.5 429.25,-183.5 429.25,-183.5 423.25,-183.5 417.25,-177.5 417.25,-171.5 417.25,-171.5 417.25,-159.5 417.25,-159.5 417.25,-153.5 423.25,-147.5 429.25,-147.5"/>
<text text-anchor="middle" x="457.88" y="-161.2" font-family="Times,serif" font-size="14.00">value: 16</text>
</g>
<!-- value6&#45;&gt;value7 -->
<g id="edge4" class="edge">
<title>value6&#45;&gt;value7</title>
<path fill="none" stroke="red" stroke-dasharray="5,2" d="M340.38,-147.72C358.4,-149.76 379.93,-152.39 399.25,-155.25 401.4,-155.57 403.59,-155.91 405.8,-156.25"/>
<polygon fill="red" stroke="red" points="405.01,-159.67 415.44,-157.84 406.14,-152.76 405.01,-159.67"/>
<text text-anchor="middle" x="378.62" y="-158.45" font-family="Times,serif" font-size="14.00">CTOR</text>
</g>
<!-- value9 -->
<g id="node10" class="node">
<title>value9</title>
<path fill="red" stroke="black" d="M632.75,-113.5C632.75,-113.5 690,-113.5 690,-113.5 696,-113.5 702,-119.5 702,-125.5 702,-125.5 702,-137.5 702,-137.5 702,-143.5 696,-149.5 690,-149.5 690,-149.5 632.75,-149.5 632.75,-149.5 626.75,-149.5 620.75,-143.5 620.75,-137.5 620.75,-137.5 620.75,-125.5 620.75,-125.5 620.75,-119.5 626.75,-113.5 632.75,-113.5"/>
<text text-anchor="middle" x="661.38" y="-127.2" font-family="Times,serif" font-size="14.00">value: 16</text>
</g>
<!-- value7&#45;&gt;value9 -->
<g id="edge8" class="edge">
<title>value7&#45;&gt;value9</title>
<path fill="none" stroke="red" stroke-dasharray="5,2" d="M498.71,-154.24C504.64,-152.78 510.71,-151.39 516.5,-150.25 546.99,-144.25 581.51,-139.68 609.09,-136.56"/>
<polygon fill="red" stroke="red" points="609.4,-140.04 618.95,-135.47 608.63,-133.09 609.4,-140.04"/>
<text text-anchor="middle" x="559.62" y="-153.45" font-family="Times,serif" font-size="14.00">COPY CTOR</text>
</g>
<!-- value4294967289 -->
<g id="node11" class="node">
<title>value4294967289</title>
<path fill="red" stroke="black" d="M637.25,-168.5C637.25,-168.5 685.5,-168.5 685.5,-168.5 691.5,-168.5 697.5,-174.5 697.5,-180.5 697.5,-180.5 697.5,-192.5 697.5,-192.5 697.5,-198.5 691.5,-204.5 685.5,-204.5 685.5,-204.5 637.25,-204.5 637.25,-204.5 631.25,-204.5 625.25,-198.5 625.25,-192.5 625.25,-192.5 625.25,-180.5 625.25,-180.5 625.25,-174.5 631.25,-168.5 637.25,-168.5"/>
<text text-anchor="middle" x="661.38" y="-182.2" font-family="Times,serif" font-size="14.00">value: 0</text>
</g>
<!-- value7&#45;&gt;value4294967289 -->
<g id="edge9" class="edge">
<title>value7&#45;&gt;value4294967289</title>
<path fill="none" stroke="red" stroke-dasharray="5,2" d="M498.68,-169.65C531.76,-173.1 578.88,-178.01 613.72,-181.64"/>
<polygon fill="red" stroke="red" points="613.22,-185.1 623.52,-182.66 613.94,-178.14 613.22,-185.1"/>
<text text-anchor="middle" x="559.62" y="-183.45" font-family="Times,serif" font-size="14.00">DTOR</text>
</g>
<!-- oper0&#45;&gt;value7 -->
<g id="edge7" class="edge">
<title>oper0&#45;&gt;value7</title>
<path fill="none" stroke="#8b4513" stroke-dasharray="5,2" d="M326.57,-192.98C348.12,-188.43 379.3,-181.86 405.76,-176.28"/>
<polygon fill="#8b4513" stroke="#8b4513" points="406.23,-179.76 415.29,-174.27 404.78,-172.91 406.23,-179.76"/>
</g>
<!-- value9&#45;&gt;oper1 -->
<g id="edge11" class="edge">
<title>value9&#45;&gt;oper1</title>
<path fill="none" stroke="blue" stroke-dasharray="5,2" d="M702.46,-117.73C727.13,-109.26 758.52,-98.48 782.6,-90.22"/>
<polygon fill="blue" stroke="blue" points="783.68,-93.54 792,-86.99 781.4,-86.92 783.68,-93.54"/>
</g>
<!-- value4294967287 -->
<g id="node17" class="node">
<title>value4294967287</title>
<path fill="red" stroke="black" d="M796.5,-115.5C796.5,-115.5 844.75,-115.5 844.75,-115.5 850.75,-115.5 856.75,-121.5 856.75,-127.5 856.75,-127.5 856.75,-139.5 856.75,-139.5 856.75,-145.5 850.75,-151.5 844.75,-151.5 844.75,-151.5 796.5,-151.5 796.5,-151.5 790.5,-151.5 784.5,-145.5 784.5,-139.5 784.5,-139.5 784.5,-127.5 784.5,-127.5 784.5,-121.5 790.5,-115.5 796.5,-115.5"/>
<text text-anchor="middle" x="820.62" y="-129.2" font-family="Times,serif" font-size="14.00">value: 0</text>
</g>
<!-- value9&#45;&gt;value4294967287 -->
<g id="edge16" class="edge">
<title>value9&#45;&gt;value4294967287</title>
<path fill="none" stroke="red" stroke-dasharray="5,2" d="M702.46,-132.01C723.93,-132.28 750.48,-132.62 772.88,-132.91"/>
<polygon fill="red" stroke="red" points="772.61,-136.4 782.65,-133.03 772.7,-129.4 772.61,-136.4"/>
<text text-anchor="middle" x="741" y="-137.45" font-family="Times,serif" font-size="14.00">DTOR</text>
</g>
<!-- value10 -->
<g id="node12" class="node">
<title>value10</title>
<path fill="red" stroke="black" d="M792,-4.5C792,-4.5 849.25,-4.5 849.25,-4.5 855.25,-4.5 861.25,-10.5 861.25,-16.5 861.25,-16.5 861.25,-28.5 861.25,-28.5 861.25,-34.5 855.25,-40.5 849.25,-40.5 849.25,-40.5 792,-40.5 792,-40.5 786,-40.5 780,-34.5 780,-28.5 780,-28.5 780,-16.5 780,-16.5 780,-10.5 786,-4.5 792,-4.5"/>
<text text-anchor="middle" x="820.62" y="-18.2" font-family="Times,serif" font-size="14.00">value: 22</text>
</g>
<!-- value11 -->
<g id="node13" class="node">
<title>value11</title>
<path fill="red" stroke="black" d="M950.5,-20.5C950.5,-20.5 1007.75,-20.5 1007.75,-20.5 1013.75,-20.5 1019.75,-26.5 1019.75,-32.5 1019.75,-32.5 1019.75,-44.5 1019.75,-44.5 1019.75,-50.5 1013.75,-56.5 1007.75,-56.5 1007.75,-56.5 950.5,-56.5 950.5,-56.5 944.5,-56.5 938.5,-50.5 938.5,-44.5 938.5,-44.5 938.5,-32.5 938.5,-32.5 938.5,-26.5 944.5,-20.5 950.5,-20.5"/>
<text text-anchor="middle" x="979.12" y="-34.2" font-family="Times,serif" font-size="14.00">value: 22</text>
</g>
<!-- value10&#45;&gt;value11 -->
<g id="edge10" class="edge">
<title>value10&#45;&gt;value11</title>
<path fill="none" stroke="red" stroke-dasharray="5,2" d="M861.52,-26.58C881.31,-28.6 905.45,-31.07 926.62,-33.23"/>
<polygon fill="red" stroke="red" points="926.22,-36.71 936.52,-34.25 926.93,-29.75 926.22,-36.71"/>
<text text-anchor="middle" x="899.88" y="-36.45" font-family="Times,serif" font-size="14.00">CTOR</text>
</g>
<!-- value13 -->
<g id="node15" class="node">
<title>value13</title>
<path fill="red" stroke="black" d="M1154,-55.5C1154,-55.5 1211.25,-55.5 1211.25,-55.5 1217.25,-55.5 1223.25,-61.5 1223.25,-67.5 1223.25,-67.5 1223.25,-79.5 1223.25,-79.5 1223.25,-85.5 1217.25,-91.5 1211.25,-91.5 1211.25,-91.5 1154,-91.5 1154,-91.5 1148,-91.5 1142,-85.5 1142,-79.5 1142,-79.5 1142,-67.5 1142,-67.5 1142,-61.5 1148,-55.5 1154,-55.5"/>
<text text-anchor="middle" x="1182.62" y="-69.2" font-family="Times,serif" font-size="14.00">value: 22</text>
</g>
<!-- value11&#45;&gt;value13 -->
<g id="edge14" class="edge">
<title>value11&#45;&gt;value13</title>
<path fill="none" stroke="red" stroke-dasharray="5,2" d="M1019.93,-45.41C1051.57,-50.91 1096.04,-58.63 1130.34,-64.59"/>
<polygon fill="red" stroke="red" points="1129.61,-68.02 1140.06,-66.28 1130.81,-61.12 1129.61,-68.02"/>
<text text-anchor="middle" x="1080.88" y="-67.45" font-family="Times,serif" font-size="14.00">COPY CTOR</text>
</g>
<!-- value4294967285 -->
<g id="node16" class="node">
<title>value4294967285</title>
<path fill="red" stroke="black" d="M1158.5,-0.5C1158.5,-0.5 1206.75,-0.5 1206.75,-0.5 1212.75,-0.5 1218.75,-6.5 1218.75,-12.5 1218.75,-12.5 1218.75,-24.5 1218.75,-24.5 1218.75,-30.5 1212.75,-36.5 1206.75,-36.5 1206.75,-36.5 1158.5,-36.5 1158.5,-36.5 1152.5,-36.5 1146.5,-30.5 1146.5,-24.5 1146.5,-24.5 1146.5,-12.5 1146.5,-12.5 1146.5,-6.5 1152.5,-0.5 1158.5,-0.5"/>
<text text-anchor="middle" x="1182.62" y="-14.2" font-family="Times,serif" font-size="14.00">value: 0</text>
</g>
<!-- value11&#45;&gt;value4294967285 -->
<g id="edge15" class="edge">
<title>value11&#45;&gt;value4294967285</title>
<path fill="none" stroke="red" stroke-dasharray="5,2" d="M1019.97,-29.19C1025.91,-28.05 1031.97,-27.02 1037.75,-26.25 1070.01,-21.98 1106.63,-20.05 1134.85,-19.18"/>
<polygon fill="red" stroke="red" points="1134.59,-22.69 1144.49,-18.92 1134.4,-15.69 1134.59,-22.69"/>
<text text-anchor="middle" x="1080.88" y="-30.45" font-family="Times,serif" font-size="14.00">DTOR</text>
</g>
<!-- oper1&#45;&gt;value11 -->
<g id="edge13" class="edge">
<title>oper1&#45;&gt;value11</title>
<path fill="none" stroke="blue" stroke-dasharray="5,2" d="M847.82,-70.97C869.37,-65.6 900.55,-57.83 927.01,-51.24"/>
<polygon fill="blue" stroke="blue" points="927.69,-54.67 936.55,-48.86 926,-47.88 927.69,-54.67"/>
</g>
<!-- value4294967283 -->
<g id="node18" class="node">
<title>value4294967283</title>
<path fill="red" stroke="black" d="M1313.25,-55.5C1313.25,-55.5 1361.5,-55.5 1361.5,-55.5 1367.5,-55.5 1373.5,-61.5 1373.5,-67.5 1373.5,-67.5 1373.5,-79.5 1373.5,-79.5 1373.5,-85.5 1367.5,-91.5 1361.5,-91.5 1361.5,-91.5 1313.25,-91.5 1313.25,-91.5 1307.25,-91.5 1301.25,-85.5 1301.25,-79.5 1301.25,-79.5 1301.25,-67.5 1301.25,-67.5 1301.25,-61.5 1307.25,-55.5 1313.25,-55.5"/>
<text text-anchor="middle" x="1337.38" y="-69.2" font-family="Times,serif" font-size="14.00">value: 0</text>
</g>
<!-- value13&#45;&gt;value4294967283 -->
<g id="edge17" class="edge">
<title>value13&#45;&gt;value4294967283</title>
<path fill="none" stroke="red" stroke-dasharray="5,2" d="M1223.36,-73.5C1243.57,-73.5 1268.27,-73.5 1289.42,-73.5"/>
<polygon fill="red" stroke="red" points="1289.24,-77 1299.24,-73.5 1289.24,-70 1289.24,-77"/>
<text text-anchor="middle" x="1262.25" y="-77.45" font-family="Times,serif" font-size="14.00">DTOR</text>
</g>
</g>
</svg>
