<?xml version="1.0" encoding="UTF-8" standalone="no"?>
<!DOCTYPE svg PUBLIC "-//W3C//DTD SVG 1.1//EN"
 "http://www.w3.org/Graphics/SVG/1.1/DTD/svg11.dtd">
<!-- Generated by graphviz version 9.0.0 (0)
 -->
<!-- Title: structs Pages: 1 -->
<svg width="1964pt" height="249pt"
 viewBox="0.00 0.00 1964.25 249.00" xmlns="http://www.w3.org/2000/svg" xmlns:xlink="http://www.w3.org/1999/xlink">
<g id="graph0" class="graph" transform="scale(1 1) rotate(0) translate(4 245)">
<title>structs</title>
<polygon fill="white" stroke="none" points="-4,4 -4,-245 1960.25,-245 1960.25,4 -4,4"/>
<!-- value0 -->
<g id="node1" class="node">
<title>value0</title>
<path fill="darkgreen" stroke="black" d="M12,-204.5C12,-204.5 131,-204.5 131,-204.5 137,-204.5 143,-210.5 143,-216.5 143,-216.5 143,-228.5 143,-228.5 143,-234.5 137,-240.5 131,-240.5 131,-240.5 12,-240.5 12,-240.5 6,-240.5 0,-234.5 0,-228.5 0,-228.5 0,-216.5 0,-216.5 0,-210.5 6,-204.5 12,-204.5"/>
<text text-anchor="middle" x="36.12" y="-218.2" font-family="Times,serif" font-size="14.00">value: 2</text>
<polyline fill="none" stroke="black" points="72.25,-205.25 72.25,-240.5"/>
<text text-anchor="middle" x="107.62" y="-218.2" font-family="Times,serif" font-size="14.00">temp: 0</text>
</g>
<!-- value1 -->
<g id="node2" class="node">
<title>value1</title>
<path fill="darkgreen" stroke="black" d="M232.25,-204.5C232.25,-204.5 351.25,-204.5 351.25,-204.5 357.25,-204.5 363.25,-210.5 363.25,-216.5 363.25,-216.5 363.25,-228.5 363.25,-228.5 363.25,-234.5 357.25,-240.5 351.25,-240.5 351.25,-240.5 232.25,-240.5 232.25,-240.5 226.25,-240.5 220.25,-234.5 220.25,-228.5 220.25,-228.5 220.25,-216.5 220.25,-216.5 220.25,-210.5 226.25,-204.5 232.25,-204.5"/>
<text text-anchor="middle" x="256.38" y="-218.2" font-family="Times,serif" font-size="14.00">value: 2</text>
<polyline fill="none" stroke="black" points="292.5,-205.25 292.5,-240.5"/>
<text text-anchor="middle" x="327.88" y="-218.2" font-family="Times,serif" font-size="14.00">temp: 0</text>
</g>
<!-- value0&#45;&gt;value1 -->
<g id="edge1" class="edge">
<title>value0&#45;&gt;value1</title>
<path fill="none" stroke="darkgreen" stroke-dasharray="5,2" d="M143.36,-222.5C164.14,-222.5 187.05,-222.5 208.48,-222.5"/>
<polygon fill="darkgreen" stroke="darkgreen" points="208.36,-226 218.36,-222.5 208.36,-219 208.36,-226"/>
<text text-anchor="middle" x="181.62" y="-226.45" font-family="Times,serif" font-size="14.00">CTOR</text>
</g>
<!-- oper0 -->
<g id="node9" class="node">
<title>oper0</title>
<path fill="yellow" stroke="black" d="M456.75,-180.5C456.75,-180.5 486.75,-180.5 486.75,-180.5 492.75,-180.5 498.75,-186.5 498.75,-192.5 498.75,-192.5 498.75,-204.5 498.75,-204.5 498.75,-210.5 492.75,-216.5 486.75,-216.5 486.75,-216.5 456.75,-216.5 456.75,-216.5 450.75,-216.5 444.75,-210.5 444.75,-204.5 444.75,-204.5 444.75,-192.5 444.75,-192.5 444.75,-186.5 450.75,-180.5 456.75,-180.5"/>
<text text-anchor="middle" x="471.75" y="-194.2" font-family="Times,serif" font-size="14.00">+</text>
</g>
<!-- value1&#45;&gt;oper0 -->
<g id="edge5" class="edge">
<title>value1&#45;&gt;oper0</title>
<path fill="none" stroke="yellow" stroke-dasharray="5,2" d="M363.61,-212.95C387.44,-209.73 413.08,-206.28 433.3,-203.55"/>
<polygon fill="yellow" stroke="yellow" points="433.58,-207.04 443.02,-202.24 432.64,-200.11 433.58,-207.04"/>
</g>
<!-- value2 -->
<g id="node3" class="node">
<title>value2</title>
<path fill="darkgreen" stroke="black" d="M12,-149.5C12,-149.5 131,-149.5 131,-149.5 137,-149.5 143,-155.5 143,-161.5 143,-161.5 143,-173.5 143,-173.5 143,-179.5 137,-185.5 131,-185.5 131,-185.5 12,-185.5 12,-185.5 6,-185.5 0,-179.5 0,-173.5 0,-173.5 0,-161.5 0,-161.5 0,-155.5 6,-149.5 12,-149.5"/>
<text text-anchor="middle" x="36.12" y="-163.2" font-family="Times,serif" font-size="14.00">value: 2</text>
<polyline fill="none" stroke="black" points="72.25,-150.25 72.25,-185.5"/>
<text text-anchor="middle" x="107.62" y="-163.2" font-family="Times,serif" font-size="14.00">temp: 0</text>
</g>
<!-- value3 -->
<g id="node4" class="node">
<title>value3</title>
<path fill="darkgreen" stroke="black" d="M232.25,-149.5C232.25,-149.5 351.25,-149.5 351.25,-149.5 357.25,-149.5 363.25,-155.5 363.25,-161.5 363.25,-161.5 363.25,-173.5 363.25,-173.5 363.25,-179.5 357.25,-185.5 351.25,-185.5 351.25,-185.5 232.25,-185.5 232.25,-185.5 226.25,-185.5 220.25,-179.5 220.25,-173.5 220.25,-173.5 220.25,-161.5 220.25,-161.5 220.25,-155.5 226.25,-149.5 232.25,-149.5"/>
<text text-anchor="middle" x="256.38" y="-163.2" font-family="Times,serif" font-size="14.00">value: 2</text>
<polyline fill="none" stroke="black" points="292.5,-150.25 292.5,-185.5"/>
<text text-anchor="middle" x="327.88" y="-163.2" font-family="Times,serif" font-size="14.00">temp: 0</text>
</g>
<!-- value2&#45;&gt;value3 -->
<g id="edge2" class="edge">
<title>value2&#45;&gt;value3</title>
<path fill="none" stroke="darkgreen" stroke-dasharray="5,2" d="M143.36,-167.5C164.14,-167.5 187.05,-167.5 208.48,-167.5"/>
<polygon fill="darkgreen" stroke="darkgreen" points="208.36,-171 218.36,-167.5 208.36,-164 208.36,-171"/>
<text text-anchor="middle" x="181.62" y="-171.45" font-family="Times,serif" font-size="14.00">CTOR</text>
</g>
<!-- value3&#45;&gt;oper0 -->
<g id="edge6" class="edge">
<title>value3&#45;&gt;oper0</title>
<path fill="none" stroke="yellow" stroke-dasharray="5,2" d="M363.61,-179.84C387.44,-183.99 413.08,-188.46 433.3,-191.98"/>
<polygon fill="yellow" stroke="yellow" points="432.58,-195.4 443.03,-193.67 433.78,-188.51 432.58,-195.4"/>
</g>
<!-- value4 -->
<g id="node5" class="node">
<title>value4</title>
<path fill="darkgreen" stroke="black" d="M632.5,-57.5C632.5,-57.5 751.5,-57.5 751.5,-57.5 757.5,-57.5 763.5,-63.5 763.5,-69.5 763.5,-69.5 763.5,-81.5 763.5,-81.5 763.5,-87.5 757.5,-93.5 751.5,-93.5 751.5,-93.5 632.5,-93.5 632.5,-93.5 626.5,-93.5 620.5,-87.5 620.5,-81.5 620.5,-81.5 620.5,-69.5 620.5,-69.5 620.5,-63.5 626.5,-57.5 632.5,-57.5"/>
<text text-anchor="middle" x="656.62" y="-71.2" font-family="Times,serif" font-size="14.00">value: 5</text>
<polyline fill="none" stroke="black" points="692.75,-58.25 692.75,-93.5"/>
<text text-anchor="middle" x="728.12" y="-71.2" font-family="Times,serif" font-size="14.00">temp: 0</text>
</g>
<!-- value5 -->
<g id="node6" class="node">
<title>value5</title>
<path fill="darkgreen" stroke="black" d="M897.75,-57.5C897.75,-57.5 1016.75,-57.5 1016.75,-57.5 1022.75,-57.5 1028.75,-63.5 1028.75,-69.5 1028.75,-69.5 1028.75,-81.5 1028.75,-81.5 1028.75,-87.5 1022.75,-93.5 1016.75,-93.5 1016.75,-93.5 897.75,-93.5 897.75,-93.5 891.75,-93.5 885.75,-87.5 885.75,-81.5 885.75,-81.5 885.75,-69.5 885.75,-69.5 885.75,-63.5 891.75,-57.5 897.75,-57.5"/>
<text text-anchor="middle" x="921.88" y="-71.2" font-family="Times,serif" font-size="14.00">value: 5</text>
<polyline fill="none" stroke="black" points="958,-58.25 958,-93.5"/>
<text text-anchor="middle" x="993.38" y="-71.2" font-family="Times,serif" font-size="14.00">temp: 0</text>
</g>
<!-- value4&#45;&gt;value5 -->
<g id="edge3" class="edge">
<title>value4&#45;&gt;value5</title>
<path fill="none" stroke="darkgreen" stroke-dasharray="5,2" d="M763.89,-75.5C797.97,-75.5 839.01,-75.5 874.41,-75.5"/>
<polygon fill="darkgreen" stroke="darkgreen" points="874.17,-79 884.17,-75.5 874.17,-72 874.17,-79"/>
<text text-anchor="middle" x="824.62" y="-79.45" font-family="Times,serif" font-size="14.00">CTOR</text>
</g>
<!-- oper1 -->
<g id="node14" class="node">
<title>oper1</title>
<path fill="darkmagenta" stroke="black" d="M1163.25,-59.5C1163.25,-59.5 1193.25,-59.5 1193.25,-59.5 1199.25,-59.5 1205.25,-65.5 1205.25,-71.5 1205.25,-71.5 1205.25,-83.5 1205.25,-83.5 1205.25,-89.5 1199.25,-95.5 1193.25,-95.5 1193.25,-95.5 1163.25,-95.5 1163.25,-95.5 1157.25,-95.5 1151.25,-89.5 1151.25,-83.5 1151.25,-83.5 1151.25,-71.5 1151.25,-71.5 1151.25,-65.5 1157.25,-59.5 1163.25,-59.5"/>
<text text-anchor="middle" x="1178.25" y="-73.2" font-family="Times,serif" font-size="14.00">+</text>
</g>
<!-- value5&#45;&gt;oper1 -->
<g id="edge12" class="edge">
<title>value5&#45;&gt;oper1</title>
<path fill="none" stroke="darkmagenta" stroke-dasharray="5,2" d="M1029.05,-76.15C1065.79,-76.48 1109.2,-76.88 1139.5,-77.16"/>
<polygon fill="darkmagenta" stroke="darkmagenta" points="1139.29,-80.65 1149.32,-77.24 1139.35,-73.65 1139.29,-80.65"/>
</g>
<!-- value6 -->
<g id="node7" class="node">
<title>value6</title>
<path fill="darkgreen" stroke="black" d="M412.25,-125.5C412.25,-125.5 531.25,-125.5 531.25,-125.5 537.25,-125.5 543.25,-131.5 543.25,-137.5 543.25,-137.5 543.25,-149.5 543.25,-149.5 543.25,-155.5 537.25,-161.5 531.25,-161.5 531.25,-161.5 412.25,-161.5 412.25,-161.5 406.25,-161.5 400.25,-155.5 400.25,-149.5 400.25,-149.5 400.25,-137.5 400.25,-137.5 400.25,-131.5 406.25,-125.5 412.25,-125.5"/>
<text text-anchor="middle" x="436.38" y="-139.2" font-family="Times,serif" font-size="14.00">value: 4</text>
<polyline fill="none" stroke="black" points="472.5,-126.25 472.5,-161.5"/>
<text text-anchor="middle" x="507.88" y="-139.2" font-family="Times,serif" font-size="14.00">temp: 0</text>
</g>
<!-- value7 -->
<g id="node8" class="node">
<title>value7</title>
<path fill="darkgreen" stroke="black" d="M632.5,-147.5C632.5,-147.5 751.5,-147.5 751.5,-147.5 757.5,-147.5 763.5,-153.5 763.5,-159.5 763.5,-159.5 763.5,-171.5 763.5,-171.5 763.5,-177.5 757.5,-183.5 751.5,-183.5 751.5,-183.5 632.5,-183.5 632.5,-183.5 626.5,-183.5 620.5,-177.5 620.5,-171.5 620.5,-171.5 620.5,-159.5 620.5,-159.5 620.5,-153.5 626.5,-147.5 632.5,-147.5"/>
<text text-anchor="middle" x="656.62" y="-161.2" font-family="Times,serif" font-size="14.00">value: 4</text>
<polyline fill="none" stroke="black" points="692.75,-148.25 692.75,-183.5"/>
<text text-anchor="middle" x="728.12" y="-161.2" font-family="Times,serif" font-size="14.00">temp: 0</text>
</g>
<!-- value6&#45;&gt;value7 -->
<g id="edge4" class="edge">
<title>value6&#45;&gt;value7</title>
<path fill="none" stroke="darkgreen" stroke-dasharray="5,2" d="M543.49,-149.58C562.65,-151.32 583.38,-153.28 602.5,-155.25 604.55,-155.46 606.62,-155.68 608.71,-155.9"/>
<polygon fill="darkgreen" stroke="darkgreen" points="608.19,-159.36 618.51,-156.96 608.94,-152.4 608.19,-159.36"/>
<text text-anchor="middle" x="581.88" y="-158.45" font-family="Times,serif" font-size="14.00">CTOR</text>
</g>
<!-- value9 -->
<g id="node10" class="node">
<title>value9</title>
<path fill="red" stroke="black" d="M897.75,-113.5C897.75,-113.5 1016.75,-113.5 1016.75,-113.5 1022.75,-113.5 1028.75,-119.5 1028.75,-125.5 1028.75,-125.5 1028.75,-137.5 1028.75,-137.5 1028.75,-143.5 1022.75,-149.5 1016.75,-149.5 1016.75,-149.5 897.75,-149.5 897.75,-149.5 891.75,-149.5 885.75,-143.5 885.75,-137.5 885.75,-137.5 885.75,-125.5 885.75,-125.5 885.75,-119.5 891.75,-113.5 897.75,-113.5"/>
<text text-anchor="middle" x="921.88" y="-127.2" font-family="Times,serif" font-size="14.00">value: 4</text>
<polyline fill="none" stroke="black" points="958,-114.25 958,-149.5"/>
<text text-anchor="middle" x="993.38" y="-127.2" font-family="Times,serif" font-size="14.00">temp: 1</text>
</g>
<!-- value7&#45;&gt;value9 -->
<g id="edge8" class="edge">
<title>value7&#45;&gt;value9</title>
<path fill="none" stroke="darkgreen" stroke-dasharray="5,2" d="M763.96,-153.77C769.89,-152.88 775.8,-152.03 781.5,-151.25 811.68,-147.12 844.87,-143.21 874.15,-139.97"/>
<polygon fill="darkgreen" stroke="darkgreen" points="874.52,-143.45 884.08,-138.89 873.76,-136.49 874.52,-143.45"/>
<text text-anchor="middle" x="824.62" y="-154.45" font-family="Times,serif" font-size="14.00">COPY CTOR</text>
</g>
<!-- value4294967289 -->
<g id="node11" class="node">
<title>value4294967289</title>
<path fill="darkgreen" stroke="black" d="M897.75,-168.5C897.75,-168.5 1016.75,-168.5 1016.75,-168.5 1022.75,-168.5 1028.75,-174.5 1028.75,-180.5 1028.75,-180.5 1028.75,-192.5 1028.75,-192.5 1028.75,-198.5 1022.75,-204.5 1016.75,-204.5 1016.75,-204.5 897.75,-204.5 897.75,-204.5 891.75,-204.5 885.75,-198.5 885.75,-192.5 885.75,-192.5 885.75,-180.5 885.75,-180.5 885.75,-174.5 891.75,-168.5 897.75,-168.5"/>
<text text-anchor="middle" x="921.88" y="-182.2" font-family="Times,serif" font-size="14.00">value: 0</text>
<polyline fill="none" stroke="black" points="958,-169.25 958,-204.5"/>
<text text-anchor="middle" x="993.38" y="-182.2" font-family="Times,serif" font-size="14.00">temp: 0</text>
</g>
<!-- value7&#45;&gt;value4294967289 -->
<g id="edge9" class="edge">
<title>value7&#45;&gt;value4294967289</title>
<path fill="none" stroke="darkgreen" stroke-dasharray="5,2" d="M763.89,-171.16C797.97,-173.87 839.01,-177.15 874.41,-179.97"/>
<polygon fill="darkgreen" stroke="darkgreen" points="873.93,-183.44 884.18,-180.75 874.49,-176.47 873.93,-183.44"/>
<text text-anchor="middle" x="824.62" y="-182.45" font-family="Times,serif" font-size="14.00">DTOR</text>
</g>
<!-- oper0&#45;&gt;value7 -->
<g id="edge7" class="edge">
<title>oper0&#45;&gt;value7</title>
<path fill="none" stroke="yellow" stroke-dasharray="5,2" d="M499.08,-194.52C526.21,-190.42 569.93,-183.81 608.79,-177.93"/>
<polygon fill="yellow" stroke="yellow" points="609.27,-181.4 618.63,-176.44 608.22,-174.48 609.27,-181.4"/>
</g>
<!-- value9&#45;&gt;oper1 -->
<g id="edge11" class="edge">
<title>value9&#45;&gt;oper1</title>
<path fill="none" stroke="darkmagenta" stroke-dasharray="5,2" d="M1029.05,-114.04C1065.95,-104.94 1109.58,-94.19 1139.9,-86.71"/>
<polygon fill="darkmagenta" stroke="darkmagenta" points="1140.49,-90.17 1149.36,-84.38 1138.82,-83.37 1140.49,-90.17"/>
</g>
<!-- value4294967287 -->
<g id="node17" class="node">
<title>value4294967287</title>
<path fill="red" stroke="black" d="M1118.75,-115.5C1118.75,-115.5 1237.75,-115.5 1237.75,-115.5 1243.75,-115.5 1249.75,-121.5 1249.75,-127.5 1249.75,-127.5 1249.75,-139.5 1249.75,-139.5 1249.75,-145.5 1243.75,-151.5 1237.75,-151.5 1237.75,-151.5 1118.75,-151.5 1118.75,-151.5 1112.75,-151.5 1106.75,-145.5 1106.75,-139.5 1106.75,-139.5 1106.75,-127.5 1106.75,-127.5 1106.75,-121.5 1112.75,-115.5 1118.75,-115.5"/>
<text text-anchor="middle" x="1142.88" y="-129.2" font-family="Times,serif" font-size="14.00">value: 0</text>
<polyline fill="none" stroke="black" points="1179,-116.25 1179,-151.5"/>
<text text-anchor="middle" x="1214.38" y="-129.2" font-family="Times,serif" font-size="14.00">temp: 1</text>
</g>
<!-- value9&#45;&gt;value4294967287 -->
<g id="edge16" class="edge">
<title>value9&#45;&gt;value4294967287</title>
<path fill="none" stroke="darkgreen" stroke-dasharray="5,2" d="M1029.05,-132.15C1050.02,-132.34 1073.17,-132.55 1094.82,-132.75"/>
<polygon fill="darkgreen" stroke="darkgreen" points="1094.77,-136.25 1104.8,-132.84 1094.84,-129.25 1094.77,-136.25"/>
<text text-anchor="middle" x="1067.75" y="-137.45" font-family="Times,serif" font-size="14.00">DTOR</text>
</g>
<!-- value10 -->
<g id="node12" class="node">
<title>value10</title>
<path fill="darkgreen" stroke="black" d="M1118.75,-4.5C1118.75,-4.5 1237.75,-4.5 1237.75,-4.5 1243.75,-4.5 1249.75,-10.5 1249.75,-16.5 1249.75,-16.5 1249.75,-28.5 1249.75,-28.5 1249.75,-34.5 1243.75,-40.5 1237.75,-40.5 1237.75,-40.5 1118.75,-40.5 1118.75,-40.5 1112.75,-40.5 1106.75,-34.5 1106.75,-28.5 1106.75,-28.5 1106.75,-16.5 1106.75,-16.5 1106.75,-10.5 1112.75,-4.5 1118.75,-4.5"/>
<text text-anchor="middle" x="1142.88" y="-18.2" font-family="Times,serif" font-size="14.00">value: 9</text>
<polyline fill="none" stroke="black" points="1179,-5.25 1179,-40.5"/>
<text text-anchor="middle" x="1214.38" y="-18.2" font-family="Times,serif" font-size="14.00">temp: 0</text>
</g>
<!-- value11 -->
<g id="node13" class="node">
<title>value11</title>
<path fill="darkgreen" stroke="black" d="M1339,-20.5C1339,-20.5 1458,-20.5 1458,-20.5 1464,-20.5 1470,-26.5 1470,-32.5 1470,-32.5 1470,-44.5 1470,-44.5 1470,-50.5 1464,-56.5 1458,-56.5 1458,-56.5 1339,-56.5 1339,-56.5 1333,-56.5 1327,-50.5 1327,-44.5 1327,-44.5 1327,-32.5 1327,-32.5 1327,-26.5 1333,-20.5 1339,-20.5"/>
<text text-anchor="middle" x="1363.12" y="-34.2" font-family="Times,serif" font-size="14.00">value: 9</text>
<polyline fill="none" stroke="black" points="1399.25,-21.25 1399.25,-56.5"/>
<text text-anchor="middle" x="1434.62" y="-34.2" font-family="Times,serif" font-size="14.00">temp: 0</text>
</g>
<!-- value10&#45;&gt;value11 -->
<g id="edge10" class="edge">
<title>value10&#45;&gt;value11</title>
<path fill="none" stroke="darkgreen" stroke-dasharray="5,2" d="M1250.11,-27.69C1270.89,-29.22 1293.8,-30.9 1315.23,-32.47"/>
<polygon fill="darkgreen" stroke="darkgreen" points="1314.88,-35.95 1325.11,-33.19 1315.4,-28.97 1314.88,-35.95"/>
<text text-anchor="middle" x="1288.38" y="-36.45" font-family="Times,serif" font-size="14.00">CTOR</text>
</g>
<!-- value13 -->
<g id="node15" class="node">
<title>value13</title>
<path fill="red" stroke="black" d="M1604.25,-55.5C1604.25,-55.5 1723.25,-55.5 1723.25,-55.5 1729.25,-55.5 1735.25,-61.5 1735.25,-67.5 1735.25,-67.5 1735.25,-79.5 1735.25,-79.5 1735.25,-85.5 1729.25,-91.5 1723.25,-91.5 1723.25,-91.5 1604.25,-91.5 1604.25,-91.5 1598.25,-91.5 1592.25,-85.5 1592.25,-79.5 1592.25,-79.5 1592.25,-67.5 1592.25,-67.5 1592.25,-61.5 1598.25,-55.5 1604.25,-55.5"/>
<text text-anchor="middle" x="1628.38" y="-69.2" font-family="Times,serif" font-size="14.00">value: 9</text>
<polyline fill="none" stroke="black" points="1664.5,-56.25 1664.5,-91.5"/>
<text text-anchor="middle" x="1699.88" y="-69.2" font-family="Times,serif" font-size="14.00">temp: 1</text>
</g>
<!-- value11&#45;&gt;value13 -->
<g id="edge14" class="edge">
<title>value11&#45;&gt;value13</title>
<path fill="none" stroke="darkgreen" stroke-dasharray="5,2" d="M1470.39,-47.93C1504.47,-52.46 1545.51,-57.91 1580.91,-62.62"/>
<polygon fill="darkgreen" stroke="darkgreen" points="1580.31,-66.07 1590.69,-63.92 1581.24,-59.13 1580.31,-66.07"/>
<text text-anchor="middle" x="1531.12" y="-65.45" font-family="Times,serif" font-size="14.00">COPY CTOR</text>
</g>
<!-- value4294967285 -->
<g id="node16" class="node">
<title>value4294967285</title>
<path fill="darkgreen" stroke="black" d="M1604.25,-0.5C1604.25,-0.5 1723.25,-0.5 1723.25,-0.5 1729.25,-0.5 1735.25,-6.5 1735.25,-12.5 1735.25,-12.5 1735.25,-24.5 1735.25,-24.5 1735.25,-30.5 1729.25,-36.5 1723.25,-36.5 1723.25,-36.5 1604.25,-36.5 1604.25,-36.5 1598.25,-36.5 1592.25,-30.5 1592.25,-24.5 1592.25,-24.5 1592.25,-12.5 1592.25,-12.5 1592.25,-6.5 1598.25,-0.5 1604.25,-0.5"/>
<text text-anchor="middle" x="1628.38" y="-14.2" font-family="Times,serif" font-size="14.00">value: 0</text>
<polyline fill="none" stroke="black" points="1664.5,-1.25 1664.5,-36.5"/>
<text text-anchor="middle" x="1699.88" y="-14.2" font-family="Times,serif" font-size="14.00">temp: 0</text>
</g>
<!-- value11&#45;&gt;value4294967285 -->
<g id="edge15" class="edge">
<title>value11&#45;&gt;value4294967285</title>
<path fill="none" stroke="darkgreen" stroke-dasharray="5,2" d="M1470.44,-28.09C1476.37,-27.4 1482.28,-26.77 1488,-26.25 1518.17,-23.5 1551.36,-21.72 1580.64,-20.56"/>
<polygon fill="darkgreen" stroke="darkgreen" points="1580.7,-24.06 1590.56,-20.19 1580.44,-17.07 1580.7,-24.06"/>
<text text-anchor="middle" x="1531.12" y="-30.45" font-family="Times,serif" font-size="14.00">DTOR</text>
</g>
<!-- oper1&#45;&gt;value11 -->
<g id="edge13" class="edge">
<title>oper1&#45;&gt;value11</title>
<path fill="none" stroke="darkmagenta" stroke-dasharray="5,2" d="M1205.58,-72.8C1232.77,-67.94 1276.62,-60.1 1315.54,-53.15"/>
<polygon fill="darkmagenta" stroke="darkmagenta" points="1315.91,-56.63 1325.14,-51.43 1314.68,-49.74 1315.91,-56.63"/>
</g>
<!-- value4294967283 -->
<g id="node18" class="node">
<title>value4294967283</title>
<path fill="red" stroke="black" d="M1825.25,-55.5C1825.25,-55.5 1944.25,-55.5 1944.25,-55.5 1950.25,-55.5 1956.25,-61.5 1956.25,-67.5 1956.25,-67.5 1956.25,-79.5 1956.25,-79.5 1956.25,-85.5 1950.25,-91.5 1944.25,-91.5 1944.25,-91.5 1825.25,-91.5 1825.25,-91.5 1819.25,-91.5 1813.25,-85.5 1813.25,-79.5 1813.25,-79.5 1813.25,-67.5 1813.25,-67.5 1813.25,-61.5 1819.25,-55.5 1825.25,-55.5"/>
<text text-anchor="middle" x="1849.38" y="-69.2" font-family="Times,serif" font-size="14.00">value: 0</text>
<polyline fill="none" stroke="black" points="1885.5,-56.25 1885.5,-91.5"/>
<text text-anchor="middle" x="1920.88" y="-69.2" font-family="Times,serif" font-size="14.00">temp: 1</text>
</g>
<!-- value13&#45;&gt;value4294967283 -->
<g id="edge17" class="edge">
<title>value13&#45;&gt;value4294967283</title>
<path fill="none" stroke="darkgreen" stroke-dasharray="5,2" d="M1735.55,-73.5C1756.52,-73.5 1779.67,-73.5 1801.32,-73.5"/>
<polygon fill="darkgreen" stroke="darkgreen" points="1801.3,-77 1811.3,-73.5 1801.3,-70 1801.3,-77"/>
<text text-anchor="middle" x="1774.25" y="-77.45" font-family="Times,serif" font-size="14.00">DTOR</text>
</g>
</g>
</svg>
