<?xml version="1.0" encoding="UTF-8" standalone="no"?>
<!DOCTYPE svg PUBLIC "-//W3C//DTD SVG 1.1//EN"
 "http://www.w3.org/Graphics/SVG/1.1/DTD/svg11.dtd">
<!-- Generated by graphviz version 9.0.0 (0)
 -->
<!-- Title: structs Pages: 1 -->
<svg width="1716pt" height="297pt"
 viewBox="0.00 0.00 1716.00 297.00" xmlns="http://www.w3.org/2000/svg" xmlns:xlink="http://www.w3.org/1999/xlink">
<g id="graph0" class="graph" transform="scale(1 1) rotate(0) translate(4 293)">
<title>structs</title>
<polygon fill="white" stroke="none" points="-4,4 -4,-293 1712,-293 1712,4 -4,4"/>
<!-- label42 -->
<g id="node1" class="node">
<title>label42</title>
<path fill="red" stroke="black" d="M12,-147.5C12,-147.5 116.75,-147.5 116.75,-147.5 122.75,-147.5 128.75,-153.5 128.75,-159.5 128.75,-159.5 128.75,-171.5 128.75,-171.5 128.75,-177.5 122.75,-183.5 116.75,-183.5 116.75,-183.5 12,-183.5 12,-183.5 6,-183.5 0,-177.5 0,-171.5 0,-171.5 0,-159.5 0,-159.5 0,-153.5 6,-147.5 12,-147.5"/>
<text text-anchor="middle" x="28.25" y="-161.2" font-family="Times,serif" font-size="14.00">id: 42</text>
<polyline fill="none" stroke="black" points="56.5,-148.25 56.5,-183.5"/>
<text text-anchor="middle" x="92.62" y="-161.2" font-family="Times,serif" font-size="14.00">value: 1</text>
</g>
<!-- label43 -->
<g id="node2" class="node">
<title>label43</title>
<path fill="red" stroke="black" d="M218,-147.5C218,-147.5 322.75,-147.5 322.75,-147.5 328.75,-147.5 334.75,-153.5 334.75,-159.5 334.75,-159.5 334.75,-171.5 334.75,-171.5 334.75,-177.5 328.75,-183.5 322.75,-183.5 322.75,-183.5 218,-183.5 218,-183.5 212,-183.5 206,-177.5 206,-171.5 206,-171.5 206,-159.5 206,-159.5 206,-153.5 212,-147.5 218,-147.5"/>
<text text-anchor="middle" x="234.25" y="-161.2" font-family="Times,serif" font-size="14.00">id: 43</text>
<polyline fill="none" stroke="black" points="262.5,-148.25 262.5,-183.5"/>
<text text-anchor="middle" x="298.62" y="-161.2" font-family="Times,serif" font-size="14.00">value: 1</text>
</g>
<!-- label42&#45;&gt;label43 -->
<g id="edge1" class="edge">
<title>label42&#45;&gt;label43</title>
<path fill="none" stroke="black" stroke-dasharray="5,2" d="M129.08,-165.5C153.52,-165.5 181.38,-165.5 205.8,-165.5"/>
<text text-anchor="middle" x="167.38" y="-169.45" font-family="Times,serif" font-size="14.00">CTOR</text>
</g>
<!-- label53 -->
<g id="node9" class="node">
<title>label53</title>
<path fill="red" stroke="black" d="M469,-147.5C469,-147.5 573.75,-147.5 573.75,-147.5 579.75,-147.5 585.75,-153.5 585.75,-159.5 585.75,-159.5 585.75,-171.5 585.75,-171.5 585.75,-177.5 579.75,-183.5 573.75,-183.5 573.75,-183.5 469,-183.5 469,-183.5 463,-183.5 457,-177.5 457,-171.5 457,-171.5 457,-159.5 457,-159.5 457,-153.5 463,-147.5 469,-147.5"/>
<text text-anchor="middle" x="485.25" y="-161.2" font-family="Times,serif" font-size="14.00">id: 53</text>
<polyline fill="none" stroke="black" points="513.5,-148.25 513.5,-183.5"/>
<text text-anchor="middle" x="549.62" y="-161.2" font-family="Times,serif" font-size="14.00">value: 1</text>
</g>
<!-- label43&#45;&gt;label53 -->
<g id="edge6" class="edge">
<title>label43&#45;&gt;label53</title>
<path fill="none" stroke="black" stroke-dasharray="5,2" d="M335.18,-165.5C372.5,-165.5 419.45,-165.5 456.74,-165.5"/>
<text text-anchor="middle" x="395.88" y="-169.45" font-family="Times,serif" font-size="14.00">COPY CTOR</text>
</g>
<!-- label44 -->
<g id="node3" class="node">
<title>label44</title>
<path fill="red" stroke="black" d="M12,-13.5C12,-13.5 116.75,-13.5 116.75,-13.5 122.75,-13.5 128.75,-19.5 128.75,-25.5 128.75,-25.5 128.75,-37.5 128.75,-37.5 128.75,-43.5 122.75,-49.5 116.75,-49.5 116.75,-49.5 12,-49.5 12,-49.5 6,-49.5 0,-43.5 0,-37.5 0,-37.5 0,-25.5 0,-25.5 0,-19.5 6,-13.5 12,-13.5"/>
<text text-anchor="middle" x="28.25" y="-27.2" font-family="Times,serif" font-size="14.00">id: 44</text>
<polyline fill="none" stroke="black" points="56.5,-14.25 56.5,-49.5"/>
<text text-anchor="middle" x="92.62" y="-27.2" font-family="Times,serif" font-size="14.00">value: 5</text>
</g>
<!-- label45 -->
<g id="node4" class="node">
<title>label45</title>
<path fill="red" stroke="black" d="M218,-13.5C218,-13.5 322.75,-13.5 322.75,-13.5 328.75,-13.5 334.75,-19.5 334.75,-25.5 334.75,-25.5 334.75,-37.5 334.75,-37.5 334.75,-43.5 328.75,-49.5 322.75,-49.5 322.75,-49.5 218,-49.5 218,-49.5 212,-49.5 206,-43.5 206,-37.5 206,-37.5 206,-25.5 206,-25.5 206,-19.5 212,-13.5 218,-13.5"/>
<text text-anchor="middle" x="234.25" y="-27.2" font-family="Times,serif" font-size="14.00">id: 45</text>
<polyline fill="none" stroke="black" points="262.5,-14.25 262.5,-49.5"/>
<text text-anchor="middle" x="298.62" y="-27.2" font-family="Times,serif" font-size="14.00">value: 5</text>
</g>
<!-- label44&#45;&gt;label45 -->
<g id="edge2" class="edge">
<title>label44&#45;&gt;label45</title>
<path fill="none" stroke="black" stroke-dasharray="5,2" d="M129.08,-31.5C153.52,-31.5 181.38,-31.5 205.8,-31.5"/>
<text text-anchor="middle" x="167.38" y="-35.45" font-family="Times,serif" font-size="14.00">CTOR</text>
</g>
<!-- label51 -->
<g id="node8" class="node">
<title>label51</title>
<path fill="red" stroke="black" d="M469,-13.5C469,-13.5 573.75,-13.5 573.75,-13.5 579.75,-13.5 585.75,-19.5 585.75,-25.5 585.75,-25.5 585.75,-37.5 585.75,-37.5 585.75,-43.5 579.75,-49.5 573.75,-49.5 573.75,-49.5 469,-49.5 469,-49.5 463,-49.5 457,-43.5 457,-37.5 457,-37.5 457,-25.5 457,-25.5 457,-19.5 463,-13.5 469,-13.5"/>
<text text-anchor="middle" x="485.25" y="-27.2" font-family="Times,serif" font-size="14.00">id: 51</text>
<polyline fill="none" stroke="black" points="513.5,-14.25 513.5,-49.5"/>
<text text-anchor="middle" x="549.62" y="-27.2" font-family="Times,serif" font-size="14.00">value: 5</text>
</g>
<!-- label45&#45;&gt;label51 -->
<g id="edge5" class="edge">
<title>label45&#45;&gt;label51</title>
<path fill="none" stroke="black" stroke-dasharray="5,2" d="M335.18,-31.5C372.5,-31.5 419.45,-31.5 456.74,-31.5"/>
<text text-anchor="middle" x="395.88" y="-35.45" font-family="Times,serif" font-size="14.00">COPY CTOR</text>
</g>
<!-- label46 -->
<g id="node5" class="node">
<title>label46</title>
<path fill="red" stroke="black" d="M469,-242.5C469,-242.5 573.75,-242.5 573.75,-242.5 579.75,-242.5 585.75,-248.5 585.75,-254.5 585.75,-254.5 585.75,-266.5 585.75,-266.5 585.75,-272.5 579.75,-278.5 573.75,-278.5 573.75,-278.5 469,-278.5 469,-278.5 463,-278.5 457,-272.5 457,-266.5 457,-266.5 457,-254.5 457,-254.5 457,-248.5 463,-242.5 469,-242.5"/>
<text text-anchor="middle" x="485.25" y="-256.2" font-family="Times,serif" font-size="14.00">id: 46</text>
<polyline fill="none" stroke="black" points="513.5,-243.25 513.5,-278.5"/>
<text text-anchor="middle" x="549.62" y="-256.2" font-family="Times,serif" font-size="14.00">value: 0</text>
</g>
<!-- label47 -->
<g id="node6" class="node">
<title>label47</title>
<path fill="red" stroke="black" d="M675.75,-242.5C675.75,-242.5 780.5,-242.5 780.5,-242.5 786.5,-242.5 792.5,-248.5 792.5,-254.5 792.5,-254.5 792.5,-266.5 792.5,-266.5 792.5,-272.5 786.5,-278.5 780.5,-278.5 780.5,-278.5 675.75,-278.5 675.75,-278.5 669.75,-278.5 663.75,-272.5 663.75,-266.5 663.75,-266.5 663.75,-254.5 663.75,-254.5 663.75,-248.5 669.75,-242.5 675.75,-242.5"/>
<text text-anchor="middle" x="692" y="-256.2" font-family="Times,serif" font-size="14.00">id: 47</text>
<polyline fill="none" stroke="black" points="720.25,-243.25 720.25,-278.5"/>
<text text-anchor="middle" x="756.38" y="-256.2" font-family="Times,serif" font-size="14.00">value: 0</text>
</g>
<!-- label46&#45;&gt;label47 -->
<g id="edge3" class="edge">
<title>label46&#45;&gt;label47</title>
<path fill="none" stroke="black" stroke-dasharray="5,2" d="M586.04,-260.5C610.69,-260.5 638.85,-260.5 663.5,-260.5"/>
<text text-anchor="middle" x="624.75" y="-264.45" font-family="Times,serif" font-size="14.00">CTOR</text>
</g>
<!-- label49 -->
<g id="node7" class="node">
<title>label49</title>
<path fill="red" stroke="black" d="M926.75,-242.5C926.75,-242.5 1031.5,-242.5 1031.5,-242.5 1037.5,-242.5 1043.5,-248.5 1043.5,-254.5 1043.5,-254.5 1043.5,-266.5 1043.5,-266.5 1043.5,-272.5 1037.5,-278.5 1031.5,-278.5 1031.5,-278.5 926.75,-278.5 926.75,-278.5 920.75,-278.5 914.75,-272.5 914.75,-266.5 914.75,-266.5 914.75,-254.5 914.75,-254.5 914.75,-248.5 920.75,-242.5 926.75,-242.5"/>
<text text-anchor="middle" x="943" y="-256.2" font-family="Times,serif" font-size="14.00">id: 49</text>
<polyline fill="none" stroke="black" points="971.25,-243.25 971.25,-278.5"/>
<text text-anchor="middle" x="1007.38" y="-256.2" font-family="Times,serif" font-size="14.00">value: 0</text>
</g>
<!-- label47&#45;&gt;label49 -->
<g id="edge4" class="edge">
<title>label47&#45;&gt;label49</title>
<path fill="none" stroke="black" stroke-dasharray="5,2" d="M792.93,-260.5C830.25,-260.5 877.2,-260.5 914.49,-260.5"/>
<text text-anchor="middle" x="853.62" y="-264.45" font-family="Times,serif" font-size="14.00">COPY CTOR</text>
</g>
<!-- label59 -->
<g id="node15" class="node">
<title>label59</title>
<path fill="red" stroke="black" d="M1133.5,-172.5C1133.5,-172.5 1238.25,-172.5 1238.25,-172.5 1244.25,-172.5 1250.25,-178.5 1250.25,-184.5 1250.25,-184.5 1250.25,-196.5 1250.25,-196.5 1250.25,-202.5 1244.25,-208.5 1238.25,-208.5 1238.25,-208.5 1133.5,-208.5 1133.5,-208.5 1127.5,-208.5 1121.5,-202.5 1121.5,-196.5 1121.5,-196.5 1121.5,-184.5 1121.5,-184.5 1121.5,-178.5 1127.5,-172.5 1133.5,-172.5"/>
<text text-anchor="middle" x="1149.75" y="-186.2" font-family="Times,serif" font-size="14.00">id: 59</text>
<polyline fill="none" stroke="black" points="1178,-173.25 1178,-208.5"/>
<text text-anchor="middle" x="1214.12" y="-186.2" font-family="Times,serif" font-size="14.00">value: 6</text>
</g>
<!-- label49&#45;&gt;label59 -->
<g id="edge14" class="edge">
<title>label49&#45;&gt;label59</title>
<path fill="none" stroke="black" stroke-dasharray="5,2" d="M1034.19,-242.02C1064.05,-231.81 1101.02,-219.17 1130.86,-208.97"/>
<text text-anchor="middle" x="1082.5" y="-235.45" font-family="Times,serif" font-size="14.00">+</text>
</g>
<!-- label4294967247 -->
<g id="node22" class="node">
<title>label4294967247</title>
<path fill="red" stroke="black" d="M1133.5,-252.5C1133.5,-252.5 1238.25,-252.5 1238.25,-252.5 1244.25,-252.5 1250.25,-258.5 1250.25,-264.5 1250.25,-264.5 1250.25,-276.5 1250.25,-276.5 1250.25,-282.5 1244.25,-288.5 1238.25,-288.5 1238.25,-288.5 1133.5,-288.5 1133.5,-288.5 1127.5,-288.5 1121.5,-282.5 1121.5,-276.5 1121.5,-276.5 1121.5,-264.5 1121.5,-264.5 1121.5,-258.5 1127.5,-252.5 1133.5,-252.5"/>
<text text-anchor="middle" x="1149.75" y="-266.2" font-family="Times,serif" font-size="14.00">id: 49</text>
<polyline fill="none" stroke="black" points="1178,-253.25 1178,-288.5"/>
<text text-anchor="middle" x="1214.12" y="-266.2" font-family="Times,serif" font-size="14.00">value: 0</text>
</g>
<!-- label49&#45;&gt;label4294967247 -->
<g id="edge21" class="edge">
<title>label49&#45;&gt;label4294967247</title>
<path fill="none" stroke="black" stroke-dasharray="5,2" d="M1043.79,-263.61C1068.44,-264.81 1096.6,-266.19 1121.25,-267.39"/>
<text text-anchor="middle" x="1082.5" y="-269.45" font-family="Times,serif" font-size="14.00">DTOR</text>
</g>
<!-- label55 -->
<g id="node11" class="node">
<title>label55</title>
<path fill="red" stroke="black" d="M675.75,-80.5C675.75,-80.5 780.5,-80.5 780.5,-80.5 786.5,-80.5 792.5,-86.5 792.5,-92.5 792.5,-92.5 792.5,-104.5 792.5,-104.5 792.5,-110.5 786.5,-116.5 780.5,-116.5 780.5,-116.5 675.75,-116.5 675.75,-116.5 669.75,-116.5 663.75,-110.5 663.75,-104.5 663.75,-104.5 663.75,-92.5 663.75,-92.5 663.75,-86.5 669.75,-80.5 675.75,-80.5"/>
<text text-anchor="middle" x="692" y="-94.2" font-family="Times,serif" font-size="14.00">id: 55</text>
<polyline fill="none" stroke="black" points="720.25,-81.25 720.25,-116.5"/>
<text text-anchor="middle" x="756.38" y="-94.2" font-family="Times,serif" font-size="14.00">value: 6</text>
</g>
<!-- label51&#45;&gt;label55 -->
<g id="edge9" class="edge">
<title>label51&#45;&gt;label55</title>
<path fill="none" stroke="black" stroke-dasharray="5,2" d="M578.87,-49.99C607.51,-59.36 642.2,-70.71 670.82,-80.07"/>
<text text-anchor="middle" x="624.75" y="-75.45" font-family="Times,serif" font-size="14.00">+</text>
</g>
<!-- label4294967245 -->
<g id="node21" class="node">
<title>label4294967245</title>
<path fill="red" stroke="black" d="M675.75,-0.5C675.75,-0.5 780.5,-0.5 780.5,-0.5 786.5,-0.5 792.5,-6.5 792.5,-12.5 792.5,-12.5 792.5,-24.5 792.5,-24.5 792.5,-30.5 786.5,-36.5 780.5,-36.5 780.5,-36.5 675.75,-36.5 675.75,-36.5 669.75,-36.5 663.75,-30.5 663.75,-24.5 663.75,-24.5 663.75,-12.5 663.75,-12.5 663.75,-6.5 669.75,-0.5 675.75,-0.5"/>
<text text-anchor="middle" x="692" y="-14.2" font-family="Times,serif" font-size="14.00">id: 51</text>
<polyline fill="none" stroke="black" points="720.25,-1.25 720.25,-36.5"/>
<text text-anchor="middle" x="756.38" y="-14.2" font-family="Times,serif" font-size="14.00">value: 0</text>
</g>
<!-- label51&#45;&gt;label4294967245 -->
<g id="edge20" class="edge">
<title>label51&#45;&gt;label4294967245</title>
<path fill="none" stroke="black" stroke-dasharray="5,2" d="M586.24,-21C592.15,-20.3 598.05,-19.69 603.75,-19.25 623.08,-17.74 644.16,-17.21 663.34,-17.15"/>
<text text-anchor="middle" x="624.75" y="-23.45" font-family="Times,serif" font-size="14.00">DTOR</text>
</g>
<!-- label53&#45;&gt;label55 -->
<g id="edge8" class="edge">
<title>label53&#45;&gt;label55</title>
<path fill="none" stroke="black" stroke-dasharray="5,2" d="M578.87,-147.01C607.51,-137.64 642.2,-126.29 670.82,-116.93"/>
<text text-anchor="middle" x="624.75" y="-141.45" font-family="Times,serif" font-size="14.00">+</text>
</g>
<!-- label4294967243 -->
<g id="node20" class="node">
<title>label4294967243</title>
<path fill="red" stroke="black" d="M675.75,-160.5C675.75,-160.5 780.5,-160.5 780.5,-160.5 786.5,-160.5 792.5,-166.5 792.5,-172.5 792.5,-172.5 792.5,-184.5 792.5,-184.5 792.5,-190.5 786.5,-196.5 780.5,-196.5 780.5,-196.5 675.75,-196.5 675.75,-196.5 669.75,-196.5 663.75,-190.5 663.75,-184.5 663.75,-184.5 663.75,-172.5 663.75,-172.5 663.75,-166.5 669.75,-160.5 675.75,-160.5"/>
<text text-anchor="middle" x="692" y="-174.2" font-family="Times,serif" font-size="14.00">id: 53</text>
<polyline fill="none" stroke="black" points="720.25,-161.25 720.25,-196.5"/>
<text text-anchor="middle" x="756.38" y="-174.2" font-family="Times,serif" font-size="14.00">value: 0</text>
</g>
<!-- label53&#45;&gt;label4294967243 -->
<g id="edge19" class="edge">
<title>label53&#45;&gt;label4294967243</title>
<path fill="none" stroke="black" stroke-dasharray="5,2" d="M586.04,-169.54C610.69,-171.11 638.85,-172.9 663.5,-174.46"/>
<text text-anchor="middle" x="624.75" y="-176.45" font-family="Times,serif" font-size="14.00">DTOR</text>
</g>
<!-- label54 -->
<g id="node10" class="node">
<title>label54</title>
<path fill="red" stroke="black" d="M469,-80.5C469,-80.5 573.75,-80.5 573.75,-80.5 579.75,-80.5 585.75,-86.5 585.75,-92.5 585.75,-92.5 585.75,-104.5 585.75,-104.5 585.75,-110.5 579.75,-116.5 573.75,-116.5 573.75,-116.5 469,-116.5 469,-116.5 463,-116.5 457,-110.5 457,-104.5 457,-104.5 457,-92.5 457,-92.5 457,-86.5 463,-80.5 469,-80.5"/>
<text text-anchor="middle" x="485.25" y="-94.2" font-family="Times,serif" font-size="14.00">id: 54</text>
<polyline fill="none" stroke="black" points="513.5,-81.25 513.5,-116.5"/>
<text text-anchor="middle" x="549.62" y="-94.2" font-family="Times,serif" font-size="14.00">value: 6</text>
</g>
<!-- label54&#45;&gt;label55 -->
<g id="edge7" class="edge">
<title>label54&#45;&gt;label55</title>
<path fill="none" stroke="black" stroke-dasharray="5,2" d="M586.04,-98.5C610.69,-98.5 638.85,-98.5 663.5,-98.5"/>
<text text-anchor="middle" x="624.75" y="-102.45" font-family="Times,serif" font-size="14.00">CTOR</text>
</g>
<!-- label57 -->
<g id="node12" class="node">
<title>label57</title>
<path fill="red" stroke="black" d="M926.75,-62.5C926.75,-62.5 1031.5,-62.5 1031.5,-62.5 1037.5,-62.5 1043.5,-68.5 1043.5,-74.5 1043.5,-74.5 1043.5,-86.5 1043.5,-86.5 1043.5,-92.5 1037.5,-98.5 1031.5,-98.5 1031.5,-98.5 926.75,-98.5 926.75,-98.5 920.75,-98.5 914.75,-92.5 914.75,-86.5 914.75,-86.5 914.75,-74.5 914.75,-74.5 914.75,-68.5 920.75,-62.5 926.75,-62.5"/>
<text text-anchor="middle" x="943" y="-76.2" font-family="Times,serif" font-size="14.00">id: 57</text>
<polyline fill="none" stroke="black" points="971.25,-63.25 971.25,-98.5"/>
<text text-anchor="middle" x="1007.38" y="-76.2" font-family="Times,serif" font-size="14.00">value: 6</text>
</g>
<!-- label55&#45;&gt;label57 -->
<g id="edge10" class="edge">
<title>label55&#45;&gt;label57</title>
<path fill="none" stroke="black" stroke-dasharray="5,2" d="M792.93,-93.89C830.25,-91.19 877.2,-87.8 914.49,-85.1"/>
<text text-anchor="middle" x="853.62" y="-95.45" font-family="Times,serif" font-size="14.00">COPY CTOR</text>
</g>
<!-- label4294967241 -->
<g id="node13" class="node">
<title>label4294967241</title>
<path fill="red" stroke="black" d="M926.75,-117.5C926.75,-117.5 1031.5,-117.5 1031.5,-117.5 1037.5,-117.5 1043.5,-123.5 1043.5,-129.5 1043.5,-129.5 1043.5,-141.5 1043.5,-141.5 1043.5,-147.5 1037.5,-153.5 1031.5,-153.5 1031.5,-153.5 926.75,-153.5 926.75,-153.5 920.75,-153.5 914.75,-147.5 914.75,-141.5 914.75,-141.5 914.75,-129.5 914.75,-129.5 914.75,-123.5 920.75,-117.5 926.75,-117.5"/>
<text text-anchor="middle" x="943" y="-131.2" font-family="Times,serif" font-size="14.00">id: 55</text>
<polyline fill="none" stroke="black" points="971.25,-118.25 971.25,-153.5"/>
<text text-anchor="middle" x="1007.38" y="-131.2" font-family="Times,serif" font-size="14.00">value: 0</text>
</g>
<!-- label55&#45;&gt;label4294967241 -->
<g id="edge11" class="edge">
<title>label55&#45;&gt;label4294967241</title>
<path fill="none" stroke="black" stroke-dasharray="5,2" d="M792.62,-109.64C798.66,-110.63 804.69,-111.6 810.5,-112.5 844.75,-117.8 883.05,-123.1 914.37,-127.27"/>
<text text-anchor="middle" x="853.62" y="-127.45" font-family="Times,serif" font-size="14.00">DTOR</text>
</g>
<!-- label57&#45;&gt;label59 -->
<g id="edge13" class="edge">
<title>label57&#45;&gt;label59</title>
<path fill="none" stroke="black" stroke-dasharray="5,2" d="M1023.38,-98.85C1030.17,-101.95 1037.07,-105.23 1043.5,-108.5 1083.07,-128.64 1127.1,-154.8 1155.34,-172.1"/>
<text text-anchor="middle" x="1082.5" y="-144.45" font-family="Times,serif" font-size="14.00">+</text>
</g>
<!-- label4294967239 -->
<g id="node18" class="node">
<title>label4294967239</title>
<path fill="red" stroke="black" d="M1133.5,-62.5C1133.5,-62.5 1238.25,-62.5 1238.25,-62.5 1244.25,-62.5 1250.25,-68.5 1250.25,-74.5 1250.25,-74.5 1250.25,-86.5 1250.25,-86.5 1250.25,-92.5 1244.25,-98.5 1238.25,-98.5 1238.25,-98.5 1133.5,-98.5 1133.5,-98.5 1127.5,-98.5 1121.5,-92.5 1121.5,-86.5 1121.5,-86.5 1121.5,-74.5 1121.5,-74.5 1121.5,-68.5 1127.5,-62.5 1133.5,-62.5"/>
<text text-anchor="middle" x="1149.75" y="-76.2" font-family="Times,serif" font-size="14.00">id: 57</text>
<polyline fill="none" stroke="black" points="1178,-63.25 1178,-98.5"/>
<text text-anchor="middle" x="1214.12" y="-76.2" font-family="Times,serif" font-size="14.00">value: 0</text>
</g>
<!-- label57&#45;&gt;label4294967239 -->
<g id="edge17" class="edge">
<title>label57&#45;&gt;label4294967239</title>
<path fill="none" stroke="black" stroke-dasharray="5,2" d="M1043.79,-80.5C1068.44,-80.5 1096.6,-80.5 1121.25,-80.5"/>
<text text-anchor="middle" x="1082.5" y="-84.45" font-family="Times,serif" font-size="14.00">DTOR</text>
</g>
<!-- label58 -->
<g id="node14" class="node">
<title>label58</title>
<path fill="red" stroke="black" d="M926.75,-172.5C926.75,-172.5 1031.5,-172.5 1031.5,-172.5 1037.5,-172.5 1043.5,-178.5 1043.5,-184.5 1043.5,-184.5 1043.5,-196.5 1043.5,-196.5 1043.5,-202.5 1037.5,-208.5 1031.5,-208.5 1031.5,-208.5 926.75,-208.5 926.75,-208.5 920.75,-208.5 914.75,-202.5 914.75,-196.5 914.75,-196.5 914.75,-184.5 914.75,-184.5 914.75,-178.5 920.75,-172.5 926.75,-172.5"/>
<text text-anchor="middle" x="943" y="-186.2" font-family="Times,serif" font-size="14.00">id: 58</text>
<polyline fill="none" stroke="black" points="971.25,-173.25 971.25,-208.5"/>
<text text-anchor="middle" x="1007.38" y="-186.2" font-family="Times,serif" font-size="14.00">value: 6</text>
</g>
<!-- label58&#45;&gt;label59 -->
<g id="edge12" class="edge">
<title>label58&#45;&gt;label59</title>
<path fill="none" stroke="black" stroke-dasharray="5,2" d="M1043.79,-190.5C1068.44,-190.5 1096.6,-190.5 1121.25,-190.5"/>
<text text-anchor="middle" x="1082.5" y="-194.45" font-family="Times,serif" font-size="14.00">CTOR</text>
</g>
<!-- label61 -->
<g id="node16" class="node">
<title>label61</title>
<path fill="red" stroke="black" d="M1384.5,-203.5C1384.5,-203.5 1489.25,-203.5 1489.25,-203.5 1495.25,-203.5 1501.25,-209.5 1501.25,-215.5 1501.25,-215.5 1501.25,-227.5 1501.25,-227.5 1501.25,-233.5 1495.25,-239.5 1489.25,-239.5 1489.25,-239.5 1384.5,-239.5 1384.5,-239.5 1378.5,-239.5 1372.5,-233.5 1372.5,-227.5 1372.5,-227.5 1372.5,-215.5 1372.5,-215.5 1372.5,-209.5 1378.5,-203.5 1384.5,-203.5"/>
<text text-anchor="middle" x="1400.75" y="-217.2" font-family="Times,serif" font-size="14.00">id: 61</text>
<polyline fill="none" stroke="black" points="1429,-204.25 1429,-239.5"/>
<text text-anchor="middle" x="1465.12" y="-217.2" font-family="Times,serif" font-size="14.00">value: 6</text>
</g>
<!-- label59&#45;&gt;label61 -->
<g id="edge15" class="edge">
<title>label59&#45;&gt;label61</title>
<path fill="none" stroke="black" stroke-dasharray="5,2" d="M1250.68,-198.44C1288,-203.09 1334.95,-208.93 1372.24,-213.58"/>
<text text-anchor="middle" x="1311.38" y="-214.45" font-family="Times,serif" font-size="14.00">COPY CTOR</text>
</g>
<!-- label4294967237 -->
<g id="node17" class="node">
<title>label4294967237</title>
<path fill="red" stroke="black" d="M1384.5,-148.5C1384.5,-148.5 1489.25,-148.5 1489.25,-148.5 1495.25,-148.5 1501.25,-154.5 1501.25,-160.5 1501.25,-160.5 1501.25,-172.5 1501.25,-172.5 1501.25,-178.5 1495.25,-184.5 1489.25,-184.5 1489.25,-184.5 1384.5,-184.5 1384.5,-184.5 1378.5,-184.5 1372.5,-178.5 1372.5,-172.5 1372.5,-172.5 1372.5,-160.5 1372.5,-160.5 1372.5,-154.5 1378.5,-148.5 1384.5,-148.5"/>
<text text-anchor="middle" x="1400.75" y="-162.2" font-family="Times,serif" font-size="14.00">id: 59</text>
<polyline fill="none" stroke="black" points="1429,-149.25 1429,-184.5"/>
<text text-anchor="middle" x="1465.12" y="-162.2" font-family="Times,serif" font-size="14.00">value: 0</text>
</g>
<!-- label59&#45;&gt;label4294967237 -->
<g id="edge16" class="edge">
<title>label59&#45;&gt;label4294967237</title>
<path fill="none" stroke="black" stroke-dasharray="5,2" d="M1250.69,-176.81C1256.61,-175.83 1262.53,-174.95 1268.25,-174.25 1302.37,-170.08 1340.65,-168.11 1372.01,-167.19"/>
<text text-anchor="middle" x="1311.38" y="-177.45" font-family="Times,serif" font-size="14.00">DTOR</text>
</g>
<!-- label4294967235 -->
<g id="node19" class="node">
<title>label4294967235</title>
<path fill="red" stroke="black" d="M1591.25,-203.5C1591.25,-203.5 1696,-203.5 1696,-203.5 1702,-203.5 1708,-209.5 1708,-215.5 1708,-215.5 1708,-227.5 1708,-227.5 1708,-233.5 1702,-239.5 1696,-239.5 1696,-239.5 1591.25,-239.5 1591.25,-239.5 1585.25,-239.5 1579.25,-233.5 1579.25,-227.5 1579.25,-227.5 1579.25,-215.5 1579.25,-215.5 1579.25,-209.5 1585.25,-203.5 1591.25,-203.5"/>
<text text-anchor="middle" x="1607.5" y="-217.2" font-family="Times,serif" font-size="14.00">id: 61</text>
<polyline fill="none" stroke="black" points="1635.75,-204.25 1635.75,-239.5"/>
<text text-anchor="middle" x="1671.88" y="-217.2" font-family="Times,serif" font-size="14.00">value: 0</text>
</g>
<!-- label61&#45;&gt;label4294967235 -->
<g id="edge18" class="edge">
<title>label61&#45;&gt;label4294967235</title>
<path fill="none" stroke="black" stroke-dasharray="5,2" d="M1501.54,-221.5C1526.19,-221.5 1554.35,-221.5 1579,-221.5"/>
<text text-anchor="middle" x="1540.25" y="-225.45" font-family="Times,serif" font-size="14.00">DTOR</text>
</g>
</g>
</svg>
