<?xml version="1.0" encoding="UTF-8" standalone="no"?>
<!DOCTYPE svg PUBLIC "-//W3C//DTD SVG 1.1//EN"
 "http://www.w3.org/Graphics/SVG/1.1/DTD/svg11.dtd">
<!-- Generated by graphviz version 9.0.0 (0)
 -->
<!-- Title: structs Pages: 1 -->
<svg width="1890pt" height="249pt"
 viewBox="0.00 0.00 1890.00 249.00" xmlns="http://www.w3.org/2000/svg" xmlns:xlink="http://www.w3.org/1999/xlink">
<g id="graph0" class="graph" transform="scale(1 1) rotate(0) translate(4 245)">
<title>structs</title>
<polygon fill="white" stroke="none" points="-4,4 -4,-245 1886,-245 1886,4 -4,4"/>
<!-- value26 -->
<g id="node1" class="node">
<title>value26</title>
<path fill="red" stroke="black" d="M12,-204.5C12,-204.5 116.75,-204.5 116.75,-204.5 122.75,-204.5 128.75,-210.5 128.75,-216.5 128.75,-216.5 128.75,-228.5 128.75,-228.5 128.75,-234.5 122.75,-240.5 116.75,-240.5 116.75,-240.5 12,-240.5 12,-240.5 6,-240.5 0,-234.5 0,-228.5 0,-228.5 0,-216.5 0,-216.5 0,-210.5 6,-204.5 12,-204.5"/>
<text text-anchor="middle" x="28.25" y="-218.2" font-family="Times,serif" font-size="14.00">id: 26</text>
<polyline fill="none" stroke="black" points="56.5,-205.25 56.5,-240.5"/>
<text text-anchor="middle" x="92.62" y="-218.2" font-family="Times,serif" font-size="14.00">value: 5</text>
</g>
<!-- value27 -->
<g id="node2" class="node">
<title>value27</title>
<path fill="red" stroke="black" d="M218,-204.5C218,-204.5 322.75,-204.5 322.75,-204.5 328.75,-204.5 334.75,-210.5 334.75,-216.5 334.75,-216.5 334.75,-228.5 334.75,-228.5 334.75,-234.5 328.75,-240.5 322.75,-240.5 322.75,-240.5 218,-240.5 218,-240.5 212,-240.5 206,-234.5 206,-228.5 206,-228.5 206,-216.5 206,-216.5 206,-210.5 212,-204.5 218,-204.5"/>
<text text-anchor="middle" x="234.25" y="-218.2" font-family="Times,serif" font-size="14.00">id: 27</text>
<polyline fill="none" stroke="black" points="262.5,-205.25 262.5,-240.5"/>
<text text-anchor="middle" x="298.62" y="-218.2" font-family="Times,serif" font-size="14.00">value: 5</text>
</g>
<!-- value26&#45;&gt;value27 -->
<g id="edge1" class="edge">
<title>value26&#45;&gt;value27</title>
<path fill="none" stroke="red" stroke-dasharray="5,2" d="M129.08,-222.5C149.79,-222.5 172.97,-222.5 194.42,-222.5"/>
<polygon fill="red" stroke="red" points="194.29,-226 204.29,-222.5 194.29,-219 194.29,-226"/>
<text text-anchor="middle" x="167.38" y="-226.45" font-family="Times,serif" font-size="14.00">CTOR</text>
</g>
<!-- oper2 -->
<g id="node9" class="node">
<title>oper2</title>
<path fill="darkmagenta" stroke="black" d="M425.62,-180.5C425.62,-180.5 455.62,-180.5 455.62,-180.5 461.62,-180.5 467.62,-186.5 467.62,-192.5 467.62,-192.5 467.62,-204.5 467.62,-204.5 467.62,-210.5 461.62,-216.5 455.62,-216.5 455.62,-216.5 425.62,-216.5 425.62,-216.5 419.62,-216.5 413.62,-210.5 413.62,-204.5 413.62,-204.5 413.62,-192.5 413.62,-192.5 413.62,-186.5 419.62,-180.5 425.62,-180.5"/>
<text text-anchor="middle" x="440.62" y="-194.2" font-family="Times,serif" font-size="14.00">+</text>
</g>
<!-- value27&#45;&gt;oper2 -->
<g id="edge5" class="edge">
<title>value27&#45;&gt;oper2</title>
<path fill="none" stroke="darkmagenta" stroke-dasharray="5,2" d="M334.98,-213.43C357.59,-210.2 382.31,-206.68 402.04,-203.86"/>
<polygon fill="darkmagenta" stroke="darkmagenta" points="402.41,-207.34 411.82,-202.47 401.43,-200.41 402.41,-207.34"/>
</g>
<!-- value28 -->
<g id="node3" class="node">
<title>value28</title>
<path fill="red" stroke="black" d="M12,-149.5C12,-149.5 116.75,-149.5 116.75,-149.5 122.75,-149.5 128.75,-155.5 128.75,-161.5 128.75,-161.5 128.75,-173.5 128.75,-173.5 128.75,-179.5 122.75,-185.5 116.75,-185.5 116.75,-185.5 12,-185.5 12,-185.5 6,-185.5 0,-179.5 0,-173.5 0,-173.5 0,-161.5 0,-161.5 0,-155.5 6,-149.5 12,-149.5"/>
<text text-anchor="middle" x="28.25" y="-163.2" font-family="Times,serif" font-size="14.00">id: 28</text>
<polyline fill="none" stroke="black" points="56.5,-150.25 56.5,-185.5"/>
<text text-anchor="middle" x="92.62" y="-163.2" font-family="Times,serif" font-size="14.00">value: 7</text>
</g>
<!-- value29 -->
<g id="node4" class="node">
<title>value29</title>
<path fill="red" stroke="black" d="M218,-149.5C218,-149.5 322.75,-149.5 322.75,-149.5 328.75,-149.5 334.75,-155.5 334.75,-161.5 334.75,-161.5 334.75,-173.5 334.75,-173.5 334.75,-179.5 328.75,-185.5 322.75,-185.5 322.75,-185.5 218,-185.5 218,-185.5 212,-185.5 206,-179.5 206,-173.5 206,-173.5 206,-161.5 206,-161.5 206,-155.5 212,-149.5 218,-149.5"/>
<text text-anchor="middle" x="234.25" y="-163.2" font-family="Times,serif" font-size="14.00">id: 29</text>
<polyline fill="none" stroke="black" points="262.5,-150.25 262.5,-185.5"/>
<text text-anchor="middle" x="298.62" y="-163.2" font-family="Times,serif" font-size="14.00">value: 7</text>
</g>
<!-- value28&#45;&gt;value29 -->
<g id="edge2" class="edge">
<title>value28&#45;&gt;value29</title>
<path fill="none" stroke="red" stroke-dasharray="5,2" d="M129.08,-167.5C149.79,-167.5 172.97,-167.5 194.42,-167.5"/>
<polygon fill="red" stroke="red" points="194.29,-171 204.29,-167.5 194.29,-164 194.29,-171"/>
<text text-anchor="middle" x="167.38" y="-171.45" font-family="Times,serif" font-size="14.00">CTOR</text>
</g>
<!-- value29&#45;&gt;oper2 -->
<g id="edge6" class="edge">
<title>value29&#45;&gt;oper2</title>
<path fill="none" stroke="darkmagenta" stroke-dasharray="5,2" d="M334.98,-179.22C357.59,-183.39 382.31,-187.94 402.04,-191.57"/>
<polygon fill="darkmagenta" stroke="darkmagenta" points="401.36,-195.01 411.83,-193.38 402.63,-188.12 401.36,-195.01"/>
</g>
<!-- value30 -->
<g id="node5" class="node">
<title>value30</title>
<path fill="red" stroke="black" d="M603.25,-57.5C603.25,-57.5 708,-57.5 708,-57.5 714,-57.5 720,-63.5 720,-69.5 720,-69.5 720,-81.5 720,-81.5 720,-87.5 714,-93.5 708,-93.5 708,-93.5 603.25,-93.5 603.25,-93.5 597.25,-93.5 591.25,-87.5 591.25,-81.5 591.25,-81.5 591.25,-69.5 591.25,-69.5 591.25,-63.5 597.25,-57.5 603.25,-57.5"/>
<text text-anchor="middle" x="619.5" y="-71.2" font-family="Times,serif" font-size="14.00">id: 30</text>
<polyline fill="none" stroke="black" points="647.75,-58.25 647.75,-93.5"/>
<text text-anchor="middle" x="683.88" y="-71.2" font-family="Times,serif" font-size="14.00">value: 3</text>
</g>
<!-- value31 -->
<g id="node6" class="node">
<title>value31</title>
<path fill="red" stroke="black" d="M863.25,-57.5C863.25,-57.5 968,-57.5 968,-57.5 974,-57.5 980,-63.5 980,-69.5 980,-69.5 980,-81.5 980,-81.5 980,-87.5 974,-93.5 968,-93.5 968,-93.5 863.25,-93.5 863.25,-93.5 857.25,-93.5 851.25,-87.5 851.25,-81.5 851.25,-81.5 851.25,-69.5 851.25,-69.5 851.25,-63.5 857.25,-57.5 863.25,-57.5"/>
<text text-anchor="middle" x="879.5" y="-71.2" font-family="Times,serif" font-size="14.00">id: 31</text>
<polyline fill="none" stroke="black" points="907.75,-58.25 907.75,-93.5"/>
<text text-anchor="middle" x="943.88" y="-71.2" font-family="Times,serif" font-size="14.00">value: 3</text>
</g>
<!-- value30&#45;&gt;value31 -->
<g id="edge3" class="edge">
<title>value30&#45;&gt;value31</title>
<path fill="none" stroke="red" stroke-dasharray="5,2" d="M720.4,-75.5C756.51,-75.5 801.87,-75.5 839.67,-75.5"/>
<polygon fill="red" stroke="red" points="839.62,-79 849.62,-75.5 839.62,-72 839.62,-79"/>
<text text-anchor="middle" x="785.62" y="-79.45" font-family="Times,serif" font-size="14.00">CTOR</text>
</g>
<!-- oper3 -->
<g id="node14" class="node">
<title>oper3</title>
<path fill="darkblue" stroke="black" d="M1116.38,-59.5C1116.38,-59.5 1146.38,-59.5 1146.38,-59.5 1152.38,-59.5 1158.38,-65.5 1158.38,-71.5 1158.38,-71.5 1158.38,-83.5 1158.38,-83.5 1158.38,-89.5 1152.38,-95.5 1146.38,-95.5 1146.38,-95.5 1116.38,-95.5 1116.38,-95.5 1110.38,-95.5 1104.38,-89.5 1104.38,-83.5 1104.38,-83.5 1104.38,-71.5 1104.38,-71.5 1104.38,-65.5 1110.38,-59.5 1116.38,-59.5"/>
<text text-anchor="middle" x="1131.38" y="-73.2" font-family="Times,serif" font-size="14.00">+</text>
</g>
<!-- value31&#45;&gt;oper3 -->
<g id="edge12" class="edge">
<title>value31&#45;&gt;oper3</title>
<path fill="none" stroke="darkblue" stroke-dasharray="5,2" d="M980.47,-76.1C1017.12,-76.44 1061.88,-76.86 1092.89,-77.15"/>
<polygon fill="darkblue" stroke="darkblue" points="1092.52,-80.65 1102.55,-77.24 1092.58,-73.65 1092.52,-80.65"/>
</g>
<!-- value32 -->
<g id="node7" class="node">
<title>value32</title>
<path fill="red" stroke="black" d="M383.75,-125.5C383.75,-125.5 497.5,-125.5 497.5,-125.5 503.5,-125.5 509.5,-131.5 509.5,-137.5 509.5,-137.5 509.5,-149.5 509.5,-149.5 509.5,-155.5 503.5,-161.5 497.5,-161.5 497.5,-161.5 383.75,-161.5 383.75,-161.5 377.75,-161.5 371.75,-155.5 371.75,-149.5 371.75,-149.5 371.75,-137.5 371.75,-137.5 371.75,-131.5 377.75,-125.5 383.75,-125.5"/>
<text text-anchor="middle" x="400" y="-139.2" font-family="Times,serif" font-size="14.00">id: 32</text>
<polyline fill="none" stroke="black" points="428.25,-126.25 428.25,-161.5"/>
<text text-anchor="middle" x="468.88" y="-139.2" font-family="Times,serif" font-size="14.00">value: 12</text>
</g>
<!-- value33 -->
<g id="node8" class="node">
<title>value33</title>
<path fill="red" stroke="black" d="M598.75,-147.5C598.75,-147.5 712.5,-147.5 712.5,-147.5 718.5,-147.5 724.5,-153.5 724.5,-159.5 724.5,-159.5 724.5,-171.5 724.5,-171.5 724.5,-177.5 718.5,-183.5 712.5,-183.5 712.5,-183.5 598.75,-183.5 598.75,-183.5 592.75,-183.5 586.75,-177.5 586.75,-171.5 586.75,-171.5 586.75,-159.5 586.75,-159.5 586.75,-153.5 592.75,-147.5 598.75,-147.5"/>
<text text-anchor="middle" x="615" y="-161.2" font-family="Times,serif" font-size="14.00">id: 33</text>
<polyline fill="none" stroke="black" points="643.25,-148.25 643.25,-183.5"/>
<text text-anchor="middle" x="683.88" y="-161.2" font-family="Times,serif" font-size="14.00">value: 12</text>
</g>
<!-- value32&#45;&gt;value33 -->
<g id="edge4" class="edge">
<title>value32&#45;&gt;value33</title>
<path fill="none" stroke="red" stroke-dasharray="5,2" d="M509.94,-149.48C528.99,-151.24 549.68,-153.23 568.75,-155.25 570.93,-155.48 573.15,-155.72 575.38,-155.96"/>
<polygon fill="red" stroke="red" points="574.84,-159.42 585.17,-157.05 575.62,-152.47 574.84,-159.42"/>
<text text-anchor="middle" x="548.12" y="-158.45" font-family="Times,serif" font-size="14.00">CTOR</text>
</g>
<!-- value35 -->
<g id="node10" class="node">
<title>value35</title>
<path fill="red" stroke="black" d="M858.75,-113.5C858.75,-113.5 972.5,-113.5 972.5,-113.5 978.5,-113.5 984.5,-119.5 984.5,-125.5 984.5,-125.5 984.5,-137.5 984.5,-137.5 984.5,-143.5 978.5,-149.5 972.5,-149.5 972.5,-149.5 858.75,-149.5 858.75,-149.5 852.75,-149.5 846.75,-143.5 846.75,-137.5 846.75,-137.5 846.75,-125.5 846.75,-125.5 846.75,-119.5 852.75,-113.5 858.75,-113.5"/>
<text text-anchor="middle" x="875" y="-127.2" font-family="Times,serif" font-size="14.00">id: 35</text>
<polyline fill="none" stroke="black" points="903.25,-114.25 903.25,-149.5"/>
<text text-anchor="middle" x="943.88" y="-127.2" font-family="Times,serif" font-size="14.00">value: 12</text>
</g>
<!-- value33&#45;&gt;value35 -->
<g id="edge8" class="edge">
<title>value33&#45;&gt;value35</title>
<path fill="none" stroke="red" stroke-dasharray="5,2" d="M724.55,-153.91C730.61,-152.97 736.66,-152.07 742.5,-151.25 772.61,-147.03 805.78,-143.06 834.89,-139.8"/>
<polygon fill="red" stroke="red" points="835.2,-143.29 844.75,-138.71 834.43,-136.33 835.2,-143.29"/>
<text text-anchor="middle" x="785.62" y="-154.45" font-family="Times,serif" font-size="14.00">COPY CTOR</text>
</g>
<!-- value4294967263 -->
<g id="node11" class="node">
<title>value4294967263</title>
<path fill="red" stroke="black" d="M863.25,-168.5C863.25,-168.5 968,-168.5 968,-168.5 974,-168.5 980,-174.5 980,-180.5 980,-180.5 980,-192.5 980,-192.5 980,-198.5 974,-204.5 968,-204.5 968,-204.5 863.25,-204.5 863.25,-204.5 857.25,-204.5 851.25,-198.5 851.25,-192.5 851.25,-192.5 851.25,-180.5 851.25,-180.5 851.25,-174.5 857.25,-168.5 863.25,-168.5"/>
<text text-anchor="middle" x="879.5" y="-182.2" font-family="Times,serif" font-size="14.00">id: 33</text>
<polyline fill="none" stroke="black" points="907.75,-169.25 907.75,-204.5"/>
<text text-anchor="middle" x="943.88" y="-182.2" font-family="Times,serif" font-size="14.00">value: 0</text>
</g>
<!-- value33&#45;&gt;value4294967263 -->
<g id="edge9" class="edge">
<title>value33&#45;&gt;value4294967263</title>
<path fill="none" stroke="red" stroke-dasharray="5,2" d="M724.75,-171.04C760.2,-173.93 803.6,-177.46 839.96,-180.42"/>
<polygon fill="red" stroke="red" points="839.24,-183.88 849.49,-181.2 839.81,-176.9 839.24,-183.88"/>
<text text-anchor="middle" x="785.62" y="-182.45" font-family="Times,serif" font-size="14.00">DTOR</text>
</g>
<!-- oper2&#45;&gt;value33 -->
<g id="edge7" class="edge">
<title>oper2&#45;&gt;value33</title>
<path fill="none" stroke="darkmagenta" stroke-dasharray="5,2" d="M467.74,-194.45C494.54,-190.3 537.56,-183.64 575.57,-177.75"/>
<polygon fill="darkmagenta" stroke="darkmagenta" points="575.82,-181.25 585.17,-176.26 574.75,-174.33 575.82,-181.25"/>
</g>
<!-- value35&#45;&gt;oper3 -->
<g id="edge11" class="edge">
<title>value35&#45;&gt;oper3</title>
<path fill="none" stroke="darkblue" stroke-dasharray="5,2" d="M984.84,-114.27C1020.65,-105.22 1063.16,-94.48 1092.95,-86.95"/>
<polygon fill="darkblue" stroke="darkblue" points="1093.8,-90.35 1102.63,-84.51 1092.08,-83.56 1093.8,-90.35"/>
</g>
<!-- value4294967261 -->
<g id="node17" class="node">
<title>value4294967261</title>
<path fill="red" stroke="black" d="M1079,-115.5C1079,-115.5 1183.75,-115.5 1183.75,-115.5 1189.75,-115.5 1195.75,-121.5 1195.75,-127.5 1195.75,-127.5 1195.75,-139.5 1195.75,-139.5 1195.75,-145.5 1189.75,-151.5 1183.75,-151.5 1183.75,-151.5 1079,-151.5 1079,-151.5 1073,-151.5 1067,-145.5 1067,-139.5 1067,-139.5 1067,-127.5 1067,-127.5 1067,-121.5 1073,-115.5 1079,-115.5"/>
<text text-anchor="middle" x="1095.25" y="-129.2" font-family="Times,serif" font-size="14.00">id: 35</text>
<polyline fill="none" stroke="black" points="1123.5,-116.25 1123.5,-151.5"/>
<text text-anchor="middle" x="1159.62" y="-129.2" font-family="Times,serif" font-size="14.00">value: 0</text>
</g>
<!-- value35&#45;&gt;value4294967261 -->
<g id="edge16" class="edge">
<title>value35&#45;&gt;value4294967261</title>
<path fill="none" stroke="red" stroke-dasharray="5,2" d="M984.84,-132.14C1007.32,-132.35 1032.42,-132.58 1055.37,-132.8"/>
<polygon fill="red" stroke="red" points="1055.25,-136.3 1065.28,-132.89 1055.32,-129.3 1055.25,-136.3"/>
<text text-anchor="middle" x="1023.5" y="-137.45" font-family="Times,serif" font-size="14.00">DTOR</text>
</g>
<!-- value36 -->
<g id="node12" class="node">
<title>value36</title>
<path fill="red" stroke="black" d="M1074.5,-4.5C1074.5,-4.5 1188.25,-4.5 1188.25,-4.5 1194.25,-4.5 1200.25,-10.5 1200.25,-16.5 1200.25,-16.5 1200.25,-28.5 1200.25,-28.5 1200.25,-34.5 1194.25,-40.5 1188.25,-40.5 1188.25,-40.5 1074.5,-40.5 1074.5,-40.5 1068.5,-40.5 1062.5,-34.5 1062.5,-28.5 1062.5,-28.5 1062.5,-16.5 1062.5,-16.5 1062.5,-10.5 1068.5,-4.5 1074.5,-4.5"/>
<text text-anchor="middle" x="1090.75" y="-18.2" font-family="Times,serif" font-size="14.00">id: 36</text>
<polyline fill="none" stroke="black" points="1119,-5.25 1119,-40.5"/>
<text text-anchor="middle" x="1159.62" y="-18.2" font-family="Times,serif" font-size="14.00">value: 15</text>
</g>
<!-- value37 -->
<g id="node13" class="node">
<title>value37</title>
<path fill="red" stroke="black" d="M1289.5,-20.5C1289.5,-20.5 1403.25,-20.5 1403.25,-20.5 1409.25,-20.5 1415.25,-26.5 1415.25,-32.5 1415.25,-32.5 1415.25,-44.5 1415.25,-44.5 1415.25,-50.5 1409.25,-56.5 1403.25,-56.5 1403.25,-56.5 1289.5,-56.5 1289.5,-56.5 1283.5,-56.5 1277.5,-50.5 1277.5,-44.5 1277.5,-44.5 1277.5,-32.5 1277.5,-32.5 1277.5,-26.5 1283.5,-20.5 1289.5,-20.5"/>
<text text-anchor="middle" x="1305.75" y="-34.2" font-family="Times,serif" font-size="14.00">id: 37</text>
<polyline fill="none" stroke="black" points="1334,-21.25 1334,-56.5"/>
<text text-anchor="middle" x="1374.62" y="-34.2" font-family="Times,serif" font-size="14.00">value: 15</text>
</g>
<!-- value36&#45;&gt;value37 -->
<g id="edge10" class="edge">
<title>value36&#45;&gt;value37</title>
<path fill="none" stroke="red" stroke-dasharray="5,2" d="M1200.65,-27.63C1221.38,-29.19 1244.34,-30.91 1265.75,-32.52"/>
<polygon fill="red" stroke="red" points="1265.38,-36 1275.61,-33.26 1265.9,-29.02 1265.38,-36"/>
<text text-anchor="middle" x="1238.88" y="-36.45" font-family="Times,serif" font-size="14.00">CTOR</text>
</g>
<!-- value39 -->
<g id="node15" class="node">
<title>value39</title>
<path fill="red" stroke="black" d="M1549.5,-55.5C1549.5,-55.5 1663.25,-55.5 1663.25,-55.5 1669.25,-55.5 1675.25,-61.5 1675.25,-67.5 1675.25,-67.5 1675.25,-79.5 1675.25,-79.5 1675.25,-85.5 1669.25,-91.5 1663.25,-91.5 1663.25,-91.5 1549.5,-91.5 1549.5,-91.5 1543.5,-91.5 1537.5,-85.5 1537.5,-79.5 1537.5,-79.5 1537.5,-67.5 1537.5,-67.5 1537.5,-61.5 1543.5,-55.5 1549.5,-55.5"/>
<text text-anchor="middle" x="1565.75" y="-69.2" font-family="Times,serif" font-size="14.00">id: 39</text>
<polyline fill="none" stroke="black" points="1594,-56.25 1594,-91.5"/>
<text text-anchor="middle" x="1634.62" y="-69.2" font-family="Times,serif" font-size="14.00">value: 15</text>
</g>
<!-- value37&#45;&gt;value39 -->
<g id="edge14" class="edge">
<title>value37&#45;&gt;value39</title>
<path fill="none" stroke="red" stroke-dasharray="5,2" d="M1415.5,-47.74C1449.45,-52.35 1490.69,-57.94 1526.06,-62.74"/>
<polygon fill="red" stroke="red" points="1525.44,-66.19 1535.82,-64.06 1526.38,-59.25 1525.44,-66.19"/>
<text text-anchor="middle" x="1476.38" y="-65.45" font-family="Times,serif" font-size="14.00">COPY CTOR</text>
</g>
<!-- value4294967259 -->
<g id="node16" class="node">
<title>value4294967259</title>
<path fill="red" stroke="black" d="M1554,-0.5C1554,-0.5 1658.75,-0.5 1658.75,-0.5 1664.75,-0.5 1670.75,-6.5 1670.75,-12.5 1670.75,-12.5 1670.75,-24.5 1670.75,-24.5 1670.75,-30.5 1664.75,-36.5 1658.75,-36.5 1658.75,-36.5 1554,-36.5 1554,-36.5 1548,-36.5 1542,-30.5 1542,-24.5 1542,-24.5 1542,-12.5 1542,-12.5 1542,-6.5 1548,-0.5 1554,-0.5"/>
<text text-anchor="middle" x="1570.25" y="-14.2" font-family="Times,serif" font-size="14.00">id: 37</text>
<polyline fill="none" stroke="black" points="1598.5,-1.25 1598.5,-36.5"/>
<text text-anchor="middle" x="1634.62" y="-14.2" font-family="Times,serif" font-size="14.00">value: 0</text>
</g>
<!-- value37&#45;&gt;value4294967259 -->
<g id="edge15" class="edge">
<title>value37&#45;&gt;value4294967259</title>
<path fill="none" stroke="red" stroke-dasharray="5,2" d="M1415.74,-28.14C1421.65,-27.43 1427.55,-26.78 1433.25,-26.25 1464.94,-23.28 1500.02,-21.44 1530.2,-20.31"/>
<polygon fill="red" stroke="red" points="1530.13,-23.81 1540,-19.96 1529.88,-16.82 1530.13,-23.81"/>
<text text-anchor="middle" x="1476.38" y="-30.45" font-family="Times,serif" font-size="14.00">DTOR</text>
</g>
<!-- oper3&#45;&gt;value37 -->
<g id="edge13" class="edge">
<title>oper3&#45;&gt;value37</title>
<path fill="none" stroke="darkblue" stroke-dasharray="5,2" d="M1158.49,-72.72C1185.29,-67.81 1228.31,-59.93 1266.32,-52.97"/>
<polygon fill="darkblue" stroke="darkblue" points="1266.72,-56.46 1275.92,-51.22 1265.46,-49.57 1266.72,-56.46"/>
</g>
<!-- value4294967257 -->
<g id="node18" class="node">
<title>value4294967257</title>
<path fill="red" stroke="black" d="M1765.25,-55.5C1765.25,-55.5 1870,-55.5 1870,-55.5 1876,-55.5 1882,-61.5 1882,-67.5 1882,-67.5 1882,-79.5 1882,-79.5 1882,-85.5 1876,-91.5 1870,-91.5 1870,-91.5 1765.25,-91.5 1765.25,-91.5 1759.25,-91.5 1753.25,-85.5 1753.25,-79.5 1753.25,-79.5 1753.25,-67.5 1753.25,-67.5 1753.25,-61.5 1759.25,-55.5 1765.25,-55.5"/>
<text text-anchor="middle" x="1781.5" y="-69.2" font-family="Times,serif" font-size="14.00">id: 39</text>
<polyline fill="none" stroke="black" points="1809.75,-56.25 1809.75,-91.5"/>
<text text-anchor="middle" x="1845.88" y="-69.2" font-family="Times,serif" font-size="14.00">value: 0</text>
</g>
<!-- value39&#45;&gt;value4294967257 -->
<g id="edge17" class="edge">
<title>value39&#45;&gt;value4294967257</title>
<path fill="none" stroke="red" stroke-dasharray="5,2" d="M1675.6,-73.5C1696.63,-73.5 1719.9,-73.5 1741.37,-73.5"/>
<polygon fill="red" stroke="red" points="1741.24,-77 1751.24,-73.5 1741.24,-70 1741.24,-77"/>
<text text-anchor="middle" x="1714.25" y="-77.45" font-family="Times,serif" font-size="14.00">DTOR</text>
</g>
</g>
</svg>
