<?xml version="1.0" encoding="UTF-8" standalone="no"?>
<!DOCTYPE svg PUBLIC "-//W3C//DTD SVG 1.1//EN"
 "http://www.w3.org/Graphics/SVG/1.1/DTD/svg11.dtd">
<!-- Generated by graphviz version 9.0.0 (0)
 -->
<!-- Title: structs Pages: 1 -->
<svg width="1258pt" height="205pt"
 viewBox="0.00 0.00 1258.25 205.00" xmlns="http://www.w3.org/2000/svg" xmlns:xlink="http://www.w3.org/1999/xlink">
<g id="graph0" class="graph" transform="scale(1 1) rotate(0) translate(4 201)">
<title>structs</title>
<polygon fill="white" stroke="none" points="-4,4 -4,-201 1254.25,-201 1254.25,4 -4,4"/>
<!-- label10 -->
<g id="node1" class="node">
<title>label10</title>
<path fill="red" stroke="black" d="M12,-13.5C12,-13.5 116.75,-13.5 116.75,-13.5 122.75,-13.5 128.75,-19.5 128.75,-25.5 128.75,-25.5 128.75,-37.5 128.75,-37.5 128.75,-43.5 122.75,-49.5 116.75,-49.5 116.75,-49.5 12,-49.5 12,-49.5 6,-49.5 0,-43.5 0,-37.5 0,-37.5 0,-25.5 0,-25.5 0,-19.5 6,-13.5 12,-13.5"/>
<text text-anchor="middle" x="28.25" y="-27.2" font-family="Times,serif" font-size="14.00">id: 10</text>
<polyline fill="none" stroke="black" points="56.5,-14.25 56.5,-49.5"/>
<text text-anchor="middle" x="92.62" y="-27.2" font-family="Times,serif" font-size="14.00">value: 9</text>
</g>
<!-- label11 -->
<g id="node2" class="node">
<title>label11</title>
<path fill="red" stroke="black" d="M218,-13.5C218,-13.5 322.75,-13.5 322.75,-13.5 328.75,-13.5 334.75,-19.5 334.75,-25.5 334.75,-25.5 334.75,-37.5 334.75,-37.5 334.75,-43.5 328.75,-49.5 322.75,-49.5 322.75,-49.5 218,-49.5 218,-49.5 212,-49.5 206,-43.5 206,-37.5 206,-37.5 206,-25.5 206,-25.5 206,-19.5 212,-13.5 218,-13.5"/>
<text text-anchor="middle" x="234.25" y="-27.2" font-family="Times,serif" font-size="14.00">id: 11</text>
<polyline fill="none" stroke="black" points="262.5,-14.25 262.5,-49.5"/>
<text text-anchor="middle" x="298.62" y="-27.2" font-family="Times,serif" font-size="14.00">value: 9</text>
</g>
<!-- label10&#45;&gt;label11 -->
<g id="edge1" class="edge">
<title>label10&#45;&gt;label11</title>
<path fill="none" stroke="black" stroke-dasharray="5,2" d="M129.08,-31.5C153.52,-31.5 181.38,-31.5 205.8,-31.5"/>
<text text-anchor="middle" x="167.38" y="-35.45" font-family="Times,serif" font-size="14.00">CTOR</text>
</g>
<!-- label17 -->
<g id="node6" class="node">
<title>label17</title>
<path fill="red" stroke="black" d="M469,-13.5C469,-13.5 573.75,-13.5 573.75,-13.5 579.75,-13.5 585.75,-19.5 585.75,-25.5 585.75,-25.5 585.75,-37.5 585.75,-37.5 585.75,-43.5 579.75,-49.5 573.75,-49.5 573.75,-49.5 469,-49.5 469,-49.5 463,-49.5 457,-43.5 457,-37.5 457,-37.5 457,-25.5 457,-25.5 457,-19.5 463,-13.5 469,-13.5"/>
<text text-anchor="middle" x="485.25" y="-27.2" font-family="Times,serif" font-size="14.00">id: 17</text>
<polyline fill="none" stroke="black" points="513.5,-14.25 513.5,-49.5"/>
<text text-anchor="middle" x="549.62" y="-27.2" font-family="Times,serif" font-size="14.00">value: 9</text>
</g>
<!-- label11&#45;&gt;label17 -->
<g id="edge4" class="edge">
<title>label11&#45;&gt;label17</title>
<path fill="none" stroke="black" stroke-dasharray="5,2" d="M335.18,-31.5C372.5,-31.5 419.45,-31.5 456.74,-31.5"/>
<text text-anchor="middle" x="395.88" y="-35.45" font-family="Times,serif" font-size="14.00">COPY CTOR</text>
</g>
<!-- label12 -->
<g id="node3" class="node">
<title>label12</title>
<path fill="red" stroke="black" d="M12,-147.5C12,-147.5 116.75,-147.5 116.75,-147.5 122.75,-147.5 128.75,-153.5 128.75,-159.5 128.75,-159.5 128.75,-171.5 128.75,-171.5 128.75,-177.5 122.75,-183.5 116.75,-183.5 116.75,-183.5 12,-183.5 12,-183.5 6,-183.5 0,-177.5 0,-171.5 0,-171.5 0,-159.5 0,-159.5 0,-153.5 6,-147.5 12,-147.5"/>
<text text-anchor="middle" x="28.25" y="-161.2" font-family="Times,serif" font-size="14.00">id: 12</text>
<polyline fill="none" stroke="black" points="56.5,-148.25 56.5,-183.5"/>
<text text-anchor="middle" x="92.62" y="-161.2" font-family="Times,serif" font-size="14.00">value: 0</text>
</g>
<!-- label13 -->
<g id="node4" class="node">
<title>label13</title>
<path fill="red" stroke="black" d="M218,-147.5C218,-147.5 322.75,-147.5 322.75,-147.5 328.75,-147.5 334.75,-153.5 334.75,-159.5 334.75,-159.5 334.75,-171.5 334.75,-171.5 334.75,-177.5 328.75,-183.5 322.75,-183.5 322.75,-183.5 218,-183.5 218,-183.5 212,-183.5 206,-177.5 206,-171.5 206,-171.5 206,-159.5 206,-159.5 206,-153.5 212,-147.5 218,-147.5"/>
<text text-anchor="middle" x="234.25" y="-161.2" font-family="Times,serif" font-size="14.00">id: 13</text>
<polyline fill="none" stroke="black" points="262.5,-148.25 262.5,-183.5"/>
<text text-anchor="middle" x="298.62" y="-161.2" font-family="Times,serif" font-size="14.00">value: 0</text>
</g>
<!-- label12&#45;&gt;label13 -->
<g id="edge2" class="edge">
<title>label12&#45;&gt;label13</title>
<path fill="none" stroke="black" stroke-dasharray="5,2" d="M129.08,-165.5C153.52,-165.5 181.38,-165.5 205.8,-165.5"/>
<text text-anchor="middle" x="167.38" y="-169.45" font-family="Times,serif" font-size="14.00">CTOR</text>
</g>
<!-- label15 -->
<g id="node5" class="node">
<title>label15</title>
<path fill="red" stroke="black" d="M469,-147.5C469,-147.5 573.75,-147.5 573.75,-147.5 579.75,-147.5 585.75,-153.5 585.75,-159.5 585.75,-159.5 585.75,-171.5 585.75,-171.5 585.75,-177.5 579.75,-183.5 573.75,-183.5 573.75,-183.5 469,-183.5 469,-183.5 463,-183.5 457,-177.5 457,-171.5 457,-171.5 457,-159.5 457,-159.5 457,-153.5 463,-147.5 469,-147.5"/>
<text text-anchor="middle" x="485.25" y="-161.2" font-family="Times,serif" font-size="14.00">id: 15</text>
<polyline fill="none" stroke="black" points="513.5,-148.25 513.5,-183.5"/>
<text text-anchor="middle" x="549.62" y="-161.2" font-family="Times,serif" font-size="14.00">value: 0</text>
</g>
<!-- label13&#45;&gt;label15 -->
<g id="edge3" class="edge">
<title>label13&#45;&gt;label15</title>
<path fill="none" stroke="black" stroke-dasharray="5,2" d="M335.18,-165.5C372.5,-165.5 419.45,-165.5 456.74,-165.5"/>
<text text-anchor="middle" x="395.88" y="-169.45" font-family="Times,serif" font-size="14.00">COPY CTOR</text>
</g>
<!-- label19 -->
<g id="node8" class="node">
<title>label19</title>
<path fill="red" stroke="black" d="M675.75,-80.5C675.75,-80.5 780.5,-80.5 780.5,-80.5 786.5,-80.5 792.5,-86.5 792.5,-92.5 792.5,-92.5 792.5,-104.5 792.5,-104.5 792.5,-110.5 786.5,-116.5 780.5,-116.5 780.5,-116.5 675.75,-116.5 675.75,-116.5 669.75,-116.5 663.75,-110.5 663.75,-104.5 663.75,-104.5 663.75,-92.5 663.75,-92.5 663.75,-86.5 669.75,-80.5 675.75,-80.5"/>
<text text-anchor="middle" x="692" y="-94.2" font-family="Times,serif" font-size="14.00">id: 19</text>
<polyline fill="none" stroke="black" points="720.25,-81.25 720.25,-116.5"/>
<text text-anchor="middle" x="756.38" y="-94.2" font-family="Times,serif" font-size="14.00">value: 9</text>
</g>
<!-- label15&#45;&gt;label19 -->
<g id="edge7" class="edge">
<title>label15&#45;&gt;label19</title>
<path fill="none" stroke="black" stroke-dasharray="5,2" d="M578.87,-147.01C607.51,-137.64 642.2,-126.29 670.82,-116.93"/>
<text text-anchor="middle" x="624.75" y="-141.45" font-family="Times,serif" font-size="14.00">+</text>
</g>
<!-- label4294967281 -->
<g id="node13" class="node">
<title>label4294967281</title>
<path fill="red" stroke="black" d="M675.75,-160.5C675.75,-160.5 780.5,-160.5 780.5,-160.5 786.5,-160.5 792.5,-166.5 792.5,-172.5 792.5,-172.5 792.5,-184.5 792.5,-184.5 792.5,-190.5 786.5,-196.5 780.5,-196.5 780.5,-196.5 675.75,-196.5 675.75,-196.5 669.75,-196.5 663.75,-190.5 663.75,-184.5 663.75,-184.5 663.75,-172.5 663.75,-172.5 663.75,-166.5 669.75,-160.5 675.75,-160.5"/>
<text text-anchor="middle" x="692" y="-174.2" font-family="Times,serif" font-size="14.00">id: 15</text>
<polyline fill="none" stroke="black" points="720.25,-161.25 720.25,-196.5"/>
<text text-anchor="middle" x="756.38" y="-174.2" font-family="Times,serif" font-size="14.00">value: 0</text>
</g>
<!-- label15&#45;&gt;label4294967281 -->
<g id="edge12" class="edge">
<title>label15&#45;&gt;label4294967281</title>
<path fill="none" stroke="black" stroke-dasharray="5,2" d="M586.04,-169.54C610.69,-171.11 638.85,-172.9 663.5,-174.46"/>
<text text-anchor="middle" x="624.75" y="-176.45" font-family="Times,serif" font-size="14.00">DTOR</text>
</g>
<!-- label17&#45;&gt;label19 -->
<g id="edge6" class="edge">
<title>label17&#45;&gt;label19</title>
<path fill="none" stroke="black" stroke-dasharray="5,2" d="M578.87,-49.99C607.51,-59.36 642.2,-70.71 670.82,-80.07"/>
<text text-anchor="middle" x="624.75" y="-74.45" font-family="Times,serif" font-size="14.00">+</text>
</g>
<!-- label4294967279 -->
<g id="node12" class="node">
<title>label4294967279</title>
<path fill="red" stroke="black" d="M675.75,-0.5C675.75,-0.5 780.5,-0.5 780.5,-0.5 786.5,-0.5 792.5,-6.5 792.5,-12.5 792.5,-12.5 792.5,-24.5 792.5,-24.5 792.5,-30.5 786.5,-36.5 780.5,-36.5 780.5,-36.5 675.75,-36.5 675.75,-36.5 669.75,-36.5 663.75,-30.5 663.75,-24.5 663.75,-24.5 663.75,-12.5 663.75,-12.5 663.75,-6.5 669.75,-0.5 675.75,-0.5"/>
<text text-anchor="middle" x="692" y="-14.2" font-family="Times,serif" font-size="14.00">id: 17</text>
<polyline fill="none" stroke="black" points="720.25,-1.25 720.25,-36.5"/>
<text text-anchor="middle" x="756.38" y="-14.2" font-family="Times,serif" font-size="14.00">value: 0</text>
</g>
<!-- label17&#45;&gt;label4294967279 -->
<g id="edge11" class="edge">
<title>label17&#45;&gt;label4294967279</title>
<path fill="none" stroke="black" stroke-dasharray="5,2" d="M586.24,-21C592.15,-20.3 598.05,-19.69 603.75,-19.25 623.08,-17.74 644.16,-17.21 663.34,-17.15"/>
<text text-anchor="middle" x="624.75" y="-23.45" font-family="Times,serif" font-size="14.00">DTOR</text>
</g>
<!-- label18 -->
<g id="node7" class="node">
<title>label18</title>
<path fill="red" stroke="black" d="M469,-80.5C469,-80.5 573.75,-80.5 573.75,-80.5 579.75,-80.5 585.75,-86.5 585.75,-92.5 585.75,-92.5 585.75,-104.5 585.75,-104.5 585.75,-110.5 579.75,-116.5 573.75,-116.5 573.75,-116.5 469,-116.5 469,-116.5 463,-116.5 457,-110.5 457,-104.5 457,-104.5 457,-92.5 457,-92.5 457,-86.5 463,-80.5 469,-80.5"/>
<text text-anchor="middle" x="485.25" y="-94.2" font-family="Times,serif" font-size="14.00">id: 18</text>
<polyline fill="none" stroke="black" points="513.5,-81.25 513.5,-116.5"/>
<text text-anchor="middle" x="549.62" y="-94.2" font-family="Times,serif" font-size="14.00">value: 9</text>
</g>
<!-- label18&#45;&gt;label19 -->
<g id="edge5" class="edge">
<title>label18&#45;&gt;label19</title>
<path fill="none" stroke="black" stroke-dasharray="5,2" d="M586.04,-98.5C610.69,-98.5 638.85,-98.5 663.5,-98.5"/>
<text text-anchor="middle" x="624.75" y="-102.45" font-family="Times,serif" font-size="14.00">CTOR</text>
</g>
<!-- label21 -->
<g id="node9" class="node">
<title>label21</title>
<path fill="red" stroke="black" d="M926.75,-111.5C926.75,-111.5 1031.5,-111.5 1031.5,-111.5 1037.5,-111.5 1043.5,-117.5 1043.5,-123.5 1043.5,-123.5 1043.5,-135.5 1043.5,-135.5 1043.5,-141.5 1037.5,-147.5 1031.5,-147.5 1031.5,-147.5 926.75,-147.5 926.75,-147.5 920.75,-147.5 914.75,-141.5 914.75,-135.5 914.75,-135.5 914.75,-123.5 914.75,-123.5 914.75,-117.5 920.75,-111.5 926.75,-111.5"/>
<text text-anchor="middle" x="943" y="-125.2" font-family="Times,serif" font-size="14.00">id: 21</text>
<polyline fill="none" stroke="black" points="971.25,-112.25 971.25,-147.5"/>
<text text-anchor="middle" x="1007.38" y="-125.2" font-family="Times,serif" font-size="14.00">value: 9</text>
</g>
<!-- label19&#45;&gt;label21 -->
<g id="edge8" class="edge">
<title>label19&#45;&gt;label21</title>
<path fill="none" stroke="black" stroke-dasharray="5,2" d="M792.93,-106.44C830.25,-111.09 877.2,-116.93 914.49,-121.58"/>
<text text-anchor="middle" x="853.62" y="-122.45" font-family="Times,serif" font-size="14.00">COPY CTOR</text>
</g>
<!-- label4294967277 -->
<g id="node10" class="node">
<title>label4294967277</title>
<path fill="red" stroke="black" d="M926.75,-56.5C926.75,-56.5 1031.5,-56.5 1031.5,-56.5 1037.5,-56.5 1043.5,-62.5 1043.5,-68.5 1043.5,-68.5 1043.5,-80.5 1043.5,-80.5 1043.5,-86.5 1037.5,-92.5 1031.5,-92.5 1031.5,-92.5 926.75,-92.5 926.75,-92.5 920.75,-92.5 914.75,-86.5 914.75,-80.5 914.75,-80.5 914.75,-68.5 914.75,-68.5 914.75,-62.5 920.75,-56.5 926.75,-56.5"/>
<text text-anchor="middle" x="943" y="-70.2" font-family="Times,serif" font-size="14.00">id: 19</text>
<polyline fill="none" stroke="black" points="971.25,-57.25 971.25,-92.5"/>
<text text-anchor="middle" x="1007.38" y="-70.2" font-family="Times,serif" font-size="14.00">value: 0</text>
</g>
<!-- label19&#45;&gt;label4294967277 -->
<g id="edge9" class="edge">
<title>label19&#45;&gt;label4294967277</title>
<path fill="none" stroke="black" stroke-dasharray="5,2" d="M792.94,-84.81C798.86,-83.83 804.78,-82.95 810.5,-82.25 844.62,-78.08 882.9,-76.11 914.26,-75.19"/>
<text text-anchor="middle" x="853.62" y="-85.45" font-family="Times,serif" font-size="14.00">DTOR</text>
</g>
<!-- label4294967275 -->
<g id="node11" class="node">
<title>label4294967275</title>
<path fill="red" stroke="black" d="M1133.5,-111.5C1133.5,-111.5 1238.25,-111.5 1238.25,-111.5 1244.25,-111.5 1250.25,-117.5 1250.25,-123.5 1250.25,-123.5 1250.25,-135.5 1250.25,-135.5 1250.25,-141.5 1244.25,-147.5 1238.25,-147.5 1238.25,-147.5 1133.5,-147.5 1133.5,-147.5 1127.5,-147.5 1121.5,-141.5 1121.5,-135.5 1121.5,-135.5 1121.5,-123.5 1121.5,-123.5 1121.5,-117.5 1127.5,-111.5 1133.5,-111.5"/>
<text text-anchor="middle" x="1149.75" y="-125.2" font-family="Times,serif" font-size="14.00">id: 21</text>
<polyline fill="none" stroke="black" points="1178,-112.25 1178,-147.5"/>
<text text-anchor="middle" x="1214.12" y="-125.2" font-family="Times,serif" font-size="14.00">value: 0</text>
</g>
<!-- label21&#45;&gt;label4294967275 -->
<g id="edge10" class="edge">
<title>label21&#45;&gt;label4294967275</title>
<path fill="none" stroke="black" stroke-dasharray="5,2" d="M1043.79,-129.5C1068.44,-129.5 1096.6,-129.5 1121.25,-129.5"/>
<text text-anchor="middle" x="1082.5" y="-133.45" font-family="Times,serif" font-size="14.00">DTOR</text>
</g>
</g>
</svg>
